<svg xmlns="http://www.w3.org/2000/svg" xmlns:xlink="http://www.w3.org/1999/xlink" width="1080" zoomAndPan="magnify" viewBox="0 0 810 809.999993" height="1080" preserveAspectRatio="xMidYMid meet" version="1.2"><defs><clipPath id="635c42cb93"><path d="M 218.539062 110.90625 L 567 110.90625 L 567 712.476562 L 218.539062 712.476562 Z M 218.539062 110.90625 "/></clipPath></defs><g id="8ec08a404e"><g clip-rule="nonzero" clip-path="url(#635c42cb93)"><path style=" stroke:none;fill-rule:nonzero;fill:#000000;fill-opacity:1;" d="M 327.140625 2505.042969 C 329.320312 2502.234375 331.183594 2499.742188 333.058594 2496.949219 C 339.894531 2486.035156 346.125 2475.132812 352.660156 2464.230469 C 359.191406 2453.328125 366.039062 2442.113281 372.574219 2431.199219 C 375.371094 2426.839844 377.863281 2422.171875 380.667969 2417.488281 C 380.667969 2429.648438 380.355469 2441.796875 380.667969 2453.945312 C 381.902344 2501.304688 386.886719 2548.664062 395.285156 2595.089844 C 403.378906 2640.585938 415.199219 2685.136719 432.636719 2727.824219 C 441.347656 2749.628906 451.304688 2771.132812 462.8125 2791.6875 C 474.945312 2813.503906 486.148438 2830.019531 501.40625 2849.648438 C 508.242188 2858.058594 515.089844 2866.78125 522.558594 2874.574219 C 530.035156 2882.363281 539.058594 2889.527344 547.769531 2896.390625 C 550.566406 2898.566406 554.304688 2899.183594 557.414062 2897.007812 C 559.90625 2895.140625 561.457031 2890.460938 559.277344 2887.664062 C 552.128906 2878.3125 545.894531 2868.027344 538.746094 2858.6875 C 532.210938 2849.960938 525.980469 2840.921875 520.074219 2831.882812 C 507.941406 2813.191406 497.039062 2793.5625 487.394531 2773.308594 C 484.902344 2768.324219 482.726562 2763.339844 480.546875 2758.355469 C 479.617188 2756.175781 478.683594 2753.683594 477.4375 2751.503906 C 477.4375 2751.503906 476.507812 2749.628906 476.507812 2749.011719 C 475.890625 2747.453125 475.261719 2745.890625 474.644531 2744.332031 C 470.589844 2734.058594 466.550781 2723.773438 463.125 2713.488281 C 461.578125 2708.816406 460.332031 2704.144531 458.769531 2699.160156 C 459.386719 2699.160156 459.703125 2699.160156 460.332031 2698.847656 C 462.195312 2698.53125 463.753906 2698.21875 465.617188 2697.601562 C 472.464844 2695.421875 479.617188 2693.546875 486.464844 2691.683594 C 488.328125 2691.054688 490.203125 2690.4375 492.066406 2690.121094 L 497.984375 2688.875 C 500.777344 2687.945312 503.269531 2686.699219 505.449219 2684.507812 C 506.996094 2682.960938 508.242188 2681.085938 508.871094 2678.90625 C 509.804688 2676.726562 510.421875 2674.539062 510.421875 2672.359375 C 510.421875 2669.25 509.488281 2666.441406 508.242188 2663.636719 C 507.3125 2662.074219 506.066406 2660.527344 504.820312 2658.964844 C 504.515625 2658.652344 504.203125 2658.035156 503.886719 2657.71875 C 503.269531 2656.789062 502.339844 2656.160156 501.710938 2655.542969 C 498.914062 2653.351562 496.421875 2651.171875 493 2649.613281 C 489.890625 2648.050781 486.464844 2646.816406 483.039062 2646.1875 C 480.546875 2645.875 478.066406 2645.257812 475.574219 2645.257812 C 474.644531 2645.257812 473.398438 2645.257812 472.464844 2645.257812 C 469.972656 2645.257812 467.480469 2645.875 464.988281 2646.503906 C 463.125 2646.816406 461.261719 2648.0625 459.703125 2648.996094 C 459.703125 2648.996094 459.082031 2648.996094 459.082031 2649.308594 C 458.453125 2649.613281 458.152344 2650.242188 457.523438 2650.554688 C 456.277344 2651.488281 455.34375 2652.734375 454.414062 2653.664062 C 454.414062 2653.351562 455.03125 2653.046875 455.34375 2652.417969 C 454.726562 2653.046875 454.414062 2653.664062 454.097656 2653.980469 C 454.097656 2653.980469 453.796875 2653.980469 453.480469 2654.597656 C 453.480469 2654.597656 451.304688 2657.089844 450.371094 2658.652344 C 450.371094 2658.652344 449.742188 2658.652344 449.429688 2658.652344 C 448.8125 2658.652344 448.496094 2658.652344 447.878906 2658.652344 C 446.949219 2654.597656 445.703125 2650.554688 444.769531 2646.503906 C 439.472656 2624.070312 435.117188 2601.007812 431.691406 2578.257812 C 431.390625 2575.765625 431.074219 2573.273438 430.457031 2570.78125 C 430.457031 2570.480469 430.457031 2568.917969 430.144531 2567.988281 C 430.144531 2567.988281 430.144531 2568.605469 430.144531 2569.535156 C 430.144531 2567.988281 429.828125 2566.425781 429.515625 2564.863281 C 428.894531 2559.261719 428.277344 2553.648438 427.648438 2548.046875 C 426.402344 2536.199219 425.472656 2524.667969 424.539062 2512.835938 C 421.117188 2464.542969 420.800781 2416.242188 422.675781 2367.953125 C 424.539062 2314.980469 428.894531 2262.332031 432.9375 2209.359375 C 432.9375 2209.359375 432.9375 2209.042969 433.253906 2208.742188 C 433.253906 2208.742188 433.253906 2209.042969 433.253906 2209.359375 C 433.253906 2209.042969 433.253906 2208.742188 433.253906 2208.425781 C 433.253906 2208.425781 433.253906 2208.425781 433.253906 2208.113281 C 434.183594 2207.179688 434.8125 2206.25 435.746094 2205.621094 C 436.675781 2205.003906 437.609375 2204.375 438.238281 2203.757812 C 437.921875 2204.058594 437.292969 2204.375 436.992188 2204.6875 C 437.292969 2204.375 437.921875 2204.058594 438.238281 2203.757812 C 439.167969 2205.304688 439.785156 2207.179688 441.03125 2208.742188 C 442.277344 2209.988281 443.523438 2210.917969 445.074219 2212.167969 C 446.632812 2213.414062 447.878906 2214.34375 449.429688 2215.277344 C 452.550781 2217.152344 455.972656 2218.398438 459.386719 2219.644531 C 463.125 2220.890625 466.863281 2221.203125 470.589844 2221.507812 C 479.617188 2222.753906 488.957031 2221.820312 497.984375 2221.507812 C 504.203125 2220.890625 510.421875 2220.261719 516.652344 2219.015625 C 521.941406 2218.082031 526.925781 2216.21875 531.898438 2214.34375 C 534.691406 2213.097656 537.5 2211.851562 539.992188 2210.289062 C 543.101562 2208.425781 546.210938 2205.933594 549.015625 2203.757812 C 550.253906 2202.511719 551.8125 2201.265625 552.746094 2200.019531 C 554.921875 2197.523438 557.101562 2194.71875 558.660156 2191.910156 C 559.59375 2190.351562 560.523438 2188.800781 561.152344 2187.242188 C 562.386719 2184.117188 563.949219 2181.007812 564.878906 2177.585938 C 565.8125 2174.464844 566.125 2171.039062 566.441406 2167.613281 C 566.441406 2165.738281 566.441406 2163.875 566.441406 2162.316406 C 566.125 2155.453125 564.578125 2149.539062 561.457031 2143.304688 C 560.210938 2140.5 558.03125 2138.007812 555.855469 2135.515625 C 553.675781 2133.019531 551.195312 2131.15625 548.386719 2129.28125 C 542.167969 2124.925781 535.007812 2123.050781 527.542969 2122.433594 C 525.363281 2122.433594 523.1875 2122.433594 521.007812 2122.433594 C 517.269531 2122.746094 513.226562 2123.367188 509.804688 2124.296875 C 503.886719 2125.859375 497.984375 2128.351562 492.382812 2131.15625 C 487.710938 2133.335938 483.355469 2135.828125 479 2138.320312 C 469.042969 2143.933594 458.769531 2149.539062 448.8125 2155.152344 C 444.140625 2157.644531 439.167969 2160.4375 434.5 2162.933594 C 437.921875 2115.886719 441.03125 2068.84375 441.964844 2021.789062 C 442.894531 1965.085938 441.03125 1908.074219 433.882812 1851.675781 C 426.402344 1795.59375 415.199219 1740.125 402.132812 1684.976562 C 392.175781 1643.847656 382.21875 1602.71875 372.574219 1561.289062 C 372.574219 1561.289062 372.890625 1561.289062 373.191406 1561.289062 L 376 1561.289062 C 377.863281 1562.222656 380.039062 1562.222656 381.902344 1561.59375 C 385.328125 1561.289062 384.710938 1561.59375 387.820312 1560.042969 C 389.066406 1559.414062 389.996094 1559.101562 391.242188 1558.484375 C 391.859375 1558.484375 392.488281 1557.855469 393.105469 1557.550781 C 395.285156 1556.609375 397.460938 1555.363281 399.640625 1554.429688 C 404.007812 1551.9375 408.667969 1549.445312 412.71875 1546.953125 C 422.675781 1540.722656 432.007812 1533.558594 441.03125 1525.449219 C 448.496094 1518.90625 455.34375 1511.425781 461.578125 1503.648438 C 464.371094 1500.210938 466.863281 1496.785156 469.042969 1493.046875 C 471.21875 1489.308594 472.769531 1485.570312 474.328125 1481.515625 C 475.261719 1479.339844 475.890625 1476.847656 476.191406 1474.667969 C 476.507812 1471.859375 477.125 1469.054688 477.125 1465.945312 C 477.125 1463.136719 476.507812 1460.027344 476.191406 1457.21875 C 475.574219 1453.480469 474.015625 1449.425781 472.152344 1446.003906 C 471.835938 1445.375 471.21875 1444.441406 470.90625 1443.824219 C 469.34375 1441.636719 467.796875 1439.457031 465.933594 1437.59375 C 460.949219 1432.609375 454.726562 1429.171875 448.195312 1426.996094 C 444.769531 1426.0625 441.03125 1425.433594 437.609375 1425.128906 C 435.746094 1425.128906 433.882812 1425.128906 432.007812 1425.128906 C 428.277344 1425.128906 424.855469 1425.75 421.117188 1426.679688 C 417.691406 1427.625 414.269531 1429.171875 411.160156 1430.417969 C 409.296875 1431.363281 407.421875 1432.292969 405.871094 1433.855469 C 402.761719 1436.347656 399.640625 1438.527344 396.84375 1441.332031 C 394.039062 1444.128906 391.859375 1447.25 389.378906 1450.359375 C 388.132812 1452.234375 386.574219 1454.097656 385.640625 1456.289062 C 383.148438 1460.328125 381.285156 1464.699219 379.421875 1469.054688 C 377.246094 1474.351562 375.066406 1479.652344 372.890625 1484.953125 C 370.082031 1491.800781 367.285156 1498.660156 364.792969 1505.824219 C 363.863281 1508.316406 362.929688 1510.808594 361.988281 1513.300781 C 357.015625 1490.242188 352.03125 1466.875 348.304688 1443.511719 C 347.371094 1437.277344 346.429688 1431.046875 345.496094 1424.816406 C 345.496094 1422.941406 344.878906 1421.078125 344.878906 1419.515625 C 344.878906 1419.515625 344.878906 1418.898438 344.878906 1418.585938 C 344.25 1415.160156 343.949219 1411.722656 343.632812 1408.300781 C 341.769531 1394.277344 340.523438 1380.265625 339.589844 1365.925781 C 335.539062 1309.527344 337.097656 1252.828125 341.769531 1196.746094 C 343.015625 1182.40625 344.566406 1167.765625 346.125 1153.429688 C 346.742188 1146.578125 347.675781 1139.71875 348.617188 1132.871094 C 348.921875 1129.75 349.550781 1126.640625 349.851562 1123.519531 C 349.851562 1121.65625 350.480469 1119.777344 350.480469 1117.914062 C 350.480469 1117.601562 350.480469 1117.914062 350.480469 1117.285156 C 350.480469 1116.984375 350.480469 1116.984375 350.480469 1116.039062 C 354.523438 1087.691406 358.878906 1059.027344 363.546875 1030.675781 C 372.890625 974.277344 383.148438 918.195312 392.175781 862.113281 C 400.269531 811.632812 406.804688 760.847656 412.40625 710.066406 C 412.71875 710.066406 413.335938 709.4375 413.964844 709.121094 C 413.023438 709.75 412.71875 710.066406 413.335938 709.4375 C 413.335938 709.4375 413.652344 709.4375 413.964844 709.121094 C 417.378906 709.121094 420.800781 709.121094 423.609375 708.503906 C 452.851562 700.398438 479.3125 685.441406 502.640625 665.816406 C 514.160156 655.847656 524.117188 644.628906 533.457031 632.480469 C 541.238281 622.195312 548.074219 611.292969 553.675781 599.449219 C 557.101562 592.285156 560.210938 584.808594 561.457031 577.015625 C 563.332031 566.742188 563.949219 557.703125 561.457031 547.417969 C 560.523438 543.0625 558.660156 538.382812 556.167969 534.640625 C 554.609375 531.847656 552.429688 529.355469 550.253906 526.863281 C 549.320312 525.917969 548.386719 524.984375 547.457031 524.054688 C 544.964844 522.179688 542.167969 519.6875 539.058594 518.136719 C 535.9375 516.578125 532.210938 514.703125 528.789062 514.085938 C 521.007812 512.523438 515.089844 512.523438 507.3125 514.085938 C 505.761719 514.085938 504.515625 514.703125 502.957031 515.332031 C 499.53125 516.578125 496.109375 518.136719 493 519.6875 C 488.328125 522.179688 483.972656 525.613281 479.929688 529.039062 C 472.769531 534.640625 467.480469 541.816406 462.195312 548.980469 C 452.851562 561.128906 443.839844 573.90625 436.058594 586.984375 C 432.007812 593.53125 428.582031 600.078125 424.855469 606.925781 C 423.609375 609.417969 422.675781 611.910156 421.429688 614.101562 C 428.277344 523.121094 431.691406 431.515625 431.691406 340.222656 C 431.691406 224.632812 427.335938 109.34375 419.871094 -5.929688 C 412.71875 -121.535156 402.761719 -236.507812 391.859375 -351.78125 C 389.378906 -380.445312 386.574219 -409.109375 382.847656 -437.472656 C 381.902344 -444.320312 380.039062 -450.238281 375.066406 -455.222656 C 371.328125 -458.960938 363.234375 -462.398438 356.386719 -462.398438 C 342.386719 -461.769531 327.140625 -450.238281 328.703125 -434.664062 C 329.9375 -420.023438 330.566406 -405.371094 332.113281 -390.730469 C 333.359375 -376.089844 334.921875 -361.449219 336.167969 -346.796875 C 338.960938 -318.132812 341.457031 -289.46875 343.949219 -260.804688 C 349.234375 -202.855469 354.207031 -144.898438 358.574219 -86.953125 C 367.589844 28.648438 374.4375 144.238281 376.929688 260.144531 C 377.863281 298.476562 378.175781 336.484375 377.863281 374.804688 C 376.617188 373.871094 375.371094 372.625 374.125 371.691406 C 370.082031 368.886719 365.109375 367.023438 360.4375 365.148438 C 357.328125 363.902344 354.207031 362.96875 351.097656 362.339844 C 346.125 361.410156 341.140625 360.476562 336.46875 360.476562 C 334.921875 360.476562 333.359375 360.476562 332.113281 360.476562 C 328.703125 360.789062 325.277344 361.09375 322.15625 362.039062 C 320.609375 362.339844 319.363281 362.65625 317.800781 363.285156 C 314.691406 364.53125 311.582031 365.777344 308.773438 367.324219 C 305.980469 368.886719 303.488281 371.0625 301.007812 372.9375 C 300.0625 373.871094 299.132812 374.5 298.199219 375.746094 C 296.335938 377.925781 294.160156 380.730469 292.597656 383.527344 C 291.351562 385.714844 290.421875 388.210938 289.488281 390.386719 C 289.488281 391.003906 288.859375 391.632812 288.859375 392.566406 C 287.3125 399.113281 287.3125 405.65625 288.859375 412.191406 C 289.488281 415.3125 291.050781 418.421875 292.285156 421.230469 C 292.914062 422.476562 293.53125 423.722656 294.460938 424.65625 C 296.335938 427.148438 298.199219 429.953125 300.691406 432.132812 C 303.183594 434.320312 305.980469 436.5 308.472656 438.363281 C 315.007812 443.347656 322.472656 446.46875 329.9375 449.582031 C 337.097656 452.386719 344.566406 455.195312 352.03125 456.441406 C 356.082031 457.371094 360.125 457.6875 364.164062 458.316406 C 366.039062 458.316406 368.21875 458.316406 370.082031 458.316406 C 372.261719 458.316406 374.753906 457.6875 376.929688 457.371094 C 375.683594 506.921875 373.820312 556.773438 370.082031 606.308594 C 366.039062 663.953125 360.4375 721.597656 352.660156 779.230469 C 352.660156 780.789062 352.34375 782.035156 352.03125 783.597656 C 351.414062 787.335938 351.097656 791.386719 350.480469 795.128906 C 349.550781 802.289062 348.304688 809.453125 347.371094 816.929688 C 345.195312 830.957031 343.015625 844.980469 340.839844 858.992188 C 336.167969 887.65625 331.183594 916.632812 326.511719 945.300781 C 323.101562 965.867188 319.675781 986.425781 316.253906 1006.679688 C 312.199219 999.203125 307.84375 992.039062 301.9375 985.808594 C 298.199219 982.070312 293.84375 978.632812 289.488281 975.523438 C 285.132812 972.402344 280.148438 970.226562 274.859375 968.359375 C 273.3125 967.730469 271.75 967.417969 269.886719 967.113281 C 267.394531 966.484375 264.902344 966.171875 262.109375 966.171875 C 261.164062 966.171875 260.546875 966.171875 259.617188 966.171875 C 256.191406 966.171875 252.769531 966.800781 249.34375 967.417969 C 246.234375 968.046875 242.808594 969.609375 240.015625 971.15625 C 236.894531 972.71875 234.414062 974.894531 231.921875 977.085938 C 229.429688 979.261719 227.566406 982.070312 225.386719 984.5625 C 224.457031 985.808594 223.511719 987.359375 222.894531 988.617188 C 221.648438 991.410156 220.097656 994.53125 219.46875 997.957031 C 219.46875 998.585938 219.15625 999.519531 219.15625 1000.136719 C 218.851562 1002.628906 218.222656 1005.433594 218.222656 1007.929688 C 218.222656 1009.488281 218.222656 1011.351562 218.222656 1012.914062 C 218.539062 1016.335938 218.851562 1019.773438 219.785156 1022.882812 C 220.71875 1026.003906 221.964844 1029.113281 223.511719 1032.234375 C 224.140625 1033.785156 225.074219 1035.347656 226.320312 1036.59375 C 228.496094 1039.398438 230.675781 1042.507812 233.167969 1045 C 235.660156 1047.496094 238.453125 1049.683594 241.25 1051.546875 C 242.808594 1052.792969 244.371094 1053.726562 246.234375 1054.355469 C 251.207031 1056.847656 256.507812 1059.027344 261.792969 1060.585938 C 263.65625 1060.902344 265.53125 1061.519531 267.394531 1061.519531 C 271.4375 1062.148438 275.175781 1062.765625 279.214844 1062.765625 C 285.75 1062.765625 292.285156 1062.148438 298.816406 1061.203125 C 301.9375 1060.902344 304.734375 1059.957031 307.84375 1059.339844 C 296.023438 1135.679688 286.683594 1212.632812 286.066406 1289.902344 C 285.449219 1347.859375 290.421875 1405.808594 300.0625 1462.820312 C 309.402344 1517.355469 322.472656 1570.945312 336.46875 1624.222656 C 346.429688 1662.542969 356.386719 1700.875 365.726562 1739.195312 C 363.546875 1739.195312 361.054688 1738.261719 358.878906 1738.261719 C 347.058594 1737.632812 334.605469 1739.195312 323.402344 1742.933594 C 317.183594 1745.113281 310.964844 1747.605469 305.363281 1750.726562 C 299.761719 1753.835938 294.777344 1757.574219 289.804688 1761.628906 C 281.082031 1768.476562 273.929688 1777.199219 267.710938 1786.554688 C 264.285156 1791.539062 261.792969 1797.152344 259.300781 1802.753906 C 256.808594 1808.671875 254.945312 1814.285156 253.398438 1820.519531 C 254.015625 1818.957031 254.632812 1817.394531 255.261719 1815.847656 C 253.699219 1818.644531 252.152344 1821.765625 251.835938 1824.875 C 251.207031 1828.613281 250.90625 1832.050781 251.835938 1835.789062 C 252.453125 1837.335938 253.082031 1838.898438 254.015625 1840.773438 C 255.261719 1843.265625 257.125 1845.128906 259.300781 1846.375 C 260.546875 1847.621094 262.109375 1848.554688 263.972656 1848.867188 C 265.53125 1849.800781 267.394531 1850.113281 269.257812 1850.113281 C 271.121094 1850.742188 272.996094 1850.742188 274.546875 1850.113281 C 277.351562 1850.113281 279.84375 1849.183594 282.023438 1847.621094 C 310.652344 1831.734375 339.589844 1816.148438 367.902344 1799.949219 C 371.328125 1798.085938 374.753906 1796.210938 378.175781 1794.347656 C 383.148438 1818.023438 387.503906 1841.390625 390.929688 1865.382812 C 390.929688 1865.699219 390.929688 1865.382812 390.929688 1866 C 390.929688 1866 390.929688 1866 390.929688 1866.628906 L 390.929688 1870.371094 C 391.859375 1874.109375 392.175781 1877.847656 392.804688 1881.585938 C 393.734375 1889.0625 394.351562 1896.855469 394.980469 1904.332031 C 396.226562 1918.34375 397.160156 1932.054688 397.777344 1946.078125 C 403.378906 2061.984375 390.625 2177.886719 383.464844 2293.488281 C 381.902344 2318.414062 380.667969 2343.65625 379.726562 2368.882812 C 377.863281 2368.882812 375.683594 2369.199219 374.125 2370.445312 C 371.644531 2372.003906 369.464844 2373.867188 367.589844 2375.742188 C 361.683594 2375.113281 355.769531 2375.742188 350.167969 2377.304688 C 346.429688 2378.238281 343.015625 2379.796875 339.894531 2381.660156 C 337.714844 2382.90625 335.539062 2384.152344 333.359375 2385.714844 C 327.757812 2389.769531 322.785156 2394.125 318.117188 2399.109375 C 310.335938 2407.832031 303.183594 2417.488281 295.707031 2426.527344 C 291.667969 2431.511719 287.625 2436.496094 283.574219 2441.796875 C 279.214844 2447.398438 274.546875 2453.015625 270.503906 2458.617188 C 267.082031 2463.601562 264.285156 2469.214844 262.109375 2475.132812 C 261.164062 2477.308594 260.546875 2479.5 260.234375 2481.679688 C 259.617188 2485.101562 258.988281 2488.839844 259.300781 2492.265625 C 259.929688 2497.566406 260.863281 2501.617188 263.039062 2506.605469 C 263.972656 2508.78125 265.835938 2510.65625 267.394531 2512.519531 C 268.011719 2513.453125 268.945312 2514.082031 269.574219 2515.011719 C 273.613281 2518.4375 277.667969 2520.929688 282.957031 2522.492188 C 286.683594 2523.421875 290.734375 2524.050781 294.460938 2523.421875 C 296.953125 2523.421875 299.761719 2522.804688 302.242188 2522.175781 C 304.734375 2521.558594 307.539062 2520.3125 309.71875 2519.066406 C 313.144531 2517.507812 316.253906 2515.011719 319.363281 2512.519531 C 321.855469 2510.34375 324.03125 2507.535156 326.210938 2505.042969 Z M 327.140625 2505.042969 "/></g></g></svg>