<svg xmlns="http://www.w3.org/2000/svg" xmlns:xlink="http://www.w3.org/1999/xlink" width="1080" zoomAndPan="magnify" viewBox="0 0 810 809.999993" height="1080" preserveAspectRatio="xMidYMid meet" version="1.2"><defs><clipPath id="a83a469940"><path d="M 268.824219 109.722656 L 642 109.722656 L 642 696.285156 L 268.824219 696.285156 Z M 268.824219 109.722656 "/></clipPath></defs><g id="8fd724ff72"><g clip-rule="nonzero" clip-path="url(#a83a469940)"><path style=" stroke:none;fill-rule:nonzero;fill:#000000;fill-opacity:1;" d="M 385.085938 2029.855469 C 387.417969 2026.863281 389.410156 2024.195312 391.417969 2021.191406 C 398.738281 2009.519531 405.40625 1997.835938 412.402344 1986.164062 C 419.394531 1974.492188 426.726562 1962.484375 433.71875 1950.8125 C 436.710938 1946.136719 439.378906 1941.136719 442.386719 1936.136719 C 442.386719 1949.140625 442.046875 1962.148438 442.386719 1975.152344 C 443.707031 2025.855469 449.042969 2076.554688 458.03125 2126.257812 C 466.695312 2174.964844 479.351562 2222.660156 498.015625 2268.359375 C 507.339844 2291.703125 518 2314.722656 530.316406 2336.742188 C 543.308594 2360.085938 555.300781 2377.765625 571.636719 2398.777344 C 578.953125 2407.78125 586.285156 2417.121094 594.277344 2425.460938 C 602.28125 2433.804688 611.941406 2441.472656 621.269531 2448.816406 C 624.261719 2451.148438 628.261719 2451.8125 631.589844 2449.480469 C 634.257812 2447.484375 635.917969 2442.472656 633.585938 2439.476562 C 625.929688 2429.464844 619.261719 2418.453125 611.605469 2408.453125 C 604.613281 2399.113281 597.941406 2389.4375 591.621094 2379.761719 C 578.628906 2359.75 566.960938 2338.738281 556.636719 2317.054688 C 553.96875 2311.714844 551.636719 2306.378906 549.304688 2301.042969 C 548.308594 2298.710938 547.3125 2296.042969 545.976562 2293.710938 C 545.976562 2293.710938 544.980469 2291.703125 544.980469 2291.042969 C 544.320312 2289.371094 543.644531 2287.699219 542.984375 2286.042969 C 538.644531 2275.03125 534.320312 2264.019531 530.65625 2253.011719 C 528.996094 2248.011719 527.664062 2243.007812 525.992188 2237.671875 C 526.652344 2237.671875 526.988281 2237.671875 527.664062 2237.335938 C 529.65625 2237 531.328125 2236.675781 533.324219 2236 C 540.652344 2233.671875 548.308594 2231.664062 555.640625 2229.667969 C 557.632812 2228.992188 559.640625 2228.332031 561.636719 2227.996094 L 567.96875 2226.664062 C 570.960938 2225.664062 573.628906 2224.332031 575.960938 2221.984375 C 577.621094 2220.328125 578.953125 2218.320312 579.625 2215.988281 C 580.625 2213.65625 581.285156 2211.3125 581.285156 2208.980469 C 581.285156 2205.652344 580.289062 2202.644531 578.953125 2199.640625 C 577.957031 2197.96875 576.621094 2196.3125 575.289062 2194.640625 C 574.964844 2194.304688 574.628906 2193.644531 574.289062 2193.304688 C 573.628906 2192.308594 572.632812 2191.636719 571.960938 2190.972656 C 568.96875 2188.628906 566.300781 2186.296875 562.632812 2184.628906 C 559.304688 2182.96875 555.640625 2181.636719 551.972656 2180.960938 C 549.304688 2180.625 546.648438 2179.964844 543.980469 2179.964844 C 542.984375 2179.964844 541.652344 2179.964844 540.652344 2179.964844 C 537.984375 2179.964844 535.316406 2180.625 532.648438 2181.296875 C 530.65625 2181.636719 528.660156 2182.96875 526.988281 2183.964844 C 526.988281 2183.964844 526.328125 2183.964844 526.328125 2184.304688 C 525.65625 2184.628906 525.332031 2185.300781 524.65625 2185.636719 C 523.324219 2186.636719 522.328125 2187.96875 521.328125 2188.96875 C 521.328125 2188.628906 521.988281 2188.304688 522.328125 2187.632812 C 521.664062 2188.304688 521.328125 2188.96875 520.992188 2189.304688 C 520.992188 2189.304688 520.667969 2189.304688 520.332031 2189.964844 C 520.332031 2189.964844 518 2192.632812 517.003906 2194.304688 C 517.003906 2194.304688 516.328125 2194.304688 515.992188 2194.304688 C 515.332031 2194.304688 514.996094 2194.304688 514.335938 2194.304688 C 513.335938 2189.964844 512.003906 2185.636719 511.007812 2181.296875 C 505.332031 2157.28125 500.671875 2132.59375 497.003906 2108.253906 C 496.679688 2105.582031 496.34375 2102.914062 495.683594 2100.246094 C 495.683594 2099.910156 495.683594 2098.238281 495.347656 2097.242188 C 495.347656 2097.242188 495.347656 2097.902344 495.347656 2098.914062 C 495.347656 2097.242188 495.011719 2095.570312 494.671875 2093.898438 C 494.011719 2087.902344 493.351562 2081.890625 492.679688 2075.894531 C 491.34375 2063.210938 490.347656 2050.878906 489.351562 2038.199219 C 485.683594 1986.5 485.347656 1934.800781 487.355469 1883.089844 C 489.351562 1826.394531 494.011719 1770.019531 498.339844 1713.308594 C 498.339844 1713.308594 498.339844 1712.984375 498.675781 1712.644531 C 498.675781 1712.644531 498.675781 1712.984375 498.675781 1713.308594 C 498.675781 1712.984375 498.675781 1712.644531 498.675781 1712.308594 C 498.675781 1712.308594 498.675781 1712.308594 498.675781 1711.972656 C 499.671875 1710.976562 500.347656 1709.976562 501.34375 1709.304688 C 502.339844 1708.644531 503.339844 1707.96875 504.011719 1707.308594 C 503.675781 1707.644531 503 1707.96875 502.675781 1708.308594 C 503 1707.96875 503.675781 1707.644531 504.011719 1707.308594 C 505.007812 1708.980469 505.667969 1710.976562 507.003906 1712.644531 C 508.335938 1713.980469 509.671875 1714.976562 511.328125 1716.3125 C 513 1717.648438 514.335938 1718.644531 515.992188 1719.652344 C 519.335938 1721.648438 523 1722.984375 526.652344 1724.316406 C 530.65625 1725.652344 534.65625 1725.988281 538.644531 1726.324219 C 548.308594 1727.660156 558.308594 1726.648438 567.96875 1726.324219 C 574.628906 1725.652344 581.285156 1724.992188 587.953125 1723.65625 C 593.613281 1722.648438 598.953125 1720.652344 604.273438 1718.644531 C 607.265625 1717.308594 610.273438 1715.976562 612.941406 1714.316406 C 616.269531 1712.308594 619.597656 1709.640625 622.601562 1707.308594 C 623.921875 1705.976562 625.59375 1704.640625 626.589844 1703.308594 C 628.921875 1700.636719 631.253906 1697.632812 632.925781 1694.628906 C 633.921875 1692.96875 634.917969 1691.296875 635.59375 1689.628906 C 636.914062 1686.296875 638.585938 1682.957031 639.582031 1679.289062 C 640.578125 1675.949219 640.917969 1672.28125 641.253906 1668.617188 C 641.253906 1666.609375 641.253906 1664.613281 641.253906 1662.941406 C 640.917969 1655.609375 639.257812 1649.265625 635.917969 1642.59375 C 634.582031 1639.601562 632.25 1636.917969 629.921875 1634.25 C 627.589844 1631.582031 624.933594 1629.585938 621.929688 1627.578125 C 615.269531 1622.917969 607.605469 1620.910156 599.613281 1620.246094 C 597.28125 1620.246094 594.949219 1620.246094 592.617188 1620.246094 C 588.617188 1620.585938 584.289062 1621.246094 580.625 1622.242188 C 574.289062 1623.914062 567.96875 1626.582031 561.972656 1629.585938 C 556.972656 1631.917969 552.308594 1634.585938 547.648438 1637.257812 C 536.988281 1643.265625 525.992188 1649.265625 515.332031 1655.273438 C 510.332031 1657.941406 505.007812 1660.949219 500.007812 1663.617188 C 503.675781 1613.238281 507.003906 1562.875 508 1512.511719 C 509 1451.796875 507.003906 1390.761719 499.347656 1330.382812 C 491.34375 1270.34375 479.351562 1210.960938 465.363281 1151.933594 C 454.703125 1107.902344 444.042969 1063.875 433.71875 1019.507812 C 433.71875 1019.507812 434.058594 1019.507812 434.382812 1019.507812 L 437.386719 1019.507812 C 439.378906 1020.503906 441.710938 1020.503906 443.707031 1019.832031 C 447.371094 1019.507812 446.710938 1019.832031 450.039062 1018.171875 C 451.375 1017.5 452.371094 1017.164062 453.707031 1016.5 C 454.367188 1016.5 455.039062 1015.828125 455.699219 1015.503906 C 458.03125 1014.496094 460.363281 1013.160156 462.695312 1012.164062 C 467.371094 1009.492188 472.355469 1006.824219 476.695312 1004.15625 C 487.355469 997.484375 497.339844 989.816406 507.003906 981.136719 C 514.996094 974.144531 522.328125 966.136719 528.996094 957.796875 C 531.988281 954.128906 534.65625 950.449219 536.988281 946.449219 C 539.320312 942.445312 540.976562 938.441406 542.648438 934.117188 C 543.644531 931.773438 544.320312 929.101562 544.644531 926.773438 C 544.980469 923.765625 545.640625 920.773438 545.640625 917.433594 C 545.640625 914.425781 544.980469 911.097656 544.644531 908.09375 C 543.980469 904.089844 542.3125 899.75 540.316406 896.085938 C 539.980469 895.421875 539.320312 894.414062 538.984375 893.753906 C 537.3125 891.421875 535.652344 889.078125 533.660156 887.082031 C 528.324219 881.746094 521.664062 878.078125 514.671875 875.734375 C 511.007812 874.738281 507.003906 874.074219 503.339844 873.738281 C 501.34375 873.738281 499.347656 873.738281 497.339844 873.738281 C 493.351562 873.738281 489.6875 874.398438 485.683594 875.410156 C 482.019531 876.40625 478.355469 878.078125 475.023438 879.414062 C 473.03125 880.410156 471.023438 881.40625 469.363281 883.078125 C 466.035156 885.746094 462.695312 888.078125 459.703125 891.085938 C 456.699219 894.089844 454.367188 897.417969 451.710938 900.761719 C 450.375 902.753906 448.707031 904.761719 447.707031 907.09375 C 445.039062 911.433594 443.046875 916.097656 441.050781 920.773438 C 438.71875 926.433594 436.386719 932.109375 434.058594 937.78125 C 431.050781 945.113281 428.058594 952.457031 425.390625 960.128906 C 424.394531 962.796875 423.398438 965.464844 422.386719 968.132812 C 417.0625 943.457031 411.726562 918.429688 407.738281 893.414062 C 406.742188 886.746094 405.730469 880.074219 404.734375 873.402344 C 404.734375 871.40625 404.074219 869.398438 404.074219 867.730469 C 404.074219 867.730469 404.074219 867.066406 404.074219 866.730469 C 403.398438 863.066406 403.074219 859.398438 402.738281 855.71875 C 400.742188 840.71875 399.410156 825.707031 398.414062 810.355469 C 394.074219 749.980469 395.746094 689.277344 400.742188 629.238281 C 402.078125 613.886719 403.734375 598.214844 405.40625 582.875 C 406.066406 575.53125 407.066406 568.199219 408.074219 560.855469 C 408.398438 557.527344 409.070312 554.183594 409.394531 550.855469 C 409.394531 548.847656 410.070312 546.851562 410.070312 544.84375 C 410.070312 544.507812 410.070312 544.84375 410.070312 544.183594 C 410.070312 543.847656 410.070312 543.847656 410.070312 542.847656 C 414.394531 512.488281 419.058594 481.800781 424.058594 451.449219 C 434.058594 391.070312 445.039062 331.03125 454.703125 270.992188 C 463.367188 216.960938 470.363281 162.582031 476.359375 108.214844 C 476.695312 108.214844 477.355469 107.539062 478.03125 107.214844 C 477.019531 107.878906 476.695312 108.214844 477.355469 107.539062 C 477.355469 107.539062 477.691406 107.539062 478.03125 107.214844 C 481.683594 107.214844 485.347656 107.214844 488.351562 106.542969 C 519.660156 97.878906 547.984375 81.867188 572.957031 60.84375 C 585.285156 50.167969 595.945312 38.160156 605.945312 25.15625 C 614.273438 14.144531 621.59375 2.472656 627.589844 -10.195312 C 631.253906 -17.875 634.582031 -25.882812 635.917969 -34.210938 C 637.925781 -45.222656 638.585938 -54.898438 635.917969 -65.910156 C 634.917969 -70.574219 632.925781 -75.585938 630.257812 -79.589844 C 628.585938 -82.582031 626.253906 -85.25 623.921875 -87.917969 C 622.925781 -88.929688 621.929688 -89.925781 620.929688 -90.921875 C 618.261719 -92.929688 615.269531 -95.597656 611.941406 -97.257812 C 608.601562 -98.929688 604.613281 -100.9375 600.945312 -101.597656 C 592.617188 -103.269531 586.285156 -103.269531 577.957031 -101.597656 C 576.296875 -101.597656 574.964844 -100.9375 573.292969 -100.261719 C 569.628906 -98.929688 565.960938 -97.257812 562.632812 -95.597656 C 557.632812 -92.929688 552.972656 -89.25 548.644531 -85.585938 C 540.976562 -79.589844 535.316406 -71.90625 529.65625 -64.238281 C 519.660156 -51.234375 510.007812 -37.554688 501.679688 -23.539062 C 497.339844 -16.542969 493.675781 -9.535156 489.6875 -2.191406 C 488.351562 0.476562 487.355469 3.148438 486.019531 5.476562 C 493.351562 -91.921875 497.003906 -189.992188 497.003906 -287.726562 C 497.003906 -411.476562 492.34375 -534.898438 484.351562 -658.308594 C 476.695312 -782.066406 466.035156 -905.140625 454.367188 -1028.5625 C 451.710938 -1059.25 448.707031 -1089.9375 444.714844 -1120.289062 C 443.707031 -1127.632812 441.710938 -1133.96875 436.386719 -1139.304688 C 432.386719 -1143.308594 423.722656 -1146.972656 416.390625 -1146.972656 C 401.40625 -1146.3125 385.085938 -1133.96875 386.753906 -1117.296875 C 388.078125 -1101.609375 388.75 -1085.933594 390.410156 -1070.261719 C 391.742188 -1054.585938 393.414062 -1038.902344 394.746094 -1023.226562 C 397.738281 -992.539062 400.40625 -961.851562 403.074219 -931.164062 C 408.734375 -869.117188 414.058594 -807.082031 418.734375 -745.03125 C 428.382812 -621.285156 435.714844 -497.539062 438.382812 -373.441406 C 439.378906 -332.417969 439.71875 -291.730469 439.378906 -250.695312 C 438.046875 -251.703125 436.710938 -253.039062 435.378906 -254.035156 C 431.050781 -257.039062 425.730469 -259.035156 420.730469 -261.042969 C 417.398438 -262.378906 414.058594 -263.375 410.730469 -264.035156 C 405.40625 -265.046875 400.070312 -266.042969 395.070312 -266.042969 C 393.414062 -266.042969 391.742188 -266.042969 390.410156 -266.042969 C 386.753906 -265.707031 383.089844 -265.371094 379.75 -264.371094 C 378.089844 -264.035156 376.757812 -263.710938 375.085938 -263.039062 C 371.757812 -261.703125 368.429688 -260.371094 365.421875 -258.699219 C 362.429688 -257.039062 359.761719 -254.695312 357.109375 -252.703125 C 356.097656 -251.703125 355.101562 -251.03125 354.101562 -249.695312 C 352.109375 -247.363281 349.777344 -244.359375 348.105469 -241.355469 C 346.773438 -239.023438 345.773438 -236.355469 344.777344 -234.023438 C 344.777344 -233.347656 344.105469 -232.6875 344.105469 -231.691406 C 342.445312 -224.683594 342.445312 -217.675781 344.105469 -210.667969 C 344.777344 -207.335938 346.449219 -203.996094 347.769531 -201.003906 C 348.441406 -199.667969 349.105469 -198.335938 350.101562 -197.324219 C 352.109375 -194.65625 354.101562 -191.664062 356.769531 -189.320312 C 359.4375 -186.988281 362.429688 -184.65625 365.097656 -182.648438 C 372.09375 -177.3125 380.085938 -173.980469 388.078125 -170.640625 C 395.746094 -167.648438 403.734375 -164.640625 411.726562 -163.308594 C 416.066406 -162.308594 420.390625 -161.972656 424.71875 -161.300781 C 426.726562 -161.300781 429.058594 -161.300781 431.050781 -161.300781 C 433.382812 -161.300781 436.050781 -161.972656 438.382812 -162.308594 C 437.050781 -109.265625 435.054688 -55.894531 431.050781 -2.863281 C 426.726562 58.847656 420.730469 120.558594 412.402344 182.269531 C 412.402344 183.929688 412.0625 185.261719 411.726562 186.933594 C 411.066406 190.9375 410.730469 195.277344 410.070312 199.277344 C 409.070312 206.949219 407.738281 214.617188 406.742188 222.621094 C 404.410156 237.632812 402.078125 252.648438 399.746094 267.660156 C 394.746094 298.347656 389.410156 329.359375 384.410156 360.046875 C 380.757812 382.070312 377.09375 404.078125 373.425781 425.761719 C 369.089844 417.757812 364.425781 410.085938 358.105469 403.417969 C 354.101562 399.414062 349.441406 395.746094 344.777344 392.40625 C 340.113281 389.078125 334.777344 386.730469 329.117188 384.738281 C 327.460938 384.0625 325.789062 383.738281 323.792969 383.402344 C 321.125 382.730469 318.457031 382.40625 315.464844 382.40625 C 314.457031 382.40625 313.796875 382.40625 312.796875 382.40625 C 309.132812 382.40625 305.46875 383.066406 301.800781 383.738281 C 298.472656 384.398438 294.808594 386.070312 291.816406 387.742188 C 288.472656 389.402344 285.820312 391.746094 283.152344 394.078125 C 280.484375 396.410156 278.488281 399.414062 276.15625 402.082031 C 275.160156 403.417969 274.148438 405.085938 273.488281 406.421875 C 272.15625 409.414062 270.496094 412.753906 269.824219 416.421875 C 269.824219 417.09375 269.488281 418.09375 269.488281 418.753906 C 269.164062 421.421875 268.488281 424.425781 268.488281 427.09375 C 268.488281 428.765625 268.488281 430.761719 268.488281 432.433594 C 268.824219 436.097656 269.164062 439.777344 270.160156 443.105469 C 271.15625 446.449219 272.492188 449.777344 274.148438 453.121094 C 274.824219 454.777344 275.820312 456.449219 277.152344 457.78125 C 279.484375 460.789062 281.816406 464.117188 284.484375 466.785156 C 287.152344 469.46875 290.144531 471.796875 293.136719 473.792969 C 294.808594 475.128906 296.476562 476.136719 298.472656 476.800781 C 303.796875 479.46875 309.46875 481.800781 315.128906 483.46875 C 317.125 483.808594 319.132812 484.46875 321.125 484.46875 C 325.453125 485.140625 329.453125 485.800781 333.78125 485.800781 C 340.773438 485.800781 347.769531 485.140625 354.765625 484.144531 C 358.105469 483.808594 361.097656 482.808594 364.425781 482.136719 C 351.773438 563.859375 341.773438 646.246094 341.113281 728.96875 C 340.453125 791.015625 345.773438 853.050781 356.097656 914.101562 C 366.097656 972.472656 380.085938 1029.84375 395.070312 1086.878906 C 405.730469 1127.917969 416.390625 1168.941406 426.390625 1209.964844 C 424.058594 1209.964844 421.390625 1208.96875 419.058594 1208.96875 C 406.402344 1208.292969 393.078125 1209.964844 381.082031 1213.96875 C 374.425781 1216.300781 367.765625 1218.96875 361.769531 1222.308594 C 355.773438 1225.640625 350.4375 1229.640625 345.113281 1233.980469 C 335.777344 1241.324219 328.121094 1250.664062 321.464844 1260.667969 C 317.796875 1266.003906 315.128906 1272.011719 312.460938 1278.011719 C 309.792969 1284.34375 307.800781 1290.355469 306.140625 1297.027344 C 306.800781 1295.355469 307.460938 1293.683594 308.136719 1292.027344 C 306.464844 1295.019531 304.808594 1298.359375 304.46875 1301.691406 C 303.796875 1305.691406 303.472656 1309.371094 304.46875 1313.375 C 305.132812 1315.046875 305.804688 1316.703125 306.800781 1318.710938 C 308.136719 1321.378906 310.128906 1323.375 312.460938 1324.710938 C 313.796875 1326.042969 315.464844 1327.054688 317.460938 1327.378906 C 319.132812 1328.386719 321.125 1328.710938 323.121094 1328.710938 C 325.117188 1329.386719 327.125 1329.386719 328.78125 1328.710938 C 331.785156 1328.710938 334.453125 1327.714844 336.785156 1326.042969 C 367.429688 1309.035156 398.414062 1292.351562 428.722656 1275.007812 C 432.386719 1273.011719 436.050781 1271.003906 439.71875 1269.007812 C 445.039062 1294.359375 449.703125 1319.371094 453.367188 1345.058594 C 453.367188 1345.394531 453.367188 1345.058594 453.367188 1345.734375 C 453.367188 1345.734375 453.367188 1345.734375 453.367188 1346.394531 L 453.367188 1350.394531 C 454.367188 1354.398438 454.703125 1358.402344 455.375 1362.40625 C 456.375 1370.410156 457.035156 1378.75 457.707031 1386.757812 C 459.042969 1401.769531 460.039062 1416.445312 460.699219 1431.449219 C 466.695312 1555.53125 453.042969 1679.628906 445.378906 1803.375 C 443.707031 1830.058594 442.386719 1857.078125 441.375 1884.089844 C 439.378906 1884.089844 437.050781 1884.425781 435.378906 1885.761719 C 432.722656 1887.429688 430.390625 1889.4375 428.382812 1891.433594 C 422.0625 1890.773438 415.730469 1891.433594 409.734375 1893.105469 C 405.730469 1894.101562 402.078125 1895.773438 398.738281 1897.769531 C 396.40625 1899.101562 394.074219 1900.4375 391.742188 1902.105469 C 385.746094 1906.445312 380.421875 1911.109375 375.421875 1916.445312 C 367.09375 1925.785156 359.4375 1936.136719 351.433594 1945.800781 C 347.109375 1951.136719 342.78125 1956.472656 338.445312 1962.148438 C 333.78125 1968.15625 328.78125 1974.15625 324.457031 1980.164062 C 320.789062 1985.503906 317.796875 1991.5 315.464844 1997.835938 C 314.457031 2000.179688 313.796875 2002.511719 313.460938 2004.84375 C 312.796875 2008.507812 312.125 2012.511719 312.460938 2016.191406 C 313.136719 2021.851562 314.132812 2026.191406 316.464844 2031.527344 C 317.460938 2033.859375 319.457031 2035.867188 321.125 2037.863281 C 321.789062 2038.871094 322.785156 2039.53125 323.457031 2040.53125 C 327.785156 2044.210938 332.121094 2046.878906 337.78125 2048.535156 C 341.773438 2049.546875 346.113281 2050.207031 350.101562 2049.546875 C 352.769531 2049.546875 355.773438 2048.871094 358.429688 2048.210938 C 361.097656 2047.539062 364.101562 2046.203125 366.433594 2044.871094 C 370.097656 2043.199219 373.425781 2040.53125 376.757812 2037.863281 C 379.425781 2035.53125 381.753906 2032.523438 384.085938 2029.855469 Z M 385.085938 2029.855469 "/></g></g></svg>