<svg xmlns="http://www.w3.org/2000/svg" xmlns:xlink="http://www.w3.org/1999/xlink" width="1080" zoomAndPan="magnify" viewBox="0 0 810 809.999993" height="1080" preserveAspectRatio="xMidYMid meet" version="1.2"><defs><clipPath id="98714274cb"><path d="M 249.640625 119.785156 L 579 119.785156 L 579 686.980469 L 249.640625 686.980469 Z M 249.640625 119.785156 "/></clipPath></defs><g id="5ca028288c"><g clip-rule="nonzero" clip-path="url(#98714274cb)"><path style=" stroke:none;fill-rule:nonzero;fill:#000000;fill-opacity:1;" d="M 352.445312 1299.679688 C 354.503906 1297.035156 356.269531 1294.675781 358.042969 1292.019531 C 364.515625 1281.703125 370.414062 1271.375 376.597656 1261.054688 C 382.78125 1250.738281 389.265625 1240.125 395.449219 1229.804688 C 398.09375 1225.671875 400.453125 1221.253906 403.113281 1216.832031 C 403.113281 1228.328125 402.8125 1239.824219 403.113281 1251.324219 C 404.28125 1296.140625 409 1340.960938 416.945312 1384.898438 C 424.609375 1427.953125 435.796875 1470.117188 452.300781 1510.515625 C 460.546875 1531.152344 469.972656 1551.5 480.867188 1570.964844 C 492.351562 1591.601562 502.957031 1607.230469 517.398438 1625.804688 C 523.871094 1633.765625 530.355469 1642.019531 537.421875 1649.394531 C 544.496094 1656.769531 553.042969 1663.546875 561.289062 1670.039062 C 563.933594 1672.101562 567.472656 1672.6875 570.417969 1670.625 C 572.773438 1668.859375 574.242188 1664.429688 572.179688 1661.785156 C 565.410156 1652.933594 559.511719 1643.199219 552.742188 1634.359375 C 546.558594 1626.101562 540.660156 1617.550781 535.070312 1608.996094 C 523.585938 1591.304688 513.265625 1572.730469 504.136719 1553.5625 C 501.777344 1548.84375 499.71875 1544.125 497.65625 1539.40625 C 496.773438 1537.347656 495.890625 1534.988281 494.710938 1532.925781 C 494.710938 1532.925781 493.832031 1531.152344 493.832031 1530.566406 C 493.246094 1529.089844 492.652344 1527.613281 492.066406 1526.148438 C 488.230469 1516.414062 484.40625 1506.679688 481.164062 1496.949219 C 479.695312 1492.527344 478.515625 1488.105469 477.039062 1483.390625 C 477.625 1483.390625 477.921875 1483.390625 478.515625 1483.089844 C 480.28125 1482.792969 481.757812 1482.507812 483.523438 1481.910156 C 490.003906 1479.851562 496.773438 1478.074219 503.257812 1476.3125 C 505.019531 1475.71875 506.792969 1475.132812 508.558594 1474.835938 L 514.160156 1473.65625 C 516.804688 1472.773438 519.164062 1471.59375 521.226562 1469.523438 C 522.691406 1468.054688 523.871094 1466.28125 524.46875 1464.21875 C 525.347656 1462.160156 525.933594 1460.085938 525.933594 1458.023438 C 525.933594 1455.082031 525.050781 1452.425781 523.871094 1449.769531 C 522.988281 1448.292969 521.808594 1446.824219 520.628906 1445.347656 C 520.34375 1445.050781 520.046875 1444.46875 519.75 1444.167969 C 519.164062 1443.289062 518.28125 1442.691406 517.6875 1442.109375 C 515.039062 1440.035156 512.683594 1437.972656 509.441406 1436.496094 C 506.496094 1435.03125 503.257812 1433.851562 500.015625 1433.257812 C 497.65625 1432.960938 495.308594 1432.375 492.949219 1432.375 C 492.066406 1432.375 490.886719 1432.375 490.003906 1432.375 C 487.644531 1432.375 485.285156 1432.960938 482.925781 1433.554688 C 481.164062 1433.851562 479.398438 1435.03125 477.921875 1435.914062 C 477.921875 1435.914062 477.339844 1435.914062 477.339844 1436.210938 C 476.742188 1436.496094 476.457031 1437.09375 475.859375 1437.390625 C 474.679688 1438.273438 473.800781 1439.453125 472.917969 1440.332031 C 472.917969 1440.035156 473.5 1439.75 473.800781 1439.152344 C 473.214844 1439.75 472.917969 1440.332031 472.621094 1440.632812 C 472.621094 1440.632812 472.332031 1440.632812 472.035156 1441.214844 C 472.035156 1441.214844 469.972656 1443.574219 469.089844 1445.050781 C 469.089844 1445.050781 468.496094 1445.050781 468.199219 1445.050781 C 467.613281 1445.050781 467.316406 1445.050781 466.734375 1445.050781 C 465.851562 1441.214844 464.671875 1437.390625 463.789062 1433.554688 C 458.773438 1412.324219 454.648438 1390.5 451.410156 1368.980469 C 451.121094 1366.621094 450.824219 1364.265625 450.238281 1361.90625 C 450.238281 1361.609375 450.238281 1360.128906 449.941406 1359.25 C 449.941406 1359.25 449.941406 1359.832031 449.941406 1360.726562 C 449.941406 1359.25 449.644531 1357.773438 449.347656 1356.292969 C 448.761719 1350.992188 448.179688 1345.679688 447.582031 1340.378906 C 446.402344 1329.167969 445.523438 1318.265625 444.640625 1307.054688 C 441.398438 1261.355469 441.101562 1215.640625 442.875 1169.941406 C 444.640625 1119.820312 448.761719 1069.984375 452.589844 1019.851562 C 452.589844 1019.851562 452.589844 1019.566406 452.886719 1019.269531 C 452.886719 1019.269531 452.886719 1019.566406 452.886719 1019.851562 C 452.886719 1019.566406 452.886719 1019.269531 452.886719 1018.96875 C 452.886719 1018.96875 452.886719 1018.96875 452.886719 1018.671875 C 453.769531 1017.789062 454.363281 1016.910156 455.246094 1016.3125 C 456.128906 1015.730469 457.007812 1015.132812 457.605469 1014.550781 C 457.308594 1014.847656 456.710938 1015.132812 456.425781 1015.433594 C 456.710938 1015.132812 457.308594 1014.847656 457.605469 1014.550781 C 458.488281 1016.027344 459.070312 1017.789062 460.25 1019.269531 C 461.429688 1020.449219 462.609375 1021.328125 464.074219 1022.507812 C 465.554688 1023.6875 466.734375 1024.570312 468.199219 1025.460938 C 471.152344 1027.226562 474.394531 1028.40625 477.625 1029.585938 C 481.164062 1030.765625 484.703125 1031.0625 488.230469 1031.359375 C 496.773438 1032.539062 505.617188 1031.648438 514.160156 1031.359375 C 520.046875 1030.765625 525.933594 1030.179688 531.832031 1029 C 536.835938 1028.109375 541.554688 1026.34375 546.261719 1024.570312 C 548.90625 1023.390625 551.566406 1022.210938 553.921875 1020.746094 C 556.867188 1018.96875 559.8125 1016.613281 562.46875 1014.550781 C 563.636719 1013.371094 565.113281 1012.191406 565.996094 1011.011719 C 568.058594 1008.652344 570.117188 1005.996094 571.59375 1003.339844 C 572.476562 1001.875 573.359375 1000.398438 573.953125 998.917969 C 575.125 995.976562 576.601562 993.023438 577.484375 989.78125 C 578.363281 986.828125 578.664062 983.585938 578.960938 980.347656 C 578.960938 978.570312 578.960938 976.808594 578.960938 975.332031 C 578.664062 968.839844 577.195312 963.238281 574.242188 957.339844 C 573.0625 954.683594 571 952.324219 568.9375 949.964844 C 566.878906 947.609375 564.527344 945.84375 561.871094 944.070312 C 555.984375 939.945312 549.207031 938.171875 542.140625 937.585938 C 540.078125 937.585938 538.015625 937.585938 535.953125 937.585938 C 532.414062 937.886719 528.589844 938.46875 525.347656 939.351562 C 519.75 940.828125 514.160156 943.1875 508.855469 945.84375 C 504.4375 947.90625 500.3125 950.265625 496.191406 952.625 C 486.765625 957.9375 477.039062 963.238281 467.613281 968.550781 C 463.195312 970.910156 458.488281 973.566406 454.066406 975.925781 C 457.308594 931.394531 460.25 886.871094 461.132812 842.347656 C 462.015625 788.679688 460.25 734.722656 453.480469 681.347656 C 446.402344 628.273438 435.796875 575.78125 423.429688 523.597656 C 414.003906 484.675781 404.578125 445.742188 395.449219 406.535156 C 395.449219 406.535156 395.746094 406.535156 396.035156 406.535156 L 398.691406 406.535156 C 400.453125 407.417969 402.515625 407.417969 404.28125 406.820312 C 407.519531 406.535156 406.9375 406.820312 409.878906 405.355469 C 411.058594 404.761719 411.941406 404.464844 413.121094 403.878906 C 413.707031 403.878906 414.300781 403.285156 414.886719 402.996094 C 416.945312 402.105469 419.007812 400.925781 421.070312 400.042969 C 425.203125 397.683594 429.613281 395.324219 433.449219 392.964844 C 442.875 387.070312 451.707031 380.289062 460.25 372.617188 C 467.316406 366.433594 473.800781 359.355469 479.695312 351.984375 C 482.34375 348.742188 484.703125 345.488281 486.765625 341.953125 C 488.824219 338.414062 490.292969 334.875 491.769531 331.050781 C 492.652344 328.976562 493.246094 326.617188 493.53125 324.558594 C 493.832031 321.902344 494.414062 319.253906 494.414062 316.300781 C 494.414062 313.644531 493.832031 310.703125 493.53125 308.046875 C 492.949219 304.507812 491.472656 300.671875 489.707031 297.429688 C 489.410156 296.847656 488.824219 295.953125 488.527344 295.367188 C 487.050781 293.308594 485.585938 291.234375 483.820312 289.472656 C 479.101562 284.753906 473.214844 281.511719 467.03125 279.441406 C 463.789062 278.558594 460.25 277.972656 457.007812 277.675781 C 455.246094 277.675781 453.480469 277.675781 451.707031 277.675781 C 448.179688 277.675781 444.9375 278.261719 441.398438 279.152344 C 438.15625 280.035156 434.917969 281.511719 431.972656 282.691406 C 430.210938 283.574219 428.433594 284.457031 426.96875 285.933594 C 424.023438 288.292969 421.070312 290.351562 418.425781 293.011719 C 415.765625 295.667969 413.707031 298.609375 411.359375 301.5625 C 410.179688 303.328125 408.699219 305.101562 407.820312 307.164062 C 405.460938 311 403.695312 315.121094 401.933594 319.253906 C 399.871094 324.261719 397.808594 329.277344 395.746094 334.289062 C 393.089844 340.773438 390.445312 347.265625 388.085938 354.042969 C 387.203125 356.402344 386.320312 358.761719 385.429688 361.121094 C 380.722656 339.304688 376.003906 317.183594 372.476562 295.070312 C 371.59375 289.175781 370.699219 283.277344 369.816406 277.378906 C 369.816406 275.617188 369.234375 273.839844 369.234375 272.363281 C 369.234375 272.363281 369.234375 271.78125 369.234375 271.480469 C 368.636719 268.242188 368.351562 265 368.054688 261.75 C 366.289062 248.488281 365.109375 235.214844 364.230469 221.648438 C 360.390625 168.273438 361.871094 114.613281 366.289062 61.539062 C 367.46875 47.96875 368.9375 34.113281 370.414062 20.554688 C 370.996094 14.0625 371.878906 7.582031 372.773438 1.089844 C 373.058594 -1.855469 373.65625 -4.808594 373.941406 -7.75 C 373.941406 -9.527344 374.535156 -11.289062 374.535156 -13.0625 C 374.535156 -13.363281 374.535156 -13.0625 374.535156 -13.648438 C 374.535156 -13.945312 374.535156 -13.945312 374.535156 -14.828125 C 378.363281 -41.667969 382.484375 -68.796875 386.90625 -95.625 C 395.746094 -149 405.460938 -202.074219 414.003906 -255.148438 C 421.664062 -302.921875 427.851562 -350.984375 433.152344 -399.042969 C 433.449219 -399.042969 434.035156 -399.640625 434.628906 -399.925781 C 433.738281 -399.339844 433.449219 -399.042969 434.035156 -399.640625 C 434.035156 -399.640625 434.332031 -399.640625 434.628906 -399.925781 C 437.859375 -399.925781 441.101562 -399.925781 443.757812 -400.519531 C 471.441406 -408.183594 496.488281 -422.335938 518.570312 -440.921875 C 529.472656 -450.355469 538.898438 -460.972656 547.738281 -472.46875 C 555.101562 -482.199219 561.574219 -492.519531 566.878906 -503.71875 C 570.117188 -510.507812 573.0625 -517.585938 574.242188 -524.949219 C 576.015625 -534.679688 576.601562 -543.234375 574.242188 -552.96875 C 573.359375 -557.089844 571.59375 -561.523438 569.238281 -565.058594 C 567.757812 -567.707031 565.699219 -570.066406 563.636719 -572.425781 C 562.753906 -573.316406 561.871094 -574.199219 560.992188 -575.082031 C 558.632812 -576.855469 555.984375 -579.214844 553.042969 -580.679688 C 550.085938 -582.15625 546.558594 -583.933594 543.316406 -584.515625 C 535.953125 -585.992188 530.355469 -585.992188 522.988281 -584.515625 C 521.523438 -584.515625 520.34375 -583.933594 518.867188 -583.335938 C 515.625 -582.15625 512.382812 -580.679688 509.441406 -579.214844 C 505.019531 -576.855469 500.898438 -573.601562 497.070312 -570.363281 C 490.292969 -565.058594 485.285156 -558.269531 480.28125 -551.492188 C 471.441406 -539.996094 462.90625 -527.902344 455.542969 -515.511719 C 451.707031 -509.328125 448.464844 -503.132812 444.9375 -496.640625 C 443.757812 -494.28125 442.875 -491.921875 441.695312 -489.863281 C 448.179688 -575.960938 451.410156 -662.65625 451.410156 -749.054688 C 451.410156 -858.449219 447.285156 -967.550781 440.21875 -1076.648438 C 433.449219 -1186.050781 424.023438 -1294.855469 413.707031 -1403.949219 C 411.359375 -1431.078125 408.699219 -1458.207031 405.171875 -1485.035156 C 404.28125 -1491.527344 402.515625 -1497.128906 397.808594 -1501.847656 C 394.269531 -1505.382812 386.609375 -1508.625 380.125 -1508.625 C 366.875 -1508.039062 352.445312 -1497.128906 353.921875 -1482.390625 C 355.089844 -1468.523438 355.683594 -1454.667969 357.152344 -1440.8125 C 358.332031 -1426.957031 359.808594 -1413.089844 360.988281 -1399.234375 C 363.632812 -1372.105469 365.992188 -1344.976562 368.351562 -1317.851562 C 373.355469 -1263 378.0625 -1208.160156 382.199219 -1153.3125 C 390.730469 -1043.917969 397.214844 -934.527344 399.574219 -824.839844 C 400.453125 -788.5625 400.753906 -752.59375 400.453125 -716.316406 C 399.273438 -717.210938 398.09375 -718.390625 396.914062 -719.273438 C 393.089844 -721.929688 388.382812 -723.691406 383.960938 -725.464844 C 381.019531 -726.644531 378.0625 -727.527344 375.121094 -728.113281 C 370.414062 -729.003906 365.695312 -729.886719 361.273438 -729.886719 C 359.808594 -729.886719 358.332031 -729.886719 357.152344 -729.886719 C 353.921875 -729.589844 350.679688 -729.292969 347.726562 -728.410156 C 346.257812 -728.113281 345.078125 -727.824219 343.601562 -727.230469 C 340.660156 -726.050781 337.714844 -724.871094 335.058594 -723.394531 C 332.414062 -721.929688 330.054688 -719.855469 327.707031 -718.09375 C 326.8125 -717.210938 325.929688 -716.613281 325.046875 -715.4375 C 323.285156 -713.375 321.222656 -710.71875 319.746094 -708.0625 C 318.566406 -706 317.683594 -703.640625 316.800781 -701.578125 C 316.800781 -700.984375 316.207031 -700.398438 316.207031 -699.519531 C 314.742188 -693.324219 314.742188 -687.128906 316.207031 -680.933594 C 316.800781 -677.992188 318.28125 -675.035156 319.449219 -672.390625 C 320.042969 -671.210938 320.628906 -670.03125 321.507812 -669.140625 C 323.285156 -666.78125 325.046875 -664.136719 327.40625 -662.0625 C 329.765625 -660 332.414062 -657.941406 334.773438 -656.164062 C 340.957031 -651.449219 348.023438 -648.503906 355.089844 -645.550781 C 361.871094 -642.90625 368.9375 -640.25 376.003906 -639.070312 C 379.839844 -638.1875 383.664062 -637.890625 387.488281 -637.292969 C 389.265625 -637.292969 391.328125 -637.292969 393.089844 -637.292969 C 395.152344 -637.292969 397.511719 -637.890625 399.574219 -638.1875 C 398.394531 -591.296875 396.628906 -544.117188 393.089844 -497.234375 C 389.265625 -442.683594 383.960938 -388.132812 376.597656 -333.589844 C 376.597656 -332.113281 376.300781 -330.933594 376.003906 -329.457031 C 375.417969 -325.917969 375.121094 -322.082031 374.535156 -318.542969 C 373.65625 -311.765625 372.476562 -304.984375 371.59375 -297.910156 C 369.53125 -284.636719 367.46875 -271.363281 365.410156 -258.09375 C 360.988281 -230.964844 356.269531 -203.550781 351.847656 -176.425781 C 348.617188 -156.957031 345.378906 -137.503906 342.136719 -118.332031 C 338.300781 -125.410156 334.175781 -132.1875 328.585938 -138.085938 C 325.046875 -141.625 320.925781 -144.867188 316.800781 -147.820312 C 312.679688 -150.761719 307.960938 -152.835938 302.957031 -154.597656 C 301.488281 -155.195312 300.011719 -155.480469 298.25 -155.777344 C 295.890625 -156.375 293.53125 -156.660156 290.882812 -156.660156 C 289.992188 -156.660156 289.40625 -156.660156 288.523438 -156.660156 C 285.285156 -156.660156 282.042969 -156.074219 278.800781 -155.480469 C 275.859375 -154.898438 272.617188 -153.417969 269.972656 -151.941406 C 267.015625 -150.476562 264.667969 -148.402344 262.308594 -146.34375 C 259.949219 -144.28125 258.1875 -141.625 256.125 -139.265625 C 255.242188 -138.085938 254.347656 -136.609375 253.765625 -135.429688 C 252.585938 -132.785156 251.121094 -129.832031 250.523438 -126.589844 C 250.523438 -125.996094 250.226562 -125.113281 250.226562 -124.527344 C 249.941406 -122.167969 249.34375 -119.511719 249.34375 -117.152344 C 249.34375 -115.675781 249.34375 -113.914062 249.34375 -112.4375 C 249.640625 -109.195312 249.941406 -105.945312 250.820312 -103 C 251.703125 -100.046875 252.882812 -97.101562 254.347656 -94.148438 C 254.945312 -92.683594 255.828125 -91.207031 257.007812 -90.027344 C 259.066406 -87.371094 261.128906 -84.425781 263.488281 -82.066406 C 265.847656 -79.710938 268.492188 -77.636719 271.140625 -75.875 C 272.617188 -74.695312 274.09375 -73.8125 275.859375 -73.214844 C 280.566406 -70.859375 285.582031 -68.796875 290.585938 -67.320312 C 292.351562 -67.023438 294.125 -66.4375 295.890625 -66.4375 C 299.714844 -65.84375 303.253906 -65.257812 307.078125 -65.257812 C 313.261719 -65.257812 319.449219 -65.84375 325.632812 -66.734375 C 328.585938 -67.023438 331.234375 -67.914062 334.175781 -68.5 C 322.988281 3.746094 314.144531 76.574219 313.5625 149.699219 C 312.976562 204.550781 317.683594 259.390625 326.8125 313.359375 C 335.652344 364.957031 348.023438 415.671875 361.273438 466.09375 C 370.699219 502.367188 380.125 538.632812 388.96875 574.898438 C 386.90625 574.898438 384.546875 574.019531 382.484375 574.019531 C 371.296875 573.421875 359.511719 574.898438 348.90625 578.4375 C 343.019531 580.5 337.132812 582.859375 331.828125 585.8125 C 326.527344 588.753906 321.808594 592.292969 317.101562 596.128906 C 308.84375 602.621094 302.074219 610.878906 296.1875 619.71875 C 292.945312 624.4375 290.585938 629.75 288.226562 635.050781 C 285.867188 640.652344 284.105469 645.964844 282.636719 651.863281 C 283.222656 650.386719 283.804688 648.90625 284.402344 647.441406 C 282.925781 650.085938 281.457031 653.042969 281.160156 655.984375 C 280.566406 659.523438 280.277344 662.773438 281.160156 666.3125 C 281.746094 667.777344 282.339844 669.257812 283.222656 671.03125 C 284.402344 673.390625 286.164062 675.152344 288.226562 676.332031 C 289.40625 677.511719 290.882812 678.394531 292.648438 678.691406 C 294.125 679.574219 295.890625 679.871094 297.652344 679.871094 C 299.417969 680.464844 301.191406 680.464844 302.65625 679.871094 C 305.316406 679.871094 307.675781 678.988281 309.734375 677.511719 C 336.832031 662.476562 364.230469 647.726562 391.027344 632.394531 C 394.269531 630.632812 397.511719 628.855469 400.753906 627.09375 C 405.460938 649.503906 409.582031 671.613281 412.824219 694.324219 C 412.824219 694.621094 412.824219 694.324219 412.824219 694.917969 C 412.824219 694.917969 412.824219 694.917969 412.824219 695.5 L 412.824219 699.039062 C 413.707031 702.578125 414.003906 706.117188 414.597656 709.65625 C 415.480469 716.730469 416.066406 724.105469 416.660156 731.183594 C 417.839844 744.453125 418.722656 757.429688 419.304688 770.6875 C 424.609375 880.378906 412.539062 990.078125 405.757812 1099.472656 C 404.28125 1123.058594 403.113281 1146.945312 402.21875 1170.824219 C 400.453125 1170.824219 398.394531 1171.121094 396.914062 1172.300781 C 394.566406 1173.777344 392.507812 1175.539062 390.730469 1177.316406 C 385.140625 1176.71875 379.542969 1177.316406 374.238281 1178.792969 C 370.699219 1179.671875 367.46875 1181.152344 364.515625 1182.914062 C 362.453125 1184.09375 360.390625 1185.273438 358.332031 1186.75 C 353.027344 1190.585938 348.320312 1194.710938 343.898438 1199.425781 C 336.535156 1207.683594 329.765625 1216.832031 322.6875 1225.375 C 318.863281 1230.09375 315.039062 1234.8125 311.203125 1239.824219 C 307.078125 1245.140625 302.65625 1250.441406 298.832031 1255.753906 C 295.589844 1260.472656 292.945312 1265.773438 290.882812 1271.375 C 289.992188 1273.445312 289.40625 1275.507812 289.109375 1277.570312 C 288.523438 1280.808594 287.929688 1284.347656 288.226562 1287.597656 C 288.824219 1292.605469 289.703125 1296.441406 291.765625 1301.15625 C 292.648438 1303.21875 294.410156 1304.992188 295.890625 1306.757812 C 296.472656 1307.648438 297.355469 1308.234375 297.949219 1309.117188 C 301.777344 1312.367188 305.613281 1314.726562 310.617188 1316.191406 C 314.144531 1317.085938 317.980469 1317.671875 321.507812 1317.085938 C 323.867188 1317.085938 326.527344 1316.492188 328.875 1315.90625 C 331.234375 1315.3125 333.890625 1314.132812 335.953125 1312.953125 C 339.191406 1311.476562 342.136719 1309.117188 345.078125 1306.757812 C 347.4375 1304.695312 349.5 1302.039062 351.5625 1299.679688 Z M 352.445312 1299.679688 "/></g></g></svg>