<svg xmlns="http://www.w3.org/2000/svg" xmlns:xlink="http://www.w3.org/1999/xlink" width="1080" zoomAndPan="magnify" viewBox="0 0 810 809.999993" height="1080" preserveAspectRatio="xMidYMid meet" version="1.2"><defs><clipPath id="ca24a9fc20"><path d="M 159.527344 115.074219 L 563 115.074219 L 563 697.613281 L 159.527344 697.613281 Z M 159.527344 115.074219 "/></clipPath></defs><g id="091e99fe7e"><g clip-rule="nonzero" clip-path="url(#ca24a9fc20)"><path style=" stroke:none;fill-rule:nonzero;fill:#000000;fill-opacity:1;" d="M 285.265625 866.199219 C 287.785156 862.964844 289.945312 860.078125 292.117188 856.828125 C 300.03125 844.207031 307.242188 831.570312 314.808594 818.949219 C 322.371094 806.328125 330.300781 793.34375 337.867188 780.707031 C 341.101562 775.664062 343.988281 770.257812 347.238281 764.835938 C 347.238281 778.914062 346.871094 792.976562 347.238281 807.042969 C 348.667969 861.871094 354.4375 916.699219 364.160156 970.449219 C 373.53125 1023.121094 387.214844 1074.699219 407.402344 1124.121094 C 417.488281 1149.363281 429.015625 1174.257812 442.339844 1198.070312 C 456.386719 1223.316406 469.359375 1242.4375 487.023438 1265.15625 C 494.9375 1274.894531 502.867188 1284.996094 511.511719 1294.015625 C 520.167969 1303.035156 530.617188 1311.328125 540.703125 1319.273438 C 543.9375 1321.792969 548.265625 1322.507812 551.867188 1319.988281 C 554.753906 1317.828125 556.546875 1312.410156 554.023438 1309.171875 C 545.746094 1298.34375 538.53125 1286.4375 530.253906 1275.621094 C 522.6875 1265.523438 515.472656 1255.058594 508.636719 1244.59375 C 494.585938 1222.949219 481.96875 1200.230469 470.800781 1176.78125 C 467.917969 1171.007812 465.394531 1165.238281 462.875 1159.464844 C 461.796875 1156.945312 460.714844 1154.058594 459.273438 1151.535156 C 459.273438 1151.535156 458.195312 1149.363281 458.195312 1148.648438 C 457.480469 1146.84375 456.753906 1145.035156 456.039062 1143.230469 C 451.34375 1131.335938 446.667969 1119.429688 442.703125 1107.523438 C 440.910156 1102.113281 439.464844 1096.707031 437.660156 1090.9375 C 438.375 1090.9375 438.738281 1090.9375 439.464844 1090.570312 C 441.625 1090.207031 443.429688 1089.84375 445.585938 1089.128906 C 453.515625 1086.605469 461.796875 1084.4375 469.722656 1082.277344 C 471.882812 1081.550781 474.050781 1080.835938 476.210938 1080.472656 L 483.058594 1079.027344 C 486.296875 1077.949219 489.179688 1076.507812 491.703125 1073.972656 C 493.496094 1072.179688 494.9375 1070.007812 495.667969 1067.484375 C 496.746094 1064.964844 497.460938 1062.429688 497.460938 1059.90625 C 497.460938 1056.308594 496.382812 1053.058594 494.9375 1049.808594 C 493.859375 1048 492.417969 1046.207031 490.972656 1044.398438 C 490.625 1044.035156 490.257812 1043.320312 489.894531 1042.957031 C 489.179688 1041.878906 488.101562 1041.148438 487.375 1040.4375 C 484.136719 1037.902344 481.253906 1035.378906 477.289062 1033.570312 C 473.6875 1031.777344 469.722656 1030.335938 465.757812 1029.609375 C 462.875 1029.242188 460 1028.527344 457.117188 1028.527344 C 456.039062 1028.527344 454.59375 1028.527344 453.515625 1028.527344 C 450.628906 1028.527344 447.746094 1029.242188 444.859375 1029.972656 C 442.703125 1030.335938 440.542969 1031.777344 438.738281 1032.855469 C 438.738281 1032.855469 438.023438 1032.855469 438.023438 1033.222656 C 437.296875 1033.570312 436.945312 1034.300781 436.214844 1034.664062 C 434.773438 1035.742188 433.695312 1037.1875 432.617188 1038.265625 C 432.617188 1037.902344 433.332031 1037.550781 433.695312 1036.820312 C 432.980469 1037.550781 432.617188 1038.265625 432.253906 1038.628906 C 432.253906 1038.628906 431.902344 1038.628906 431.539062 1039.34375 C 431.539062 1039.34375 429.015625 1042.230469 427.9375 1044.035156 C 427.9375 1044.035156 427.210938 1044.035156 426.84375 1044.035156 C 426.128906 1044.035156 425.765625 1044.035156 425.050781 1044.035156 C 423.972656 1039.34375 422.53125 1034.664062 421.453125 1029.972656 C 415.316406 1004 410.273438 977.300781 406.308594 950.976562 C 405.957031 948.09375 405.59375 945.207031 404.878906 942.320312 C 404.878906 941.957031 404.878906 940.148438 404.515625 939.070312 C 404.515625 939.070312 404.515625 939.785156 404.515625 940.878906 C 404.515625 939.070312 404.152344 937.265625 403.789062 935.457031 C 403.074219 928.972656 402.359375 922.472656 401.628906 915.984375 C 400.1875 902.269531 399.109375 888.933594 398.03125 875.222656 C 394.066406 819.3125 393.703125 763.390625 395.871094 707.484375 C 398.03125 646.171875 403.074219 585.207031 407.753906 523.878906 C 407.753906 523.878906 407.753906 523.511719 408.117188 523.164062 C 408.117188 523.164062 408.117188 523.511719 408.117188 523.878906 C 408.117188 523.511719 408.117188 523.164062 408.117188 522.796875 C 408.117188 522.796875 408.117188 522.796875 408.117188 522.433594 C 409.195312 521.355469 409.921875 520.277344 411 519.546875 C 412.082031 518.832031 413.160156 518.105469 413.886719 517.390625 C 413.523438 517.742188 412.796875 518.105469 412.445312 518.46875 C 412.796875 518.105469 413.523438 517.742188 413.886719 517.390625 C 414.964844 519.183594 415.679688 521.355469 417.125 523.164062 C 418.566406 524.605469 420.007812 525.683594 421.800781 527.128906 C 423.609375 528.570312 425.050781 529.648438 426.84375 530.726562 C 430.457031 532.898438 434.421875 534.339844 438.375 535.785156 C 442.703125 537.226562 447.03125 537.589844 451.34375 537.941406 C 461.796875 539.382812 472.609375 538.304688 483.058594 537.941406 C 490.257812 537.226562 497.460938 536.5 504.671875 535.054688 C 510.796875 533.976562 516.566406 531.820312 522.324219 529.648438 C 525.558594 528.207031 528.808594 526.761719 531.695312 524.957031 C 535.296875 522.796875 538.894531 519.914062 542.144531 517.390625 C 543.574219 515.949219 545.382812 514.503906 546.460938 513.0625 C 548.980469 510.175781 551.503906 506.925781 553.308594 503.675781 C 554.386719 501.871094 555.46875 500.078125 556.195312 498.269531 C 557.625 494.65625 559.429688 491.054688 560.511719 487.089844 C 561.589844 483.476562 561.953125 479.511719 562.316406 475.546875 C 562.316406 473.378906 562.316406 471.21875 562.316406 469.414062 C 561.953125 461.46875 560.160156 454.621094 556.546875 447.40625 C 555.101562 444.15625 552.582031 441.269531 550.058594 438.382812 C 547.539062 435.5 544.667969 433.339844 541.417969 431.167969 C 534.214844 426.125 525.925781 423.957031 517.28125 423.242188 C 514.757812 423.242188 512.238281 423.242188 509.714844 423.242188 C 505.386719 423.605469 500.710938 424.320312 496.746094 425.398438 C 489.894531 427.207031 483.058594 430.089844 476.574219 433.339844 C 471.167969 435.863281 466.125 438.75 461.082031 441.632812 C 449.550781 448.132812 437.660156 454.621094 426.128906 461.121094 C 420.722656 464.003906 414.964844 467.242188 409.558594 470.128906 C 413.523438 415.664062 417.125 361.199219 418.203125 306.734375 C 419.28125 241.074219 417.125 175.070312 408.84375 109.777344 C 400.1875 44.847656 387.214844 -19.367188 372.085938 -83.203125 C 360.558594 -130.832031 349.03125 -178.445312 337.867188 -226.410156 C 337.867188 -226.410156 338.230469 -226.410156 338.582031 -226.410156 L 341.828125 -226.410156 C 343.988281 -225.332031 346.507812 -225.332031 348.667969 -226.0625 C 352.628906 -226.410156 351.914062 -226.0625 355.515625 -227.855469 C 356.957031 -228.582031 358.039062 -228.945312 359.480469 -229.660156 C 360.195312 -229.660156 360.921875 -230.390625 361.636719 -230.738281 C 364.160156 -231.832031 366.679688 -233.273438 369.203125 -234.355469 C 374.257812 -237.238281 379.652344 -240.125 384.34375 -243.011719 C 395.871094 -250.226562 406.671875 -258.519531 417.125 -267.902344 C 425.765625 -275.46875 433.695312 -284.125 440.910156 -293.148438 C 444.144531 -297.113281 447.03125 -301.089844 449.550781 -305.417969 C 452.074219 -309.746094 453.867188 -314.074219 455.671875 -318.753906 C 456.753906 -321.289062 457.480469 -324.175781 457.832031 -326.695312 C 458.195312 -329.945312 458.910156 -333.183594 458.910156 -336.796875 C 458.910156 -340.046875 458.195312 -343.648438 457.832031 -346.898438 C 457.117188 -351.226562 455.308594 -355.917969 453.152344 -359.882812 C 452.789062 -360.597656 452.074219 -361.691406 451.710938 -362.40625 C 449.902344 -364.925781 448.109375 -367.460938 445.953125 -369.617188 C 440.179688 -375.390625 432.980469 -379.355469 425.414062 -381.890625 C 421.453125 -382.96875 417.125 -383.683594 413.160156 -384.046875 C 411 -384.046875 408.84375 -384.046875 406.671875 -384.046875 C 402.359375 -384.046875 398.394531 -383.332031 394.066406 -382.242188 C 390.101562 -381.160156 386.136719 -379.355469 382.539062 -377.914062 C 380.378906 -376.832031 378.210938 -375.753906 376.414062 -373.949219 C 372.816406 -371.0625 369.203125 -368.539062 365.964844 -365.289062 C 362.714844 -362.039062 360.195312 -358.441406 357.324219 -354.828125 C 355.878906 -352.667969 354.074219 -350.496094 352.996094 -347.976562 C 350.109375 -343.285156 347.953125 -338.238281 345.792969 -333.183594 C 343.273438 -327.0625 340.75 -320.925781 338.230469 -314.789062 C 334.980469 -306.859375 331.742188 -298.917969 328.859375 -290.625 C 327.78125 -287.738281 326.703125 -284.855469 325.609375 -281.96875 C 319.851562 -308.65625 314.082031 -335.71875 309.765625 -362.769531 C 308.6875 -369.984375 307.59375 -377.199219 306.515625 -384.410156 C 306.515625 -386.582031 305.800781 -388.742188 305.800781 -390.546875 C 305.800781 -390.546875 305.800781 -391.261719 305.800781 -391.625 C 305.074219 -395.589844 304.722656 -399.570312 304.359375 -403.53125 C 302.199219 -419.769531 300.757812 -435.992188 299.679688 -452.589844 C 294.988281 -517.882812 296.792969 -583.527344 302.199219 -648.457031 C 303.644531 -665.054688 305.4375 -682.003906 307.242188 -698.605469 C 307.957031 -706.535156 309.039062 -714.476562 310.128906 -722.40625 C 310.480469 -726.019531 311.207031 -729.621094 311.558594 -733.234375 C 311.558594 -735.390625 312.285156 -737.5625 312.285156 -739.71875 C 312.285156 -740.085938 312.285156 -739.71875 312.285156 -740.449219 C 312.285156 -740.800781 312.285156 -740.800781 312.285156 -741.890625 C 316.964844 -774.714844 322.007812 -807.898438 327.414062 -840.71875 C 338.230469 -906.011719 350.109375 -970.941406 360.558594 -1035.871094 C 369.929688 -1094.3125 377.496094 -1153.105469 383.980469 -1211.898438 C 384.34375 -1211.898438 385.058594 -1212.628906 385.785156 -1212.980469 C 384.695312 -1212.265625 384.34375 -1211.898438 385.058594 -1212.628906 C 385.058594 -1212.628906 385.421875 -1212.628906 385.785156 -1212.980469 C 389.738281 -1212.980469 393.703125 -1212.980469 396.953125 -1213.707031 C 430.808594 -1223.078125 461.445312 -1240.394531 488.453125 -1263.128906 C 501.789062 -1274.671875 513.316406 -1287.65625 524.128906 -1301.722656 C 533.136719 -1313.628906 541.054688 -1326.25 547.539062 -1339.964844 C 551.503906 -1348.257812 555.101562 -1356.914062 556.546875 -1365.9375 C 558.714844 -1377.828125 559.429688 -1388.292969 556.546875 -1400.199219 C 555.46875 -1405.242188 553.308594 -1410.664062 550.425781 -1414.992188 C 548.617188 -1418.230469 546.097656 -1421.117188 543.574219 -1424 C 542.496094 -1425.09375 541.417969 -1426.171875 540.339844 -1427.25 C 537.453125 -1429.421875 534.214844 -1432.308594 530.617188 -1434.101562 C 527.003906 -1435.910156 522.6875 -1438.078125 518.722656 -1438.792969 C 509.714844 -1440.601562 502.867188 -1440.601562 493.859375 -1438.792969 C 492.066406 -1438.792969 490.625 -1438.078125 488.816406 -1437.351562 C 484.851562 -1435.910156 480.886719 -1434.101562 477.289062 -1432.308594 C 471.882812 -1429.421875 466.839844 -1425.445312 462.160156 -1421.480469 C 453.867188 -1414.992188 447.746094 -1406.6875 441.625 -1398.394531 C 430.808594 -1384.328125 420.371094 -1369.535156 411.367188 -1354.394531 C 406.671875 -1346.816406 402.710938 -1339.238281 398.394531 -1331.308594 C 396.953125 -1328.421875 395.871094 -1325.535156 394.429688 -1323 C 402.359375 -1428.328125 406.308594 -1534.386719 406.308594 -1640.082031 C 406.308594 -1773.902344 401.265625 -1907.375 392.625 -2040.832031 C 384.34375 -2174.667969 372.816406 -2307.773438 360.195312 -2441.234375 C 357.324219 -2474.417969 354.074219 -2507.605469 349.757812 -2540.441406 C 348.667969 -2548.367188 346.507812 -2555.21875 340.75 -2560.992188 C 336.421875 -2565.320312 327.050781 -2569.296875 319.125 -2569.296875 C 302.914062 -2568.570312 285.265625 -2555.21875 287.074219 -2537.191406 C 288.5 -2520.226562 289.230469 -2503.277344 291.023438 -2486.324219 C 292.464844 -2469.375 294.273438 -2452.410156 295.714844 -2435.460938 C 298.953125 -2402.277344 301.835938 -2369.089844 304.722656 -2335.902344 C 310.84375 -2268.816406 316.601562 -2201.71875 321.660156 -2134.617188 C 332.09375 -2000.796875 340.023438 -1866.972656 342.910156 -1732.789062 C 343.988281 -1688.410156 344.351562 -1644.410156 343.988281 -1600.03125 C 342.542969 -1601.121094 341.101562 -1602.566406 339.660156 -1603.644531 C 334.980469 -1606.894531 329.222656 -1609.050781 323.816406 -1611.222656 C 320.214844 -1612.664062 316.601562 -1613.746094 313 -1614.460938 C 307.242188 -1615.550781 301.472656 -1616.628906 296.066406 -1616.628906 C 294.273438 -1616.628906 292.464844 -1616.628906 291.023438 -1616.628906 C 287.074219 -1616.265625 283.109375 -1615.902344 279.496094 -1614.824219 C 277.699219 -1614.460938 276.257812 -1614.109375 274.453125 -1613.378906 C 270.851562 -1611.9375 267.25 -1610.496094 264 -1608.6875 C 260.765625 -1606.894531 257.878906 -1604.359375 255.007812 -1602.203125 C 253.914062 -1601.121094 252.835938 -1600.394531 251.757812 -1598.953125 C 249.601562 -1596.429688 247.078125 -1593.179688 245.273438 -1589.929688 C 243.828125 -1587.410156 242.75 -1584.523438 241.671875 -1582 C 241.671875 -1581.273438 240.945312 -1580.558594 240.945312 -1579.480469 C 239.152344 -1571.902344 239.152344 -1564.324219 240.945312 -1556.746094 C 241.671875 -1553.144531 243.480469 -1549.53125 244.910156 -1546.292969 C 245.636719 -1544.851562 246.351562 -1543.410156 247.429688 -1542.316406 C 249.601562 -1539.429688 251.757812 -1536.195312 254.644531 -1533.660156 C 257.53125 -1531.136719 260.765625 -1528.617188 263.652344 -1526.445312 C 271.214844 -1520.671875 279.859375 -1517.074219 288.5 -1513.457031 C 296.792969 -1510.222656 305.4375 -1506.972656 314.082031 -1505.53125 C 318.773438 -1504.449219 323.453125 -1504.085938 328.128906 -1503.359375 C 330.300781 -1503.359375 332.824219 -1503.359375 334.980469 -1503.359375 C 337.5 -1503.359375 340.386719 -1504.085938 342.910156 -1504.449219 C 341.464844 -1447.085938 339.308594 -1389.371094 334.980469 -1332.023438 C 330.300781 -1265.285156 323.816406 -1198.550781 314.808594 -1131.828125 C 314.808594 -1130.019531 314.445312 -1128.578125 314.082031 -1126.773438 C 313.367188 -1122.441406 313 -1117.75 312.285156 -1113.421875 C 311.207031 -1105.128906 309.765625 -1096.835938 308.6875 -1088.179688 C 306.164062 -1071.941406 303.644531 -1055.707031 301.121094 -1039.484375 C 295.714844 -1006.285156 289.945312 -972.75 284.539062 -939.5625 C 280.585938 -915.75 276.621094 -891.949219 272.65625 -868.5 C 267.964844 -877.15625 262.921875 -885.449219 256.085938 -892.664062 C 251.757812 -896.992188 246.714844 -900.957031 241.671875 -904.570312 C 236.628906 -908.171875 230.859375 -910.707031 224.738281 -912.863281 C 222.945312 -913.59375 221.136719 -913.941406 218.980469 -914.304688 C 216.09375 -915.035156 213.207031 -915.386719 209.972656 -915.386719 C 208.878906 -915.386719 208.164062 -915.386719 207.085938 -915.386719 C 203.121094 -915.386719 199.15625 -914.671875 195.195312 -913.941406 C 191.59375 -913.226562 187.628906 -911.421875 184.394531 -909.613281 C 180.78125 -907.820312 177.90625 -905.285156 175.023438 -902.761719 C 172.136719 -900.242188 169.980469 -896.992188 167.457031 -894.105469 C 166.378906 -892.664062 165.285156 -890.855469 164.570312 -889.414062 C 163.128906 -886.175781 161.335938 -882.5625 160.609375 -878.597656 C 160.609375 -877.871094 160.242188 -876.792969 160.242188 -876.078125 C 159.894531 -873.191406 159.164062 -869.941406 159.164062 -867.054688 C 159.164062 -865.25 159.164062 -863.089844 159.164062 -861.285156 C 159.527344 -857.320312 159.894531 -853.34375 160.972656 -849.742188 C 162.050781 -846.128906 163.492188 -842.527344 165.285156 -838.914062 C 166.015625 -837.121094 167.09375 -835.3125 168.535156 -833.871094 C 171.058594 -830.621094 173.578125 -827.019531 176.464844 -824.132812 C 179.351562 -821.25 182.585938 -818.714844 185.824219 -816.554688 C 187.628906 -815.113281 189.4375 -814.035156 191.59375 -813.304688 C 197.351562 -810.421875 203.488281 -807.898438 209.609375 -806.09375 C 211.765625 -805.726562 213.9375 -805.011719 216.09375 -805.011719 C 220.773438 -804.285156 225.101562 -803.570312 229.78125 -803.570312 C 237.34375 -803.570312 244.910156 -804.285156 252.472656 -805.378906 C 256.085938 -805.726562 259.324219 -806.820312 262.921875 -807.535156 C 249.238281 -719.15625 238.421875 -630.0625 237.707031 -540.605469 C 236.992188 -473.503906 242.75 -406.417969 253.914062 -340.398438 C 264.730469 -277.277344 279.859375 -215.234375 296.066406 -153.554688 C 307.59375 -109.1875 319.125 -64.8125 329.9375 -20.445312 C 327.414062 -20.445312 324.53125 -21.523438 322.007812 -21.523438 C 308.324219 -22.253906 293.910156 -20.445312 280.9375 -16.117188 C 273.738281 -13.597656 266.535156 -10.710938 260.050781 -7.097656 C 253.566406 -3.496094 247.792969 0.832031 242.035156 5.523438 C 231.9375 13.46875 223.65625 23.566406 216.457031 34.382812 C 212.492188 40.152344 209.609375 46.652344 206.722656 53.140625 C 203.835938 59.988281 201.679688 66.488281 199.886719 73.703125 C 200.601562 71.898438 201.316406 70.089844 202.042969 68.296875 C 200.238281 71.53125 198.445312 75.148438 198.078125 78.746094 C 197.351562 83.074219 197 87.054688 198.078125 91.382812 C 198.792969 93.175781 199.523438 94.984375 200.601562 97.152344 C 202.042969 100.039062 204.199219 102.195312 206.722656 103.640625 C 208.164062 105.082031 209.972656 106.160156 212.128906 106.527344 C 213.9375 107.605469 216.09375 107.96875 218.25 107.96875 C 220.410156 108.695312 222.578125 108.695312 224.371094 107.96875 C 227.621094 107.96875 230.507812 106.890625 233.03125 105.082031 C 266.171875 86.691406 299.679688 68.648438 332.457031 49.890625 C 336.421875 47.734375 340.386719 45.5625 344.351562 43.402344 C 350.109375 70.816406 355.152344 97.867188 359.117188 125.648438 C 359.117188 126.011719 359.117188 125.648438 359.117188 126.363281 C 359.117188 126.363281 359.117188 126.363281 359.117188 127.089844 L 359.117188 131.417969 C 360.195312 135.746094 360.558594 140.074219 361.285156 144.402344 C 362.367188 153.0625 363.082031 162.082031 363.808594 170.738281 C 365.25 186.960938 366.328125 202.847656 367.042969 219.070312 C 373.53125 353.253906 358.765625 487.441406 350.472656 621.277344 C 348.667969 650.132812 347.238281 679.355469 346.144531 708.5625 C 343.988281 708.5625 341.464844 708.929688 339.660156 710.371094 C 336.785156 712.175781 334.265625 714.335938 332.09375 716.507812 C 325.257812 715.777344 318.410156 716.507812 311.921875 718.3125 C 307.59375 719.390625 303.644531 721.199219 300.03125 723.355469 C 297.507812 724.800781 294.988281 726.242188 292.464844 728.050781 C 285.980469 732.742188 280.222656 737.785156 274.816406 743.554688 C 265.808594 753.65625 257.53125 764.835938 248.871094 775.300781 C 244.195312 781.070312 239.515625 786.84375 234.824219 792.976562 C 229.78125 799.464844 224.371094 805.964844 219.695312 812.449219 C 215.730469 818.234375 212.492188 824.722656 209.972656 831.570312 C 208.878906 834.105469 208.164062 836.628906 207.800781 839.148438 C 207.085938 843.113281 206.359375 847.441406 206.722656 851.421875 C 207.449219 857.542969 208.527344 862.234375 211.050781 868.007812 C 212.128906 870.527344 214.285156 872.699219 216.09375 874.855469 C 216.808594 875.949219 217.886719 876.664062 218.613281 877.742188 C 223.292969 881.722656 227.988281 884.605469 234.109375 886.398438 C 238.421875 887.492188 243.113281 888.207031 247.429688 887.492188 C 250.316406 887.492188 253.566406 886.765625 256.4375 886.050781 C 259.324219 885.320312 262.574219 883.878906 265.09375 882.433594 C 269.058594 880.628906 272.65625 877.742188 276.257812 874.855469 C 279.144531 872.335938 281.664062 869.085938 284.1875 866.199219 Z M 285.265625 866.199219 "/></g></g></svg>