<svg xmlns="http://www.w3.org/2000/svg" xmlns:xlink="http://www.w3.org/1999/xlink" width="1080" zoomAndPan="magnify" viewBox="0 0 810 809.999993" height="1080" preserveAspectRatio="xMidYMid meet" version="1.2"><defs><clipPath id="f5062a1270"><path d="M 180.121094 109.820312 L 562 109.820312 L 562 701 L 180.121094 701 Z M 180.121094 109.820312 "/></clipPath></defs><g id="94cdfb0c5b"><g clip-rule="nonzero" clip-path="url(#f5062a1270)"><path style=" stroke:none;fill-rule:nonzero;fill:#000000;fill-opacity:1;" d="M 299.042969 269.746094 C 301.429688 266.671875 303.46875 263.941406 305.523438 260.867188 C 313.007812 248.929688 319.832031 236.980469 326.988281 225.042969 C 334.140625 213.105469 341.640625 200.820312 348.792969 188.882812 C 351.855469 184.101562 354.585938 178.984375 357.65625 173.871094 C 357.65625 187.175781 357.3125 200.476562 357.65625 213.78125 C 359.011719 265.640625 364.46875 317.511719 373.664062 368.335938 C 382.527344 418.15625 395.472656 466.941406 414.5625 513.683594 C 424.101562 537.5625 435.007812 561.105469 447.605469 583.628906 C 460.894531 607.503906 473.164062 625.589844 489.871094 647.082031 C 497.355469 656.304688 504.855469 665.855469 513.03125 674.375 C 521.21875 682.910156 531.101562 690.753906 540.640625 698.265625 C 543.703125 700.648438 547.796875 701.339844 551.199219 698.941406 C 553.929688 696.902344 555.625 691.785156 553.242188 688.710938 C 545.410156 678.46875 538.585938 667.222656 530.757812 656.980469 C 523.601562 647.425781 516.78125 637.527344 510.3125 627.644531 C 497.023438 607.175781 485.085938 585.671875 474.527344 563.503906 C 471.800781 558.03125 469.414062 552.574219 467.027344 547.113281 C 466.007812 544.730469 464.988281 542 463.625 539.613281 C 463.625 539.613281 462.605469 537.5625 462.605469 536.886719 C 461.929688 535.175781 461.238281 533.46875 460.5625 531.769531 C 456.125 520.507812 451.699219 509.246094 447.949219 497.984375 C 446.253906 492.871094 444.890625 487.753906 443.179688 482.296875 C 443.855469 482.296875 444.199219 482.296875 444.890625 481.953125 C 446.929688 481.609375 448.640625 481.277344 450.679688 480.585938 C 458.179688 478.203125 466.007812 476.148438 473.507812 474.109375 C 475.546875 473.417969 477.601562 472.742188 479.640625 472.398438 L 486.121094 471.035156 C 489.179688 470.015625 491.910156 468.648438 494.296875 466.265625 C 495.992188 464.554688 497.355469 462.5 498.046875 460.117188 C 499.066406 457.730469 499.742188 455.347656 499.742188 452.949219 C 499.742188 449.542969 498.722656 446.46875 497.355469 443.394531 C 496.335938 441.699219 494.972656 439.992188 493.605469 438.28125 C 493.273438 437.9375 492.929688 437.261719 492.585938 436.917969 C 491.910156 435.894531 490.890625 435.207031 490.203125 434.53125 C 487.140625 432.148438 484.410156 429.75 480.664062 428.050781 C 477.257812 426.34375 473.507812 424.980469 469.757812 424.289062 C 467.027344 423.957031 464.3125 423.269531 461.582031 423.269531 C 460.5625 423.269531 459.199219 423.269531 458.179688 423.269531 C 455.449219 423.269531 452.71875 423.957031 449.992188 424.632812 C 447.949219 424.980469 445.910156 426.34375 444.199219 427.363281 C 444.199219 427.363281 443.523438 427.363281 443.523438 427.707031 C 442.835938 428.050781 442.503906 428.726562 441.816406 429.074219 C 440.453125 430.09375 439.429688 431.457031 438.410156 432.476562 C 438.410156 432.148438 439.085938 431.800781 439.429688 431.113281 C 438.753906 431.800781 438.410156 432.476562 438.066406 432.824219 C 438.066406 432.824219 437.734375 432.824219 437.390625 433.511719 C 437.390625 433.511719 435.007812 436.242188 433.984375 437.9375 C 433.984375 437.9375 433.296875 437.9375 432.953125 437.9375 C 432.277344 437.9375 431.933594 437.9375 431.257812 437.9375 C 430.234375 433.511719 428.871094 429.074219 427.851562 424.632812 C 422.046875 400.070312 417.277344 374.828125 413.53125 349.917969 C 413.199219 347.191406 412.855469 344.460938 412.179688 341.730469 C 412.179688 341.386719 412.179688 339.679688 411.832031 338.65625 C 411.832031 338.65625 411.832031 339.347656 411.832031 340.367188 C 411.832031 338.65625 411.488281 336.949219 411.144531 335.253906 C 410.46875 329.105469 409.792969 322.96875 409.105469 316.820312 C 407.738281 303.863281 406.71875 291.238281 405.699219 278.265625 C 401.949219 225.386719 401.605469 172.507812 403.660156 119.613281 C 405.699219 61.621094 410.46875 3.957031 414.894531 -54.046875 C 414.894531 -54.046875 414.894531 -54.378906 415.238281 -54.722656 C 415.238281 -54.722656 415.238281 -54.378906 415.238281 -54.046875 C 415.238281 -54.378906 415.238281 -54.722656 415.238281 -55.066406 C 415.238281 -55.066406 415.238281 -55.066406 415.238281 -55.414062 C 416.257812 -56.433594 416.949219 -57.453125 417.96875 -58.140625 C 418.988281 -58.816406 420.007812 -59.507812 420.695312 -60.183594 C 420.351562 -59.839844 419.664062 -59.507812 419.332031 -59.164062 C 419.664062 -59.507812 420.351562 -59.839844 420.695312 -60.183594 C 421.71875 -58.472656 422.394531 -56.433594 423.757812 -54.722656 C 425.121094 -53.359375 426.488281 -52.339844 428.183594 -50.972656 C 429.890625 -49.609375 431.257812 -48.589844 432.953125 -47.554688 C 436.371094 -45.515625 440.121094 -44.152344 443.855469 -42.785156 C 447.949219 -41.421875 452.042969 -41.078125 456.125 -40.730469 C 466.007812 -39.367188 476.238281 -40.402344 486.121094 -40.730469 C 492.929688 -41.421875 499.742188 -42.097656 506.5625 -43.460938 C 512.355469 -44.496094 517.8125 -46.535156 523.257812 -48.589844 C 526.320312 -49.953125 529.390625 -51.320312 532.121094 -53.015625 C 535.527344 -55.066406 538.933594 -57.796875 542.003906 -60.183594 C 543.355469 -61.546875 545.066406 -62.910156 546.085938 -64.277344 C 548.472656 -67.007812 550.855469 -70.078125 552.566406 -73.152344 C 553.585938 -74.851562 554.605469 -76.558594 555.292969 -78.269531 C 556.644531 -81.671875 558.355469 -85.09375 559.375 -88.839844 C 560.394531 -92.257812 560.738281 -96.007812 561.085938 -99.757812 C 561.085938 -101.8125 561.085938 -103.851562 561.085938 -105.5625 C 560.738281 -113.0625 559.042969 -119.554688 555.625 -126.378906 C 554.261719 -129.4375 551.875 -132.167969 549.492188 -134.898438 C 547.105469 -137.625 544.390625 -139.679688 541.316406 -141.722656 C 534.507812 -146.503906 526.664062 -148.542969 518.488281 -149.234375 C 516.105469 -149.234375 513.71875 -149.234375 511.332031 -149.234375 C 507.238281 -148.890625 502.816406 -148.214844 499.066406 -147.179688 C 492.585938 -145.484375 486.121094 -142.753906 479.988281 -139.679688 C 474.871094 -137.296875 470.101562 -134.566406 465.332031 -131.835938 C 454.429688 -125.6875 443.179688 -119.554688 432.277344 -113.40625 C 427.164062 -110.675781 421.71875 -107.601562 416.601562 -104.875 C 420.351562 -156.402344 423.757812 -207.914062 424.777344 -259.429688 C 425.796875 -321.53125 423.757812 -383.964844 415.925781 -445.71875 C 407.738281 -507.132812 395.472656 -567.855469 381.160156 -628.246094 C 370.257812 -673.28125 359.355469 -718.316406 348.792969 -763.699219 C 348.792969 -763.699219 349.140625 -763.699219 349.46875 -763.699219 L 352.542969 -763.699219 C 354.585938 -762.675781 356.96875 -762.675781 359.011719 -763.351562 C 362.757812 -763.699219 362.082031 -763.351562 365.488281 -765.0625 C 366.851562 -765.75 367.875 -766.082031 369.238281 -766.773438 C 369.914062 -766.773438 370.601562 -767.449219 371.277344 -767.792969 C 373.664062 -768.8125 376.046875 -770.175781 378.433594 -771.210938 C 383.214844 -773.941406 388.316406 -776.667969 392.753906 -779.398438 C 403.660156 -786.222656 413.875 -794.066406 423.757812 -802.929688 C 431.933594 -810.097656 439.429688 -818.285156 446.253906 -826.820312 C 449.316406 -830.570312 452.042969 -834.320312 454.429688 -838.414062 C 456.8125 -842.507812 458.511719 -846.601562 460.21875 -851.039062 C 461.238281 -853.425781 461.929688 -856.152344 462.257812 -858.550781 C 462.605469 -861.613281 463.28125 -864.6875 463.28125 -868.105469 C 463.28125 -871.164062 462.605469 -874.582031 462.257812 -877.65625 C 461.582031 -881.75 459.875 -886.175781 457.835938 -889.941406 C 457.488281 -890.617188 456.8125 -891.648438 456.46875 -892.324219 C 454.761719 -894.710938 453.066406 -897.109375 451.023438 -899.148438 C 445.566406 -904.609375 438.753906 -908.355469 431.601562 -910.753906 C 427.851562 -911.773438 423.757812 -912.453125 420.007812 -912.796875 C 417.96875 -912.796875 415.925781 -912.796875 413.875 -912.796875 C 409.792969 -912.796875 406.042969 -912.121094 401.949219 -911.085938 C 398.199219 -910.066406 394.449219 -908.355469 391.046875 -906.992188 C 389.003906 -905.972656 386.953125 -904.953125 385.253906 -903.242188 C 381.851562 -900.511719 378.433594 -898.128906 375.371094 -895.054688 C 372.296875 -891.980469 369.914062 -888.574219 367.199219 -885.15625 C 365.832031 -883.117188 364.125 -881.0625 363.105469 -878.679688 C 360.375 -874.238281 358.332031 -869.46875 356.292969 -864.6875 C 353.910156 -858.882812 351.523438 -853.09375 349.140625 -847.289062 C 346.066406 -839.777344 343.003906 -832.277344 340.277344 -824.433594 C 339.253906 -821.703125 338.234375 -818.976562 337.203125 -816.246094 C 331.757812 -841.488281 326.296875 -867.070312 322.21875 -892.667969 C 321.195312 -899.492188 320.164062 -906.316406 319.144531 -913.140625 C 319.144531 -915.179688 318.46875 -917.234375 318.46875 -918.941406 C 318.46875 -918.941406 318.46875 -919.621094 318.46875 -919.964844 C 317.777344 -923.714844 317.445312 -927.464844 317.101562 -931.226562 C 315.0625 -946.570312 313.699219 -961.925781 312.675781 -977.625 C 308.238281 -1039.371094 309.949219 -1101.46875 315.0625 -1162.882812 C 316.425781 -1178.582031 318.125 -1194.613281 319.832031 -1210.304688 C 320.507812 -1217.816406 321.527344 -1225.316406 322.5625 -1232.828125 C 322.894531 -1236.230469 323.582031 -1239.652344 323.914062 -1243.054688 C 323.914062 -1245.109375 324.601562 -1247.148438 324.601562 -1249.203125 C 324.601562 -1249.546875 324.601562 -1249.203125 324.601562 -1249.878906 C 324.601562 -1250.222656 324.601562 -1250.222656 324.601562 -1251.246094 C 329.027344 -1282.300781 333.796875 -1313.6875 338.910156 -1344.734375 C 349.140625 -1406.488281 360.375 -1467.902344 370.257812 -1529.3125 C 379.121094 -1584.578125 386.277344 -1640.199219 392.410156 -1695.808594 C 392.753906 -1695.808594 393.429688 -1696.484375 394.121094 -1696.828125 C 393.085938 -1696.152344 392.753906 -1695.808594 393.429688 -1696.484375 C 393.429688 -1696.484375 393.773438 -1696.484375 394.121094 -1696.828125 C 397.855469 -1696.828125 401.605469 -1696.828125 404.679688 -1697.515625 C 436.703125 -1706.382812 465.675781 -1722.757812 491.222656 -1744.261719 C 503.835938 -1755.179688 514.738281 -1767.460938 524.96875 -1780.765625 C 533.484375 -1792.027344 540.972656 -1803.964844 547.105469 -1816.921875 C 550.855469 -1824.78125 554.261719 -1832.96875 555.625 -1841.488281 C 557.679688 -1852.75 558.355469 -1862.648438 555.625 -1873.910156 C 554.605469 -1878.679688 552.566406 -1883.792969 549.835938 -1887.886719 C 548.125 -1890.960938 545.742188 -1893.691406 543.355469 -1896.421875 C 542.335938 -1897.441406 541.316406 -1898.472656 540.296875 -1899.496094 C 537.566406 -1901.535156 534.507812 -1904.265625 531.101562 -1905.972656 C 527.683594 -1907.683594 523.601562 -1909.722656 519.851562 -1910.414062 C 511.332031 -1912.121094 504.855469 -1912.121094 496.335938 -1910.414062 C 494.640625 -1910.414062 493.273438 -1909.722656 491.566406 -1909.046875 C 487.816406 -1907.683594 484.066406 -1905.972656 480.664062 -1904.265625 C 475.546875 -1901.535156 470.777344 -1897.785156 466.351562 -1894.035156 C 458.511719 -1887.886719 452.71875 -1880.042969 446.929688 -1872.199219 C 436.703125 -1858.898438 426.832031 -1844.90625 418.3125 -1830.570312 C 413.875 -1823.414062 410.125 -1816.246094 406.042969 -1808.734375 C 404.679688 -1806.003906 403.660156 -1803.277344 402.292969 -1800.890625 C 409.792969 -1900.515625 413.53125 -2000.828125 413.53125 -2100.796875 C 413.53125 -2227.371094 408.761719 -2353.613281 400.585938 -2479.839844 C 392.753906 -2606.429688 381.851562 -2732.3125 369.914062 -2858.554688 C 367.199219 -2889.945312 364.125 -2921.332031 360.042969 -2952.375 C 359.011719 -2959.886719 356.96875 -2966.367188 351.523438 -2971.828125 C 347.429688 -2975.921875 338.566406 -2979.671875 331.066406 -2979.671875 C 315.738281 -2978.996094 299.042969 -2966.367188 300.753906 -2949.316406 C 302.105469 -2933.269531 302.792969 -2917.238281 304.488281 -2901.207031 C 305.855469 -2885.160156 307.5625 -2869.128906 308.929688 -2853.097656 C 311.988281 -2821.707031 314.71875 -2790.320312 317.445312 -2758.929688 C 323.238281 -2695.464844 328.683594 -2632.011719 333.464844 -2568.546875 C 343.335938 -2441.972656 350.835938 -2315.386719 353.5625 -2188.46875 C 354.585938 -2146.507812 354.929688 -2104.890625 354.585938 -2062.914062 C 353.21875 -2063.9375 351.855469 -2065.300781 350.492188 -2066.335938 C 346.066406 -2069.40625 340.621094 -2071.449219 335.503906 -2073.5 C 332.101562 -2074.867188 328.683594 -2075.886719 325.277344 -2076.5625 C 319.832031 -2077.597656 314.375 -2078.617188 309.257812 -2078.617188 C 307.5625 -2078.617188 305.855469 -2078.617188 304.488281 -2078.617188 C 300.753906 -2078.273438 297.003906 -2077.925781 293.585938 -2076.90625 C 291.890625 -2076.5625 290.523438 -2076.230469 288.816406 -2075.542969 C 285.410156 -2074.179688 282.007812 -2072.8125 278.933594 -2071.105469 C 275.871094 -2069.40625 273.144531 -2067.011719 270.425781 -2064.96875 C 269.394531 -2063.9375 268.371094 -2063.261719 267.351562 -2061.894531 C 265.3125 -2059.511719 262.925781 -2056.4375 261.21875 -2053.363281 C 259.855469 -2050.976562 258.832031 -2048.25 257.8125 -2045.863281 C 257.8125 -2045.175781 257.125 -2044.5 257.125 -2043.464844 C 255.429688 -2036.308594 255.429688 -2029.140625 257.125 -2021.972656 C 257.8125 -2018.570312 259.523438 -2015.152344 260.875 -2012.078125 C 261.5625 -2010.710938 262.238281 -2009.347656 263.257812 -2008.328125 C 265.3125 -2005.597656 267.351562 -2002.523438 270.082031 -2000.140625 C 272.8125 -1997.753906 275.871094 -1995.367188 278.601562 -1993.316406 C 285.753906 -1987.855469 293.929688 -1984.453125 302.105469 -1981.03125 C 309.949219 -1977.960938 318.125 -1974.898438 326.296875 -1973.535156 C 330.734375 -1972.5 335.160156 -1972.167969 339.585938 -1971.480469 C 341.640625 -1971.480469 344.023438 -1971.480469 346.066406 -1971.480469 C 348.449219 -1971.480469 351.179688 -1972.167969 353.5625 -1972.5 C 352.199219 -1918.257812 350.160156 -1863.667969 346.066406 -1809.425781 C 341.640625 -1746.304688 335.503906 -1683.183594 326.988281 -1620.0625 C 326.988281 -1618.363281 326.640625 -1617 326.296875 -1615.289062 C 325.621094 -1611.195312 325.277344 -1606.757812 324.601562 -1602.664062 C 323.582031 -1594.820312 322.21875 -1586.976562 321.195312 -1578.789062 C 318.8125 -1563.429688 316.425781 -1548.074219 314.042969 -1532.71875 C 308.929688 -1501.332031 303.46875 -1469.597656 298.355469 -1438.210938 C 294.617188 -1415.699219 290.871094 -1393.175781 287.121094 -1371.007812 C 282.683594 -1379.195312 277.914062 -1387.039062 271.445312 -1393.863281 C 267.351562 -1397.957031 262.582031 -1401.707031 257.8125 -1405.125 C 253.042969 -1408.53125 247.585938 -1410.914062 241.796875 -1412.96875 C 240.097656 -1413.644531 238.390625 -1413.988281 236.351562 -1414.332031 C 233.621094 -1415.007812 230.890625 -1415.355469 227.832031 -1415.355469 C 226.796875 -1415.355469 226.121094 -1415.355469 225.101562 -1415.355469 C 221.351562 -1415.355469 217.601562 -1414.679688 213.851562 -1413.988281 C 210.449219 -1413.3125 206.699219 -1411.605469 203.636719 -1409.894531 C 200.21875 -1408.1875 197.503906 -1405.800781 194.773438 -1403.414062 C 192.046875 -1401.03125 190.003906 -1397.957031 187.621094 -1395.226562 C 186.597656 -1393.863281 185.566406 -1392.152344 184.890625 -1390.789062 C 183.527344 -1387.714844 181.828125 -1384.308594 181.140625 -1380.558594 C 181.140625 -1379.871094 180.796875 -1378.851562 180.796875 -1378.164062 C 180.464844 -1375.433594 179.777344 -1372.371094 179.777344 -1369.640625 C 179.777344 -1367.933594 179.777344 -1365.878906 179.777344 -1364.183594 C 180.121094 -1360.421875 180.464844 -1356.671875 181.484375 -1353.265625 C 182.503906 -1349.847656 183.871094 -1346.441406 185.566406 -1343.023438 C 186.253906 -1341.316406 187.277344 -1339.617188 188.640625 -1338.253906 C 191.023438 -1335.179688 193.410156 -1331.761719 196.140625 -1329.03125 C 198.867188 -1326.304688 201.929688 -1323.917969 204.988281 -1321.878906 C 206.699219 -1320.511719 208.40625 -1319.480469 210.449219 -1318.804688 C 215.894531 -1316.074219 221.695312 -1313.6875 227.484375 -1311.980469 C 229.527344 -1311.636719 231.578125 -1310.960938 233.621094 -1310.960938 C 238.046875 -1310.269531 242.140625 -1309.59375 246.566406 -1309.59375 C 253.71875 -1309.59375 260.875 -1310.269531 268.027344 -1311.292969 C 271.445312 -1311.636719 274.507812 -1312.65625 277.914062 -1313.34375 C 264.96875 -1229.753906 254.738281 -1145.484375 254.0625 -1060.875 C 253.386719 -997.40625 258.832031 -933.957031 269.394531 -871.511719 C 279.621094 -811.808594 293.929688 -753.125 309.257812 -694.785156 C 320.164062 -652.8125 331.066406 -610.851562 341.296875 -568.886719 C 338.910156 -568.886719 336.179688 -569.910156 333.796875 -569.910156 C 320.851562 -570.585938 307.21875 -568.886719 294.949219 -564.792969 C 288.140625 -562.398438 281.332031 -559.667969 275.195312 -556.261719 C 269.0625 -552.84375 263.601562 -548.75 258.15625 -544.324219 C 248.605469 -536.8125 240.773438 -527.257812 233.964844 -517.03125 C 230.214844 -511.570312 227.484375 -505.421875 224.757812 -499.289062 C 222.027344 -492.796875 219.988281 -486.660156 218.292969 -479.835938 C 218.96875 -481.546875 219.644531 -483.242188 220.332031 -484.953125 C 218.621094 -481.878906 216.925781 -478.472656 216.582031 -475.054688 C 215.894531 -470.960938 215.5625 -467.210938 216.582031 -463.117188 C 217.257812 -461.40625 217.945312 -459.710938 218.96875 -457.65625 C 220.332031 -454.929688 222.371094 -452.886719 224.757812 -451.523438 C 226.121094 -450.160156 227.832031 -449.125 229.871094 -448.792969 C 231.578125 -447.761719 233.621094 -447.429688 235.660156 -447.429688 C 237.703125 -446.742188 239.753906 -446.742188 241.449219 -447.429688 C 244.523438 -447.429688 247.253906 -448.449219 249.636719 -450.160156 C 280.984375 -467.554688 312.675781 -484.609375 343.679688 -502.347656 C 347.429688 -504.402344 351.179688 -506.441406 354.929688 -508.496094 C 360.375 -482.566406 365.144531 -456.980469 368.894531 -430.707031 C 368.894531 -430.363281 368.894531 -430.707031 368.894531 -430.019531 C 368.894531 -430.019531 368.894531 -430.019531 368.894531 -429.34375 L 368.894531 -425.25 C 369.914062 -421.15625 370.257812 -417.0625 370.945312 -412.96875 C 371.96875 -404.777344 372.644531 -396.246094 373.332031 -388.058594 C 374.695312 -372.703125 375.714844 -357.691406 376.390625 -342.347656 C 382.527344 -215.414062 368.5625 -88.496094 360.71875 38.078125 C 359.011719 65.371094 357.65625 93.007812 356.625 120.648438 C 354.585938 120.648438 352.199219 120.980469 350.492188 122.34375 C 347.773438 124.054688 345.390625 126.105469 343.335938 128.148438 C 336.871094 127.472656 330.390625 128.148438 324.257812 129.855469 C 320.164062 130.875 316.425781 132.585938 313.007812 134.625 C 310.625 135.992188 308.238281 137.355469 305.855469 139.066406 C 299.71875 143.503906 294.273438 148.273438 289.160156 153.734375 C 280.640625 163.285156 272.8125 173.871094 264.625 183.757812 C 260.199219 189.214844 255.773438 194.675781 251.335938 200.476562 C 246.566406 206.625 241.449219 212.757812 237.027344 218.90625 C 233.277344 224.367188 230.214844 230.5 227.832031 236.980469 C 226.796875 239.378906 226.121094 241.761719 225.777344 244.148438 C 225.101562 247.898438 224.414062 251.992188 224.757812 255.753906 C 225.445312 261.542969 226.464844 265.984375 228.851562 271.441406 C 229.871094 273.828125 231.910156 275.878906 233.621094 277.921875 C 234.296875 278.953125 235.316406 279.628906 236.003906 280.664062 C 240.429688 284.414062 244.867188 287.144531 250.660156 288.851562 C 254.738281 289.871094 259.179688 290.546875 263.257812 289.871094 C 265.988281 289.871094 269.0625 289.183594 271.777344 288.507812 C 274.507812 287.820312 277.582031 286.453125 279.964844 285.089844 C 283.714844 283.378906 287.121094 280.664062 290.523438 277.921875 C 293.253906 275.535156 295.640625 272.460938 298.023438 269.734375 Z M 299.042969 269.746094 "/></g></g></svg>