<?xml version="1.0" encoding="UTF-8"?>
<svg id="Layer_2" data-name="Layer 2" xmlns="http://www.w3.org/2000/svg" viewBox="0 0 33.66 223.27">
  <defs>
    <style>
      .cls-1 {
        fill: #181818;
      }
    </style>
  </defs>
  <g id="perintilan">
    <path class="cls-1" d="M30.38,168.75c-1.66.65-.88,2.93-2.49,2.77.13-12.28,0-24.61-2-36.75,5.55-.56,8.25-16.16,3.44-14.99-1.16.19-3.72,7.68-5.28,5.75-2.04-14.85-7.36-28.87-9.47-43.73-1.49-10.51-3.87-35.23-2.03-44.88.48-2.52,3.94-4.33,5.31-7.15.63-1.3,3.11-7.67-.04-6.75l-5.29,3.82L15.4,0h-2.88c-2.68,15.19-3.25,30.57-2.89,45.99-2.69-2.52-4.92-6.78-9.16-3.89-2.33,6.44,4.59,8.39,9.23,10.22.5,11.83,1.08,24.38,3.1,36.03,2.93,16.88,10.45,33.41,10.76,50.58-2.11-1.62-3.55-5.05-6.49-4.65l-3.15,1.78c-1.86,6.11,4.82,9.7,10.13,9.1l.94.97v77.14h.95c-.22-.91.97-1.95.97-2.4v-40.25c0-.27,3.11-2.25,4.1-3.58,1.78-2.4,5.25-10.61-.63-8.3Z"/>
  </g>
</svg>