<svg xmlns="http://www.w3.org/2000/svg" xmlns:xlink="http://www.w3.org/1999/xlink" width="1080" zoomAndPan="magnify" viewBox="0 0 810 809.999993" height="1080" preserveAspectRatio="xMidYMid meet" version="1.2"><defs><clipPath id="2d2112f6d6"><path d="M 213.367188 84 L 605 84 L 605 729.472656 L 213.367188 729.472656 Z M 213.367188 84 "/></clipPath></defs><g id="4167e6e5a3"><g clip-rule="nonzero" clip-path="url(#2d2112f6d6)"><path style=" stroke:none;fill-rule:nonzero;fill:#000000;fill-opacity:1;" d="M 335.59375 3423.230469 C 338.046875 3420.074219 340.144531 3417.269531 342.253906 3414.125 C 349.949219 3401.84375 356.960938 3389.574219 364.3125 3377.308594 C 371.667969 3365.027344 379.375 3352.40625 386.726562 3340.136719 C 389.875 3335.238281 392.679688 3329.96875 395.835938 3324.710938 C 395.835938 3338.382812 395.484375 3352.066406 395.835938 3365.734375 C 397.226562 3419.023438 402.835938 3472.316406 412.289062 3524.558594 C 421.398438 3575.738281 434.703125 3625.882812 454.324219 3673.902344 C 464.128906 3698.449219 475.335938 3722.644531 488.285156 3745.777344 C 501.945312 3770.324219 514.554688 3788.910156 531.722656 3810.996094 C 539.417969 3820.457031 547.125 3830.273438 555.527344 3839.042969 C 563.941406 3847.808594 574.101562 3855.871094 583.90625 3863.578125 C 587.050781 3866.039062 591.257812 3866.734375 594.757812 3864.285156 C 597.5625 3862.175781 599.308594 3856.917969 596.855469 3853.761719 C 588.808594 3843.25 581.796875 3831.675781 573.746094 3821.164062 C 566.394531 3811.347656 559.382812 3801.179688 552.734375 3791.007812 C 539.078125 3769.972656 526.808594 3747.886719 515.957031 3725.097656 C 513.152344 3719.488281 510.699219 3713.878906 508.25 3708.265625 C 507.199219 3705.816406 506.152344 3703.011719 504.75 3700.546875 C 504.75 3700.546875 503.699219 3698.449219 503.699219 3697.742188 C 503.003906 3696 502.296875 3694.242188 501.601562 3692.488281 C 497.042969 3680.914062 492.492188 3669.355469 488.640625 3657.78125 C 486.894531 3652.527344 485.492188 3647.257812 483.738281 3641.648438 C 484.433594 3641.648438 484.785156 3641.648438 485.492188 3641.308594 C 487.589844 3640.953125 489.347656 3640.601562 491.445312 3639.90625 C 499.152344 3637.441406 507.199219 3635.34375 514.90625 3633.234375 C 517.003906 3632.539062 519.113281 3631.832031 521.210938 3631.492188 L 527.871094 3630.089844 C 531.015625 3629.027344 533.820312 3627.625 536.273438 3625.171875 C 538.015625 3623.417969 539.417969 3621.320312 540.125 3618.871094 C 541.175781 3616.40625 541.871094 3613.953125 541.871094 3611.503906 C 541.871094 3607.992188 540.820312 3604.847656 539.417969 3601.6875 C 538.371094 3599.929688 536.96875 3598.175781 535.566406 3596.429688 C 535.222656 3596.078125 534.871094 3595.371094 534.515625 3595.027344 C 533.820312 3593.96875 532.773438 3593.273438 532.066406 3592.566406 C 528.917969 3590.113281 526.113281 3587.664062 522.261719 3585.90625 C 518.761719 3584.152344 514.90625 3582.75 511.054688 3582.054688 C 508.25 3581.699219 505.457031 3581.003906 502.652344 3581.003906 C 501.601562 3581.003906 500.199219 3581.003906 499.152344 3581.003906 C 496.347656 3581.003906 493.542969 3581.699219 490.738281 3582.40625 C 488.640625 3582.75 486.542969 3584.152344 484.785156 3585.210938 C 484.785156 3585.210938 484.089844 3585.210938 484.089844 3585.554688 C 483.382812 3585.90625 483.042969 3586.613281 482.335938 3586.957031 C 480.933594 3588.015625 479.882812 3589.417969 478.835938 3590.46875 C 478.835938 3590.113281 479.53125 3589.761719 479.882812 3589.066406 C 479.1875 3589.761719 478.835938 3590.46875 478.480469 3590.820312 C 478.480469 3590.820312 478.140625 3590.820312 477.785156 3591.515625 C 477.785156 3591.515625 475.335938 3594.320312 474.285156 3596.078125 C 474.285156 3596.078125 473.578125 3596.078125 473.226562 3596.078125 C 472.53125 3596.078125 472.175781 3596.078125 471.480469 3596.078125 C 470.433594 3591.515625 469.03125 3586.957031 467.980469 3582.40625 C 462.019531 3557.164062 457.117188 3531.214844 453.261719 3505.617188 C 452.921875 3502.8125 452.566406 3500.007812 451.871094 3497.203125 C 451.871094 3496.863281 451.871094 3495.105469 451.519531 3494.058594 C 451.519531 3494.058594 451.519531 3494.753906 451.519531 3495.800781 C 451.519531 3494.058594 451.164062 3492.300781 450.8125 3490.546875 C 450.117188 3484.242188 449.421875 3477.925781 448.714844 3471.621094 C 447.3125 3458.292969 446.261719 3445.316406 445.214844 3432 C 441.359375 3377.648438 441.007812 3323.308594 443.117188 3268.972656 C 445.214844 3209.363281 450.117188 3150.125 454.664062 3090.515625 C 454.664062 3090.515625 454.664062 3090.160156 455.019531 3089.808594 C 455.019531 3089.808594 455.019531 3090.160156 455.019531 3090.515625 C 455.019531 3090.160156 455.019531 3089.808594 455.019531 3089.46875 C 455.019531 3089.46875 455.019531 3089.46875 455.019531 3089.113281 C 456.066406 3088.066406 456.773438 3087.003906 457.824219 3086.308594 C 458.871094 3085.601562 459.921875 3084.90625 460.628906 3084.199219 C 460.273438 3084.550781 459.566406 3084.90625 459.226562 3085.261719 C 459.566406 3084.90625 460.273438 3084.550781 460.628906 3084.199219 C 461.675781 3085.953125 462.371094 3088.066406 463.773438 3089.808594 C 465.175781 3091.210938 466.578125 3092.273438 468.324219 3093.675781 C 470.078125 3095.078125 471.480469 3096.125 473.226562 3097.175781 C 476.738281 3099.285156 480.589844 3100.6875 484.433594 3102.089844 C 488.640625 3103.492188 492.847656 3103.84375 497.042969 3104.1875 C 507.199219 3105.589844 517.710938 3104.539062 527.871094 3104.1875 C 534.871094 3103.492188 541.871094 3102.785156 548.882812 3101.382812 C 554.832031 3100.332031 560.445312 3098.222656 566.039062 3096.125 C 569.1875 3094.722656 572.34375 3093.320312 575.148438 3091.566406 C 578.648438 3089.46875 582.148438 3086.664062 585.308594 3084.199219 C 586.699219 3082.796875 588.453125 3081.394531 589.503906 3079.992188 C 591.953125 3077.1875 594.40625 3074.042969 596.160156 3070.882812 C 597.210938 3069.125 598.257812 3067.371094 598.964844 3065.628906 C 600.355469 3062.113281 602.113281 3058.617188 603.160156 3054.75 C 604.210938 3051.25 604.5625 3047.394531 604.917969 3043.53125 C 604.917969 3041.433594 604.917969 3039.324219 604.917969 3037.578125 C 604.5625 3029.859375 602.820312 3023.203125 599.308594 3016.191406 C 597.90625 3013.03125 595.453125 3010.226562 593.003906 3007.421875 C 590.550781 3004.617188 587.757812 3002.519531 584.601562 3000.410156 C 577.601562 2995.507812 569.539062 2993.398438 561.136719 2992.703125 C 558.6875 2992.703125 556.234375 2992.703125 553.785156 2992.703125 C 549.578125 2993.042969 545.027344 2993.753906 541.175781 2994.800781 C 534.515625 2996.558594 527.871094 2999.363281 521.566406 3002.519531 C 516.308594 3004.972656 511.40625 3007.777344 506.503906 3010.582031 C 495.296875 3016.886719 483.738281 3023.203125 472.53125 3029.507812 C 467.273438 3032.3125 461.675781 3035.46875 456.421875 3038.273438 C 460.273438 2985.339844 463.773438 2932.402344 464.824219 2879.453125 C 465.871094 2815.652344 463.773438 2751.484375 455.726562 2688.035156 C 447.3125 2624.929688 434.703125 2562.515625 419.996094 2500.457031 C 408.789062 2454.179688 397.582031 2407.902344 386.726562 2361.269531 C 386.726562 2361.269531 387.082031 2361.269531 387.421875 2361.269531 L 390.582031 2361.269531 C 392.679688 2362.332031 395.128906 2362.332031 397.226562 2361.625 C 401.082031 2361.269531 400.386719 2361.625 403.886719 2359.867188 C 405.289062 2359.171875 406.335938 2358.820312 407.738281 2358.125 C 408.433594 2358.125 409.140625 2357.417969 409.835938 2357.0625 C 412.289062 2356.015625 414.738281 2354.609375 417.191406 2353.5625 C 422.105469 2350.757812 427.347656 2347.953125 431.910156 2345.148438 C 443.117188 2338.136719 453.617188 2330.078125 463.773438 2320.953125 C 472.175781 2313.589844 479.882812 2305.175781 486.894531 2296.417969 C 490.042969 2292.554688 492.847656 2288.699219 495.296875 2284.492188 C 497.75 2280.285156 499.492188 2276.078125 501.25 2271.515625 C 502.296875 2269.066406 503.003906 2266.261719 503.347656 2263.8125 C 503.699219 2260.652344 504.394531 2257.492188 504.394531 2253.996094 C 504.394531 2250.835938 503.699219 2247.335938 503.347656 2244.179688 C 502.652344 2239.96875 500.894531 2235.410156 498.796875 2231.554688 C 498.445312 2230.847656 497.75 2229.800781 497.394531 2229.105469 C 495.640625 2226.640625 493.894531 2224.191406 491.796875 2222.09375 C 486.1875 2216.484375 479.1875 2212.617188 471.835938 2210.167969 C 467.980469 2209.117188 463.773438 2208.410156 459.921875 2208.058594 C 457.824219 2208.058594 455.726562 2208.058594 453.617188 2208.058594 C 449.421875 2208.058594 445.566406 2208.765625 441.359375 2209.8125 C 437.507812 2210.863281 433.652344 2212.617188 430.152344 2214.019531 C 428.054688 2215.070312 425.945312 2216.128906 424.203125 2217.886719 C 420.703125 2220.691406 417.191406 2223.140625 414.042969 2226.300781 C 410.886719 2229.445312 408.433594 2232.957031 405.640625 2236.457031 C 404.238281 2238.566406 402.484375 2240.664062 401.433594 2243.128906 C 398.628906 2247.675781 396.53125 2252.59375 394.433594 2257.492188 C 391.984375 2263.457031 389.53125 2269.421875 387.082031 2275.382812 C 383.921875 2283.089844 380.777344 2290.808594 377.972656 2298.871094 C 376.921875 2301.675781 375.875 2304.480469 374.8125 2307.285156 C 369.214844 2281.335938 363.605469 2255.042969 359.410156 2228.75 C 358.363281 2221.738281 357.300781 2214.726562 356.253906 2207.714844 C 356.253906 2205.605469 355.558594 2203.507812 355.558594 2201.753906 C 355.558594 2201.753906 355.558594 2201.046875 355.558594 2200.703125 C 354.851562 2196.835938 354.507812 2192.984375 354.15625 2189.132812 C 352.058594 2173.351562 350.65625 2157.570312 349.605469 2141.449219 C 345.046875 2077.988281 346.800781 2014.1875 352.058594 1951.082031 C 353.460938 1934.949219 355.203125 1918.472656 356.960938 1902.339844 C 357.65625 1894.632812 358.703125 1886.914062 359.765625 1879.207031 C 360.105469 1875.695312 360.8125 1872.195312 361.15625 1868.683594 C 361.15625 1866.585938 361.863281 1864.476562 361.863281 1862.378906 C 361.863281 1862.023438 361.863281 1862.378906 361.863281 1861.671875 C 361.863281 1861.316406 361.863281 1861.316406 361.863281 1860.269531 C 366.410156 1828.367188 371.3125 1796.113281 376.570312 1764.210938 C 387.082031 1700.75 398.628906 1637.644531 408.789062 1574.539062 C 417.898438 1517.734375 425.25 1460.59375 431.554688 1403.449219 C 431.910156 1403.449219 432.605469 1402.742188 433.3125 1402.386719 C 432.25 1403.09375 431.910156 1403.449219 432.605469 1402.742188 C 432.605469 1402.742188 432.957031 1402.742188 433.3125 1402.386719 C 437.152344 1402.386719 441.007812 1402.386719 444.164062 1401.691406 C 477.078125 1392.570312 506.859375 1375.742188 533.113281 1353.660156 C 546.078125 1342.4375 557.285156 1329.816406 567.796875 1316.148438 C 576.550781 1304.574219 584.246094 1292.308594 590.550781 1278.980469 C 594.40625 1270.917969 597.90625 1262.503906 599.308594 1253.734375 C 601.417969 1242.164062 602.113281 1232.003906 599.308594 1220.433594 C 598.257812 1215.519531 596.160156 1210.261719 593.355469 1206.054688 C 591.601562 1202.898438 589.148438 1200.09375 586.699219 1197.289062 C 585.648438 1196.238281 584.601562 1195.191406 583.550781 1194.140625 C 580.746094 1192.03125 577.601562 1189.226562 574.101562 1187.46875 C 570.589844 1185.726562 566.394531 1183.617188 562.539062 1182.921875 C 553.785156 1181.167969 547.125 1181.167969 538.371094 1182.921875 C 536.625 1182.921875 535.222656 1183.617188 533.46875 1184.324219 C 529.613281 1185.726562 525.761719 1187.46875 522.261719 1189.226562 C 517.003906 1192.03125 512.101562 1195.886719 507.554688 1199.75 C 499.492188 1206.054688 493.542969 1214.117188 487.589844 1222.1875 C 477.078125 1235.859375 466.933594 1250.238281 458.175781 1264.953125 C 453.617188 1272.320312 449.761719 1279.6875 445.566406 1287.394531 C 444.164062 1290.199219 443.117188 1293.003906 441.714844 1295.453125 C 449.421875 1193.082031 453.261719 1090.011719 453.261719 987.285156 C 453.261719 857.21875 448.359375 727.492188 439.957031 597.765625 C 431.910156 467.699219 420.703125 338.328125 408.433594 208.613281 C 405.640625 176.359375 402.484375 144.09375 398.289062 112.191406 C 397.226562 104.484375 395.128906 97.8125 389.53125 92.203125 C 385.324219 87.996094 376.214844 84.144531 368.507812 84.144531 C 352.753906 84.851562 335.59375 97.8125 337.351562 115.351562 C 338.742188 131.824219 339.449219 148.3125 341.191406 164.789062 C 342.59375 181.261719 344.351562 197.738281 345.753906 214.222656 C 348.898438 246.480469 351.703125 278.734375 354.507812 310.988281 C 360.460938 376.191406 366.058594 441.410156 370.972656 506.613281 C 381.117188 636.691406 388.824219 766.757812 391.628906 897.179688 C 392.679688 940.300781 393.03125 983.078125 392.679688 1026.199219 C 391.277344 1025.148438 389.875 1023.746094 388.472656 1022.699219 C 383.921875 1019.539062 378.324219 1017.441406 373.070312 1015.332031 C 369.570312 1013.929688 366.058594 1012.882812 362.558594 1012.175781 C 356.960938 1011.125 351.351562 1010.078125 346.09375 1010.078125 C 344.351562 1010.078125 342.59375 1010.078125 341.191406 1010.078125 C 337.351562 1010.429688 333.496094 1010.773438 329.984375 1011.832031 C 328.242188 1012.175781 326.839844 1012.527344 325.082031 1013.234375 C 321.582031 1014.636719 318.082031 1016.039062 314.925781 1017.785156 C 311.777344 1019.539062 308.972656 1021.992188 306.179688 1024.101562 C 305.121094 1025.148438 304.070312 1025.855469 303.023438 1027.257812 C 300.925781 1029.710938 298.472656 1032.867188 296.71875 1036.015625 C 295.316406 1038.476562 294.265625 1041.28125 293.21875 1043.734375 C 293.21875 1044.429688 292.511719 1045.136719 292.511719 1046.183594 C 290.765625 1053.550781 290.765625 1060.917969 292.511719 1068.269531 C 293.21875 1071.78125 294.972656 1075.28125 296.363281 1078.4375 C 297.070312 1079.84375 297.765625 1081.246094 298.816406 1082.292969 C 300.925781 1085.097656 303.023438 1088.257812 305.828125 1090.707031 C 308.632812 1093.171875 311.777344 1095.621094 314.582031 1097.71875 C 321.9375 1103.328125 330.339844 1106.839844 338.742188 1110.339844 C 346.800781 1113.5 355.203125 1116.65625 363.605469 1118.058594 C 368.167969 1119.109375 372.714844 1119.460938 377.265625 1120.15625 C 379.375 1120.15625 381.824219 1120.15625 383.921875 1120.15625 C 386.375 1120.15625 389.179688 1119.460938 391.628906 1119.109375 C 390.226562 1174.847656 388.128906 1230.945312 383.921875 1286.699219 C 379.375 1351.5625 373.070312 1416.410156 364.3125 1481.273438 C 364.3125 1483.03125 363.960938 1484.433594 363.605469 1486.1875 C 362.910156 1490.394531 362.558594 1494.945312 361.863281 1499.152344 C 360.8125 1507.222656 359.410156 1515.285156 358.363281 1523.699219 C 355.910156 1539.480469 353.460938 1555.246094 351.007812 1571.027344 C 345.753906 1603.28125 340.144531 1635.890625 334.886719 1668.144531 C 331.046875 1691.289062 327.191406 1714.421875 323.339844 1737.214844 C 318.777344 1728.800781 313.875 1720.738281 307.230469 1713.726562 C 303.023438 1709.519531 298.121094 1705.652344 293.21875 1702.15625 C 288.316406 1698.640625 282.707031 1696.191406 276.753906 1694.09375 C 275.011719 1693.386719 273.253906 1693.03125 271.15625 1692.691406 C 268.351562 1691.984375 265.546875 1691.628906 262.402344 1691.628906 C 261.339844 1691.628906 260.644531 1691.628906 259.597656 1691.628906 C 255.742188 1691.628906 251.890625 1692.335938 248.035156 1693.03125 C 244.535156 1693.738281 240.683594 1695.496094 237.535156 1697.238281 C 234.023438 1698.996094 231.230469 1701.445312 228.425781 1703.910156 C 225.621094 1706.363281 223.523438 1709.519531 221.074219 1712.324219 C 220.023438 1713.726562 218.964844 1715.46875 218.269531 1716.871094 C 216.867188 1720.03125 215.121094 1723.542969 214.414062 1727.398438 C 214.414062 1728.089844 214.0625 1729.152344 214.0625 1729.847656 C 213.71875 1732.652344 213.011719 1735.8125 213.011719 1738.617188 C 213.011719 1740.371094 213.011719 1742.46875 213.011719 1744.226562 C 213.367188 1748.078125 213.71875 1751.933594 214.769531 1755.445312 C 215.816406 1758.945312 217.21875 1762.457031 218.964844 1765.957031 C 219.671875 1767.710938 220.71875 1769.46875 222.121094 1770.871094 C 224.574219 1774.027344 227.023438 1777.527344 229.828125 1780.332031 C 232.632812 1783.136719 235.78125 1785.589844 238.925781 1787.699219 C 240.683594 1789.101562 242.4375 1790.148438 244.535156 1790.859375 C 250.132812 1793.664062 256.097656 1796.113281 262.046875 1797.871094 C 264.144531 1798.210938 266.253906 1798.917969 268.351562 1798.917969 C 272.902344 1799.613281 277.109375 1800.320312 281.65625 1800.320312 C 289.011719 1800.320312 296.363281 1799.613281 303.71875 1798.5625 C 307.230469 1798.210938 310.375 1797.160156 313.875 1796.46875 C 300.570312 1882.351562 290.058594 1968.957031 289.363281 2055.90625 C 288.667969 2121.109375 294.265625 2186.328125 305.121094 2250.480469 C 315.632812 2311.84375 330.339844 2372.148438 346.09375 2432.09375 C 357.300781 2475.214844 368.507812 2518.347656 379.019531 2561.46875 C 376.570312 2561.46875 373.765625 2560.417969 371.3125 2560.417969 C 358.007812 2559.710938 343.996094 2561.46875 331.386719 2565.675781 C 324.386719 2568.125 317.386719 2570.929688 311.082031 2574.441406 C 304.777344 2577.941406 299.167969 2582.148438 293.570312 2586.710938 C 283.753906 2594.417969 275.707031 2604.234375 268.707031 2614.757812 C 264.851562 2620.367188 262.046875 2626.671875 259.242188 2632.988281 C 256.4375 2639.648438 254.339844 2645.964844 252.597656 2652.976562 C 253.292969 2651.21875 253.988281 2649.464844 254.695312 2647.707031 C 252.9375 2650.867188 251.195312 2654.378906 250.839844 2657.878906 C 250.132812 2662.085938 249.792969 2665.9375 250.839844 2670.144531 C 251.535156 2671.902344 252.242188 2673.65625 253.292969 2675.753906 C 254.695312 2678.558594 256.792969 2680.667969 259.242188 2682.070312 C 260.644531 2683.472656 262.402344 2684.523438 264.5 2684.875 C 266.253906 2685.925781 268.351562 2686.277344 270.449219 2686.277344 C 272.546875 2686.972656 274.65625 2686.972656 276.402344 2686.277344 C 279.558594 2686.277344 282.363281 2685.230469 284.816406 2683.472656 C 317.035156 2665.597656 349.605469 2648.0625 381.472656 2629.832031 C 385.324219 2627.734375 389.179688 2625.621094 393.03125 2623.527344 C 398.628906 2650.171875 403.53125 2676.460938 407.386719 2703.460938 C 407.386719 2703.800781 407.386719 2703.460938 407.386719 2704.15625 C 407.386719 2704.15625 407.386719 2704.15625 407.386719 2704.863281 L 407.386719 2709.070312 C 408.433594 2713.277344 408.789062 2717.484375 409.496094 2721.691406 C 410.542969 2730.105469 411.238281 2738.859375 411.945312 2747.277344 C 413.347656 2763.054688 414.398438 2778.480469 415.09375 2794.261719 C 421.398438 2924.683594 407.042969 3055.101562 398.984375 3185.183594 C 397.226562 3213.230469 395.835938 3241.617188 394.777344 3270.019531 C 392.679688 3270.019531 390.226562 3270.375 388.472656 3271.777344 C 385.679688 3273.53125 383.226562 3275.628906 381.117188 3277.738281 C 374.472656 3277.03125 367.8125 3277.738281 361.507812 3279.480469 C 357.300781 3280.542969 353.460938 3282.289062 349.949219 3284.398438 C 347.496094 3285.800781 345.046875 3287.203125 342.59375 3288.957031 C 336.289062 3293.507812 330.691406 3298.421875 325.4375 3304.03125 C 316.679688 3313.847656 308.632812 3324.710938 300.21875 3334.882812 C 295.667969 3340.492188 291.121094 3346.101562 286.558594 3352.066406 C 281.65625 3358.367188 276.402344 3364.6875 271.851562 3370.992188 C 268 3376.601562 264.851562 3382.917969 262.402344 3389.574219 C 261.339844 3392.027344 260.644531 3394.476562 260.292969 3396.941406 C 259.597656 3400.792969 258.890625 3405 259.242188 3408.855469 C 259.949219 3414.816406 261 3419.378906 263.449219 3424.988281 C 264.5 3427.4375 266.597656 3429.550781 268.351562 3431.644531 C 269.046875 3432.695312 270.097656 3433.402344 270.804688 3434.449219 C 275.351562 3438.304688 279.914062 3441.109375 285.863281 3442.867188 C 290.058594 3443.914062 294.621094 3444.621094 298.816406 3443.914062 C 301.621094 3443.914062 304.777344 3443.21875 307.570312 3442.511719 C 310.375 3441.816406 313.535156 3440.414062 315.984375 3439.011719 C 319.839844 3437.253906 323.339844 3434.449219 326.839844 3431.644531 C 329.644531 3429.195312 332.09375 3426.035156 334.546875 3423.230469 Z M 335.59375 3423.230469 "/></g></g></svg>