<?xml version="1.0" encoding="UTF-8"?>
<svg id="Layer_2" data-name="Layer 2" xmlns="http://www.w3.org/2000/svg" viewBox="0 0 308.69 77.78">
  <defs>
    <style>
      .cls-1 {
        fill: #181818;
      }
    </style>
  </defs>
  <g id="perintilan">
    <g>
      <path class="cls-1" d="M14.81,75.81c-.07-.51-.15-1.02-.24-1.53-.19-1.02-.47-2.03-.79-3.02-.32-1.02-.7-2.01-1.13-2.99-.42-.95-.9-1.87-1.42-2.76-.6-1.02-1.26-2-1.93-2.97-.02-.02-.06,0-.04.02,1.02,1.79,1.75,3.73,2.43,5.67.67,1.95,1.2,3.95,1.59,5.98.11.56.22,1.12.31,1.69.05.29.08.58.13.87.02.13.06.27.1.4.06.21.12.45.34.56.21.1.39.07.56-.07.24-.19.21-.65.21-.93,0-.3-.06-.61-.1-.9Z"/>
      <path class="cls-1" d="M18.15,64.56c-.43.52-.92.99-1.31,1.55-.41.59-.71,1.22-.96,1.89-.23.63-.38,1.27-.5,1.93-.12.7-.2,1.42-.21,2.13,0,.38,0,.76.04,1.14.03.42.12.86.33,1.22.09.16.3.21.46.12.09-.05.19-.11.27-.17.03-.02.06-.05.09-.07.06-.03.14-.04.21-.06.09-.02.08-.17-.02-.17-.06,0-.14.02-.21,0-.04,0-.08-.03-.11-.05,0,0-.02,0-.03,0,.03-.24.04-.49.05-.74,0-.33,0-.65,0-.98.01-.33.03-.65.06-.98.01-.16.03-.32.05-.49,0-.04,0-.08.01-.11,0,0,0-.02,0-.02.01-.08.02-.16.04-.24.21-1.3.62-2.55,1.02-3.81.22-.7.41-1.43.77-2.07.02-.03-.03-.07-.05-.04Z"/>
      <path class="cls-1" d="M20.79,67.25c-.07.18-.14.35-.21.53l-.11.26c-.03.08-.06.17-.1.25-.09.16-.15.33-.22.49-.08.18-.15.37-.22.55-.13.35-.26.69-.38,1.04-.12.35-.21.72-.3,1.08-.05.2-.09.41-.13.61-.03.13-.04.27-.05.4,0,.05,0,.09,0,.14,0,.04,0,.07,0,.1,0,.02,0,.05.01.07,0,0,0,0,0,0-.01.08-.02.15-.04.23-.02.14.04.3.19.33.15.04.28-.05.33-.19l.09-.23s0,0,0,0c.03-.03.06-.07.08-.11.02-.04.04-.07.06-.11.06-.11.09-.23.14-.34.07-.17.12-.36.18-.54.05-.18.09-.36.14-.53.05-.18.1-.36.13-.54.14-.75.25-1.5.34-2.26.01-.1.01-.21.03-.31.01-.1.03-.21.04-.31.03-.21.05-.41.08-.62,0-.04-.05-.04-.06,0Z"/>
      <path class="cls-1" d="M24.22,69.85c-.02-.11-.03-.22-.06-.33l-.07-.33c-.02-.11-.05-.21-.08-.31-.03-.11-.06-.21-.1-.32-.04-.1-.08-.21-.12-.31-.02-.06-.04-.11-.07-.17,0-.03-.02-.05-.03-.08,0-.01,0-.02-.01-.04,0-.02-.02-.04-.03-.06l-.02-.03s0-.01,0-.02c0-.02-.01-.03-.02-.05l-.04-.08s-.02-.05-.03-.07c-.02-.03-.04-.05-.06-.08-.03-.03-.09-.03-.11.01,0,.02-.02.04-.03.07,0,.03-.01.06-.01.09,0,.06,0,.11-.01.17,0,0,0,.04,0,.02,0-.02,0,.03,0,.03,0,.04,0,.07-.01.11,0,.06,0,.11,0,.17-.01.22-.02.43-.02.65,0,.11,0,.22.01.33.01.11.03.21.04.32.03.25.08.51.12.76.02.12.06.23.1.35.02.06.05.12.07.18.01.03.02.05.03.08.02.06.04.11.09.15.01.01.03.02.04.03.03.05.07.1.11.14.01.03.03.05.04.08.02.03.03.05.05.07.01.03.02.06.03.09.02.06.11.05.11-.01,0-.03,0-.07,0-.1.01-.02.02-.04.03-.07,0-.03.01-.07.02-.1-.01.02-.03.05-.04.07.05-.05.08-.1.09-.16,0-.03.01-.07.02-.1l-.07.12c.06-.07.11-.13.12-.22,0-.04,0-.07.01-.11,0-.06,0-.11.01-.17,0-.11,0-.22,0-.33,0-.14-.04-.28-.06-.42Z"/>
      <path class="cls-1" d="M39.27,64.15c-.12.07-.23.14-.34.22-.12.09-.24.2-.37.29.04-.02-.03.02-.04.02-.04.03-.08.06-.12.1-.05.05-.11.1-.16.15-.11.1-.21.2-.32.3-.21.19-.39.41-.56.63-.19.25-.38.5-.54.77-.15.24-.28.49-.41.75-.28.57-.49,1.2-.64,1.82-.08.34-.15.69-.18,1.04-.19-.85-.54-1.67-.91-2.46-.86-1.86-2.04-3.56-3.44-5.06-.39-.41-.8-.81-1.24-1.17-.22-.18-.45-.35-.7-.5-.23-.14-.49-.31-.76-.35-.04,0-.09.03-.08.08.07.22.22.41.36.59.15.2.31.4.47.59.32.37.65.74.97,1.12.16.19.31.37.46.56.08.09.15.19.23.28.02.03.04.05.06.08.04.05.08.11.12.16.29.39.58.79.84,1.21.54.83,1.03,1.69,1.49,2.58.22.44.43.88.62,1.33h0s0,0,0,0c0,.02.02.05.03.07.02.05.04.11.07.16.05.12.09.24.14.36.08.24.16.48.23.72.04.13.07.27.1.4.01.07.03.13.04.2,0,.03,0,.05.01.08,0,0,0,.07.01.09,0,.01,0,.02,0,.02,0,.04,0,.08.01.13,0,.07,0,.13.01.2,0,.13.01.26.01.39,0,.06,0,.13,0,.19,0,.02,0,.05,0,.07,0,.02,0,.03,0,.05,0-.03,0-.03,0,0-.02.16-.04.24-.06.39-.03.17-.04.32.06.47.02.03.04.1.09.1.07,0,.15.02.23,0,.14-.04.26-.19.33-.32.13-.23.22-.47.28-.73.05-.23.08-.38.09-.56.04.04.1.07.15.09.02.04.03.07.04.12.02.1.2.11.21,0,0-.04.02-.08.04-.12.12-.04.22-.15.26-.27.04-.15.09-.29.13-.44.02-.06.03-.29.02-.11,0-.04.01-.08.02-.11.01-.09.03-.18.04-.27.06-.32.12-.64.19-.95.07-.32.16-.63.27-.94.04-.12.08-.23.13-.35.02-.06.05-.12.07-.18,0,0,0,0,0,.02.02-.04.04-.08.05-.12.23-.51.48-1.01.74-1.5.13-.23.27-.46.41-.69.14-.24.27-.48.43-.71.09-.13.16-.26.25-.38.09-.12.17-.25.26-.38.17-.26.36-.5.57-.73.02-.03,0-.07-.04-.05-.24.15-.48.29-.71.44Z"/>
      <path class="cls-1" d="M37.32,68.25s0,0,0,0c.06-.13.01-.04,0,0Z"/>
      <path class="cls-1" d="M42.84,66.92c-.16.28-.32.56-.5.82-.18.27-.34.54-.51.82-.34.57-.65,1.16-.91,1.78-.03.08-.07.17-.1.25-.03.08-.05.17-.07.26-.03.1-.07.22-.08.33,0,.09,0,.17,0,.26,0,.16.21.24.31.13.05-.05.11-.11.17-.16.07-.07.12-.16.17-.24l.12-.19c.04-.07.08-.14.12-.22.08-.17.16-.34.24-.52.06-.14.12-.29.18-.43.12-.29.22-.6.31-.91.09-.31.19-.61.27-.92.04-.17.09-.35.14-.51.06-.18.11-.35.17-.53,0-.02-.03-.03-.04-.02Z"/>
      <path class="cls-1" d="M48.22,66.26c-.14.32-.3.63-.46.95-.09.18-.17.36-.24.54-.07.17-.14.34-.2.51-.06.17-.11.35-.17.52-.06.17-.1.35-.14.53-.09.35-.17.71-.26,1.06-.05.2-.08.39-.11.59-.02.12-.03.25-.04.37,0,.07,0,.15.02.22.01.05.04.1.08.14.02.01.04.03.06.04,0,.01,0,.03.02.04.02.06.08.08.13.03.04-.03.03-.03.09-.04.04,0,.02,0,.09-.03.07-.04.12-.11.16-.18.05-.07.08-.16.11-.24.08-.19.15-.39.21-.59.11-.35.19-.7.29-1.05.05-.18.1-.35.14-.53.04-.18.07-.36.11-.54.04-.2.07-.41.09-.62.02-.18.05-.35.06-.53.01-.4.02-.79.06-1.19,0-.04-.06-.06-.08-.02Z"/>
      <path class="cls-1" d="M94.71,67.21c-.27-.6-.61-1.18-1.03-1.68-.4-.49-.88-.94-1.4-1.29-.29-.19-.59-.36-.9-.51-.32-.15-.65-.26-.98-.39-.02,0-.03.03-.02.04.42.23.79.56,1.13.9.17.17.33.35.48.54.08.1.16.19.23.28.01.02.03.04.04.06,0,0,.01.01.02.02.04.05.07.1.11.14.28.39.52.81.75,1.24.06.11.11.22.16.33.03.06.05.11.08.17,0,.02.02.04.03.06.09.22.16.45.25.68.19.51.32,1.04.39,1.57.01.09.02.18.03.26,0-.05-.01-.11-.02-.16.04.27.04.55.06.82.01.17.03.34.07.51.01.06.03.12.05.18.02.06.03.12.06.17.02.04.06.07.09.1.01.23.35.27.43.06.04-.02.08-.04.12-.07.05-.04.07-.1.1-.15.05-.1.09-.2.14-.31.07-.17.09-.39.1-.57.01-.31.01-.63-.03-.93-.09-.71-.24-1.41-.52-2.06Z"/>
      <path class="cls-1" d="M98.59,65.92c-.22.16-.43.33-.62.52-.38.39-.75.84-.99,1.33-.5,1.03-.79,2.18-.77,3.32,0,.15.02.3.03.45.02.18.04.36.1.53.02.07.05.14.07.21.02.04.03.09.05.13.02.04.04.07.07.1-.03-.04-.01-.01,0,0,0,0,0,0,0,0,.09.12.17.23.25.35.04.05.14.06.15-.02.02-.1.05-.19.08-.29.01-.05.03-.09.04-.13,0-.02,0-.02,0,.02.02-.04.04-.08.04-.12,0-.03,0-.07.01-.1,0-.03,0-.06,0-.08,0-.02.02-.12,0,0,0-.05.02-.1.02-.16.02-.14.03-.27.03-.41.01-.41.05-.82.11-1.22.1-.68.28-1.36.53-2,.06-.16.12-.32.19-.48.03-.07.06-.14.09-.22-.01.02-.02.05,0,0h0s0,0,0,0h0s0-.01,0-.01c0-.01,0-.02.01-.03.02-.05.04-.09.06-.14.04-.1.08-.2.12-.3,0,0,0,0,0,0,0-.02.01-.03.02-.05.02-.04.04-.08.06-.13.08-.16.16-.32.24-.47.09-.17.18-.34.27-.51.11-.18.23-.34.37-.5.02-.02,0-.06-.03-.04-.21.16-.42.31-.64.47Z"/>
      <path class="cls-1" d="M103.15,64.91c-.18.34-.37.67-.59.99-.1.16-.21.31-.3.47-.04.08-.1.16-.14.25-.02.04.05-.05,0,0-.04.04-.06.08-.08.12-.03.04-.05.08-.07.13-.1.17-.2.33-.28.5-.1.2-.19.4-.27.6-.07.18-.15.36-.21.54-.06.18-.12.37-.18.55-.03.1-.05.21-.07.31-.01.05-.02.1-.03.16,0,.04-.02.06-.02.12,0,.06.02.12.05.17,0-.02-.01-.03-.01-.03,0,0,0,0,0,0,0,.04,0,.04,0,.07,0,.05-.01.1-.02.15,0,.06,0,.11,0,.17,0,.05,0,.1-.01.16,0,.05.07.08.1.04.03-.03.06-.07.09-.1.03-.03.07-.06.1-.09.06-.07.11-.16.17-.21,0,0,0,0,.01,0-.05.02-.04.01.05-.02.08-.05.12-.12.17-.19.05-.08.1-.17.16-.25.1-.16.18-.33.26-.5.1-.2.18-.41.27-.62.07-.18.15-.36.21-.54.06-.18.11-.36.16-.54.02-.09.04-.17.07-.26,0-.03.01-.05.02-.08,0-.03,0-.06.01-.1,0-.01,0-.03,0-.04,0-.03.02-.06.02-.09.05-.19.1-.37.13-.56.08-.42.18-.84.3-1.25,0-.03-.04-.05-.05-.02Z"/>
      <path class="cls-1" d="M101.36,69.97h.02s0-.01,0,0c0,0,0,0-.01,0Z"/>
      <path class="cls-1" d="M84.91,68.62c-.21-.36-.45-.7-.71-1.03-.23-.3-.48-.61-.76-.87-.3-.28-.61-.54-.94-.79-.3-.23-.62-.42-.95-.61-.74-.44-1.55-.78-2.38-1.02-.02,0-.04.03-.02.04.67.32,1.29.73,1.85,1.21.14.12.29.25.42.37.14.13.26.28.39.41.25.26.52.54.73.84-.07-.1,0,0,.02.03.03.04.06.08.09.12.04.06.09.12.14.18,0,0,.01.01.02.03,0,0,0,0,.02.03.12.15.23.3.33.46.21.31.39.62.58.94.19.33.36.67.52,1.02.04.08.07.16.11.24.02.04.03.08.05.12,0,.01.01.03.02.04,0,0,0,0,0,0,.07.17.13.34.19.51.07.2.14.4.2.6.07.2.12.41.19.61.07.19.13.39.2.58.02.05.03.1.05.15,0,.02.01.04.02.06,0,.03.06.14.11.19,0,.02.02.04.02.05.02.05.03.08.03.13.01.12.09.22.22.22.12,0,.22-.1.22-.22,0-.02.02-.25.03-.25,0,0-.05.07-.03.05.04-.06.07-.08.09-.16.02-.07.02-.15.02-.22.02-.19.02-.38.02-.56,0-.41-.07-.85-.18-1.25-.22-.78-.53-1.53-.93-2.24Z"/>
      <path class="cls-1" d="M84.44,70.36s-.04-.1,0,0h0Z"/>
      <path class="cls-1" d="M82.15,71.57c-.03-.06-.06-.12-.09-.18-.01-.03-.03-.06-.04-.09,0-.02-.02-.04-.03-.05,0,0,0,0,0,0,0-.01-.01-.03-.03-.07-.06-.13-.12-.26-.19-.38-.07-.13-.17-.24-.25-.36-.18-.26-.4-.5-.61-.74-.19-.22-.39-.44-.59-.66-.2-.22-.41-.43-.62-.63-.21-.2-.42-.41-.64-.6-.46-.39-.93-.75-1.41-1.11-.13-.1-.26-.19-.39-.27-.14-.09-.26-.2-.39-.3-.26-.2-.52-.4-.79-.6-.02-.02-.05.02-.03.04.21.2.41.41.61.62.1.11.21.21.31.32.1.1.18.22.27.33.38.45.74.89,1.12,1.35.19.23.39.45.58.67.19.22.37.44.56.65.4.43.78.87,1.16,1.32.1.12.22.24.33.35.11.12.24.21.37.32.04.03.07.06.11.09-.02-.01.08.06.05.03-.02-.02.02.02.03.02.08.06.11.09.19.16.13.11.25.22.36.34.12.13.33-.04.24-.18-.08-.13-.15-.25-.22-.38Z"/>
      <path class="cls-1" d="M88.57,66.74c-.17.16-.31.34-.48.49-.08.08-.16.15-.23.24-.03.04-.07.08-.1.13s-.07.09-.1.13c-.02.02-.08.09-.01.02-.04.04-.07.08-.1.12-.05.07-.11.13-.16.2-.06.09-.12.19-.17.29-.12.21-.24.43-.34.66-.22.52-.47,1.12-.34,1.7.06.29.22.6.5.74.05.03.12.08.18.09.02,0,.04,0,.06,0,.02,0,.04.02.05.02.11.05.24.08.36.09.14.02.16-.2.03-.24-.05-.02-.11-.04-.15-.08-.02-.02-.04-.04-.05-.06,0-.03-.01-.05-.02-.07,0,0,0-.02-.01-.02,0-.01,0-.03,0-.04,0-.01,0-.02,0-.03,0-.05-.01-.09-.02-.14,0,0,0,0,0,0,0-.05-.01-.1-.02-.14,0,.04,0,.07.01.11,0-.06-.01-.11-.02-.17,0,.04,0,.07.01.11-.02-.15,0-.3.02-.45.05-.3.13-.6.24-.89.1-.28.2-.56.32-.83.08-.19.17-.39.24-.58,0,0,0,0,0,0,0,0,0,0,0,0,.01-.02.02-.05.04-.07.03-.05.05-.11.08-.16.06-.11.11-.23.16-.35,0-.02.02-.05.03-.07,0-.01,0-.02.01-.03.01-.03,0,0,0,.01.03-.05.06-.1.09-.15.05-.09.11-.19.17-.28.11-.19.24-.37.36-.55.15-.2.3-.4.48-.58.02-.02,0-.06-.03-.04-.36.28-.72.56-1.06.87Z"/>
      <path class="cls-1" d="M157.68,62.51c-.22-.73-.45-1.46-.69-2.19-.24-.72-.49-1.43-.8-2.12-.28-.61-.66-1.17-1.18-1.6-.5-.43-1.14-.71-1.81-.74-.03,0-.03.04,0,.05.57.13,1.02.51,1.37.97.18.23.32.49.44.76.04.1.1.23.14.36.06.17.12.33.17.5.21.65.36,1.33.54,1.99.2.71.4,1.41.62,2.11.12.39.25.79.39,1.18.08.23.18.45.3.66.06.11.12.21.2.31.02.03.05.07.08.09.04.04.09.07.15.09.04.05.1.1.17.09,0,0,.06.09.07.11.02.03.06,0,.06-.02,0,0-.01-.12-.02-.12.06-.04.11-.11.1-.18,0,0,0-.02,0-.02.04-.07.07-.14.08-.24,0-.1,0-.19,0-.28-.02-.22-.05-.44-.09-.65-.08-.37-.19-.74-.3-1.11Z"/>
      <path class="cls-1" d="M160.72,55.28c-.17.17-.37.33-.52.53-.15.19-.3.38-.45.57-.31.4-.55.86-.75,1.32-.21.48-.33,1-.41,1.52-.08.53-.12,1.06-.09,1.59.02.31.05.61.13.91.04.13.09.26.14.39.05.13.11.25.2.36.05.14.09.28.14.42.08.21.4.13.35-.1-.03-.13-.06-.27-.08-.4,0-.01,0-.02.01-.03,0-.02,0-.05,0-.07,0,.02,0,.02,0-.01.01-.08.02-.15.02-.22,0-.13.01-.26.01-.38,0-.24-.01-.48-.02-.71-.01-.48,0-.96.06-1.44,0-.03,0-.06,0-.09,0,0,0,0,0,0,.01-.06.02-.12.03-.18.02-.13.05-.26.07-.38.04-.24.09-.47.15-.7.12-.46.22-.93.37-1.38.09-.25.16-.49.28-.73.12-.25.23-.51.38-.75.02-.03-.02-.05-.04-.03Z"/>
      <polygon class="cls-1" points="159.49 59.43 159.49 59.43 159.49 59.43 159.49 59.43"/>
      <path class="cls-1" d="M159.49,59.43c.03-.11,0-.03,0,0h0Z"/>
      <path class="cls-1" d="M163.87,57.21s0-.02,0-.03c0-.02,0-.04,0-.06,0-.04,0-.09,0-.13,0-.04,0-.09-.01-.13,0-.09,0-.19-.01-.28,0-.06-.08-.08-.11-.03-.05.08-.09.15-.14.23-.02.04-.06.07-.08.11-.02.04-.04.07-.06.11l-.03.06s-.01.02-.02.03c-.01.02,0,.01.01-.01,0,0-.04.04-.04.04-.03.03-.05.06-.07.1-.04.08-.08.17-.12.25.02-.03.04-.05.06-.08-.05.06-.09.12-.13.2-.02.05-.04.1-.07.15-.06.13-.13.26-.18.4-.04.11-.07.21-.11.32-.04.11-.07.22-.1.33-.06.21-.12.43-.17.64-.07.25-.11.52-.14.78-.01.12-.04.24-.04.37,0,.08.02.18.03.26,0,.02.01.05.02.07,0,.03.03.06.05.08,0,.02,0,.03,0,.05-.01.11.09.2.19.21.11.01.18-.05.23-.14.03-.02.06-.03.09-.06.02-.02.03-.03.05-.05.05-.05.11-.12.15-.18.04-.07.07-.16.1-.24l.06-.16c.09-.21.17-.42.23-.64.06-.21.11-.43.16-.65.03-.11.06-.22.08-.32.02-.11.04-.23.06-.34.03-.16.04-.31.05-.47,0-.06,0-.12.01-.18,0-.1,0-.17,0-.27v.1c.01-.09.02-.18.03-.27,0-.05,0-.09,0-.14,0,0,0-.03-.01-.04Z"/>
      <path class="cls-1" d="M153.81,64.83c-.06-.37-.14-.73-.25-1.09-.24-.76-.56-1.49-.96-2.17-.78-1.35-1.93-2.46-3.25-3.29-.72-.45-1.48-.82-2.26-1.15-.03-.01-.05.03-.02.04.64.35,1.23.8,1.75,1.31.26.25.51.52.75.8.12.14.25.29.36.44.01.01.02.03.03.04,0,0,0,0,0,0,.03.03.05.07.08.1.05.07.1.14.16.21.21.3.43.6.63.91.2.31.38.63.56.95s.35.64.51.98c.08.17.16.33.23.5,0,.02.03.07.03.09,0-.01-.01-.04-.03-.08.02.04.03.08.05.12.04.09.07.18.1.26.15.38.28.78.4,1.17.06.2.13.39.2.58.02.05.04.1.06.14.02.03.05.06.07.09-.02-.05.04.03.07.08,0,0,0,0,0,0,0,.04.03.08.06.11.03.04.03.04.01.02.06.07.11.11.18.14,0,0,0,0,0,0,.04.12.21.09.21-.03,0,0,0-.01,0-.02.11-.09.16-.19.17-.31,0,0,0-.04,0-.06.02-.05.06-.09.07-.15.03-.12.02-.24.02-.35,0-.14-.02-.27-.04-.41Z"/>
      <path class="cls-1" d="M153.04,65.8s0,0,0,0c0,0,0,0,0,0,.02.03.02.03,0,0Z"/>
      <path class="cls-1" d="M142.51,66.98c-.04-.08-.05-.16-.09-.24-.04-.08-.09-.16-.13-.25-.17-.34-.32-.68-.49-1.01-.08-.16-.16-.32-.23-.49,0-.01-.01-.03-.02-.05-.02-.04-.03-.08-.05-.11-.04-.09-.07-.19-.11-.28-.13-.35-.25-.69-.34-1.05-.04-.18-.08-.37-.12-.55,0-.04-.01-.09-.02-.13,0-.02,0-.04,0-.06,0,0,0-.01,0-.02,0,0,0-.01,0-.02,0-.02,0-.04,0-.06,0-.05-.01-.1-.02-.15-.04-.38-.05-.77-.04-1.15,0-.19.02-.37.04-.56,0-.1.02-.19.03-.29,0-.04,0-.09.01-.13,0-.02,0-.04,0-.07,0,0,0-.03,0-.05,0-.01,0-.03,0-.03,0-.02,0-.04.01-.07,0-.04.01-.09.02-.13.02-.1.04-.21.06-.31.04-.18.08-.36.12-.55.1-.42.24-.82.38-1.22.14-.4.32-.79.54-1.16.03-.04-.03-.09-.07-.05-.28.28-.55.57-.79.88-.25.31-.45.65-.64,1-.39.75-.63,1.56-.72,2.4-.17,1.59.19,3.26,1,4.64.23.39.51.74.84,1.05.16.15.33.3.52.4.19.1.36.29.53.42.08.07.19-.04.12-.12-.12-.14-.28-.29-.36-.45Z"/>
      <path class="cls-1" d="M138.09,66.37c0-.27-.02-.53-.07-.8-.02-.12-.04-.24-.05-.36,0,0,0,0,0,0,0,0,0,0,0-.02,0-.03,0-.06-.01-.09,0-.07-.02-.13-.02-.2-.02-.14-.04-.28-.06-.42,0-.03,0-.06-.01-.09,0-.01-.01-.09,0-.04,0-.07-.02-.15-.03-.22-.12-.99-.16-1.99-.11-2.98.03-.57.11-1.14.21-1.71,0-.03-.04-.04-.05-.01-.28.98-.49,1.98-.61,2.99-.06.51-.1,1.02-.1,1.53,0,.26,0,.52,0,.78.01.27.06.55.09.82.04.3.09.59.21.87.05.13.11.25.17.38.06.13.1.26.15.39.07.2.34.12.31-.09-.02-.12-.05-.23-.04-.35,0-.13,0-.26,0-.39Z"/>
      <path class="cls-1" d="M135.77,66.93s0-.03,0-.05c0,0,0-.01,0-.02.02-.07,0-.13,0-.2,0-.03,0-.06-.01-.09,0,0,0-.02,0-.03.01.09.01.07,0-.06-.04-.15-.11-.28-.18-.41-.12-.22-.24-.44-.38-.64-.14-.19-.28-.39-.41-.58-.16-.23-.32-.47-.5-.69-.16-.19-.31-.38-.47-.57-.15-.18-.3-.36-.47-.53-.17-.18-.32-.37-.49-.55-.08-.08-.16-.16-.25-.23-.1-.08-.19-.19-.28-.29-.18-.19-.36-.39-.54-.58-.19-.2-.36-.42-.53-.63-.02-.02-.06,0-.04.03.13.21.26.42.38.64.12.21.23.43.34.64.05.11.11.21.17.32.06.11.1.22.15.34.1.23.23.44.35.66.12.21.21.42.34.63.13.21.26.42.39.63.25.41.55.8.83,1.2.18.25.36.49.57.71l.14.16s.04.05.06.07l.08.06s.09.08.13.1c.12.05.14.06.05.02.02,0,.03.02.05.03.03.01.05.03.08.04.05.03.1.04.15.04,0,0,0,0,.02.01.02.01.04.01.07.02,0,0,0,0,0,0,.05.04.12.06.17.02.05-.03.09-.1.07-.16,0-.03-.01-.04-.02,0,0-.02,0-.03,0-.05Z"/>
      <path class="cls-1" d="M130.94,67.74c-.04-.05-.08-.12-.12-.19,0-.05-.02-.1-.04-.16-.02-.04-.03-.1-.06-.13,0,.02.01.03.02.05-.01-.04-.03-.08-.05-.11-.01-.02-.02-.04-.03-.06-.03-.05-.05-.1-.08-.15-.12-.16-.23-.33-.33-.5-.11-.17-.23-.33-.34-.5-.11-.16-.21-.33-.32-.49-.12-.17-.22-.34-.33-.51-.11-.17-.23-.33-.34-.5-.1-.16-.23-.31-.33-.48-.1-.17-.22-.33-.31-.51-.1-.2-.2-.4-.3-.6-.1-.2-.18-.42-.26-.63,0-.03-.05-.02-.04.01.03.2.08.4.11.6.03.21.06.41.11.61.02.1.06.19.07.29.02.1.03.2.06.3.03.1.05.19.08.29.03.1.04.2.07.29.05.19.13.38.2.56.09.22.19.43.3.65.09.18.2.35.31.52.13.2.26.4.41.58.15.18.3.35.46.51.06.06.12.12.19.17.02.02.04.03.06.05,0,0,.02.01.03.02.02.01.01,0-.01,0,0,0,0,0,.02.01.05.04.11.07.17.11.05.03.1.05.16.06.07.05.14.1.19.14.07.06.15.14.23.21.18.16.43-.08.27-.27-.07-.08-.15-.16-.21-.24Z"/>
      <path class="cls-1" d="M227,16.99c.02-.1.03-.2.05-.31.04-.2.08-.41.12-.61.09-.39.19-.79.31-1.17.14-.43.28-.85.44-1.28.16-.43.31-.86.53-1.26.02-.04-.03-.09-.07-.05-.3.29-.62.57-.88.9-.27.34-.5.69-.7,1.07-.4.76-.66,1.6-.8,2.45-.23,1.39-.18,2.83.14,4.2-.12-.13-.24-.26-.38-.37-.18-.15-.35-.31-.52-.47s-.33-.33-.49-.5c-.33-.33-.62-.69-.94-1.03-.08-.08-.15-.17-.23-.25-.02-.02-.04-.04-.05-.06,0,0-.02-.03-.03-.03,0,0,.05.07.01.02-.04-.05-.07-.1-.11-.15-.08-.11-.15-.21-.24-.31,0-.01-.02-.02-.03-.03,0,0-.03-.04-.02-.02.01.02,0-.02-.01-.02,0-.01-.02-.02-.02-.04-.03-.05-.06-.1-.1-.15-.13-.22-.27-.44-.37-.67-.11-.25-.2-.5-.28-.75,0-.03-.05-.02-.04.01.04.24.08.47.14.7.05.23.1.46.17.69.03.12.07.23.1.35.03.11.04.22.08.33.08.22.16.44.25.65.06.14.12.28.18.42.05.11.12.21.18.31.12.2.26.39.4.58.1.13.19.25.29.37.08.09.17.17.25.26.17.17.35.32.53.48.13.11.27.21.42.31.11.07.23.13.35.18.09.04.18.08.28.11.03.01.06.02.09.03.03,0,.06,0,.08.01.07,0,.07,0-.01,0h.1s.2,0,.04,0c.01,0,.03,0,.05,0,.04,0,.09,0,.13-.02,0,0,.02,0,.02,0,0,.02.01.04.02.06.16.47.36.93.61,1.35.07.12.16.22.25.32.02.03.06.08.09.11.05.06.11.1.18.14.18.13.35.29.5.46.07.08.19-.02.15-.11-.09-.17-.15-.36-.19-.55-.02-.1-.01-.2-.05-.31-.04-.1-.05-.21-.08-.31-.13-.38-.29-.75-.42-1.13-.13-.38-.24-.77-.32-1.17-.04-.2-.09-.4-.12-.61-.01-.09-.03-.18-.04-.27v-.07c-.02-.06-.02-.12-.03-.18-.08-.81-.07-1.62.03-2.43,0,0,0-.01,0-.02,0,0,0,.01,0,.03,0-.02,0-.04,0-.07,0-.05.02-.1.02-.15Z"/>
      <path class="cls-1" d="M231.72,15.7c-.23.19-.45.43-.64.67-.22.26-.42.54-.61.82-.37.55-.65,1.17-.87,1.79-.23.62-.39,1.26-.48,1.92-.04.34-.09.7-.07,1.04.01.2.03.39.09.58,0,0,.09.24.12.21,0,.01,0,.02.01.03.03.08.07.16.12.24.04.08.18.09.22,0,.03-.07.06-.13.09-.2,0-.02.02-.05.03-.07.02-.01.06-.07.06-.07.09-.13.13-.33.16-.49.01-.07.03-.13.04-.2,0-.05.02-.1.02-.16,0,0,0-.02,0-.03,0-.02,0-.03,0-.05.02-.15.05-.31.08-.46.12-.59.26-1.19.46-1.76.05-.14.1-.28.16-.42.01-.04.03-.07.04-.1,0,0,0-.02.02-.04,0-.02.02-.06.03-.07.02-.04.03-.08.05-.12.12-.28.25-.55.39-.82.28-.54.58-1.08.91-1.59.18-.28.36-.57.55-.85.2-.28.4-.54.63-.79.03-.03,0-.08-.04-.06-.55.3-1.07.65-1.56,1.05Z"/>
      <path class="cls-1" d="M270.24,12.12c-.14.17-.29.34-.42.52-.14.18-.25.38-.38.56-.13.19-.25.37-.34.58-.05.1-.09.21-.14.31-.41-1.48-1.17-2.87-2.19-4.02-.72-.81-1.57-1.46-2.48-2.04-.02-.01-.05.02-.03.04.72.6,1.3,1.33,1.83,2.09.26.38.5.77.72,1.17.11.21.22.42.32.64.05.1.09.19.13.29.01.02.02.05.03.07,0,0,0,0,.01.02.02.04.04.09.05.13.01.03.01.03.02.04,0,0,0,0,0,0,.37.88.63,1.82.77,2.76,0,.04.01.07.02.11,0,0,0,.01,0,.02,0,.01.02.13.02.17,0,0,0,0,0,0,.02.13.03.26.04.4.02.25.04.51.04.76.01.52-.01,1.04-.07,1.55-.06.55-.14,1.07-.26,1.65-.03.14-.07.28-.09.42-.02.14-.01.29-.03.43-.02.14-.04.28-.05.42,0,.17.02.3-.05.47,0,.01.02.02.02,0,.07-.13.16-.21.27-.3.1-.09.19-.21.26-.32.07-.11.14-.21.21-.31.09-.13.14-.26.2-.41.2-.5.34-1.01.44-1.54,0-.05.01-.1.02-.15.01.03.02.05.04.08.04.07.13.1.2.07.08-.03.11-.11.09-.19-.02-.1-.05-.21-.05-.31,0-.09,0-.2,0-.3,0-.22,0-.44,0-.65,0-.11-.01-.22-.02-.32,0-.11,0-.22,0-.33-.01-.22-.01-.44,0-.65,0-.22.03-.43.04-.65,0-.11.01-.22.03-.34,0-.05.01-.1.02-.15,0-.01,0-.08,0-.05,0-.04.01-.08.02-.12,0-.05.01-.1.02-.15,0,0,0-.02,0-.03,0-.02,0-.04,0-.07,0-.05.02-.1.02-.16,0-.05.01-.09.02-.14,0-.03.01-.09,0-.03,0-.02,0-.04,0-.07.01-.09,0-.02,0-.01,0-.03.01-.05.02-.08.01-.06.03-.11.04-.17.03-.11.04-.21.07-.32.05-.24.13-.47.22-.7.09-.23.19-.46.32-.67.02-.03-.02-.06-.04-.03Z"/>
      <path class="cls-1" d="M275.57,12.46c-.33.32-.67.66-1.03.95-.18.15-.36.3-.53.46l-.13.11s-.04.04-.06.06c-.01,0-.02.02-.03.03,0,0-.05.04-.02.02.03-.02-.03.02-.04.03-.02.02-.04.03-.07.05-.07.05-.14.1-.2.16-.18.15-.35.31-.52.47-.18.16-.34.33-.51.5-.17.16-.31.35-.47.52-.17.19-.35.38-.49.59-.15.22-.27.47-.31.74-.02.16-.02.29,0,.45.02.13.11.22.21.29.02.03.03.05.05.08.05.07.12.11.19.12,0,0,0,0,.01,0,.01.01.04.02.05.03.04.01.06.01.1.01.04,0,.04,0,0,0,0,0,0,0,.01,0,0,0,0,0,0,0,.01,0,.03,0,.04,0,.03,0,.05,0,.08.01.1,0,.2.02.29,0,.01,0,.01-.02,0-.02-.09,0-.18-.01-.24-.09,0-.01-.01-.03-.02-.04,0,0,0-.01,0-.02,0,.02,0,.05-.02.07.03-.04.03-.09.02-.13.02-.05.03-.11.01-.17,0-.02.03-.03.04-.05.02-.05.03-.1.05-.15.05-.1.11-.19.17-.28.09-.1.18-.2.26-.3.12-.14.25-.29.38-.43.28-.32.55-.66.8-1.01.11-.15.21-.31.31-.47.05-.07.1-.14.15-.22.06-.08.1-.18.15-.26.09-.17.21-.33.32-.49.11-.16.21-.32.31-.49.11-.18.24-.35.36-.52.13-.18.26-.36.39-.54.03-.04-.03-.09-.07-.05Z"/>
      <path class="cls-1" d="M288.79,10.39c-.17.3-.34.61-.52.9-.09.14-.18.28-.26.42-.09.16-.2.3-.29.46-.36.59-.74,1.18-1.05,1.8-.07.15-.14.3-.21.45-.03-.44-.07-.87-.15-1.3-.25-1.46-.74-2.84-1.37-4.18-.35-.76-.77-1.48-1.21-2.19-.03-.04-.09,0-.07.04.34.65.61,1.33.85,2.02.24.69.41,1.39.56,2.1.08.36.14.72.19,1.08.03.17.05.35.08.52.03.18.04.29.06.5.08.72.15,1.45.17,2.17.01.41.01.82.02,1.23,0,.01,0,.02,0,.03-.09.33-.17.66-.17,1,0,.32.09.66.3.91.04.06.09.1.15.14-.05-.03,0,.01.02.03.03.04.07.06.1.09.1.08.18.18.28.26.08.06.16-.07.1-.14-.06-.08-.14-.18-.16-.27,0-.03,0-.07-.01-.1-.03-.05-.02.03,0-.02.02-.05.02-.13.02-.19,0,.09,0-.05,0-.08,0-.03,0-.05,0-.08v-.02s0-.05.01-.07c.01-.05.03-.11.04-.16,0,.02.04-.22.03-.25,0,0,0,0,0,0,0-.03.01-.06.02-.09.01-.06.03-.12.04-.18.03-.12.07-.24.11-.36.04-.12.08-.24.12-.36.02-.05.04-.1.06-.15.01-.03.02-.06.04-.09,0,0,0-.02,0-.03.12-.28.25-.55.38-.83.15-.33.29-.66.43-1,.25-.61.47-1.24.65-1.88.1-.36.22-.71.33-1.07.11-.36.23-.71.36-1.06.01-.03-.04-.05-.05-.02Z"/>
      <path class="cls-1" d="M293.44,10.23c-.08.16-.16.32-.25.47-.09.15-.17.31-.26.46-.08.16-.17.31-.26.46-.09.15-.17.31-.26.46-.08.16-.16.31-.25.47-.08.16-.15.32-.22.49-.15.35-.3.72-.38,1.09-.02.09-.04.18-.06.28-.02.12-.02.24-.03.35,0,.1,0,.19,0,.29,0,.05,0,.09,0,.14-.01.05-.03.1-.04.15-.02.09.11.16.16.07.04-.07.07-.15.12-.21.06-.06.12-.13.17-.19.05-.06.1-.12.15-.18.07-.09.13-.18.18-.28.04-.07.08-.15.13-.22.06-.1.1-.22.14-.33.07-.17.14-.33.2-.5.06-.17.12-.34.17-.51.05-.17.09-.35.13-.52.04-.17.09-.35.13-.52.03-.18.06-.35.1-.53.1-.39.17-.78.28-1.17,0-.03-.04-.06-.06-.02Z"/>
      <path class="cls-1" d="M304.56,10.08c.03-.09.07-.18.1-.26.14-.39.29-.77.43-1.16.29-.77.55-1.56.78-2.35.24-.79.4-1.6.61-2.4.12-.45.23-.91.34-1.36.11-.45.24-.9.37-1.35.01-.04-.05-.06-.06-.03-.18.41-.36.82-.55,1.22-.19.39-.38.78-.57,1.18-.38.82-.82,1.62-1.17,2.46-.25.6-.48,1.21-.7,1.82-.02-.06-.03-.12-.04-.18-.65-2.39-1.92-4.65-3.98-6.11-1.06-.75-2.2-1.28-3.47-1.56-.03,0-.04.04-.01.05,2.21.6,3.86,2.45,4.92,4.4.14.26.29.52.42.78.06.13.12.25.18.38.03.06.05.11.08.17,0,0,0,0,0,.01,0,0,0,0,0,0,.02.04.04.09.05.13.24.59.45,1.19.62,1.8.19.69.33,1.38.45,2.09,0,.05.01.1.02.15-.12.36-.24.71-.27,1.1-.02.24,0,.5.08.74-.03-.01-.06-.03-.09-.04-.13-.05-.26-.11-.38-.16.05.02.09.04.14.06-.53-.22-1.02-.52-1.5-.83-.12-.08-.24-.16-.35-.24-.05-.04-.1-.07-.15-.11,0,0,0,0-.01,0-.03-.02-.06-.05-.09-.07-.22-.18-.44-.37-.65-.57-.21-.19-.41-.4-.6-.61-.09-.11-.18-.22-.27-.33,0,0-.01-.01-.02-.02,0,0-.02-.02-.01-.02-.02-.02-.03-.04-.05-.06-.03-.04-.07-.09-.1-.13.05.07-.03-.04-.04-.06-.17-.23-.32-.47-.46-.72-.07-.12-.14-.24-.2-.36-.06-.13-.12-.25-.17-.38-.24-.6-.39-1.23-.44-1.87,0-.04-.07-.05-.07,0-.02.72.07,1.44.24,2.14.08.34.18.68.32,1.01.02.05.04.11.07.16,0,0,.03.08.02.04-.02-.04.01.04.01.04.04.11.09.21.13.31.07.16.15.31.24.47.37.65.82,1.27,1.37,1.79.29.27.59.53.92.75.29.2.61.37.93.52.39.19.8.36,1.24.44.17.03.34.05.51.06.02.44.05.87.06,1.31,0,.43,0,.88.05,1.3.03.18.05.37.11.55.07.19.29.45.51.33.17-.09.26-.26.3-.44.05-.2.09-.43.1-.64.02-.37.02-.74.01-1.11,0-.74-.02-1.47-.06-2.21-.04-.67-.09-1.33-.18-2Z"/>
      <path class="cls-1" d="M217.97,22.69c-.1.17-.23.29-.43.29-.09,0-.18,0-.26,0,0,0-.03,0-.05,0,0,0-.01,0-.02,0-.04-.01-.15-.05-.17-.06-.09-.03-.18-.05-.26-.08-.03-.03-.07-.02,0,0-.02,0-.03-.01-.04-.02-.05-.02-.1-.05-.14-.08-.05-.03-.09-.07-.14-.1,0,0-.01,0-.02-.01-.02-.01-.02-.01-.02-.02,0,0-.01-.01-.01-.01-.09-.08-.18-.16-.26-.25-.01-.01-.05-.05-.09-.09,0,0,0-.01-.02-.03-.02-.02-.03-.04-.05-.07-.07-.11-.14-.22-.2-.34-.06-.1-.1-.21-.15-.32,0-.03-.02-.05-.03-.08-.02-.06-.04-.11-.06-.17-.15-.42-.26-.86-.33-1.29,0-.05-.01-.09-.02-.14,0-.03,0-.05,0-.06-.01-.11-.02-.23-.03-.34-.02-.22-.02-.44-.02-.66s0-.44.03-.66c0-.1.02-.2.03-.31,0,0,0-.01,0-.02,0-.02,0-.03,0-.05,0-.06.02-.12.03-.18.08-.44.18-.88.32-1.3.07-.21.15-.41.23-.62.04-.1.08-.2.12-.3,0,0,0,0,0,0,.01-.03.02-.06.04-.08.03-.06.05-.11.08-.17.21-.45.46-.88.76-1.28.3-.4.64-.79,1.03-1.09.03-.02,0-.06-.03-.04-.42.24-.82.49-1.2.8-.37.3-.71.64-1.02,1.01-.65.77-1.12,1.69-1.37,2.66-.25.96-.34,1.97-.21,2.96.07.53.18,1.04.36,1.54.22.58.49,1.14.92,1.6.25.27.57.49.92.59.29.08.64.11.93.02.02,0,.04-.01.06-.02.06-.01.11-.04.15-.08.06-.05.06-.05,0,0,.05-.03.1-.05.15-.08.12-.06.21-.14.3-.24.15-.17.32-.37.41-.58.05-.12-.11-.22-.17-.1Z"/>
      <path class="cls-1" d="M214.93,23.27c-.03-.1-.08-.2-.12-.3-.06-.13-.11-.26-.19-.38-.15-.25-.3-.48-.47-.72-.19-.26-.38-.52-.59-.77-.18-.22-.36-.44-.56-.63-.43-.43-.9-.81-1.4-1.15-.23-.16-.48-.3-.72-.43-.15-.08-.29-.16-.45-.22-.06-.02-.12-.04-.18-.07-.03-.01-.06-.02-.09-.03,0,0-.01,0-.02,0,.03.01.04.02.02,0-.03,0-.07-.03-.11-.04-.29-.12-.58-.2-.87-.31-.3-.11-.61-.2-.93-.26-.04,0-.07.05-.03.07.19.11.37.21.56.32.17.1.36.2.52.32.09.07.18.15.28.22.08.06.17.12.25.19-.05-.04,0,0,.02.02.02.02.04.03.05.05.04.04.08.07.11.11.08.07.16.14.24.21.33.27.64.55.95.85.31.3.61.6.9.91.31.34.62.69.91,1.05.12.15.23.31.34.47.15.22.28.45.44.66-.03-.04-.06-.08-.09-.12.12.16.23.34.36.49.06.07.12.14.19.19.01.01.01,0,.02.02.01,0,.02.02.04.03.1.08.19.12.31.12,0,0,.02.01.03.01.09.04.21.01.24-.1,0-.02,0-.03,0-.05.06-.09.1-.18.1-.3,0-.06-.01-.12-.02-.17-.01-.09-.02-.17-.05-.25Z"/>
      <path class="cls-1" d="M214.97,23.44s0,.05,0,.07c0,.02,0,.03,0,.05,0-.04-.01-.08-.02-.12Z"/>
      <path class="cls-1" d="M218.28,17.23c-.13.22-.26.44-.38.66-.06.11-.12.22-.19.34l-.09.16c-.03.06-.07.11-.1.17l-.09.16-.05.08s-.02.03-.02.04c0,0,0,.01-.01.02.02-.02.02-.03,0-.01-.06.06-.09.13-.13.2-.03.06-.06.12-.1.17-.06.11-.13.22-.19.33-.06.11-.12.22-.18.34-.12.23-.22.46-.33.69-.06.13-.12.27-.17.4-.05.14-.07.29-.08.43-.02.14,0,.28.03.41.04.15.12.31.24.41.07.06.13.1.21.13,0,0,.04,0,.07.01.03.01.07.03.1.04.08.02.14.02.22,0,.01,0,.03,0,.04,0,0,0,0,0,0,0,.05,0,.1-.01.14-.02.04,0,.08-.02.12-.04.06-.02-.02,0,0,0,0,0,.02,0,.03,0,.02,0,.05-.02.07-.03.15-.07.25-.22.25-.38,0-.13-.2-.16-.22-.03,0,.01,0,.02,0,.03,0,0-.01.03,0,.02,0,0-.02.03-.02.04.01-.02-.02.02-.03.02-.01.01.02-.01,0,0,0,0-.02.01-.03.02,0,0-.02,0-.03.01.02,0,.01,0,0,0-.02,0-.04,0-.06.01,0,0,0,0,0,0,0,0-.02,0-.02,0,0,0,0,0,0,0-.01,0-.02,0-.03,0,0,0-.02,0-.03,0,0,0,0,0,0,0-.01,0-.03-.01-.03-.01,0,0-.02-.02-.02-.02-.02-.02-.03-.03-.05-.05,0,0-.02-.02-.03-.02,0-.02,0-.04-.01-.07,0-.01,0-.03,0-.04-.01-.1,0-.2,0-.3.04-.24.14-.48.23-.71.05-.14.12-.27.16-.41.05-.15.09-.3.13-.45l.06-.2c.02-.07.04-.15.06-.23.02-.07.04-.13.06-.2.01-.04.02-.07.03-.11,0-.01,0-.03.01-.04.01-.04.01-.08.02-.12,0,0,0,0,0-.01,0-.01,0-.03.01-.04,0-.04.02-.07.03-.11.02-.07.05-.15.06-.22.03-.14.08-.28.12-.43.1-.33.18-.66.27-.99.01-.04-.04-.06-.06-.03Z"/>
      <path class="cls-1" d="M253.21,14.06c-.04.13-.08.25-.13.38-.04.12-.1.25-.15.37-.1.25-.21.5-.29.75-.04.13-.09.25-.14.37-.05.12-.09.25-.13.38-.04.13-.08.25-.11.38-.03.13-.07.26-.09.4-.03.16-.03.33-.04.5,0,0,0,0,0,0-.03-.08-.05-.17-.09-.25-.22-.5-.46-1-.77-1.46-.17-.25-.34-.5-.53-.74-.17-.21-.33-.43-.52-.61-.11-.11-.22-.21-.33-.32-.11-.11-.21-.22-.33-.33-.23-.21-.47-.42-.71-.62-.03-.02-.07,0-.05.04.15.23.29.45.42.69.13.23.28.46.4.7,0-.02.02.04.02.05.01.03.02.06.03.08.03.08.07.16.11.23.06.12.13.25.19.37.12.25.24.49.35.74.11.24.23.49.34.73.03.06.06.13.08.19.01.03.03.06.04.09,0,0,0,0,0,0,.01.03.03.07.04.1.05.12.11.24.16.37,0,0,0,.02.01.03,0,.02.02.05.03.06.03.06.05.13.08.19.05.12.1.25.14.37.09.26.19.51.28.77.1.29.17.58.27.87.06.18.12.35.2.52.01.03.02.05.03.08,0,.02.01.03.02.05.04.1.08.19.14.27.09.12.21.19.36.17.14-.02.26-.12.3-.26.08-.31.03-.67-.02-.98-.04-.27-.11-.53-.19-.8-.08-.28-.2-.55-.29-.82.05-.02.09-.05.11-.11.01-.03.02-.06.03-.09,0-.02,0-.03.02-.05,0,0,.02-.05,0-.02.01-.03.03-.05.05-.08,0,0,.01-.03.02-.03,0,0,.01-.01.03-.03,0,0,0-.01.01-.02.04-.07.06-.15.1-.23l.08-.18c.05-.13.08-.26.11-.39.03-.13.06-.26.08-.39.02-.13.04-.26.06-.39.01-.08.02-.16.02-.24,0-.01.01-.12,0-.05,0-.04,0-.07.01-.11.04-.28.06-.55.08-.83l.04-.42c.01-.15.04-.3.06-.46,0-.03-.04-.05-.05-.01Z"/>
      <path class="cls-1" d="M258.17,14.39c0-.11-.02-.22-.02-.34,0-.12,0-.23,0-.35,0-.12-.02-.23-.02-.35,0-.24.02-.49.04-.73,0-.03-.05-.04-.05,0-.05.21-.1.42-.15.62-.05.21-.14.4-.2.61-.06.21-.14.4-.2.61-.06.21-.12.41-.18.61-.12.41-.2.83-.26,1.26-.04.24-.07.49-.1.74-.02.21-.06.43-.07.64-.01.23-.03.47,0,.7.01.12.03.23.05.35.01.09.02.16.06.24.02.05.04.09.05.14.03.09.14.1.19.03.06-.08.13-.16.17-.25.04-.09.08-.18.12-.27.05-.11.1-.23.14-.35.03-.1.05-.21.08-.31.05-.21.09-.42.12-.63.04-.24.09-.49.12-.73.05-.42.11-.85.12-1.28,0-.21-.01-.43,0-.64,0-.1,0-.2,0-.3Z"/>
      <path class="cls-1" d="M246.4,17.58c-.04-.11-.08-.23-.12-.35,0,.04.01.08.02.13-.01-.09-.02-.18-.05-.27-.02-.04-.03-.09-.05-.14-.05-.14-.09-.27-.16-.4-.09-.19-.19-.38-.28-.56-.09-.19-.19-.37-.3-.55-.05-.09-.11-.18-.17-.26-.06-.09-.13-.2-.21-.29-.09-.14-.19-.27-.29-.41-.11-.15-.22-.3-.33-.45-.11-.15-.23-.29-.34-.44-.11-.15-.22-.3-.34-.45-.03-.04-.09-.02-.08.03.05.18.1.35.15.53.05.18.08.36.14.53.06.17.11.35.16.53.05.18.1.35.16.52,0-.04-.01-.08-.02-.12,0,.14.05.26.1.39.03.1.07.2.1.29.09.23.19.46.3.68.09.19.18.38.28.57.05.09.11.18.17.27.08.12.15.23.25.33-.03-.03-.05-.06-.08-.1.07.1.14.21.21.31.07.11.12.22.19.33.1.17.32.24.5.16.08-.03.15-.09.19-.16.05-.09.08-.21.04-.31-.05-.11-.1-.23-.14-.34Z"/>
      <path class="cls-1" d="M241.22,19.21s0-.08,0-.12c0-.02,0-.04,0-.07,0-.03,0-.03-.01.01-.02.04-.02.05,0,.02.05-.11.03-.22.02-.34,0-.05,0-.09,0-.13,0-.04,0-.05,0-.07,0,0,0,.02,0,0,0-.02,0-.05,0-.07-.02-.21-.04-.42-.07-.63l.02.13c-.02-.16-.03-.32-.06-.47-.02-.12-.04-.24-.06-.36,0,.05.01.09.02.14-.02-.16-.05-.32-.08-.48-.02-.12-.06-.24-.09-.36-.01-.06-.02-.12-.03-.18,0-.02,0-.04,0-.06,0,0,0-.02,0-.02-.02-.14-.05-.28-.07-.43,0-.02,0-.05-.01-.08,0-.01,0-.06,0-.06,0-.06,0-.12,0-.19,0-.12-.03-.23-.02-.35.02-.25.06-.5.11-.74,0-.04-.06-.08-.08-.03-.08.18-.15.36-.21.54-.03.08-.05.17-.08.26-.04.1-.09.19-.12.3-.06.18-.12.37-.17.56-.05.18-.07.36-.11.54-.05.22-.07.45-.06.68,0,.13.03.27.05.4.01.1.03.2.05.3.06.21.13.42.23.62.04.08.08.16.12.25.01.02.02.04.03.06.02.03.05.06.07.1,0,0,0,.01,0,.02.02.03.03.05.05.08.04.06.08.12.13.17.03.03.05.04.07.05,0,0,.03.04.04.05.07.08.14.15.2.23.07.09.14.17.2.27.06.09.12.18.18.28.02.03.07,0,.05-.03-.08-.16-.17-.32-.21-.5-.02-.08-.04-.16-.05-.24Z"/>
      <path class="cls-1" d="M65.75,65.6c-.06.02-.11.05-.16.07-.02.01-.04.02-.06.03-.03.02-.02.01-.05.03-.11.04-.22.09-.33.15-.11.06-.21.15-.31.23-.17.13-.35.28-.49.44-.16.19-.31.38-.44.59-.12.18-.22.38-.31.58-.09.2-.17.41-.24.61,0-.19,0-.38.01-.56,0-.11.02-.21.03-.32,0-.03,0-.07.01-.11,0-.03,0-.06.01-.09.03-.21.07-.42.11-.64.16-.83.41-1.65.71-2.44.16-.42.32-.83.5-1.25.05-.12.09-.24.14-.36.04-.1.11-.19.16-.29.06-.1.1-.21.14-.32.05-.12.12-.22.2-.33.03-.04-.03-.08-.07-.05-.08.08-.17.16-.26.23-.09.06-.18.12-.26.19-.16.15-.31.32-.47.47-.32.3-.59.69-.84,1.05-.52.75-.85,1.63-1.09,2.5-.46,1.75-.49,3.73.07,5.46.16.5.36.98.66,1.41.18.25.36.44.61.62.09.07.2.09.31.14.06.03.13.06.2.06.07,0,.12-.02.18.01.03.01.06-.01.04-.04-.04-.07,0-.18-.02-.27-.02-.12-.02-.21-.05-.34-.03-.11-.08-.23-.12-.33.03.07,0-.03-.02-.05-.03-.09-.07-.18-.11-.26-.02-.04-.04-.09-.06-.13-.02-.04-.05-.13-.02-.04-.05-.13-.1-.26-.16-.39,0-.01-.03-.07-.04-.09,0,0,0,0,0,0-.01-.03-.02-.06-.04-.09-.04-.1-.07-.2-.11-.3-.02-.05-.03-.11-.05-.16,0-.05,0-.09,0-.14,0-.03,0-.06,0-.09,0-.01,0-.03,0-.04,0,.04,0,0,0-.01,0-.03.02-.05.02-.08,0-.03,0-.06.01-.08,0,0,0,0,0,0,0,0,0,0,0,0h0s0,0,0,0c0,0,0,0,0,0,.01-.05.02-.1.02-.16,0-.05.02-.1.02-.15v-.05s0,0,0,0c0-.02,0-.04,0-.05,0-.03,0-.05.01-.08.03-.15.05-.3.07-.45,0,.04,0,.07-.01.11.08-.56.21-1.1.42-1.62.08-.19.17-.37.27-.54.11-.19.21-.39.34-.58.12-.18.24-.37.36-.54.03-.04.06-.09.09-.13,0,0,0,0,0,0,.02-.02.04-.05.06-.07.08-.1.15-.2.22-.31.12-.18.29-.36.47-.53.04-.04,0-.12-.06-.1-.1.03-.2.07-.3.11Z"/>
      <path class="cls-1" d="M61.38,72.07s-.03-.28-.01-.13c0-.06-.02-.12-.02-.18-.02-.16-.04-.31-.07-.47-.1-.59-.31-1.19-.53-1.75-.45-1.16-1.02-2.27-1.74-3.29-1.44-2.02-3.3-3.72-5.48-4.91-1.2-.66-2.52-1.06-3.85-1.36-.03,0-.05.04-.01.05,1.12.41,2.17,1.01,3.16,1.67.98.66,1.86,1.34,2.71,2.18.42.42.83.86,1.21,1.32.09.11.17.21.26.32.05.06.09.12.14.18,0,.01.02.02.02.03,0,0,.04.05.05.07.18.24.36.48.53.73.66.97,1.24,2.02,1.71,3.1.01.03.03.06.04.09,0,.01.01.03.01.03.03.08.06.15.09.23.06.15.12.31.18.46.12.31.23.62.32.94.05.16.11.31.17.47.03.08.05.16.08.24,0,.03.02.06.03.09.02.05.03.08.04.1,0,.02.01.03.02.05.07.17.12.36.21.52.09.15.19.25.32.37.07.06.18.05.23-.03.07-.12.14-.24.17-.37.04-.17.04-.33.03-.5,0-.07,0-.15-.01-.22Z"/>
      <path class="cls-1" d="M115.7,66.3s.1-.05.15-.06c.03,0,.03-.06,0-.05-.07,0-.14.02-.2.02-.06,0-.13,0-.19,0-.14,0-.28.02-.42.06-.03,0-.14.03-.03.02-.05,0-.11.01-.16.03-.08.03-.17.07-.25.11-.15.07-.28.17-.41.28-.05.04-.11.09-.16.13-.07.07-.13.14-.19.22.1-.43.22-.86.35-1.28.08-.25.15-.5.2-.75.03-.13.05-.25.08-.38.01-.07.03-.14.02-.21,0-.06,0-.11.02-.18,0-.04-.04-.07-.07-.04-.04.04-.07.07-.11.1-.05.03-.1.06-.14.1-.09.09-.18.18-.25.29-.15.19-.27.4-.38.61-.24.45-.39.94-.5,1.43-.11.48-.21.99-.24,1.48-.01.24-.03.49-.01.73.02.26.05.52.09.77.04.26.1.53.19.78.05.12.09.24.12.37.03.14.07.27.1.41.02.06.12.05.11-.01-.03-.24-.07-.48-.04-.72.01-.11.03-.22.04-.33,0-.1,0-.25.03-.32,0-.04.01-.08.01-.12,0,0,0,.01.02.02,0,.01.02.02.02.03.04.06.1.12.15.18.05.07.08.14.12.22.03.05.1.02.09-.04-.02-.07-.05-.15-.05-.23,0-.02,0-.04,0-.06,0-.02,0,0,0-.01,0,0,0-.02,0-.03,0-.03.02-.07.02-.1.01-.07.04-.14.06-.21.01-.04.02-.07.03-.11.02-.07.03-.13.04-.2,0,.03,0,.07-.01.1.01-.11.04-.21.06-.31.03-.11.05-.22.07-.32.05-.19.12-.38.19-.57.08-.17.17-.34.27-.5.06-.08.12-.17.17-.25.05-.09.11-.17.17-.25.04-.06.09-.11.13-.17-.02.02-.04.05-.06.07.06-.08.13-.16.2-.24.02-.02.04-.05.06-.08,0,0,0,0,0,0,.02-.02.03-.03.04-.04.04-.04.07-.07.11-.1.07-.06.14-.14.2-.19.04-.03.08-.06.12-.09Z"/>
      <path class="cls-1" d="M118.56,65.78s-.05,0-.08.01c0,0-.02,0-.03,0-.04,0,.02,0-.02,0-.05,0-.09,0-.14,0-.12.01-.23.06-.34.1-.04.01-.09.02-.13.03-.05.02-.1.04-.15.06-.11.05-.22.1-.33.15-.21.11-.4.25-.59.4-.16.13-.3.28-.43.44-.15.19-.28.39-.4.6-.11.21-.21.44-.29.67-.03.1-.06.19-.09.29-.03.13-.05.27-.06.41-.01.11-.03.23-.02.34.02.14.04.28.07.42.02.07.08.18.13.24,0,0,0,0,.01,0,.01.03.02.06.04.09,0,0,0,.02.01.03-.01-.04,0,.02,0,.02,0,.03.01.05.02.08.02.06.04.12.06.18.02.06.08.11.15.1.06,0,.12-.06.11-.13,0-.08-.02-.16-.02-.24,0-.02,0-.04,0-.06,0,.04,0-.02,0-.03,0-.03.01-.05.02-.08.04-.06.08-.12.1-.19.02-.07.03-.13.04-.2.02-.07.04-.13.05-.2.01-.07.03-.14.04-.21.06-.26.14-.52.24-.76.16-.36.37-.7.6-1.01.07-.08.13-.16.2-.25-.02.03-.04.06-.07.09.2-.25.42-.49.66-.7.03-.02.06-.05.08-.07.02-.01.03-.02.05-.04.01,0,.04-.03-.02.01.02-.02.05-.03.07-.05,0,0,.01-.01.02-.02.01,0,.03-.02.03-.02.03-.02.07-.04.1-.06.03-.02.07-.04.1-.06.02-.02.05-.04.07-.06-.03.02.01,0,.02-.02.06-.05.14-.08.21-.11.16-.07.33-.13.51-.18.04,0,.03-.06,0-.06-.21-.01-.42,0-.63.03Z"/>
      <path class="cls-1" d="M111.97,71.05s0-.05-.01-.08c0-.07,0-.04,0-.02,0-.01,0-.01,0-.04,0-.04-.01-.08-.03-.12-.04-.12-.07-.25-.1-.37-.14-.49-.37-.98-.6-1.44-.44-.88-.95-1.71-1.54-2.49-.61-.8-1.28-1.55-2.04-2.22-.75-.66-1.56-1.23-2.43-1.73-.95-.55-1.93-1.03-2.93-1.45-.02-.01-.04.03-.02.04.86.43,1.68.96,2.41,1.58.74.62,1.42,1.3,2.07,2,.33.35.65.71.95,1.08.07.09.15.18.22.27.04.05.08.1.12.15.02.02.03.04.05.06,0,0,0,0,0,0,0,0,0,0,0,.01.07.09.13.17.2.26.03.03.04.05.05.07,0,0,0,0,0,0,.02.03.04.05.06.08.04.05.07.1.11.15.58.78,1.11,1.6,1.58,2.45.26.47.48.95.73,1.42.06.12.13.24.2.36.05.09.09.16.15.24-.01-.02-.05-.07,0,0,.02.03.04.07.07.1.08.12.16.26.26.36.05.04.1.08.15.11,0,0,.05.05.03.02.02.03.04.07.05.11.07.15.26.04.24-.1-.02-.11.02-.2.04-.31.03-.14,0-.31-.03-.45,0-.03-.01-.1-.01-.09Z"/>
      <path class="cls-1" d="M111.98,71.14s0,0,0,.01c0,.02,0,.02,0-.01Z"/>
      <path class="cls-1" d="M170.93,56.74s-.02-.03-.02-.04c0-.04-.01-.07-.03-.11-.01-.03-.04-.05-.06-.07-.03-.05-.05-.11-.08-.16-.1-.18-.2-.35-.28-.53,0,0-.01-.02-.02-.04,0,0,0,0,0,.01-.02-.04-.04-.1-.06-.14-.04-.1-.07-.19-.1-.29-.06-.2-.11-.39-.16-.59-.09-.4-.17-.8-.23-1.21,0-.06-.02-.12-.03-.18,0,0,0-.03,0-.06-.02-.12-.03-.23-.04-.35-.03-.24-.05-.47-.08-.71-.11-.95-.17-1.9-.2-2.85-.03-.95-.06-1.9-.01-2.85.02-.53.02-1.06.07-1.59.05-.54.12-1.08.22-1.62,0-.04-.05-.06-.06-.02-.3.94-.59,1.89-.84,2.84-.12.46-.19.92-.27,1.39-.08.51-.17,1.02-.22,1.54-.16,1.78-.1,3.61.22,5.37,0,.09,0,.19,0,.28,0,.25-.01.5,0,.75,0,.13,0,.26.02.38.01.14.02.28.05.42.02.07.03.14.05.2,0,.03.02.07.02.1,0,.04.03.08.05.12,0,.02,0-.02,0,.02,0,.02,0,.04.01.06,0,.03.01.07.02.1.01.07.03.14.04.21.03.14.24.1.24-.03,0-.13,0-.26,0-.38h0s.01-.05.02-.06c0-.04,0-.07,0-.11,0-.07,0-.13,0-.2,0,0,0-.01,0-.02,0,.01,0,.03.02.04.1.21.2.43.33.62.08.12.19.26.3.36.11.11.25.17.38.24.4.21.91-.14.78-.6-.03-.09-.05-.18-.08-.27Z"/>
      <path class="cls-1" d="M9.4,74.98s0-.05,0-.09c0-.1-.05-.22-.08-.32-.07-.21-.17-.39-.29-.58-.21-.35-.48-.68-.74-1-.49-.61-1.03-1.19-1.62-1.7-1.2-1.06-2.62-1.84-4.11-2.41-.82-.32-1.67-.57-2.53-.77-.02,0-.03.03-.01.04,1.46.45,2.81,1.2,4.03,2.11.28.21.56.43.86.68.3.24.58.49.87.75.57.5,1.12,1.04,1.62,1.6.14.16.28.31.41.48.07.08.14.17.2.25.01.02.03.04.04.06.05.06-.02-.03.01.01.03.04.07.09.1.13.08.1.16.21.24.31.03.04.06.07.09.11.01.02.03.04.04.06.02.03.02.03.01.02,0,.01.03.03.05.07.07.07.14.14.22.2.04.03.08.07.12.1.03.03.07.04.11.06.05.04.08.1.12.15.13.17.37.03.28-.17-.02-.04-.05-.09-.06-.13Z"/>
      <path class="cls-1" d="M308.63,2.98c-.13.21-.26.41-.39.62-.13.21-.27.4-.41.61-.26.41-.53.82-.78,1.23-.51.84-.92,1.72-1.33,2.61-.11.24-.23.49-.34.73-.13.28-.22.57-.3.87-.05.21.07.39.26.47.16.06.35.09.52.04.1-.03.14-.13.13-.22-.01-.07-.05-.14-.08-.2.09-.13.19-.27.27-.41.12-.21.22-.44.32-.66.21-.44.43-.88.63-1.32.1-.22.2-.45.3-.67.11-.25.2-.51.29-.76.17-.45.31-.91.46-1.37.08-.25.15-.5.24-.76l.26-.78s-.04-.05-.06-.02Z"/>
      <path class="cls-1" d="M300.28,13.8c-.01-.05-.03-.11-.07-.15-.03-.04-.06-.07-.09-.1-.03-.03-.05-.06-.08-.09,0,0-.01-.01-.02-.02,0,0,0,0,0,0-.02-.03-.04-.07-.07-.09-.12-.13-.24-.25-.37-.36-.13-.12-.25-.24-.38-.36-.13-.12-.26-.24-.38-.37-.13-.14-.26-.29-.38-.44-.1-.13-.2-.26-.29-.39.03.03.05.07.08.1-.14-.18-.27-.37-.39-.56-.12-.19-.24-.38-.36-.58-.06-.1-.1-.21-.16-.3-.03-.04-.05-.09-.07-.14,0,0,0,0,0,0,0,0,0-.02,0-.02-.01-.03-.02-.06-.03-.09-.05-.12-.09-.23-.15-.35-.05-.1-.08-.18-.11-.29-.07-.25-.12-.5-.15-.76,0-.05-.08-.06-.09,0-.03.22-.04.45-.04.67,0,.11,0,.21,0,.32,0,.11-.02.22,0,.33.01.13.03.26.05.38,0,.03,0,.05.01.08,0,0,0,0,0,.01,0,0,0,0,0,0,0,.08.02.16.03.24.04.22.09.44.16.65.07.24.19.47.31.7.1.2.21.39.34.57.16.21.32.42.5.61.18.19.36.38.57.53.1.07.2.14.3.21.05.03.11.07.16.1.08.05.17.08.26.11.05.02.11.04.16.06.04.01.08.02.12.02,0,0,0,0,0,0,.02,0,.03.01.05.02.06.02.12.03.18.04.08.01.17,0,.24-.02.05,0,.1,0,.16,0,.1,0,.15-.13.08-.2-.03-.03-.05-.06-.07-.08Z"/>
      <path class="cls-1" d="M208.01,26.02c-.08-.06-.15-.12-.23-.17-.07-.04-.13-.11-.21-.16-.07-.04-.15-.09-.22-.14,0,0-.02-.02-.02-.02-.03-.04-.08-.07-.11-.09-.03-.02-.07-.04-.1-.06-.09-.06-.17-.11-.25-.17-.01-.01-.03-.02-.04-.03-.03-.03-.07-.06-.1-.08-.07-.06-.15-.13-.22-.19-.29-.25-.56-.52-.81-.81-.06-.07-.12-.14-.18-.21-.03-.04-.06-.07-.09-.11-.02-.02-.03-.04-.05-.06-.12-.14-.23-.3-.33-.45-.49-.7-.95-1.42-1.38-2.17-.42-.73-.8-1.49-1.17-2.25-.43-.86-.79-1.75-1.07-2.67,0-.03-.06-.02-.05,0,.1.86.24,1.73.44,2.58.21.88.51,1.72.89,2.55.1.22.22.44.34.65-.06.09-.12.17-.18.26-.06.09-.11.17-.16.26-.05.08-.11.19-.16.25-.14.17-.23.39-.34.58-.11.19-.22.38-.32.58-.1.19-.18.38-.26.57-.18.42-.35.86-.45,1.3-.06.27-.12.54-.14.82-.01.16-.03.31,0,.47,0,.05.02.11.04.16.02.08.05.11.09.16,0,0,.01.02.02.03.02.05.04.09.08.12.06.04.12.06.19.05.08-.02.12-.06.16-.12.02-.01.04-.01.05-.03-.09.09.02,0,.06-.04.05-.05.08-.11.12-.17.08-.12.11-.26.15-.39.06-.2.11-.41.17-.62.1-.41.21-.83.29-1.25.09-.42.19-.83.29-1.25.05-.21.11-.41.18-.61.04-.12.04-.18.08-.29.03-.1.07-.21.11-.31.03-.08.07-.16.1-.24.25.46.52.9.81,1.34.46.68,1,1.34,1.62,1.88.19.16.39.31.6.44.09.06.19.11.28.16.11.06.24.14.36.17.1.03.2.04.29.07.05.01.11.03.17.04.09.02.16,0,.25,0,.01,0,.07.02.12.02.05,0,.12,0,.17-.02.11-.02.21-.04.32-.05.08,0,.14-.13.04-.17-.07-.03-.16-.06-.22-.11Z"/>
      <path class="cls-1" d="M240.61,19.76c-.12-.32-.29-.64-.45-.94-.15-.28-.31-.55-.47-.82-.18-.3-.4-.57-.61-.85-.39-.5-.82-.94-1.31-1.35-.26-.22-.52-.42-.81-.6-.26-.17-.51-.35-.77-.51-.61-.36-1.23-.7-1.86-1.02-.03-.01-.05.02-.02.04.53.32,1.03.69,1.48,1.12.22.21.45.43.66.66.11.11.2.24.3.36.01.02.08.11.03.04.03.04.07.09.1.13.05.06.1.12.16.18.05.06.1.12.14.18.02.03.05.06.07.09.01.01.02.03.04.04,0,0,0,.01.01.02,0,0,0,.01.01.02.01.01.02.03.03.04.02.03.04.06.07.09.07.09.13.18.2.27.02.03.1.13.01.01.02.03.05.06.07.09.04.06.09.12.13.18.09.13.18.25.27.38.36.5.71,1.02,1.02,1.55.18.3.34.61.5.92.07.15.17.29.25.44.04.08.09.15.14.23.04.05.08.12.12.16.05.05.11.08.18.1.06.06.12.11.21.13.07.02.14-.01.17-.07.05-.08.07-.16.07-.25.05-.08.07-.17.06-.27-.01-.11-.03-.22-.06-.33-.04-.15-.09-.3-.14-.44Z"/>
      <path class="cls-1" d="M172.82,46.58c-.06-.26-.13-.52-.21-.78,0-.04-.06-.03-.06,0-.04.48-.1.95-.14,1.42-.04.48-.07.96-.11,1.45-.04.48-.07.95-.1,1.43-.03.48-.08.96-.12,1.44-.02.26-.04.52-.04.78,0,.09,0,.18.01.27,0,0,0,.01,0,.02,0,.05.01.09.02.14,0,.06.03.13.04.19,0,.03.01.06.03.09.04.05.05.06.02.03,0,.02,0,.04,0,.06-.02.16.24.19.28.04,0,0,.03-.08.01-.06.02-.03.06-.04.08-.08.03-.05.06-.1.08-.14.07-.12.13-.25.17-.38.06-.24.12-.47.16-.71.08-.5.13-1,.16-1.5.06-.98.03-1.96-.12-2.93-.04-.26-.08-.53-.14-.79Z"/>
      <path class="cls-1" d="M182.87,46.93c-.17,0-.35,0-.52-.03-.07-.01-.12-.04-.19-.07-.08-.04-.16-.06-.21-.09-.09-.07-.17-.13-.26-.18-.08-.04-.15-.08-.22-.12-.16-.1-.33-.19-.48-.29-.07-.05-.14-.1-.21-.15-.03-.02-.07-.05-.1-.07,0,0-.02-.02-.03-.02-.15-.13-.3-.26-.44-.4-.13-.13-.25-.27-.37-.42,0,0,0,0-.01-.01-.03-.04-.06-.08-.09-.12-.06-.09-.12-.17-.18-.26-.21-.31-.39-.64-.55-.97-.09-.17-.17-.35-.25-.53-.01-.03-.03-.06-.04-.1,0-.02,0-.01,0-.02,0,0,0,0,0-.02-.04-.09-.08-.19-.11-.28-.26-.67-.5-1.35-.68-2.05-.18-.7-.32-1.41-.42-2.12,0-.01-.01-.08-.01-.1,0-.03,0-.05,0-.08-.01-.08-.02-.17-.03-.25-.02-.19-.04-.39-.05-.58-.03-.36-.04-.71-.05-1.07-.01-.73.01-1.46.08-2.19.07-.74.15-1.38.29-2.1.04-.2.06-.41.1-.61.04-.2.1-.4.15-.59.11-.39.22-.78.35-1.17.26-.78.59-1.53.97-2.26.02-.04-.03-.06-.05-.03-.44.63-.83,1.28-1.18,1.96-.17.33-.33.67-.47,1.01-.15.34-.26.69-.41,1.03-.29.69-.49,1.45-.63,2.19-.15.78-.25,1.57-.28,2.36-.07,1.54.07,3.09.41,4.59.34,1.51.88,3.03,1.7,4.34.49.79,1.12,1.54,1.92,2.03.17.11.36.2.55.29.24.11.54.22.81.2.42-.03.84.03,1.26-.02.16-.02.3-.12.3-.3,0-.16-.14-.3-.3-.3Z"/>
      <path class="cls-1" d="M184.12,28.84c-.65,1.84-1.21,3.7-1.58,5.61-.38,1.93-.55,3.89-.45,5.86.03.56.05,1.13.15,1.69.04.27.11.52.2.78.04.13.11.23.17.36.06.13.1.26.14.4.02.07.12.05.12-.02,0-.12,0-.25.03-.37.02-.11.07-.21.09-.31.05-.24.07-.52.07-.77,0-.49-.03-.97-.05-1.46-.03-.95-.04-1.91-.01-2.86.06-1.9.16-3.8.46-5.69.17-1.08.41-2.15.71-3.2,0-.03-.04-.04-.05-.01Z"/>
      <path class="cls-1" d="M194.18,33.1c-.11-.21-.23-.4-.36-.6-.25-.39-.52-.77-.8-1.14-.58-.78-1.19-1.54-1.82-2.28-.3-.35-.63-.68-.95-1.02-.32-.33-.65-.66-.99-.98-.71-.64-1.44-1.25-2.21-1.81-.42-.3-.85-.59-1.28-.88-.44-.29-.89-.56-1.32-.86-.02-.01-.05.02-.03.04.71.58,1.35,1.26,1.98,1.93.63.68,1.26,1.36,1.88,2.05.61.69,1.23,1.37,1.82,2.09.29.36.6.71.89,1.07.15.18.29.36.43.55.02.02.11.14.06.08-.05-.07,0,.01.02.03.01.02.03.04.04.05.07.1.14.19.22.29.31.42.62.84.93,1.27.17.23.33.48.52.7.09.1.17.21.27.29.06.05.13.11.2.15.02.01.05.03.07.04.02,0,.16.07.11.04.22.11.52-.02.51-.29,0-.13,0-.25-.03-.38-.03-.15-.1-.29-.17-.43Z"/>
      <path class="cls-1" d="M197.33,30.4c-.02-.11-.05-.21-.08-.31-.11-.42-.3-.83-.52-1.21-.43-.74-.94-1.44-1.5-2.09-.53-.62-1.13-1.18-1.78-1.68-.73-.57-1.55-1.06-2.45-1.3-.5-.13-1.04-.13-1.54-.05-.24.04-.46.12-.69.21-.22.09-.43.2-.62.33-.04.03-.02.1.03.08.19-.08.39-.14.6-.17.2-.03.41-.02.61,0,.2.02.4.05.59.1.09.02.18.05.27.09.02,0,.05.02.07.03.01,0,.01,0,.01,0,0,0,0,0,0,0,.05.02.1.05.16.07.38.18.74.38,1.1.6.18.12.36.24.54.37,0,0,.06.05.09.07-.02-.01,0,0,.02.01.02.01.03.03.05.04.08.06.16.13.24.2.62.5,1.19,1.02,1.72,1.61.14.15.27.3.4.45.06.07.12.14.17.21.03.04.06.08.09.11,0,0,.02.03.03.04,0,0,0,0,0,0,.24.32.47.64.68.98.23.37.44.76.7,1.12.14.19.27.41.45.57.16.14.29.3.42.48.05.07.19.06.18-.05-.02-.2-.03-.38-.03-.58,0-.11,0-.23-.01-.34Z"/>
      <path class="cls-1" d="M201.11,28.17s0-.06,0-.09c0,0,0-.02,0-.02,0,0,0,0,0,0,0,0,0,0,0,0,0,0,0,0,0-.01,0,0,0,0,0,0,.03-.09.04-.18.01-.28-.03-.09-.07-.18-.1-.27-.02-.05-.05-.11-.07-.17-.03-.06-.07-.11-.11-.17-.15-.2-.3-.4-.46-.59-.14-.16-.28-.32-.42-.47-.14-.16-.3-.3-.46-.43-.18-.16-.37-.33-.56-.47-.17-.12-.34-.23-.51-.33-.18-.1-.36-.19-.55-.27-.19-.09-.39-.18-.59-.26-.21-.08-.43-.15-.65-.2-.22-.05-.45-.1-.68-.14-.03,0-.04.04-.01.05.2.07.39.15.57.25.18.1.35.21.51.34.02.01.04.03.06.04,0,0,.01,0,.02.01,0,0,0,0,.01,0,.04.03.08.06.12.1.08.06.15.13.23.2.15.14.29.3.42.45.14.16.27.31.41.47.13.17.28.32.42.48.14.16.27.34.41.5.14.16.28.31.42.47.08.09.15.18.23.27.08.09.17.17.25.26.08.08.17.14.26.19.06.04.11.08.17.11.04.02.09.04.13.06.12.05.24.04.36-.01,0,0-.09.04-.09.03,0,0,.03,0,.03,0,.02,0,.04,0,.06,0,.05.03.09.06.15.07.01,0,.03,0,.03-.02,0-.08-.03-.14-.06-.22,0,.02,0,.04.02.06Z"/>
      <path class="cls-1" d="M152.09,69.56c-.02-.08,0-.12-.05-.2-.03-.05-.11-.12-.13-.14-.14-.12-.29-.25-.43-.37-.29-.25-.59-.49-.89-.74-.6-.49-1.17-1.02-1.7-1.57-.27-.28-.53-.57-.78-.86-.11-.14-.23-.27-.34-.41-.02-.03-.04-.05-.06-.08,0,0-.05-.06-.06-.07-.07-.09-.14-.18-.2-.27-.45-.62-.86-1.27-1.23-1.94-.18-.33-.35-.67-.51-1.02-.04-.09-.08-.18-.12-.26-.01-.03-.03-.06-.04-.09,0,0-.03-.08-.04-.09-.07-.18-.14-.36-.21-.54-.29-.78-.52-1.57-.69-2.39-.04-.19-.08-.39-.11-.59-.05-.27-.08-.51-.11-.7,0,0-.02-.18,0-.07,0-.05-.01-.11-.02-.16-.01-.09-.02-.18-.03-.27-.02-.23-.04-.47-.06-.7-.05-.85-.06-1.72,0-2.57.03-.47.07-.95.12-1.42.05-.47.1-.95.2-1.41.19-.95.46-1.89.83-2.79.01-.03-.04-.05-.05-.02-.42.77-.81,1.56-1.12,2.38-.32.83-.6,1.66-.78,2.53-.36,1.78-.34,3.65-.05,5.44.53,3.25,2.06,6.3,4.25,8.75.59.66,1.24,1.27,1.94,1.82.37.29.74.56,1.14.8.2.11.4.21.61.3.04.02.09.04.13.06.06.04.13.05.2.05.07,0,.14-.02.2-.05.06-.01.15,0,.22,0,.07,0,.12-.08.08-.14-.04-.06-.09-.13-.11-.2Z"/>
      <path class="cls-1" d="M126.27,66.62c-.09-.79-.18-1.58-.29-2.37-.1-.77-.23-1.54-.34-2.31-.12-.89-.21-1.78-.29-2.68,0-.03-.05-.04-.05,0-.02,1.58-.06,3.17-.07,4.75-.01,1.56.15,3.13.32,4.68.05.45.12.91.18,1.36.03.22.08.46.2.65.06.1.12.17.2.26.09.1.13.22.18.34,0,.01.02.01.02,0,.01-.11.02-.23.07-.33.04-.08.08-.15.11-.24.07-.2.09-.4.09-.61,0-.39-.06-.79-.1-1.18-.08-.77-.14-1.54-.23-2.31Z"/>
    </g>
  </g>
</svg>