<?xml version="1.0" encoding="UTF-8"?>
<svg id="Layer_2" data-name="Layer 2" xmlns="http://www.w3.org/2000/svg" viewBox="0 0 3831.99 505.87">
  <defs>
    <style>
      .cls-1 {
        fill: #8a8ead;
      }
    </style>
  </defs>
  <g id="Layer_1-2" data-name="Layer 1">
    <g>
      <path class="cls-1" d="M591.76,102.04s0-.03,0-.04c0,0,0,0,0,0-.07.7-.02.73,0,.51-.01-.16-.01-.32,0-.47Z"/>
      <g>
        <path class="cls-1" d="M2153.39,153.39c.1-.07.2-.14.29-.21.63-.5.91-.71-.29.21Z"/>
        <path class="cls-1" d="M3824.19,483.84c-77.51-20.57-159.15-23.6-238.84-28.14-28.23-1.61-56.48-2.98-84.74-4.12-.6-1.29-1.09-2.56-1.25-3.79-.34-2.72.87-4.8.74-6.63-2.44-34.64-25.38-77.83-37.52-110.85-1.58-4.28.46-5.87-5.3-8.13-9.19-3.6-26.32-.12-35.65,3.09-7.73,2.66-14.54,7.55-22.1,10.02-5.01-19.94-13.29-40.06-14.45-60.79-.57-10.22,1.11-20.31,1.02-30.5-4.18-4.3-10.17-2.45-15.36-1.65-1.17-1.12,6.12-10.24,4.79-11.49-3.65-3.42-9.41,10.36-11.58,11.9-3.87,2.77-22.07,1.78-13.28,12.42,2.17,2.62,5.29.43,4.69,2.95l-29.25,47.33c-7.74-4.75-22.07-18.07-33.62-23.93-.97-3.13-1.98-6.24-3.05-9.34-6.06-17.45-13.71-34.37-22.84-50.43-1.72-3.03-5.83-5.92-9.5-5.45-16.02,2.06-31.01,6.35-45.59,13.34-2.02.97-3.46,2.6-4.34,4.51-3.57.62-6.89,3-8.45,7.55-.54,1.57-1.07,3.15-1.61,4.73-2.68,1.38-4.56,4.17-5.51,6.93l-31.42,91.62c-3.69,10.77-7.39,21.54-11.08,32.32-.56,1.25-1.12,2.5-1.67,3.75-.45,1.01-.9,2.02-1.34,3.04-10.23-8.49-20.05-17.55-30.19-25.79-5.07-4.12-27.41-21.91-31.85-22.82-4.8-.98-11.05.2-15.95.89-5.77.81-16.78,4.76-21.29,4.68-2.3-.04-3.68-1.68-5.54-1.69-2,0-20.15,5.16-23.48,6.19-13.27,4.13-23.91,12.35-36.05,18.62-4.63,2.39-11.34,2.47-13.55,7.41-2.47-.76-4.96-1.52-7.45-2.29-4-6.96-8.01-13.91-12.01-20.87-2.14-3.72-4.28-7.44-6.42-11.16-.53-2.74-1.08-5.47-1.66-8.2-3.06-14.26-6.5-28.8-11.56-42.5-4.46-12.07-11.88-24.51-25.5-27.3-4.54-.93-8.13.39-11.03,3.41-5.3-24.21-9.8-48.62-12.46-73.27-.64-5.91-4.6-11-11-11-3.19,0-6.3,1.56-8.4,3.97-2.37-12.84-4.51-25.72-6.76-38.57.09-.63.14-1.28.13-1.98,0-.05,0-.11,0-.16-.1-4.97-3.15-8.65-7.14-10.13-3.75-11.56-8.93-22.64-12.08-34.41-1.41-5.24-6.76-8.68-12.07-7.88-5.1.77-8.05,4.17-9.17,8.76-.02,0-.05,0-.07.01-2.29.6-4.41,1.54-6.23,3.09-.54.47-1.01.97-1.46,1.5-1.82-2.08-3.52-4.51-5.11-6.31-1.74-1.97-5.32-1.89-7.07,0-1.83,1.97-3.74,3.81-5.74,5.54.23-2.47-.79-4.83-3.06-6.05-2.72-1.46-5.65-.11-8.24.95-.43.18-.86.37-1.29.55-.77.07-1.51.21-2.24.42-3.23-2.17-4.98-5.93-8.41-8.05-1.84-1.13-4.57-.79-6.06.78-.27.29-.65.74-1.09,1.24-2.06-1.14-4.56-1.33-6.95-.96-.73-1.36-1.6-2.43-3.82-2.87-.42-.08-.81-.11-1.2-.11-2.55-1.7-6.33-1.27-7.31,2.67-.33,1.35-.73,2.67-1.14,3.97-.36.87-.76,1.72-1.19,2.56-1.85,2.81-3.49,5.73-4.91,8.78-1.49,1.24-2.69,2.97-3.39,5.28-.14.46-.29.92-.43,1.38-.53.58-.99,1.23-1.37,1.95-5.98,11.59-12.79,22.68-19.79,33.66-3.06-7.24-11.34-12-19.78-11.73-14.36.47-21.08,13.1-23.9,25.57-.06.27-.14.52-.2.78-1.45-.45-3.03-.6-4.68-.35-5.13.77-9.84,5.25-9.54,10.8.47,8.71-.66,17.22-3.23,25.22-1.12,1.58-2.24,3.16-3.38,4.74-1.11-1.22-2.45-2.2-3.87-2.77-5.44-2.19-10.37-.03-13.74,4.5-11.2,15.07-22.23,30.26-33.13,45.54-22.35,21.1-43.21,43.69-63.25,67.01-12.09-2.97-19.59-16.61-28.54-24.14-19.98-16.83-45.14-21.5-56.14-48.39-6.58-16.1-7.96-40.52-18.24-53.65-24.21-30.93-70.56-29.81-105.74-38.15-10.35-2.45-21.61-9.19-32.19-4.75-4.46,1.87-20.43,24.82-25.22,30.39-16.94,19.67-34.73,39.05-52.3,57.96-.94,1.01-1.87,2.07-2.8,3.14-.46-20.37-3.03-40.73-7.6-60.57-1.04-4.5-2.19-8.98-3.45-13.43-.29-2.21-.55-4.11-1.58-6.17-.17-.34-.36-.65-.56-.96-1.21-2.87-4.12-5.19-7.35-5.05-.29.01-.56.06-.84.1-2.25-.44-4.62-.57-6.83-.87-3.45-.47-6.89-.93-10.34-1.4-1.96-.27-3.93-.67-5.9-.75-1.21-.05-2.53.1-3.69.37-1.68.38-3.01,1.19-4.35,2.18-.59.47-1.5,1.2-1.79,1.52-.78.85-1.47,1.82-2.16,2.75-1.07,1.44-2.11,2.91-3.17,4.36-8.01,11.03-16.03,22.07-24.04,33.1-2.05,2.83-4.1,5.66-6.18,8.47-.49.67-1.02,1.32-1.48,2.01-.49.73-.67.78-.99,2.04.34-1.38.16-.63-.19-.14-1,1.43-2,2.85-3.01,4.28l-9.5,13.54c.21-6.57.53-13.13.99-19.68.19-2.72.5-5.45.48-8.18-.02-3.49-.66-6.71-2.04-9.89-2.6-5.99-8.98-8.77-14.38-11.75-.02-.11-.04-.21-.06-.32-.35-1.79-2.06-3.9-3.65-4.74-1.6-.85-3.25-1.18-5.06-.94-.48.06-.95.18-1.41.33-8.8-4.9-17.6-9.81-26.36-14.78-3.22-1.83-8.56-1.06-10.22,2.68-3.47,7.81-6.93,15.62-10.39,23.43-2.65,4.81-5.3,9.61-7.93,14.43-6.36,11.64-12.56,23.38-19.07,34.94-5.94,10.54-11.57,21.32-16.94,32.17-.65,1.31-1.29,2.63-1.93,3.95-2.53-.69-5.16-.82-7.97.01-6.31,1.88-34.95,31.63-41.25,38.34-8.36,8.91-16.08,19.68-24.44,28.3-1.01,1.04-2.32,2.9-3.85,2.9-3.56,0-16.95-18.59-20.14-22.08-30.42-33.28-69.29-53.95-115.14-56.55-16.62-.94-13.81,3.05-25.49,7.2-7.4,2.63-16.47.87-23.98-.93-7.34-1.76-25.61-10.98-31.13-10.08-4.05.66-14.01,12.58-17.79,15.84-11.52,9.92-24.64,17.03-37.94,24.24-5.77-6.17-9.57-15.71-11.35-23.92-3.76-17.31,1.49-33.9-4.97-50.61-4.08-10.55-12.3-21.65-21.12-28.74-3.54-2.85-28.73-18.64-31.71-19.12-10.63-1.7-7.92,4.64-10.09,12.8-6.13,23.05-16.9,43.76-25.86,65.69-1.8.2-.77-2.01-.67-3.06.32-3.18,1.64-9.28,3-15.82.09-.28.18-.56.27-.83.31-.97.45-1.91.48-2.82,1.8-8.94,3.34-17.85,2.19-20.56-1.79-4.23-11.47-6.8-14.17-9.55-.93-.95-.75-2.44-1.65-3.37-2.18-2.27-4.5-.28-6.94-.67-6.7-1.07-16.07-8.96-23.83-2.29-2.69,2.31-9.23,17.03-11.32,21.27-5.77,11.75-14.72,30.6-21.54,48.09-.34.4-.67.81-1,1.22-3.7-13.87-9.51-27.03-18.73-38.83-3.52-4.5-11.07-3.89-15.07-.44-.36.03-.71.08-1.06.15-1.07-.36-2.18-.55-3.29-.55-6.23,0-10.67,5.04-11,11-.41,7.39-1.37,14.71-2.71,21.95-2.44-6.69-4.73-13.43-6.87-20.24-3.29-15.79-8.07-31.25-14.76-46.4-1.4-3.18-6.07-5.8-9.5-5.45-5.02.51-9.66,2.16-13.31,5.19-3.16.89-5.96,3.21-7.3,7.29l-2.53,7.71c-.41,1.26-.6,2.46-.6,3.57-5.04,16.61-11.77,32.64-18.59,48.63-4.93.14-9.88.4-14.5,1.42-2.69.59-4.79,1.8-6.63,3.3-.27.14-.54.29-.8.46-10.09,6.55-19.73,13.79-28.83,21.66-.43-7.17-1.25-14.33-2-21.38.36-34.61-1.2-69.24-4.71-103.7-.68-6.68-6.53-13.04-13.92-10.61-4.32,1.42-8.6,2.47-12.94,3.16-.33-1.89-.93-3.83-1.84-5.85-3.83-8.49-18.36-6.3-20.11,2.63-5.14,26.32-11.73,52.36-19.78,77.95-3.75-23.05-9.07-45.84-16-68.17-.75-2.43-2.25-4.48-4.19-5.91-1.01-2.34-2.05-4.66-3.15-6.98-.57-1.19-1.29-2.16-2.13-2.93-.19-1.12-.38-2.24-.57-3.36-.21-1.25-.76-2.41-1.52-3.45-1.94-5.31-7.05-9.53-13.03-7.03-12.47,5.2-24.93,10.41-37.4,15.61-1.45-.21-2.91-.11-4.19.41l-6.72,2.74c-2.25-1.43-5.04-1.91-8.15-.74-6.64,2.52-11.92,6.41-15.4,12.71-2.36,4.27-1.1,10.1,2.14,13.67-1.48,5.19-3.08,10.34-4.76,15.47-7.87,19.79-17.58,38.98-22.68,59.74-.15.61-.29,1.22-.44,1.83-1.61,4.13-3.21,8.27-4.78,12.42-.25-.05-.51-.11-.77-.18-23.67-6.14-36.01-56.72-57.1-74.24-2.24-1.86-12.58-7.72-12.94-8.4-1.42-2.7-2.49-12.5-2.86-16.07-1.06-10.23-.78-21.16-2.05-31.49-.46-3.73-1.98-15.64-4.15-17.89-1.01-1.05-14.02-7.11-15.64-7.42-1.7-.33-7.54.18-8.66.99-.6.43-1.38,3.61-2.31,4.89-6.38,8.77-4.47,8-7.02,17.9-1.81,7.01-4.17,13.9-5.3,21.07-.23.29-1.14-.49-1.44-.95-3.83-5.92-10.09-28.33-13.19-36.65-5.47-14.67-7.94-21.64-11.72-37.16-1.23-5.05-2.03-13.11-8.67-13.46l-23.05,2.99c-.87.04-1.42-.28-1.92-.98-1.39-1.9-5.23-21.69-6.49-26.09-3.05-10.58-6.53-23.66-10.28-33.81-.63-1.7-1.51-2.35-2.88-3.35h-1.92c-1.05.28-2.01.6-2.88.96-5.63-.41-11.32-.41-17.07,0-10.5,20.96-21.1,41.82-32.73,62.15-.37-3.84-.89-7.67-1.64-11.46-.36-1.81-.75-3.64-1.27-5.42-.26-.89-.59-1.77-.92-2.64-.29-.77-.58-1.66-.97-2.37-.32-.6-.71-1.14-1.18-1.64-.43-.43-.42-.36.03.21-1.35-2.1-3.81-3.2-6.27-2.55-2.21.58-4.39,1.08-6.62,1.55-.41.09-.83.17-1.25.26-.97-1.17-2.08-2.15-3.32-2.94-4.4,2.04-8.8,4.09-13.26,6.01-3.08,1.32-6.13,2.79-9.25,4-1.58,2.64-3.04,5.36-4.39,8.19-2.09,4.4-4.04,8.87-6.24,13.22-8.07,26.45-21.1,51.05-34.21,75.31-2.12,3.93-4.24,7.85-6.35,11.78-1.28-9.23-2.7-18.44-4.45-27.58-1.42-7.4-2.83-14.79-4.39-22.16-.35-1.68-1.89-3.62-3.4-4.42-1.86-.98-3.63-1.09-5.7-.75-.58.1-1.16.18-1.73.26-6.14.72-12.33.72-18.47-.02-2.66-.4-5.3-.92-7.91-1.58-2.25-.57-4.42-.04-6.08,1.24,0-1.4.03-2.8.14-4.18.02-.2.05-.4.05-.6.03-.25.03-.26,0-.04-.08.53-.04.22.12-.95.04-.45.05-.89.08-1.34.06-1.02.08-2.05.16-3.07.14-1.87-2.14-2.95-3.63-2.08-3.79,2.21-5.79,6.42-6.65,10.62-.5,2.46-.82,4.96-1.09,7.46-.13-.4-.24-.8-.37-1.19-.8-2.51-1.62-5.01-2.45-7.51-.85-2.54-1.66-5.25-3.14-7.5.49-.9.98-1.79,1.48-2.69,1.47-2.68,2.94-5.35,4.38-8.05,1.4-2.62,2.91-5.36,3.53-8.29,1.16-5.45-.3-10.67-3.39-15.22-1.5-2.21-3.24-4.26-4.92-6.34-.13-.18-.27-.35-.4-.53-.37-.51-.72-1.04-1.08-1.57-.23-.35-.49-.67-.74-1-.04-.06-.07-.09-.11-.14-.04-.06-.09-.13-.17-.24-.27-.38-.51-.78-.75-1.17-.94-1.71-2.88-2.97-4.76-2.97-3.51,0-5.75,3.33-5.05,6.63.94,4.44,3.64,7.84,6.14,11.49.54.8,1.09,1.59,1.6,2.41.26.42.52.85.75,1.29.29.53.76,2.15.22.3.23.79.5,1.54.71,2.34,0,.02,0,.04,0,.05.01.26.01.51,0,.77-.17.49-.22,1.16-.37,1.62-.06.19-.13.38-.2.56-.64,1.21-1.26,2.43-1.94,3.62-1.39,2.44-2.75,4.89-4.1,7.35-.52.94-1.04,1.88-1.56,2.82-2.03-.22-4.08,0-6.11.33-3.72.62-7.2,2.24-10.9,2.95-.44.03-.88.04-1.32.02-.37-.09-.74-.19-1.1-.33-.28-.1-.56-.18-.85-.24-.03-.04-.07-.09-.1-.13-1.15-1.54-2.26-3.12-3.26-4.76-1.07-1.75-1.96-3.59-2.86-5.44-.1-.2-.19-.39-.28-.59-.02-.03-.02-.04-.03-.07-.13-.49-.3-.97-.42-1.46-.11-.46-.22-.92-.3-1.38-.07-.36-.15-1.48-.1-.53-.05-.94-.14-1.87-.12-2.82.01-.47.07-.93.09-1.4,0,0,0,0,0-.02.03-.18.06-.36.09-.54.17-.98.36-1.94.68-2.89.14-.43.35-.85.45-1.29.28-1.23,0-2.24-.5-3.35-.48-1.07-2.1-2.03-3.27-1.88-1.81.23-2.96.87-4,2.37-.65.96-1.1,2.08-1.54,3.14-.76,1.82-1.06,3.7-1.27,5.66-.39,3.75.29,7.59,1.22,11.21.99,3.87,3.19,7.58,5.35,10.9.7,1.07,1.42,2.13,2.16,3.19-.01.78-.04,1.56-.06,2.34-.17-.3-.32-.61-.5-.9-1.71-2.85-3.87-5.66-7.29-6.32-1.4-.27-3.05.38-3.39,1.92-.3,1.36-.32,2.55-.23,3.93.11,1.64.74,3.22,1.11,4.82.17.71.34,1.42.48,2.13.07.36.13.72.19,1.08,0-.03,0-.04,0-.07,0,.04,0,.08,0,.11.02.18.02.36,0,.47.04.48.15.99.18,1.44.06.79.11,1.57.14,2.36.25,5.92.64,11.93,0,17.84-1.17,6.71-4.38,12.73-6.08,19.29-.8,3.09-1.39,6.32-1.34,9.53-.12.3-.24.59-.37.89-.64,1.54-1.28,3.08-1.91,4.61-.35.85-.7,1.69-1.05,2.54-.16.38-.31.77-.48,1.15.71-1.58-.34.81-.58,1.38-1.39,3.39-2.77,6.78-4.15,10.16l-7.92,19.41c-.32.77-.63,1.55-.95,2.32-.96,1.81-1.9,3.64-2.82,5.47-2.01-1.93-4.19-4.29-6.65-7.1l-15.25-19.25c-17.81-21.31-47.16-13.61-69.61-4.58-29.14,11.72-42.71,27.76-60.87,52.19-12.41,17.36-32.26,26.24-41.09,1.33-6.91-16.17-13.65-30.03-25.4-43.22-10.85-9.22-19.93-19.48-27.24-30.78-.54-20.44-7.16-19.02-24.31-10.52-26.51,13.14-51.82,29.11-73.29,48.62-.12.11-.19.25-.22.41-.85.65-1.7,1.3-2.55,1.96.22-.17.44-.34.66-.51-.97.66-1.85,1.48-2.75,2.24-.72.61-1.44,1.22-2.15,1.83-1.41,1.21-2.81,2.44-4.2,3.69-1.4,1.26-2.79,2.53-4.17,3.81-1.38,1.28-2.82,2.5-4.21,3.77-.82.75-1.62,1.52-2.42,2.3-7.16-6.97-15.15-12.93-23.22-19.09-1.59-1.21-3.21-2.38-4.87-3.5-.8-.54-1.61-1.07-2.43-1.59-.22-.14-.44-.28-.65-.41-10.49-6.51-13.65-6.28-23.77-7.64-2.81-.38-5.63-.76-8.44-1.13-5.63.76-11.25,1.51-16.88,2.27-3.32.76-7.92,2.93-12.23,5-4.11-3.44-8.39-6.7-12.84-9.66-1.05-.7-2.14-1.32-3.26-1.88-6.04-3.01-12.31-5.62-18.67-7.89-1.2-.43-2.42-.79-3.66-1.07-6.75-1.55-13.84-2.18-20.63-2.9-1.28-.14-2.57-.19-3.86-.16-7.12.14-15.41,1.72-21.74,2.65-3.36.5-6.65,1.31-9.86,2.4-3.95,1.35-7.85,2.85-11.71,4.46.74,1.83,1.27,3.75,1.64,5.7.07.36.13.72.19,1.08.05.34.08.69.12,1.03.04.38.09.76.11,1.14.02.32.03.65.04.97.01.4.03.8.03,1.2,0,.29-.02.58-.03.87-.02.43-.03.87-.06,1.3-.12,1.43-.34,2.84-.69,4.24-.31,1.18-.59,2.36-.83,3.55-.08.43-.14.78-.19,1.06-.03.52-.05.89-.04.81-.25,3.63-.23,7.28,0,10.92.19,3.05.56,6.08.95,9.11.17,1.31.34,2.61.51,3.92-.15-1.08-.29-2.17-.44-3.25.21,1.96.54,3.92.82,5.88,2.03,14.38,4.32,28.73,6.43,43.1,7.75,52.78,11.3,105.91,16.9,158.92.75,7.1,1.55,14.2,2.44,21.29.16,1.29.32,2.58.49,3.86.05.38.67,4.87.5,3.68.05.37.09.65.1.73.18,1.29.37,2.57.56,3.85.57,3.91,1.21,7.8,1.88,11.68.26-.01.52-.02.78-.03-.04.36-.06.72-.06,1.08,0,6.28,5.05,10.61,11,11,95.38,6.28,191.06,7.71,286.58,4.18,27.2-1.01,54.37-2.42,81.53-4.21,3.74-.25,7.14-2.09,9.14-4.98,22.2.3,44.4.59,66.6.87,90.6,1.14,181.21,2.12,271.81,2.95s181.21,1.5,271.82,2.02,181.22.88,271.82,1.09c90.61.21,181.22.26,271.83.16,10.61-.01,21.21-.03,31.82-.04.69.12,1.41.2,2.18.2,69.65-.09,139.29-.18,208.94-.27l209.94-.27c69.65-.09,139.29-.18,208.94-.27,69.65-.09,139.29-.18,208.94-.27,60.66-.08,121.31-.16,181.97-.24,1.94,3.61,6.24,6.11,10.22,6.54,6.89.75,12.78-2.21,17.62-6.58,4.81,0,9.63-.01,14.44-.02,3.84,3.68,10.5,4.46,15.14.7,4.41,4.08,12.17,4.75,16.43-.74,54.35-.07,108.71-.14,163.06-.21,48.64-.06,97.27-.13,145.91-.19-.35.24-.7.47-1.05.71-10.12,7.18-4.1,22.7,8.48,20.11,14.68-3.03,28.11-9.95,40.82-17.72,32.47,1.07,64.94,2.14,97.4,3.21-2.18,2.11-4.18,4.49-5.94,7.18-2.38,3.64-1.74,8.95.86,12.22,3.01,3.78,6.95,4.57,11.56,3.94,41.96-5.71,83.78-13.19,125.78-18.97,43.98,1.45,87.96,2.9,131.94,4.35,36.56,1.21,73.13,2.41,109.69,3.62,7.5.25,11.57-7.21,10.67-13.48,52.1,2.12,104.16,5.05,156.14,9.11,16.82,1.31,33.63,2.75,50.43,4.3,2.67.25,5.17-.85,7.11-2.62,21.76,3.23,43.36,7.42,64.67,13.08,13.7,3.64,19.54-17.58,5.85-21.21ZM1156.5,154.88l.73-.26c.15.86.29,1.72.44,2.57-.36-.78-.76-1.55-1.17-2.31ZM2178.76,242.15c-.02-.61-.03-1.23-.05-1.84.23-.05.46-.1.69-.17-.04.74-.09,1.48-.13,2.22-.17-.07-.33-.14-.5-.21ZM3480.07,450.79c-.97-10.79-3.37-27.74-6.9-37.49-.31-.86-.94-1.6-1.66-2.31-.33-2.99,0-4.27.96-3.83,3.22,14.71,7.39,29.29,12.52,43.75,0,.02,0,.04,0,.06-1.64-.06-3.28-.12-4.92-.18Z"/>
      </g>
    </g>
  </g>
</svg>