<?xml version="1.0" encoding="UTF-8"?>
<svg id="Layer_2" data-name="Layer 2" xmlns="http://www.w3.org/2000/svg" viewBox="0 0 627.07 322.47">
  <defs>
    <style>
      .cls-1 {
        fill: #181818;
      }
    </style>
  </defs>
  <g id="Layer_6" data-name="Layer 6">
    <path class="cls-1" d="M623.85,102.14c-1.08.15-2.17.29-3.25.43-.04-.05-.07-.11-.12-.15l-.35-.27c-.27-.15-.55-.23-.86-.23-.12,0-.24,0-.35.03,0-.02-.01-.04-.02-.05-.25-.42-.58-.75-1-1-.43-.25-.9-.38-1.4-.38-.42,0-.81.11-1.18.29-.18.07-.37.12-.56.15-.22.02-.45.03-.67,0-.37,0-.71.1-1.04.24-.42-.09-.87,0-1.23.21-.01,0-.03.01-.04.02,0,0-.01,0-.02,0-.12.06-.22.14-.31.24-.19.19-.32.41-.39.66,0,.02-.02.04-.02.06,0,0,0,.02-.01.03,0,0,0,0,0,.01-.03.15-.05.31-.06.47,0,.06.02.12.02.18-.17.02-.34.04-.51.07-.04,0-.07.02-.11.03-.26.1-.53.2-.78.33-.06.03-.12.07-.18.11-.12.08-.24.18-.36.27h0c-.09-.18-.19-.35-.33-.5-.2-.3-.46-.54-.78-.72-.04-.02-.07-.04-.11-.06-.12-.07-.26-.12-.39-.17-.19-.08-.25-.13-.4-.16-.26-.04-.52-.07-.78-.11-.01,0-.02,0-.04,0-.02,0-.05,0-.07,0-.04,0-.09,0-.14,0-.17,0-.35.04-.52.06-.16.02-.35.04-.52.08-.04.01-.09.02-.13.04-.29.11-.57.22-.85.36-.1.05-.2.11-.29.17-.25.19-.51.37-.75.58-.04.04-.08.07-.12.11,0,0-.02.02-.03.03v.02s-.02,0-.02,0l-.49.63s-.03.05-.05.07c-.03.05-.06.1-.09.15-.06.1-.11.2-.15.31-.04.08-.07.16-.1.24-1.72.23-3.44.45-5.17.68-.07-.09-.13-.17-.2-.25-.02-.03-.05-.05-.07-.08-.09-.1-.16-.14-.3-.24-.17-.16-.36-.28-.59-.34-.11-.05-.22-.09-.33-.14-.15-.06-.3-.11-.45-.16-.07-.02-.15-.05-.22-.07-.3-.09-.61-.1-.92-.14-.15-.02-.31-.03-.46-.04-.53-.02-1.06.06-1.58.14-.27.04-.54.11-.79.21-.31.13-.64.25-.94.41-.15.08-.25.17-.4.28-.13.1-.27.2-.4.31-.11.09-.21.19-.3.3-.05.05-.09.11-.14.16-.14.18-.28.36-.42.54-.01.01-.02.03-.03.04-.04.1-.08.2-.13.3-3.01.53-6.34,1.32-9.68,1.75-1.63,2.11-4.17,3.56-7.6,3.62-.19-.4-.42-.76-.76-1.1-.02-.02-.04-.04-.06-.06-.19-.16-.39-.31-.59-.46-.05-.04-.1-.07-.16-.1-.25-.13-.51-.23-.77-.33-.06-.02-.12-.04-.18-.05-.03,0-.06-.01-.09-.02-.25-.04-.52-.08-.77-.1-.06,0-.12,0-.19,0-.35,0-.7.06-1.04.14-.07.02-.13.03-.2.06-.27.09-.54.21-.8.33-.06.03-.12.06-.18.1-.03.02-.06.03-.08.05-.01,0-.03.02-.04.03-.18.14-.35.27-.53.41-.14.18-.28.36-.42.55.13-.18.27-.35.41-.53-.19.21-.35.44-.52.67-.05.06-.09.13-.13.19-.03.06-.06.12-.09.17-3.76-.06-7.53-.15-11.29-.3,0-.02-.02-.04-.03-.06-.28-.47-.65-.84-1.12-1.12-.28-.21-.57-.42-.89-.57-.37-.17-.76-.37-1.16-.46-.09-.02-.18-.03-.27-.05l-.97-.45c-.54-.25-1.08-.5-1.63-.74-.31-.13-.61-.29-.9-.46-.12-.34-.3-.65-.57-.92-.32-.32-.71-.54-1.14-.67-.46-.12-.92-.12-1.38,0-.73.15-1.41.42-2.09.71-.5.21-.97.47-1.42.77-.38.25-.74.54-1.09.82-.21.17-.38.38-.55.6-.18.23-.36.46-.54.7,0,.01-.01.02-.02.03-.06-.07-.1-.15-.17-.22-.16-.16-.34-.32-.54-.42-.28-.13-.58-.27-.88-.35-.04,0-.07-.02-.11-.03-.54-.13-.77-.11-1.31,0-.02,0-.04,0-.06.01-.09.02-.19.04-.28.06-.04,0-.07.01-.11.02-.05,0-.11,0-.16,0-.46-.1-.94-.14-1.4.01-.44.12-.81.34-1.13.66-.16.16-.29.34-.41.53-2.1-.23-4.19-.47-6.29-.7-.01-.06,0-.12-.02-.17-.09-.3-.24-.57-.46-.79-.16-.17-.35-.3-.58-.37-.21-.11-.44-.16-.69-.15-.32,0-.62.08-.9.24-.27.16-.48.37-.64.64-.04.08-.07.16-.1.24-4.87-.51-9.74-.92-14.63-.99-.51,0-1-.05-1.47-.12-1.62.48-3.45.56-5.47.08-.97-.23-1.95-.49-2.92-.75-.08-.26-.15-.53-.19-.8.03.19.05.39.08.58-.05-.4-.1-.81-.17-1.21-.08-.45-.27-.87-.46-1.28-.04-.09-.09-.17-.15-.25-.18-.24-.39-.58-.65-.79-.26-.21-.52-.45-.83-.59-.16-.07-.55-.26-.81-.33-.18-.05-.37-.06-.55-.09-.23-.03-.45-.08-.68-.06-.36.02-.72.07-1.07.14-.23.05-.46.12-.68.21-.71.29-1.42.59-2.1.97-.27.15-.53.3-.78.49,0,0-.02.01-.03.02-.03,0-.06,0-.09,0-.32.01-.62.11-.9.29-2.07-.49-4.15-.92-6.25-1.19-1.74-.22-3.4-.71-4.87-1.47-6.89,4.91-17.94,16.37-23.19,22.16,0,0,0,0,0,0-.3-.26-.62-.51-.95-.73-.04-.03-.09-.06-.13-.09-.02-.02-.05-.03-.07-.04-.01,0-.02-.01-.03-.02-.16-.09-.67-.29-.84-.36-.1-.04-.21-.08-.32-.11-.1-.03-.21-.05-.32-.07-.34-.06-.69-.1-1.03-.14-.05,0-.11,0-.17-.01-.11,0-.22,0-.33.01-.33.04-.67.08-1,.13-.05,0-.11.02-.16.03-.36.09-.75.29-1.06.42-.09.04-.19.09-.27.14-.3.19-.58.41-.84.65-.16.15-.28.34-.41.5-.11.14-.23.28-.33.43-.01.02-.03.04-.04.07,0,0,0,.02-.01.03,0,0,0,.01,0,.02l-.31.74c-.06.22-.08.45-.11.68,0,.02,0,.04,0,.06h-9.36s0-.04,0-.05l-.07-.53c-.09-.34-.26-.63-.51-.88-.13-.1-.27-.21-.4-.31-.31-.18-.64-.27-1-.27h-.33c-.27-.01-.53.05-.76.17-.25.08-.46.22-.64.41-.19.18-.33.39-.41.64-.03.05-.04.11-.06.17-.61-.42-1.29-.75-2.01-.96-.88-.26-1.8-.37-2.69-.64-.89-.27-1.76-.61-2.62-.97-.06-.17-.13-.33-.22-.48-.43-.67-1.08-1.26-1.88-1.44-.84-.19-1.66-.1-2.42.32-.38.21-.7.49-.98.82-.67.66-1.4,1.28-2.09,1.91-.4.36-.84.71-1.2,1.1-.18.2-.35.41-.53.62-.11.12-.2.25-.29.37h-4.08c-.09-.07-.18-.14-.27-.21-.01,0-.02-.02-.03-.02-.02-.01-.04-.03-.06-.04-.22-.12-.46-.2-.69-.29-.01,0-.02,0-.04-.01,0,0-.01,0-.02,0-.47-.13-.94-.13-1.41,0-.14.06-.28.12-.42.18-.08.03-.16.06-.23.1,0,0,0,0-.01,0,0,0-.02,0-.03.01-.02,0-.03.02-.05.03-.12.08-.22.17-.34.26h-1.13c-.06-.14-.12-.27-.19-.39-.18-.31-.28-.42-.48-.59-.02-.02-.04-.03-.06-.05l-.55-.42c-.14-.09-.29-.16-.44-.24-.29-.15-.59-.31-.88-.46-.46-.24-.93-.5-1.44-.58-.29-.05-.59-.11-.88-.11-.18,0-.36.04-.53.06-.11.01-.3.03-.43.06-.13.04-.29.12-.39.16-.17.07-.34.13-.5.23.2-.08.4-.17.6-.25-.51.2-.98.41-1.43.72-.41.28-.8.58-1.16.92-.22.2-.42.41-.61.64-.02.03-.05.06-.07.09-.01.02-.03.03-.04.05-.03.03-.08.1-.14.17h-20.97c-.18-.13-.38-.23-.6-.29-.32-.06-.63-.16-.94-.27-.35-.16-.68-.36-1-.58-.12-.1-.24-.2-.35-.3-.18-.19-.39-.33-.64-.41-.24-.12-.49-.18-.76-.17-.27-.01-.53.05-.76.17-.25.08-.46.22-.64.41-.1.13-.21.27-.31.4-.05.09-.08.18-.11.27-1.23-.36-2.47-.68-3.72-.91-1.87-.35-3.76-.56-5.66-.64-.59-.02-1.18-.04-1.77-.06-.04-.04-.08-.08-.12-.12-.18-.15-.37-.29-.56-.43-.05-.04-.11-.08-.17-.11-.11-.07-.23-.14-.36-.19-.11-.05-.22-.09-.32-.14-.11-.05-.22-.09-.33-.14-.06-.02-.13-.05-.19-.07-.14-.04-.29-.08-.44-.1-.26-.08-.53-.09-.79-.04-.26.01-.51.09-.74.24-.23.12-.42.3-.56.51-.03.03-.04.07-.07.1-.83-.15-1.66-.3-2.5-.41-.43-.13-.86-.15-1.28-.05-.19.03-.37.07-.55.13-.01,0-.02,0-.03,0,.02,0,.04-.02.05-.02-.04,0-.07.02-.11.02-.32.02-.65.04-.98.04-.61,0-1.2.07-1.8.16-.9.13-1.73.44-2.55.82-.84.39-1.7.98-2.26,1.71-.12.15-.23.32-.34.5h-16.7s-.02-.02-.02-.02c-.21-.18-.43-.35-.66-.51-.09-.06-.19-.12-.29-.17-.05-.02-.1-.05-.15-.07-.21-.09-.41-.18-.62-.26-.1-.04-.21-.07-.32-.09-.23-.05-.47-.07-.7-.1-.06,0-.12-.01-.18-.02-.13,0-.25,0-.38.01-.05,0-.1.01-.16.01.23-2.48,1.99-5,.02-6.92l-3.39-1.81s0-.08,0-.12c.03-.35-.04-.68-.11-1.03-.05-.25-.11-.49-.19-.73-.13-.38-.29-.75-.46-1.12-.16-.36-.44-.65-.7-.95-.24-.28-.61-.52-.88-.72-.04-.03-.08-.06-.13-.08-.03-.01-.05-.03-.08-.04-.67-.32-.84-.39-1.51-.44-.09,0-.19-.02-.28-.03-.06,0-.13.01-.19.02.02,0,.04,0,.05,0-.36,0-.61.05-1.04.12-.05,0-.11.04-.16.05-.05-.05-.1-.1-.15-.15-.26-.24-.56-.45-.85-.65-.09-.06-.18-.12-.27-.17-.05-.03-.09-.05-.14-.08-.02-.01-.05-.02-.07-.04-.62-.31-.79-.34-1.47-.41-.08,0-.16-.01-.25-.01-.24-.01-.48,0-.74.09-.08.01-.15.02-.23.04-.26.07-.5.19-.74.3-.02,0-.05.02-.07.03l-.33.26-2.68-1.43s0,0,0-.01c0-.04-.02-.07-.03-.11,0-.01,0-.02,0-.03-.1-.25-.21-.5-.31-.74-.02-.03-.03-.06-.05-.09-.17-.31-.34-.63-.56-.91-.37-.48-.73-.99-1.19-1.4-.3-.27-.63-.52-.96-.74-.12-.08-.25-.16-.38-.23-.36-.18-.73-.34-1.11-.48-.14-.05-.29-.1-.44-.14-.15-.04-.29-.06-.44-.08-.4-.06-.81-.13-1.21-.14-.55-.02-1.12.07-1.66.17-.2.03-.38.1-.57.16l-17.14-9.16c-1.26-.24-2.73.93-4.4,2.24,0,0,0,0-.01,0-.24-.07-.48-.11-.72-.16-.04,0-.09-.02-.13-.03-.02,0-.03,0-.05,0,0,0-.02,0-.03,0-.35-.11-.69-.12-1.04-.05-.2.03-.28.02-.43.08-.03.01-.06.02-.1.04-.25.1-.52.2-.77.33-.35.18-.65.47-.87.8-.11.13-.21.27-.29.42-.18.31-.27.65-.27,1.02,0,.15.01.29.04.43-.34.11-.69.2-1.04.25-.89.12-1.76.16-2.64.16-.05-.12-.08-.24-.15-.35-.15-.26-.28-.4-.42-.53,0,0,0,0,0,0-.13-.12-.28-.22-.49-.38,0,0,.01.01.02.02-.1-.07-.21-.12-.33-.16-.16-.07-.34-.16-.49-.2-.06-.02-.13-.03-.2-.04-.03,0-.06-.03-.1-.04l-.76-.1s-.09.01-.14.02c-.1.01-.2,0-.29,0-.03-.04-.07-.07-.11-.1-.08-.09-.16-.17-.25-.25-.26-.23-.54-.44-.82-.64-.08-.06-.17-.11-.26-.15-.3-.15-.61-.29-.93-.39-.08-.03-.17-.05-.26-.06-.32-.05-.67-.12-1-.12-.09,0-.18,0-.26.01-.33.04-.67.07-1,.14-.4.09-.79.28-1.16.45-.27.12-.53.27-.77.45,0,0,0,0,0,0-.31-.18-.64-.27-1-.27-1.22.02-2.45.15-3.65.36-.29.05-.59.11-.88.17-.26.06-.48.18-.67.36-.22.14-.39.33-.51.56,0,0,0,.01-.01.02-7.1-.01-14.21.2-21.29.05l2.69-7.52c-2.25-.26-4.5-.55-6.75-.86-.01-.02-.02-.05-.03-.07-.01-.03-.03-.06-.04-.09-.03-.06-.06-.11-.1-.17-.12-.19-.28-.38-.41-.55-.04-.05-.08-.1-.12-.14-.09-.1-.18-.19-.29-.27-.23-.18-.46-.37-.71-.52-.11-.07-.23-.13-.35-.18-.28-.12-.56-.25-.86-.34-.15-.05-.31-.08-.46-.11-.33-.06-.66-.1-.99-.14-.12-.01-.23-.01-.35-.02-.03-.37-.14-.72-.34-1.04-.02-.03-.04-.06-.06-.09-.01-.01-.02-.03-.03-.04-.16-.21-.36-.47-.49-.63-.09-.11-.24-.19-.33-.27-.17-.13-.32-.26-.51-.36-.04-.02-.07-.04-.11-.05-.28-.12-.56-.25-.84-.35-.07-.03-.15-.05-.23-.07-.04,0-.07-.01-.11-.02-.29-.04-.57-.08-.86-.12-.15-.02-.19.02-.43.05-.21.03-.29.02-.44.06-.04,0-.07.02-.1.03-.02,0-.03.01-.05.02-.01,0-.02,0-.03.01-.24.1-.48.2-.72.3,0,0-.01,0-.02,0,0,0-.01,0-.02.01,0,0,0,0,0,0-.2.16-.41.31-.61.47-.01,0-.02.02-.04.03-.03.02-.05.05-.08.07-.02.02-.04.05-.07.07-.17.2-.33.42-.49.64-.17.23-.29.53-.33.82-.04.27-.1.55-.1.83.02.11.03.22.04.33-1.09-.19-2.17-.37-3.26-.56-.01-.06-.01-.11-.04-.17-.06-.15-.13-.36-.21-.5,0,0,0-.01-.01-.02-.05-.07-.11-.14-.16-.21-.06-.07-.11-.15-.17-.22-.09-.11-.15-.15-.29-.26-.09-.07-.16-.15-.27-.19-.11-.05-.22-.09-.33-.14-.18-.08-.36-.16-.55-.22-.13-.04-.2-.04-.38-.06-.13-.02-.25-.05-.38-.04-.06,0-.11,0-.17,0-.21.01-.42.04-.62.07-.21.03-.42.05-.63.1-.11.02-.21.05-.32.08-.15.04-.27.1-.42.16-.15.06-.29.12-.44.2-.12.06-.23.13-.35.19-.06.03-.12.07-.19.1-.03.01-.05.03-.08.04-2.04-.38-4.08-.76-6.12-1.15-.02-.02-.03-.03-.05-.04-.01-.03-.03-.07-.03-.08-.09-.12-.18-.23-.27-.35-.04-.06-.09-.12-.13-.17,0,0,0,0,0,0,0,0,0,0,0,0-.06-.07-.11-.14-.18-.2-.1-.08-.2-.16-.3-.24-.18-.18-.39-.3-.63-.37-.13-.07-.26-.12-.4-.15-.54-.08-1.06-.23-1.58-.38-.75-.21-1.49-.33-2.26-.41-.5-.05-1.01-.06-1.52,0-.74.07-1.47.21-2.17.45-.07.02-.13.06-.2.08-3.43-.65-6.85-1.3-10.27-1.91-2.3-.41-4.6-.81-6.91-1.22-.21-.21-.42-.43-.64-.64-.19-.18-.38-.36-.59-.52-.43-.34-.86-.72-1.36-.97-.49-.24-1.01-.48-1.55-.57-.29-.05-.59-.07-.88-.1-.74-.63-1.47-1.28-2.29-1.82-1.05-.69-2.2-1.2-3.36-1.68l-.95-.13c-.28-.01-.55.03-.81.1-1.21-.11-2.41.14-3.48.8-.93.57-1.78,1.32-2.63,2-.16.13-.32.26-.48.4-2.26-.34-4.52-.66-6.79-.97-.05-.15-.11-.31-.19-.45-.2-.33-.46-.59-.79-.79-.05-.04-.11-.07-.17-.1-.2-.12-.41-.23-.64-.28-.04,0-.07-.01-.11-.02-.14-.03-.29-.07-.43-.11-.42-.11-.84-.11-1.25,0-.08.02-.15.07-.23.09-.02,0-.03,0-.05,0-.03,0-.06.01-.1.02,0,0-.02,0-.02,0-.09.01-.18.05-.25.11-.18.05-.33.14-.46.27-.28.22-.16.1-.38.38-.06.06-.1.12-.14.19-.18-.02-.35-.05-.53-.07-.09-.11-.18-.22-.26-.33-.08-.11-.18-.21-.28-.3-.23-.2-.47-.39-.72-.56-.12-.08-.24-.15-.36-.21-.28-.14-.57-.26-.87-.36-.32-.11-.66-.18-1-.23-.36-.05-.72-.1-1.08-.13-.2-.02-.39-.03-.59-.04,0,0-.02,0-.03,0,0,0,0-.01,0-.02-.02-.05-.05-.1-.07-.15,0-.01,0-.02-.01-.03,0,0,0,0,0,0-.09-.2-.2-.37-.36-.53-.11-.16-.21-.32-.35-.46-.36-.36-.78-.6-1.27-.74-.27-.08-.53-.14-.8-.23,0,0-.01,0-.02,0-.26-.03-.52-.07-.78-.1-.02,0-.04,0-.05,0-.03,0-.06,0-.1.01-.06,0-.13.01-.19.02-.19.01-.36.04-.56.06-.21.03-.29.02-.44.07-.03.01-.06.02-.09.03-.44.12-.83.35-1.15.67-.25.24-.44.52-.54.84-.12.23-.18.49-.2.75-.64-.13-1.28-.25-1.91-.39-.3-.07-.6-.13-.9-.2.01-.28,0-.55-.08-.83-.01-.05-.02-.11-.04-.16-.06-.22-.21-.59-.37-.83-.38-.59-.49-.62-1.05-1.04-.01-.01-.03-.02-.04-.03-.02-.02-.05-.04-.07-.05-.06-.04-.12-.08-.18-.12-.23-.15-.47-.29-.72-.4-.34-.16-.69-.31-1.04-.44-.13-.05-.26-.09-.39-.13-.49-.15-1-.21-1.52-.23-.15,0-.31,0-.46,0-.51.03-.98.12-1.41.4-.03.02-.06.04-.09.06-.06.04-.11.08-.16.12-.37.22-.66.51-.88.88-.2.35-.3.74-.32,1.14-1.49-.2-2.99-.33-4.51-.37-.13-.24-.27-.48-.41-.71-.21-.33-.46-.63-.7-.94-.1-.13-.21-.25-.32-.37-.28-.28-.61-.52-.92-.74-.13-.09-.26-.17-.41-.23-.04-.02-.08-.04-.12-.05,0,0,0,0,0,0-.01-.32-.11-.62-.29-.89-.01-.02-.37-.48-.38-.49,0,0-.01-.01-.02-.02-.02-.02-.05-.04-.07-.06-.18-.15-.36-.29-.55-.42-.02-.02-.05-.03-.07-.05-.1-.07-.2-.12-.31-.17-.2-.08-.43-.19-.65-.27-.03-.01-.06-.02-.09-.03-.17-.05-.55-.09-.81-.1-.06,0-.12,0-.17,0-.27.02-.55.06-.82.11-.25.05-.52.19-.73.35-.17.13-.35.26-.52.4-.01,0-.02.02-.04.03-.07.09-.14.18-.21.27-.27.13-.52.29-.74.5-.41.41-.8.81-1.08,1.33-.04.08-.07.15-.11.23-.14-.03-.28-.06-.42-.06-1.17-.1-2.34-.14-3.51-.11-.33,0-.66.02-.99.04-.26,0-.5.05-.73.16,0-.03-.01-.06-.02-.09-.04-.18-.07-.37-.1-.56-.06-.37-.13-.73-.26-1.08-.12-.31-.25-.62-.39-.91-.04-.09-.09-.18-.14-.26-.21-.33-.46-.65-.72-.94-.26-.29-.6-.51-.91-.74-.12-.09-.25-.17-.38-.24-.17-.09-.35-.16-.53-.23-.19-.08-.37-.17-.57-.23-.15-.05-.29-.09-.45-.12-.19-.04-.4-.06-.59-.08-.21-.03-.42-.06-.63-.08-.16-.01-.31-.01-.47,0-.41.02-.81.08-1.21.16-.16.03-.32.07-.48.12-.24.07-.47.17-.7.26l-25.68-33.77c-3.04-3.53-4.99-15.63-7.12-18.29-.04-.06-.1-.11-.15-.17-.16-.79-.3-1.59-.42-2.39-.23-1.81-.3-3.65-.1-5.47.07-.1.14-.2.21-.29.08-.11.17-.23.25-.34.05-.07.1-.13.16-.2.42-.53.87-1.03,1.35-1.52.53-.54.58-1.39.12-1.99-.47-.61-1.28-.75-1.95-.39-4.05,2.14-7.36,5.61-9.37,9.72-3.08-.07-5.92.58-6.97,2.43-2.66,20.64-3.18,41.38-3.06,62.19.01,2.26,1.01,4.36,1.04,6.63,0,.55,0,1.22,0,1.98-.7-.08-1.43.08-2.11.32-.04.01-.07.03-.11.04-.21.08-.42.17-.62.26-1.01.46-1.99,1.02-2.96,1.57-1,.56-1.98,1.15-2.95,1.75-1.09.68-2.15,1.4-3.21,2.14-.42.29-.69.65-.76,1.16-.06.45.05,1.03.44,1.33,2.03,1.61,4.11,3.25,6.66,3.93,1.39.37,2.84.41,4.27.34.37-.02.74-.05,1.11-.07-.2,10.18-.34,22.47.41,29.02-.27.39-.43.88-.46,1.33-.02.35,0,.67.04,1.02.08.63.12,1.25.26,1.87.2.9.4,1.79.59,2.69.37,1.69.77,3.37,1.19,5.05,0,0,0,0,0,0-1.06.76-2.11,1.53-3.14,2.33-2.76,2.15-5.42,4.43-7.95,6.84-2.52,2.4-4.93,4.92-7.2,7.55-2.34,2.7-4.54,5.53-6.6,8.45-2.02,2.86-3.89,5.81-5.61,8.86-.21.38-.42.75-.64,1.13-.33.58-.28,1.3.13,1.82.37.48,1.11.82,1.72.59.36-.14.72-.28,1.08-.43.27-.11.54-.23.81-.34.08-.04.17-.07.25-.11.05-.02.45-.23.21-.09-.33.18.27-.11.4-.18.08-.04.17-.08.25-.12.18-.09.37-.18.55-.27.36-.18.72-.37,1.08-.56,1.37-.74,2.7-1.55,3.99-2.41,2.71-1.8,5.28-3.81,7.82-5.85,5.4-4.32,10.73-8.71,16.02-13.16.12-.1.24-.2.35-.3,1.13,4.29,2.26,8.58,3.39,12.87,0,.15-.02.3,0,.44.04.44.1.88.16,1.32.06.42.14.83.24,1.23.18.69.46,1.34.74,2,.09.12.18.24.27.36,0,0,0,0,0,0,.52,1.97,1.04,3.95,1.56,5.92.25.97.51,1.93.76,2.9.26,1,.58,2.01.78,3.02.1.24.2.48.31.72.19.35.45.64.78.85.51.39,1.17.68,1.84.65.54-.02,1.05-.16,1.53-.41.61-.32,1.26-1.13,1.39-1.81.16-.8.32-1.6.42-2.41-.04.28-.07.56-.11.83.32-2.22.68-4.43,1.02-6.64.38-2.48.8-4.95,1.12-7.44-.04.31-.08.61-.12.92.27-1.91.53-3.83.8-5.74,8.25,8.75,18.49,17.68,26.26,26.86,1.46,1.72,2.87,3.49,4.26,5.28.31,1.92.6,3.85.87,5.78.14.98.27,1.95.41,2.93.78,5.84,1.44,11.69,2.09,17.54.55,4.96,1.08,9.93,1.61,14.9.32.29.56.65.66,1.09,1.01,4.59,1.24,9.39,2.82,13.85.18.5.37.99.58,1.47.09.02.18.05.28.06.72.1,1.52,0,2.15-.4.69-.44,1.42-1.17,1.55-2.02.28-1.85.65-3.7.99-5.54.33-1.81.64-3.62.94-5.43,0-.05.02-.1.03-.16.05-10.51-.02-21.07,2.16-31.39.31-1.49,2.05-2.02,3.31-1.53,1.31-.19,2.76.57,2.72,2.28-.07,2.45.52,4.82.85,7.24.18,1.36.37,2.71.55,4.07,1.65-5.2,4.25-10.08,6.97-14.93,2.2-3.93,3.59-7.98,4.57-12.37.98-4.39,1.68-8.84,2.81-13.2.57-2.2,4.13-2.35,4.61,0,1.19,5.86.07,11.7.01,17.6-.02,1.78.1,3.54.27,5.3.38,1.16.49,2.35.43,3.55.77,5.16,2.02,10.28,2.89,15.4,1.3,7.66,2.48,16.33-1.18,23.54-.05.11-.13.21-.21.31,0,.01,0,.02.01.03.03.23.09.45.2.65.06.15.12.3.19.45.08.17.15.34.23.51.06.12.11.25.16.37,1.83,4.39,3.21,8.95,4.46,13.54,1.33,4.87,2.56,9.76,3.89,14.63,1.4,5.12,2.85,10.22,4.35,15.31.97,3.29,1.99,6.56,3.02,9.83.06,0,.12-.01.18-.01.63.01,1.27.06,1.88.21.22-.16.45-.28.71-.36.26-.56.51-1.13.78-1.69,2.46-5.19,4.91-10.36,7.65-15.41,2.81-5.19,5.79-10.28,8.77-15.37,2.9-4.94,5.82-9.88,8.59-14.9.5-.91.86-1.89,1.26-2.86-.01-.07-.02-.15-.03-.22-.01-.33.06-.64.21-.92.1-.3.26-.55.49-.77.15-.17.33-.28.53-.38.93-1.11,2.29-1.24,3.28-.62.02-.09.04-.18.06-.28,1.22.79,2.29,1.49,3.15,2.07,2.78,1.84,11.94,9.93,13.83,9.76l32.83-10.9c.07.58.14,1.17.27,1.73.46,2.03.95,4.05,1.48,6.06.3,1.14.6,2.28.91,3.43.14.53.47,1.08.85,1.47.52.52,1.19.82,1.91.91.61.08,1.16.01,1.72-.23.63-.27,1.27-.73,1.59-1.36,1.46-2.89,2.32-6.01,2.96-9.17.45-2.2.76-4.42,1.18-6.62.06-.15.11-.31.17-.46.26-.69.52-1.39.78-2.08,4.59-2.77,6.66-.9,12.85,3.24.81.54,1.63,1.11,2.45,1.68,0,.02,0,.04,0,.06,0-.02,0-.04,0-.06,0,0,.01,0,.02.01.27,1.72.67,3.42,1.02,5.12.35,1.71.7,3.42,1.06,5.13.71,3.44,1.43,6.88,2.14,10.32.68,3.28,1.35,6.57,2.06,9.84.66,3.05,1.39,6.09,2.32,9.07,1.14,3.61,2.59,7.18,4.51,10.45.03.05.07.1.11.15.62-.39,1.28-.7,2-.84,1.65-5.14,3.38-10.26,5.1-15.38,1.82-5.41,3.22-11.03,6.15-15.99.58-.99,1.52-1.26,2.38-1.1.11-.13.21-.26.32-.39.69-.73,1.52-.85,2.24-.62.53-.67,1.27-.86,1.98-.72,1.29-1.06,2.59-2.1,3.91-3.12,2.49-2.17,5.02-4.29,7.61-6.33,5.64-4.44,11.48-8.71,17.74-12.25.87-.49,1.74-.39,2.41.04.53.03,1.05.23,1.49.67.86.86.99,2.55,0,3.38-.04.04-.09.07-.14.11.11,1.34-.15,2.66-.57,3.95.51.91.52,2.13-.29,2.94-.63.63-1.28,1.25-1.92,1.88-.69,1.28-1.41,2.54-2.11,3.8-4.67,8.36-9.16,16.82-13.42,25.4-.32.26-.54.63-.53,1.06-.05.11-.11.22-.17.33.07.05.13.11.2.16.4,3.98.76,7.97,1.07,11.96.33,4.15.51,8.3.65,12.45.08,2.34.12,4.67.14,7.01,0,.62.33,1.21.87,1.52.59.35,1.19.26,1.78,0,3.68-1.63,7.16-3.68,10.46-5.99,3.39-2.38,6.61-5.01,9.72-7.74,3.06-2.68,6.02-5.46,9.01-8.21,3.02-2.78,6.11-5.47,9.23-8.14,1.61-1.37,3.19-2.77,4.68-4.25-.5,1.59-.92,3.21-1.25,4.84-.32,1.62-.56,3.25-.72,4.89-.02.24.06.54.18.81-1.48,3.38-2.93,6.77-4.38,10.17-1.88,4.39-3.76,8.79-5.64,13.18-.49,1.15-1.03,2.28-1.4,3.48-.21.66-.32,1.33-.39,2.02-.06.59-.05,1.24.15,1.81.34.94,1.01,1.69,2,1.94.81.2,1.6,0,2.37-.26,1.06-.34,2.1-.73,3.13-1.14,1.94-.78,3.84-1.67,5.68-2.67.42.19.89.24,1.35.13,3.22-.79,6.24-2.22,8.93-4.13.49-.06.97-.18,1.41-.41.39-.21.71-.5.94-.87.3-.32.5-.71.6-1.14,1.07-7.28,2.23-14.54,3.36-21.81.24-1.56.47-3.12.71-4.68.49-.53.98-1.05,1.46-1.58.55-.62,1.07-1.26,1.6-1.89.05-.04.1-.08.15-.13,1.37-1.54,2.69-3.12,3.97-4.74,2.7-2.15,5.21-4.54,7.59-7.05,3.36-3.54,6.51-7.27,9.85-10.83.11-.12.22-.24.33-.36,6.18-2.29,12.33-4.6,18.33-7.08.11.49.22.98.32,1.47.23,1.14.41,2.28.57,3.43.56,4.29.82,8.61.98,12.94.16,4.5.22,9,.57,13.49.19,2.44.47,4.87.83,7.29.17,1.1.36,2.19.58,3.28.22,1.05.54,2.1,1.07,3.05.3.53.69,1.06,1.15,1.46.62.53,1.32.99,2.13,1.17.82.18,1.58.2,2.41,0,.77-.19,1.38-.6,1.98-1.09.9-.74,1.41-1.82,1.82-2.88.37-.95.51-1.98.61-2.99.11-1.1.14-2.21.21-3.31.08-1.21.18-2.42.28-3.63.21-2.42.47-4.84.77-7.25.05-.42.11-.83.16-1.25.71-5.18,1.61-10.34,2.71-15.45.56-2.59,1.17-5.17,1.83-7.73.47-1.81.98-3.61,1.39-5.44,12.99,6.83,23.88,17.43,35.67,25.99,13.36-5.42,26.02-13.72,39.21-19.32.07-.03.15-.07.23-.1.24.85.45,1.72.65,2.57.44,1.92.84,3.86,1.21,5.79.37,1.9.67,3.8.94,5.72.21,1.54.41,3.08.87,4.57.66,2.12,1.73,4.26,3.44,5.73.46.46,1.01.78,1.64.96.66.18,1.32.18,1.98,0,1.19-.33,2.34-1.35,2.6-2.6.86-4.12,1.69-8.24,2.47-12.37.79-4.15,1.54-8.31,2.25-12.48.17-1.03.34-2.07.51-3.11,6,.84,17.64,3.22,20.24,4.09,2.41.8,6.74,3.09,8.95,4.48,3.83,2.39,5.89,5.49,8.8,7.51,1,.69,1.01,1.42,2.45.48,1.13-.73,8.36-13.72,9.74-16.16,1.03-1.82,2.06-3.67,3.09-5.52.08.47.15.93.22,1.4.25,1.99.43,4,.6,6,0,.64.16,1.23.48,1.78.31.53.73.95,1.26,1.26,1.05.61,2.51.68,3.55,0,.84-.55,1.49-1.19,2.02-2.04.18-.29.3-.62.44-.94.14-.34.28-.67.38-1.03.28-1,.41-2.05.59-3.08.41-2.34.76-4.69,1.1-7.04.71-4.99,1.35-9.99,1.91-15.01.15-1.33.3-2.67.44-4.01.06-.53.11-1.07.05-1.6-.01-.13-.03-.28-.05-.41.39-.79.79-1.58,1.17-2.36,2.84-5.79,11.04-21.05,12.12-26.25,1.31-6.33-1.36-12.01-4.62-17.5,1.21-1.35,2.42-2.69,3.63-4.04.76-.85,1.52-1.7,2.27-2.55.78-.87,1.6-1.72,2.3-2.66.33-.44.6-.95.75-1.49.08-.28.12-.58.12-.87,0-.09,0-.17-.02-.26,0,0,0,0,0,.01,0,0,0-.02,0-.04,0,0,0,0,0,.01,0,0,0,0,0-.01,0,0,0-.01,0-.02,0-.04,0-.07-.01-.1-.02-.16-.04-.33-.09-.48-.15-.53-.44-1.06-.85-1.43-.26-.24-.5-.38-.81-.51-.33-.14-.66-.18-1.01-.1-.22.05-.48.21-.69.31-2.03.98-4.07,1.95-6.1,2.93-1.16.56-2.31,1.12-3.47,1.67-.46.22-.92.44-1.37.66-.84-1.58-1.57-3.17-2.12-4.77l30.12-41.84c-.8-3.62-1.23-10.83-3.22-15.97Z"/>
  </g>
</svg>