<?xml version="1.0" encoding="UTF-8"?>
<svg id="Layer_2" data-name="Layer 2" xmlns="http://www.w3.org/2000/svg" viewBox="0 0 122.58 132.28">
  <defs>
    <style>
      .cls-1 {
        fill: #181818;
      }
    </style>
  </defs>
  <g id="Layer_6" data-name="Layer 6">
    <path class="cls-1" d="M83.62,4.83c-2.33-.02-4.65-.05-6.98-.09,0,0,0,0,0,0-.08-.23-.18-.47-.29-.69-.14-.27-.34-.51-.53-.75-.3-.38-.68-.67-1.07-.95-.4-.28-.85-.48-1.31-.65-.46-.18-.96-.24-1.44-.3-.51-.06-.99,0-1.5.08-.42.07-.83.19-1.23.35-.52.21-1.02.44-1.49.74-.21.13-.4.28-.59.42-.29.22-.58.44-.85.68-.19.16-.39.32-.56.5-.12.13-.23.27-.34.41-1.35-.01-2.69-.03-4.04-.04-.68-.16-1.36-.31-2.04-.49-2.55-.7-5-1.67-7.52-2.44-2.64-.81-5.36-1.19-8.1-1.5-1.31-.15-2.62-.17-3.93,0-.7.1-1.4.27-2.03.61-.59.31-1.08.75-1.58,1.18-1.08.9-1.99,1.98-2.91,3.04-.1.12-.2.25-.3.37-2.73.2-5.46.45-8.18.77-1.34.61-11.58,15.77-13.27,18.37C9.09,28.24.47,41.18,0,44.62c-.2,1.49,3.07,12.73,3.88,14.9,1.03,2.76,8.84,18.67,10.34,19.41,1.76.88,3.23.42,4.63-.4.14.54.31,1.07.5,1.59.14.37.3.73.45,1.09.08.13.18.23.3.3.13.08.27.12.43.12.15,0,.3-.04.43-.12.13-.08.23-.18.3-.3.1-.24.25-.45.35-.69.1-.24.21-.48.31-.71.21-.47.42-.93.64-1.4.29-.6.6-1.19.9-1.78h.22c1.34,2.56,3.26,5,5.2,7.42-.16.36-.3.72-.4,1.1-.4,1.47-.39,3.03-.13,4.53.56,3.28,2.43,6.09,3.98,8.98.41.76.79,1.52,1.13,2.31.02.05.04.1.06.15,0,.02,0,.01,0,.02,0,0,0,0,.01.03.03.08.07.17.1.25.08.2.16.41.23.62.16.44.29.89.41,1.34.23.88.4,1.78.53,2.69,0,.04,0,.07.01.11,0,.01.01.11.02.11.02.12.03.23.04.35.03.24.05.47.08.71.05.45.09.9.13,1.36.17,1.93.31,3.86.47,5.79.17,1.91.35,3.81.52,5.72.17,1.81.35,3.62.38,5.44.02.88,0,1.76-.07,2.64-.08.89-.21,1.79-.38,2.67-.08.43-.18.86-.28,1.29,0,.03.04.05.05.02.36-.8.63-1.65.82-2.51.19-.86.28-1.74.37-2.61.18-1.79.21-3.58.14-5.38-.07-1.87-.2-3.73-.32-5.6-.12-1.93-.26-3.85-.4-5.78-.13-1.87-.25-3.75-.56-5.61-.3-1.79-.83-3.5-1.6-5.15-.73-1.54-1.6-3-2.42-4.5-.4-.74-.79-1.49-1.14-2.25-.05-.1-.09-.2-.13-.3-.01-.03-.03-.07-.04-.1,0,0-.02-.04-.03-.07-.07-.17-.14-.33-.2-.5-.13-.34-.24-.68-.34-1.03-.11-.37-.2-.74-.27-1.11-.03-.17-.07-.34-.09-.51-.01-.08-.02-.16-.04-.23,0,0,0,0,0-.01,0,0,0,0,0,0,0-.07-.02-.14-.03-.22.01.09.01.1,0,.03-.07-.71-.11-1.43-.04-2.14,0-.09.02-.18.03-.27,0,0,0-.02,0-.03,0-.03.01-.07.02-.1.03-.19.06-.37.1-.56.04-.18.1-.35.16-.53,1.66,2.09,3.27,4.18,4.44,6.33,1.41,2.59,1,5.99,3.5,7.89l15.76-8.96c.04,1.07.08,2.14.16,3.21.13,1.77.3,3.53.51,5.29.13,1.07.27,2.13.42,3.19.02.14.14.32.24.41.15.15.34.23.54.26.36.05.75-.12.93-.45,1.68-3.04,3.13-6.21,4.36-9.47.32-.86.65-1.72,1-2.57.71-1.66,1.62-3.22,2.61-4.73.23-.36.47-.71.71-1.07.09.2.2.39.29.59.2.43.4.87.59,1.31.04.1.09.2.13.31.02.06.05.11.07.17,0,0,0,0,0,0l.04.08c.09.22.18.44.27.66.73,1.79,1.4,3.61,2.02,5.43.63,1.84,1.21,3.69,1.78,5.54.57,1.86,1.13,3.73,1.7,5.59.57,1.87,1.16,3.73,1.79,5.58.63,1.83,1.3,3.65,2.04,5.44.39.95.8,1.89,1.23,2.81.37.79.77,1.56,1.26,2.28.54.78,1.16,1.49,1.94,2.03.78.54,1.72.86,2.67.87,1,.02,1.99-.28,2.85-.77.9-.51,1.65-1.22,2.28-2.04,1.25-1.66,1.84-3.71,2.44-5.67.65-2.16,1.28-4.33,1.89-6.51.6-2.17,1.18-4.34,1.73-6.52.55-2.18,1.08-4.37,1.59-6.56.51-2.2.99-4.41,1.45-6.62.22-1.04.41-2.08.61-3.13.19.21.47.36.74.35.46-.02.8-.3.95-.73.42-1.21.85-2.43,1.27-3.64.35-1.01.71-2.02,1.11-3.02.47-.92.94-1.84,1.43-2.76.04-.06.07-.13.12-.19.61-.9,1.3-1.74,1.95-2.61.63-.85,1.19-1.74,1.7-2.67.26-.46.5-.93.73-1.4.15-.3.27-.62.39-.94.01-.03.02-.06.03-.1,3.1-2.54,5.66-4.74,6.98-6.05,2.87-2.84,9.15-8.72,7.2-12.92-11.52-15.82-23.71-31.08-38.6-43.91Z"/>
  </g>
</svg>