<?xml version="1.0" encoding="UTF-8"?>
<svg id="Layer_2" data-name="Layer 2" xmlns="http://www.w3.org/2000/svg" viewBox="0 0 135.98 76.68">
  <defs>
    <style>
      .cls-1 {
        fill: #181818;
      }
    </style>
  </defs>
  <g id="Layer_6" data-name="Layer 6">
    <path class="cls-1" d="M110.75,50.67c3.91-.24,5.22-2.63,6.25-4.47,1.13-2.03,2.12-4.09,4.02-5.86,3.13-2.67,7.45-4.75,10.27-7.56.04-.04.06-.08.1-.11,2.48-1.56,4.29-2.79,4.44-3.13.91-1.94-2.94-7.35-5.87-8.76-2.88-1.38-7.33-2.63-12.24-3.74-.1-.1-.2-.21-.29-.33-.2-.28-.39-.56-.61-.82-.34-.42-.82-.75-1.34-.91-.71-.22-1.41-.08-2.05.25-.15.08-.29.16-.42.26-.04.03-.07.05-.11.07-.42-.09-.84-.23-1.26-.34-.54-.14-1.11-.19-1.67-.15-.26-.03-.5-.02-.78.07-.09.03-.17.08-.25.11-.38-.07-.77-.14-1.15-.21-.23-.32-.48-.63-.79-.9-.72-.62-1.52-1.05-2.43-1.32-1.63-.47-3.44-.33-4.91.55-.11.06-.2.14-.3.21-1.48-.25-2.85-.48-4.08-.69-1.96-.34-4.07-.69-6.29-1.06.02-.1.04-.2.03-.29-.01-.34-.12-.73-.4-.96-.27-.22-.55-.42-.89-.51-.26-.07-.53-.09-.79-.11-.29-.03-.59-.02-.89-.03-.53-.03-1.05-.08-1.58-.15-.65-.1-1.3-.22-1.94-.37-.35-.09-.71-.18-1.05-.28-.17-.05-.35-.09-.53-.14-.3-.07-.61-.11-.92-.14.13.02.26.03.38.05-.2-.03-.4-.06-.6-.08-.08-.01-.16-.02-.24-.01-.18.02-.36.03-.54.07-.1.02-.18.06-.27.11-.13.02-.25.05-.37.09-.16.06-.3.15-.42.26-.06-.08-.12-.16-.19-.24-.19-.19-.42-.33-.69-.4l-.16-.02c-.08-.11-.17-.23-.26-.33-.04-.05-.09-.09-.14-.13-.16-.13-.32-.27-.5-.38-.06-.03-.11-.07-.17-.09-.19-.09-.38-.18-.58-.24-.06-.02-.12-.03-.19-.04-.21-.03-.44-.07-.66-.08-.08,0-.16,0-.24.01-.23.03-.46.05-.68.1-.17.04-.33.1-.49.16-.29.12-.61.24-.89.41-.08.05-.15.11-.23.17-.18.13-.35.27-.53.41-.08.1-.16.21-.24.31,0,.02-.02.04-.03.06-1.99-.3-4.01-.61-6.04-.91-.15-.26-.36-.48-.63-.64-.06-.04-.12-.07-.18-.11-.18-.1-.39-.17-.59-.24-.01,0-.03,0-.04-.01-.03-.49-.05-.98-.05-1.47-.02-.14-.04-.27-.06-.41-.05-.2-.14-.37-.27-.52-.07-.12-.16-.21-.28-.28-.15-.14-.32-.23-.52-.28-.65-.19-1.3-.17-1.96-.04-.32.06-.61.19-.9.32-.28.12-.56.29-.79.5-.08.08-.16.16-.23.25-.13.17-.27.33-.38.51-.04.1-.08.19-.12.29-.05.16-.06.32-.02.48,0,.11.03.21.08.31.04.13.12.24.22.34-3.04-.44-6.09-.86-9.11-1.27-.38-.53-.76-1.06-1.17-1.57-.3-.37-.62-.72-.99-1.02-.28-.22-.56-.45-.87-.63-.32-.19-.67-.33-1.01-.46-.22-.09-.46-.16-.7-.2-.26-.05-.52-.08-.78-.1-.06,0-.12,0-.18,0-.02,0-.04,0-.06,0-.32,0-.62.08-.9.24,0,0-.02.01-.03.02-.01,0-.02.01-.03.02-.16.06-.32.11-.49.18-.07.03-.14.07-.21.11-.04.02-.07.04-.1.06-.17.11-.28.2-.38.32l.02-.03s-.05.06-.08.1c-.01.01-.02.03-.03.04-.04.04-.08.08-.11.12-.06.03-.13.05-.18.09-.21.16-.39.39-.45.66-.05.22-.05.45,0,.67.02.1.09.18.14.26-1.46-.18-2.92-.37-4.34-.54,0-.01,0-.03-.02-.04-.06-.18-.16-.33-.3-.46-.04-.05-.08-.1-.13-.14-.17-.16-.36-.3-.55-.44-.1-.07-.21-.13-.33-.18-.22-.1-.44-.2-.67-.25-.23-.05-.47-.09-.71-.1-.03,0-.05,0-.08,0-.01-.17-.03-.35-.07-.52-.01-.05-.03-.09-.04-.13-.06-.15-.11-.31-.2-.45-.11-.17-.23-.34-.38-.47-.15-.13-.32-.27-.5-.35-.19-.09-.39-.18-.59-.22-.32-.06-.66-.1-.99-.07-.35.03-.7.08-1.03.18-.32.1-.64.23-.94.39-.24.12-.48.26-.7.41-.31.21-.62.44-.89.7-.11.1-.21.21-.3.33-.11.14-.23.27-.31.43-.05.1-.09.2-.13.3-1.78-.18-3.49-.34-5.14-.49,0-.02-.01-.03-.02-.05-.04-.08-.08-.15-.12-.22-.04-.07-.09-.15-.15-.22-.13-.18-.27-.36-.42-.53-.11-.13-.24-.25-.37-.36-.24-.2-.49-.4-.76-.55-.27-.16-.56-.27-.85-.39-.16-.07-.33-.12-.51-.16-.3-.07-.62-.11-.93-.13-.1,0-.19,0-.29,0-.23.03-.46.05-.69.1-.1.02-.19.05-.28.08-.16.07-.33.13-.48.21-.15.07-.28.17-.4.29,0,0,0,0,0,0h0s0,0,0,0h0c-.07.05-.13.1-.2.16-.07.1-.15.19-.22.29-.05.11-.1.23-.14.34-.06.19-.07.38-.03.56,0,.03.02.05.02.08C4.02,1.92-1.78,10.1.49,15.72c-.2.31-.15.68.2,1.04-.01-.01-.03-.03-.04-.04.22.26.37.53.52.81.67,1.35.97,2.68,1.08,4.01.13,2.84-.69,5.54-.6,8.37.03.94.11,1.88.36,2.84.19.73,1.37,1.53,2.67,1.74.53.09,1.06.11,1.55.06.75-.07,1.21-.38,1.56-.72.41-.4.87-.78,1.27-1.19.38-.38.76-.76,1.14-1.15.74-.74,1.49-1.48,2.22-2.22.25,1.06.48,2.14.66,3.21.07.41.14.82.2,1.23.03.22.07.45.1.67.01.07.02.15.03.22,0,.07.02.14.03.22.11.88.21,1.77.3,2.65,0,.05,0,.09.01.14-.02.08-.04.17-.06.25-.09.42-.02.87.19,1.24.1,1.22.19,2.43.25,3.65.11,2,.25,4.02.19,6.02-.02.59.44,1.21,1.02,1.34.56.13,1.3-.07,1.57-.64.71-1.5,1.38-3,1.93-4.57.53-1.5.98-3.02,1.35-4.57.07-.29.12-.59.19-.88.56-.83,1.12-1.65,1.7-2.46.28-.39.56-.78.84-1.17.04-.06.08-.11.13-.17-.19.23-.14.17.13-.17.06-.09.12-.17.19-.26h0c3.05,2.3,6.15,4.61,9.25,6.9,0,.52.02,1.05.05,1.57.07,1.14.14,2.28.21,3.42.14,2.28.28,4.56.44,6.83.31,4.56.62,9.11.92,13.67.17,2.57.34,5.14.51,7.7.05.69.49,1.26,1.2,1.36.7.09,1.29-.33,1.52-.99.55-1.61,1.1-3.21,1.71-4.8.15-.38.29-.76.45-1.13.04-.09.08-.19.12-.28.1-.23.2-.47.31-.7.34-.75.69-1.5,1.08-2.23.11-.21.24-.41.36-.62.34-.07.65-.18.85-.34,7.22-5.75,12.78-12.27,16.17-19.41.05-.11.1-.22.15-.33,1.69-1.05,3.21-2.19,4.64-3.4.07.13.15.26.22.39.06.1.11.2.16.29.04.07.07.13.11.2.05.1.05.09.03.05.23.38.36.8.52,1.17.84,1.99,1.48,3.97,2.54,5.96.13.24.27.48.41.73.4,1.64.84,3.27,1.61,4.8.86,1.7,2.15,3.13,3.32,4.61.03.04.07.08.1.12.06.08.13.17.19.25.14.19.28.39.42.59.27.4.53.81.76,1.24.05.1.1.21.15.31.01.02.02.05.03.07.06.2.15.39.21.59.07.23.12.47.17.71,0,0,0,0,0,0,0,0,0,0,0,0,.01.13.02.27.02.4.02.5.22.93.62,1.23.36.28.92.46,1.37.28,1.19-.47,2.1-1.27,2.74-2.38.53-.93.86-1.98,1.13-3.01.68-2.65,1.36-5.31,2.02-7.97.02-.08.04-.15.06-.23.3-.17.58-.35.87-.52.04.06.07.11.1.17.76,1.16,1.61,2.28,2.53,3.32.49.56,1,1.09,1.49,1.65.34.4.98.52,1.47.39.54-.15.87-.55,1.05-1.05.02-.07.05-.13.07-.2-.05.12-.1.24-.16.37.24-.53.36-1.1.51-1.67.12-.45.22-.9.32-1.35.2-.91.39-1.83.57-2.74.36-1.81.68-3.63.95-5.46,0-.03,0-.06.01-.09.48-.43.96-.86,1.43-1.29.72-.35,1.43-.7,2.16-1.04.34-.16.7-.31,1.05-.46v.06s.01.04.02.06c0,.09.02.17.03.26,0,.05,0,.11.02.16l.03.24c.03.24.06.48.09.72.13,1.09.25,2.18.46,3.26.2,1.04.53,2.04.89,3.03.78,2.12,1.61,4.23,2.41,6.35.91,2.38,1.71,4.82,3.34,6.82.67.82,2.34.63,2.77-.36,1.83-4.13,3.12-8.42,3.91-12.83.04,0,.09,0,.14,0Z"/>
  </g>
</svg>