<?xml version="1.0" encoding="UTF-8"?>
<svg id="Layer_2" data-name="Layer 2" xmlns="http://www.w3.org/2000/svg" viewBox="0 0 228.25 97.09">
  <defs>
    <style>
      .cls-1 {
        fill: #181818;
      }
    </style>
  </defs>
  <g id="Layer_6" data-name="Layer 6">
    <path class="cls-1" d="M1.61,83.58c3.61-.89,7.18-1.92,10.79-2.82,3.61-.9,7.23-1.7,10.9-2.33,1.14-.19,2.28-.38,3.42-.55-.2,2.01-5.21,3.66-6.72,3.94v.93c.72-.16,1.28.15,1.71.7-.1.04-.21.07-.31.11-1.15.43-2.29.86-3.44,1.29-.32.12-.64.24-.95.36-.43.16-.84.34-1.25.53,0,0,0,.01.01.02-.19.11-.37.25-.48.45-.16.28-.23.69-.13,1.01.1.32.3.62.6.78.32.17.65.22,1.01.13.3-.07.6-.14.9-.23l.86-.27c.58-.18,1.16-.36,1.75-.54.83-.26,1.67-.53,2.5-.8.07.44.1.86.1,1.22-.25.06-.49.14-.75.19-.32.07-.62.19-.93.31-1.16.44-2.31.88-3.46,1.35-2.37.98-4.73,1.98-7.06,3.04-1.27.58-2.53,1.17-3.78,1.79-.69.34-.92,1.27-.63,1.94.28.67,1.1,1.15,1.83.9,3.84-1.33,7.66-2.75,11.43-4.27-.53.48-1.04.97-1.44,1.51,6.13,2.4,12.32-2.01,18.22-3.35,35-7.97,74.62-20.88,109.92-23.45,7.15-.52,14.37-.16,20.86,3.1,1.77.89,2.96,3.09,4.29,3.46,3,.84,15.76-6.07,15.42-9.78-.72-2.82-3.78-5.21-6.51-5.91-2.06-.53-7.13.75-8.64-2.37,10.93-4.49,47.76-8.63,53.74-17.73,3.82-5.82,3.52-22.18.88-28.49-.35-.83-1.29-.87-1.44-1.12-2.09-3.65-5.02-7.19-9.32-8.48-4.13-1.24-24.89,7.41-30.66,9.12-54.28,16.07-109.24,31.45-162.49,50.49-2.67.96-4.57,3.6-8.08,2.96l-.03,4.75,7.04-.82.41.95s-.05,0-.07,0c-.68.11-1.35.36-2,.56-1.36.42-2.7.91-4.04,1.39-2.65.95-5.27,1.96-7.87,3.03-1.56.64-3.11,1.3-4.65,1.98-.29.13-.58.54-.65.84-.07.31-.06.62.07.91.28.67.96.95,1.66.81,4.44-.9,8.56-2.75,12.79-4.33-.79.89-1.42,1.93-1.89,3.02-.24.09-.47.18-.71.26-1.07.39-2.14.79-3.21,1.2-2.17.83-4.35,1.66-6.52,2.49-1.22.47-2.43.97-3.67,1.39-.62.21-1.1.88-.88,1.56.22.67.87,1.05,1.56.88Z"/>
  </g>
</svg>