<?xml version="1.0" encoding="UTF-8"?>
<svg id="Layer_2" data-name="Layer 2" xmlns="http://www.w3.org/2000/svg" viewBox="0 0 107.96 35.12">
  <defs>
    <style>
      .cls-1 {
        fill: #181818;
      }
    </style>
  </defs>
  <g id="Layer_6" data-name="Layer 6">
    <path class="cls-1" d="M23.3.24l1.92,12.45H8.03c-.17-.16-.4-.27-.66-.28-1.68-.08-3.37-.16-5.05-.25-.47-.02-.95-.05-1.42-.07-.21-.01-.49.1-.63.26C.1,12.53,0,12.75,0,12.99c0,1.85.02,3.69.02,5.54,0,.26,0,.52,0,.78,0,.32-.01.64.04.96l-.03-.22c.01.14.02.27.03.41,0,.07.01.13.01.2,0,.08,0,.18.03.26.02.08.06.15.11.22.05.1.1.18.2.25.12.09.27.16.43.15.17,0,.34-.08.47-.19.61-.03,1.22-.09,1.83-.15v.12c3.32-.12,6.02-.38,7.72.18-.66.33-1.32.66-1.98.99-.4.2-.5.67-.43,1.07l1.06,5.97c.04.22.25.47.44.58.23.12.49.17.74.1,0,0,0,0,0,0,.11.05.23.08.35.1,0,0,0,0,.05.02.06.02.08.02.14.03.1.01.2,0,.3,0,.3,0,.59-.04.88-.07.63-.07,1.26-.17,1.9-.26,1.17-.17,2.34-.34,3.51-.51.62-.09,1.23-.18,1.85-.26.79-.11,1.58-.19,2.37-.28.25.04.48.08.67.15.56.2.87.65,1.09,1.12-1.45.16-2.89.36-4.33.59-.68.11-1.37.23-2.04.37-.33.07-.66.14-.98.21-.17.04-.33.08-.5.14-.1.03-.14.04-.26.1-.09.05-.02.01.03,0-.19.08-.32.18-.46.31-.13.12-.17.29-.18.46.97-.16,1.95-.31,2.93-.42.72-.08,1.45-.14,2.18-.15.59,0,1.18.07,1.77,0,.5-.06.96.11,1.35.4.56-.06,1.12-.13,1.68-.19-.07.09-.14.17-.17.29-.06.21.04.43.22.55.27.17.56.11.85.06.21-.04.41-.08.62-.12.41-.08.82-.14,1.23-.21.87-.15,1.75-.28,2.62-.41.43-.06.86-.12,1.28-.19.22-.03.44-.07.66-.1.1-.01.2-.03.3-.04.04,0,.08-.01.12-.02.03,0,.17-.02.17-.02.43-.04.85-.09,1.28-.13.18.23.33.48.47.74-.57.07-1.14.13-1.71.2-1.06.12-2.11.27-3.17.41-.49.07-.99.13-1.48.22-.28.06-.61.09-.87.22-.12.06-.21.13-.29.2-.19.04-.39.08-.58.12-.15.03-.3.07-.45.1-.07.02-.15.03-.22.05-.16.03-.3.11-.42.22-.07.06-.11.13-.17.21-.05.08-.08.17-.09.27-.02.1-.02.19.01.29.02.04.03.07.05.11,1.85-.21,3.7-.38,5.56-.41,1.05-.02,2.1.05,3.15.06.74,0,1.77.17,2.48.03.21-.04.42-.05.63-.04.33,0,.66.07.95.19,3.97.47,10.49-1.11,13.55-1.2,9.35-.26,46.91,1.7,52.3-1.45,4.44-2.6,5.49-16.76,2.02-20.13-3.66-3.55-26.34-4.44-32.2-4.25-8.73.29-22.72,3.71-30.63,2.79C32.51,9.48,33.87-1.77,23.3.24Z"/>
  </g>
</svg>