<?xml version="1.0" encoding="UTF-8"?>
<svg id="Layer_2" data-name="Layer 2" xmlns="http://www.w3.org/2000/svg" viewBox="0 0 467.47 351.58">
  <defs>
    <style>
      .cls-1 {
        fill: #181818;
      }
    </style>
  </defs>
  <g id="Layer_6" data-name="Layer 6">
    <path class="cls-1" d="M463.9,126.85c-2.81-.89-11.19-.01-13.32-2.05-2.82-2.69.38-7.11-.91-10.18.07-.04.15-.07.21-.13.09-.07.16-.2.22-.33.05-.1.09-.21.13-.32.03-.06.07-.12.09-.18.03-.12.06-.24.05-.36,0-.02,0-.04,0-.05,0-.03,0-.06-.01-.1,0-.02,0-.05,0-.06l-.02-.18s-.02-.07-.03-.11c0,0,0-.01,0-.02v.02c-.01-.08-.02-.17-.06-.24-.03-.08-.06-.15-.1-.23-.02-.04-.05-.08-.07-.12-.03-.04-.05-.08-.08-.12-.1-.13-.19-.26-.3-.39-.06-.07-.13-.14-.2-.21-.03-.03-.07-.06-.1-.09-.13-.1-.26-.21-.4-.3-.08-.05-.17-.1-.25-.14-.1-.05-.19-.09-.29-.13-.1-.04-.19-.09-.29-.12-.09-.03-.19-.05-.29-.06-.16-.03-.32-.05-.48-.06-.05,0-.09,0-.14,0-.21,0-.43.04-.64.07-.05,0-.1.02-.15.03-.12.03-.23.08-.35.13-.1.04-.2.08-.29.13-.1.05-.18.13-.27.2-.1.06-.19.13-.25.23-.02.02-.02.06-.04.08,0-.09-.01-.17-.03-.26,0-.02-.02-.03-.02-.05,0-.06-.02-.12-.03-.16-.07-.23-.19-.47-.37-.64-.09-.08-.22-.18-.32-.25-.1-.06-.25-.11-.38-.16-.06-.02-.11-.04-.17-.06-.2-.07-.42-.11-.63-.16-.53-.12-1.07-.2-1.62-.22-.4,0-.8,0-1.2.06-.44.06-.87.12-1.29.27-.26.09-.52.2-.77.33-.23.11-.47.31-.65.48.07-.05.14-.11.21-.16-.25.18-.5.37-.71.59-.1.1-.18.22-.26.34-.92.03-1.87.06-2.82.09-.08-.07-.15-.16-.21-.24-.01-.02-.02-.04-.03-.06-.02-.03-.04-.07-.07-.1,0-.01-.01-.02-.02-.04-.02-.05-.03-.11-.05-.16,0-.02.02-.03.02-.05.05-.18.07-.37.08-.56-.02-.11-.03-.23-.05-.34-.04-.17-.12-.31-.23-.44-.06-.1-.13-.17-.23-.23-.12-.11-.27-.19-.44-.23-.11-.02-.23-.03-.34-.05-.11.02-.23.03-.34.05-.17.04-.31.12-.44.23-.12.08-.21.19-.29.32-.02-.05-.03-.11-.06-.16-.05-.15-.13-.28-.25-.39-.11-.12-.24-.2-.39-.25-.15-.08-.3-.11-.47-.11-.11.01-.22.03-.32.04-.21.06-.39.16-.54.31-.06.08-.13.16-.19.25,0,0-.01.02-.02.03l.02-.03s0,0,0,.01c-.07.11-.13.24-.16.38-.02.08-.02.16-.03.24-.1.24-.2.47-.3.71l-.22.52s-.04.09-.06.14c0,.02-.02.04-.03.06,0,.01,0,.03-.02.05-.5-.05-.99-.1-1.42-.18-.02-.09-.04-.19-.06-.28-.02-.06-.04-.13-.06-.19-.03-.08-.06-.14-.09-.22-.04-.08-.05-.14-.09-.21-.02-.03-.04-.06-.06-.09-.08-.11-.13-.23-.2-.35-.07-.11-.14-.23-.22-.33-.14-.19-.29-.39-.44-.57-.1-.11-.21-.22-.32-.32-.1-.08-.2-.16-.3-.24-.05-.04-.11-.09-.17-.13-.02-.02-.27-.12-.3-.13,0,0-.01,0-.02,0-.03-.02-.06-.03-.09-.05-.13-.06-.26-.12-.39-.17-.08-1.32-.16-2.64-.23-3.97.07-.34.17-.67.3-1,.15-.32.3-.63.44-.95.13-.3.25-.59.33-.91.05-.19.08-.38.11-.57.07-.49.15-.99.09-1.49-.03-.29-.06-.59-.16-.87-.09-.26-.2-.53-.35-.76-.11-.17-.24-.33-.38-.48-.14-.14-.31-.27-.47-.38-.07-.05-.15-.08-.23-.12-.04-1.06-.06-2.12-.09-3.19.17-.08.33-.19.46-.33.33-.36.52-.81.65-1.28.06-.21.11-.43.17-.64.11-.42.2-.84.28-1.27.1-.57.19-1.15.26-1.73.05-.42.11-.86.1-1.28-.01-.61-.08-1.21-.16-1.81-.05-.35-.15-.65-.31-.98-.05-.1-.1-.21-.16-.31-.1-.18-.24-.32-.38-.47-.28-.3-.74-.38-1.13-.27,0-.22,0-.43,0-.65.03-.07.05-.14.08-.22.04-.11.07-.21.07-.33,0-.03,0-.05.01-.08.05-.28.16-.55.24-.83.05-.19.1-.39.13-.59.06-.34.1-.68.13-1.03.07-.93-.05-1.88-.4-2.75-.04-.11-.1-.22-.15-.33.08-.03.15-.06.23-.1.03-.02.06-.03.1-.05.03-.02.07-.04.1-.06.02-.01.03-.02.05-.03.13-.09.25-.19.37-.29.2-.2.34-.44.42-.72.08-.29.08-.58,0-.87-.03-.11-.06-.22-.1-.33-.1-.23-.19-.48-.32-.7-.1-.17-.22-.33-.36-.46-.15-.13-.3-.24-.46-.36-.02-.02-.04-.03-.07-.05,0,0-.02-.01-.03-.02-.03-.02-.07-.03-.1-.04v-.43c0-.46,0-.92,0-1.39.12-.07.23-.15.33-.25.17-.16.29-.35.36-.57.11-.21.16-.44.15-.68,0-.24-.04-.47-.15-.68-.07-.22-.19-.41-.36-.57-.12-.12-.25-.21-.39-.29-.04-1.37-.13-2.75-.26-4.15.2-.01.39-.05.56-.14.15-.04.28-.12.4-.23.2-.13.35-.29.46-.5.04-.07.05-.11.09-.22.03-.07.06-.15.09-.22,0,0,0-.01,0-.02,0,0,0-.01,0-.02.03-.08.01-.08.04-.25.04-.33.04-.17,0-.5-.02-.17,0-.19-.05-.29,0-.02-.01-.03-.02-.05l-.08-.19c-.03-.06-.05-.13-.08-.19v-.03c-.04-.08-.07-.15-.11-.23-.03-.07-.06-.15-.09-.22-.1-.12-.19-.25-.29-.37-.01-.01-.02-.03-.03-.04l-.02-.02c-.05-.07-.1-.13-.15-.19,0-.01-.02-.02-.03-.03,0,0,.01.02.02.03-.06-.06-.13-.12-.2-.17-.17-.15-.36-.26-.59-.31-.13-.02-.25-.03-.38-.05-.11-1.12-.21-2.24-.28-3.38.18-.03.36-.08.53-.19.12-.09.24-.19.36-.28.17-.16.3-.35.37-.57.08-.14.12-.29.12-.45.05-.24.04-.47-.03-.71-.04-.1-.09-.21-.13-.31.16-.15.33-.3.49-.45.07-.08.15-.16.21-.24.15-.19.32-.39.44-.6.12-.21.21-.43.29-.66.1-.29.09-.62.01-.91-.06-.23-.18-.41-.32-.59-.04-.05-.08-.11-.11-.16-.04-.07-.07-.15-.11-.22-.09-.13-.17-.26-.23-.41,0,0,0,0,0,0,0-.02-.02-.04-.03-.06,0-.1-.02-.21-.01-.31,0,.06-.02.12-.02.18,0,0,0,0,0,0,.03-.17.03-.29-.01-.49.01.09.02.18.04.27,0-.08,0-.16,0-.24,0-.04,0-.07,0-.11,0-.02,0-.03,0-.05,0-.05-.03-.09-.04-.13.06-.17.06-.35-.06-.5-.04-.05-.1-.08-.15-.11,0-.03,0-.07,0-.1,0-.05,0-.11-.01-.16-.03-.26-.06-.52-.11-.78-.04-.21-.1-.42-.18-.62-.14-.34-.27-.68-.47-.99-.07-.1-.14-.19-.22-.29.14-.8.28-1.6.43-2.4.01,0,.03-.01.04-.02.03,0,.06-.02.09-.02.03,0,.06,0,.09,0,.31,0,.59-.08.85-.23.25-.15.46-.35.61-.61,0-.01.01-.03.02-.04.06-.15.13-.29.19-.44.01-.03.02-.06.03-.09,0-.03.01-.06.02-.09.03-.16.05-.33.07-.49,0-.02,0-.04,0-.06,0-.06,0-.12,0-.19-.01-.21-.04-.42-.08-.63-.01-.06-.03-.12-.05-.18,0-.03-.02-.06-.03-.08-.06-.15-.12-.3-.19-.44,0-.02-.02-.03-.02-.05-.03-.06-.06-.11-.09-.16-.11-.17-.24-.33-.37-.49-.02-.03-.05-.05-.07-.08-.01-.01-.02-.02-.04-.04-.08-.07-.16-.13-.24-.19.8-4.98,1.13-9.99-.89-14.83-.81-1.96-1.6-3.61-3.9-1.84l-.91,5.18c-.57.08-.85-.2-1.05-.6.64-1.5,1.18-3.04,1.56-4.63.94-3.87,1.12-7.92.69-11.87-.26-2.37-.69-4.71-1.28-7.01-.23-.89-1.28-1.52-2.17-1.23-.43.14-.84.4-1.06.81-.24.45-.26.87-.18,1.36.18,1.12.35,2.24.5,3.36.38,2.89.58,5.83.23,8.73-.13.9-.32,1.79-.57,2.66-.14.47-.28.93-.44,1.39-.09.24-.2.48-.28.72.01-.04.02-.06.03-.09-.02.05-.04.1-.05.12-.05.1-.09.21-.14.31-.41.87-.92,1.68-1.46,2.47-.06.09-.13.18-.19.27-.02.03-.04.05-.06.08-.08.08-.16.17-.24.27-.28,0-.56,0-.84,0-.04-.42-.08-.83-.12-1.25-.15-1.6-.31-3.2-.47-4.8-.05-.51-.18-.96-.55-1.33-.33-.33-.86-.57-1.33-.55-.49.02-.99.18-1.33.55-.35.38-.51.81-.55,1.33-.06.89-.16,1.77-.27,2.66-.02.15-.05.29-.07.44-.7-.68-1.39-1.38-2.01-2.14-.4-.55-.75-1.12-1.03-1.74-.24-.61-.4-1.24-.51-1.88-.07-.66-.07-1.32,0-1.98.08-.5.22-1,.38-1.48.47-.87.97-1.72,1.48-2.56.42-.69.21-1.62-.42-2.1-.59-.46-1.61-.49-2.14.13-.09.11-.16.23-.25.34,0,0,0,0,0,0-.02.04-.04.08-.07.11-.53.69-.99,1.42-1.33,2.24-.03.06-.04.12-.07.18-.16.29-.33.58-.47.88-.62,1.25-1.18,2.57-1.45,3.94-.31,1.54-.3,3.04-.01,4.58.27,1.41.73,2.8,1.3,4.11.1.22.21.44.32.66l-2.17,2.58c-.41-2.97-2.28-6.32-5.77-5.74l.04,2.73s-.01,0-.02.01c-.15.11-.3.22-.43.34-.03.03-.06.06-.1.09-.16.16-.3.36-.43.53-.05.07-.1.14-.13.22-.09.2-.19.41-.25.63-.01.04-.02.08-.03.12-.03.16-.05.33-.07.49,0,.03,0,.05,0,.08,0,.08,0,.17,0,.25.02.22.04.45.1.66.05.22.16.43.25.63.04.09.09.17.14.26.08.1.16.21.24.31.14.15.31.26.5.32,0,0,.02,0,.03,0,.03.03.07.05.1.08.06.04.12.06.18.08l.03,1.8s0,0-.01.01c-.02.02-.04.03-.05.05,0,0,0,0-.01.01-.09.12-.19.24-.28.37,0,.01-.01.03-.02.04-.05.1-.09.2-.13.3-.06.14-.09.19-.11.32-.07.42-.13.83-.17,1.25,0,.07-.02.15-.02.22,0,.04,0,.07-.01.11,0,.02,0,.03,0,.04.02.16.04.32.06.48,0,.01,0,.03,0,.04.02.14.05.27.08.41.08.28.22.52.43.73.03.03.07.05.1.08.02.04.04.07.07.11.02.04.04.09.05.13.02.04.07.07.1.11l.05,3.68s-.02.02-.04.03c-.56.69-1.1,1.4-1.63,2.11.1-.13.2-.26.3-.38-.41.52-.81,1.04-1.21,1.57-.31.41-.59.84-.9,1.25.11-.14.22-.28.32-.42-.33.42-.66.84-.97,1.28-.16.25-.25.52-.26.82-.07.29-.05.58.04.87l.22.52c.19.33.46.59.79.79.16.11.31.22.46.33.27.21.53.42.8.63-.16-.12-.31-.24-.47-.36.44.34.86.72,1.26,1.12.19.2.38.4.56.61.09.11.18.2.29.3.05.04.1.09.16.14.19.16.31.25.43.33l.04,2.34c-.05.04-.11.07-.16.12-.1.09-.19.19-.28.28-.17.18-.34.36-.5.55-.25.31-.5.62-.71.96-.2.33-.35.69-.5,1.06-.12.3-.17.6-.21.93-.02.19-.06.37-.05.56,0,.28.05.57.1.85.06.36.22.71.37,1.03.08.17.17.33.27.48.26.4.57.77.88,1.15.04.06.08.11.12.17-.1.16-.21.31-.32.45-.06.08-.11.15-.16.23-.14.21-.23.51-.31.72-.1.24-.15.49-.13.76.02.24.02.49.1.71.09.33.26.62.5.86.18.19.39.32.63.4.18.09.37.14.57.15l.07,4.6c-.14.17-.23.35-.32.59-.04.11-.08.22-.11.33l-.21.61-.44,1.27c-.27.78-.53,1.58-.82,2.36-.15.3-.31.61-.44.93-.22.53-.24,1.1-.13,1.65.04.2.14.41.23.59.09.19.25.36.38.52.01.02.03.03.04.05.07.07.14.12.22.17.08.07.15.13.24.18.18.11.39.18.58.25.25.09.53.11.8.14.04,0,.08.01.12.02l.12,8.15c.18,0,.36,0,.53,0v.91c-.11,0-.23.02-.35.05-.24.07-.44.19-.62.36-.17.18-.29.38-.36.62-.01.09-.03.19-.04.28-.03.22-.08.44-.09.65-.01.2-.02.39-.03.59-.01.25-.03.49-.04.74-.03.06-.05.12-.08.18l-.06.46s0,.06,0,.09c0,.06,0,.12-.01.18,0,.12-.01.23-.01.35,0,.03,0,.06,0,.08.02.18.05.37.07.55,0,.06.02.12.03.18.01.06.02.11.04.16,0,.03.01.06.02.09,0,.01,0,.03.01.04.06.22.13.35.22.49,0,.01,0,.03,0,.04,0,.04.02.07.03.11.03.1.07.17.11.27.13.31.05.15.11.24,0,0,0,.01.01.02l.3.38c.05.07.11.13.17.18.18.16.37.32.58.44.04.02.07.04.11.06,0,0,0,0,.01,0l.16,10.41c-.35.18-.7.35-1.05.53-.03.01-.06.03-.09.04-.01,0-.03.01-.04.02-.19.1-.36.27-.47.45-.07.12-.11.26-.16.4.01,0,.02,0,.03-.01-.01.05-.05.1-.05.16-.03.14-.03.29.02.43.04.09.07.17.11.26.1.16.22.29.39.39.03.02.06.04.09.05.1.06.09.07.3.13.22.06.44.06.66,0,.01,0,.03,0,.04-.01.03,0,.06-.02.09-.02.06-.02.12-.03.18-.05l.03,2.19c-.09.02-.18.03-.26.06-.15.05-.31.12-.45.19-.05.02-.1.05-.15.08-.05.03-.09.06-.14.09-.13.1-.26.19-.39.3-.16.15-.29.33-.42.5-.11.14-.17.3-.24.46-.59,0-1.18,0-1.77.02,0,0,0-.02,0-.02.04-.17.06-.36.08-.53,0-.04,0-.07,0-.11,0-.02,0-.03,0-.05,0-.12-.02-.28-.05-.39-.1-.3-.26-.61-.51-.82-.12-.1-.24-.21-.38-.27-.14-.07-.3-.15-.46-.18-.37-.07-.64-.07-1.01,0-.06.01-.12.03-.18.05-.16.06-.32.12-.47.2-.31.18-.55.43-.74.72-.05.08-.08.18-.12.27-.12-.07-.23-.14-.35-.22-.36-.24-.74-.46-1.13-.63-.57-.25-1.14-.44-1.77-.47-.24-.01-.48.02-.71.06-.17-.09-.33-.17-.49-.29-.21-.15-.44-.29-.66-.43-.22-.14-.49-.17-.74-.14-.13.02-.27.06-.4.13-.03-.07-.06-.14-.1-.2-.24-.36-.55-.7-.95-.88-.35-.16-.61-.23-.99-.27-.25-.02-.52.02-.77.07-.25.05-.5.16-.73.27-.16.08-.31.17-.45.28-.23.18-.45.35-.64.57-.19.23-.37.47-.52.73-.23.41-.41.84-.59,1.27-.1.22-.19.45-.31.66-.08.15-.17.31-.26.45-.05.06-.11.11-.16.16-2.72-.03-5.44-.06-8.16-.09-.1-.15-.2-.29-.32-.42-.16-.16-.34-.32-.51-.47-.37-.35-.73-.7-1.14-1-.08-.06-.15-.11-.24-.15-.15-.07-.31-.15-.48-.18-.29-.06-.47-.05-.76,0-.17.03-.34.11-.49.19-.23.13-.44.32-.62.51-.13.13-.26.27-.38.42-.28.33-.53.69-.76,1.06-1.35-.01-2.7-.03-4.05-.04,0-.01-.01-.02-.01-.03,0,.01,0,.02.01.03h0c-.07-.19-.15-.36-.3-.52-.15-.16-.32-.33-.51-.41-.26-.12-.53-.22-.81-.32,0,0,0,0,0,0-.34-.34-.69-.66-1.06-.98-.16-.14-.32-.26-.49-.39-.28-.22-.56-.43-.84-.63-.15-.1-.3-.21-.45-.31-.44-.29-.89-.57-1.36-.82-.1-.12-.21-.24-.33-.35-.54-.49-1.13-.75-1.85-.82-.84-.08-1.68.26-2.47.48-1.5.41-3.01.82-4.51,1.21-5.94,1.57-11.91,3.06-17.89,4.47-.31.07-.62.15-.93.23-5.09-.22-10.22-.38-13.75.29-2.38.45-9.82,10.37-11.09,12.88-3.47,6.82-1.63,12.06-11.24,15.61-1.05.08-2.1.16-3.16.23,0,0,0,0,0,0-.16-.2-.32-.39-.48-.57-.19-.21-.38-.41-.59-.6-.4-.36-.83-.66-1.27-.92-.53-.67-1.1-1.28-1.81-1.79-1.47-1.05-3.29-1.04-5-.75-1.64.28-3.26.66-4.89,1-6.62,1.36-13.24,2.76-19.86,4.16-1.83.39-3.67.76-5.49,1.19-1.86.44-3.73.84-5.55,1.44-.14.03-.27.1-.38.18-.02.01-.03.02-.05.03h0c-2.63.4-5.25.87-7.86,1.43h-.12c-.04-.08-.09-.16-.15-.24,0,0,0,0,0,0,0,0,0,0,0-.01-.02-.02-.02-.04-.04-.06-.02-.02-.03-.04-.05-.06-.05-.07-.1-.14-.15-.21.05.07.1.13.15.2-.09-.22-.27-.38-.41-.56.06.08.12.15.18.23-.05-.07-.11-.13-.16-.2-.02-.03-.04-.05-.06-.08-.08-.13-.18-.25-.27-.37.06.08.12.16.19.24-.14-.18-.24-.38-.34-.59-.18-.5-.29-1.02-.38-1.54-.05-.19-.15-.36-.29-.5-.1-.11-.23-.19-.37-.24-.14-.07-.28-.1-.44-.1-.21,0-.4.05-.58.16-.58.38-1.13.84-1.57,1.37-.25.3-.48.61-.68.94-.2.33-.36.68-.49,1.04-.06.16-.12.32-.15.49-.03.14-.06.29-.06.44l-4.7.28c-.09-.04-.18-.08-.27-.11.02,0,.05.02.07.03-.54-.22-1.11-.35-1.67-.46-.53-.1-1.05-.21-1.58-.31-.57-.11-1.15-.2-1.74-.26-.25-.02-.5-.04-.76-.04-.31,0-.62.05-.92.1-.27.03-.53.07-.79.13-.33.08-.64.2-.95.33-.44.19-.84.47-1.17.81-.11.11-.21.25-.32.37l-15.21.89c-5.56,5.41-15.32,19.34-23.27,20.84-3.86.73-6.98-.87-10.47-.95-.59-.01-1.19-.02-1.78-.03-.22-.32-.48-.62-.76-.89t0,0c-.14-.13-.29-.26-.44-.37-.16-.12-.32-.22-.48-.32-.63-.37-1.32-.58-2.01-.77-.53-.47-1.07-.93-1.6-1.4-.62-.54-1.25-1.08-1.96-1.5-.83-.48-1.69-.73-2.64-.83-.73-.08-1.45,0-2.18.09-1.54.18-3.08.37-4.62.57-5.28.68-10.56,1.43-15.78,2.48-.12-.22-.27-.42-.45-.6-.32-.31-.67-.59-1.04-.84-.64-.43-1.39-.79-2.16-.93-.08-.01-.16-.02-.24-.03-.9-.64-1.82-1.25-2.8-1.75-.91-.46-1.87-.85-2.87-1.05-.68-.14-1.4-.23-2.08-.02-.64.2-1.15.58-1.65,1.03-1.35,1.21-2.68,2.44-3.9,3.78-.47.51-.91,1.05-1.34,1.59-.07.09-.14.18-.21.27-.42.55-.83,1.11-1.19,1.7,0,0,0,0,0,0-3.96.03-7.92.06-11.88.04l-25.07,30.21c-.11,0-.22,0-.33,0-.84.03-1.66.15-2.43.52-1.18.58-1.8,1.77-2.32,2.91-.24.52-.48,1.04-.82,1.51-.11.14-.24.26-.37.38-.12.09-.25.16-.39.23-.26.09-.52.17-.78.25-.38.12-.75.29-1.11.47-.55.28-1.08.58-1.64.83-.5-.09-.98-.23-1.45-.41-.33-.15-.65-.3-.96-.49-.16-.1-.32-.21-.48-.32-.04-.03-.07-.05-.11-.08-.08-.06-.16-.13-.23-.19-.3-.26-.76-.38-1.12-.14-1.66,1.06-3.22,2.28-4.62,3.65-.02.02-.03.03-.04.05l-23.37,4.52c-.06-.07-.14-.14-.22-.19-1.04-.68-2.08-1.35-3.12-2.02-.16-.1-.31-.2-.5-.26-.25-.09-.55-.07-.8.02-.3.12-.58.27-.85.44-.48.3-.94.65-1.34,1.05-.35.34-.67.73-.95,1.14-1.17.33-2.36.6-3.55.82-.33.06-.67.11-1.01.16-.07,0-.13.02-.2.03-.2.02-.09.01-.04,0-.02,0-.03,0-.05,0-.18.02-.36.05-.54.08-.52.08-1.02.24-1.49.47-.26.13-.51.31-.71.52-.11.12-.22.25-.31.39-.06.11-.09.24-.1.36,0,.01,0,.02,0,.03l-.08.02L0,233.04c8.96,1.77,16.81,6.92,25.39,9.64,8.56,2.71,18.1,4.37,27.24,6.83.12.38.23.75.35,1.13.44,1.3.89,2.59,1.37,3.87.99,2.67,2.12,5.29,3.32,7.88,2.33,5.05,4.97,9.95,7.93,14.66,1.33,2.12,2.79,4.51,5.27,5.4,1.23.44,2.66.25,3.75-.47,1.13-.75,1.94-1.89,2.68-3.01,2.68-4.11,3.85-8.97,4.65-13.75.03-.15.05-.3.07-.46,5.19-.58,12.99-14.58,21.17-14.55,3.58.02,7.07,1.3,10.26,3.36-.09,2.88.2,5.77.62,8.62.49,3.33,1.16,6.63,1.65,9.97.53,3.61.89,7.26,1.15,10.9.51,7.36.59,14.75.67,22.13.08,7.37.14,14.74.65,22.09.25,3.67.62,7.33,1.13,10.98.26,1.84.58,3.66.96,5.47.18.87.47,1.71.72,2.56.26.9.59,1.76.92,2.64.31.84.59,1.69.89,2.53.07.21.38.13.33-.09-.19-.92-.39-1.84-.51-2.77-.12-.89-.21-1.78-.35-2.67-.14-.92-.22-1.86-.38-2.78-.15-.88-.29-1.76-.43-2.64-.55-3.56-1-7.09-1.29-10.7-.6-7.3-.72-14.62-.8-21.94-.08-7.35-.1-14.69-.54-22.03-.21-3.65-.53-7.3-.99-10.93-.44-3.47-1.07-6.9-1.69-10.34-.57-3.19-1.07-6.33-1.14-9.58,0-.11,0-.22,0-.33,6.71,5.05,11.84,13.5,13.29,20.57l16.07,3.83c3.87-.85,9.78-11.3,13.26-10.43l24.57,14.88c.15.5.3,1,.46,1.5.65,2.02,1.29,4.03,1.94,6.05,1.17,3.65,2.32,7.3,3.57,10.92,1.21,3.5,2.5,6.99,4.04,10.36,1.51,3.31,3.24,6.53,5.28,9.53,1.03,1.52,2.13,3.03,3.37,4.39,1.24,1.36,2.69,2.56,4.41,3.27,1.64.67,3.47.66,5.07-.14,1.36-.68,2.38-1.92,3.09-3.23.75-1.37,1.24-2.88,1.64-4.38.53-1.97,1-3.95,1.42-5.94.73-3.49,1.29-7.01,1.7-10.55l3.83,2.32c3.58-4.86,12.16-7.7,15.67-11.64,2.96-3.32,6.27-8.72,9.6-14.36.33.85.68,1.69,1.09,2.51.6,1.19,1.28,2.35,1.82,3.57.5,1.11.85,2.37.93,3.59.09,1.36-.05,2.71-.29,4.04-.26,1.39-.61,2.76-.94,4.14-.33,1.37-.63,2.76-.92,4.14-.57,2.79-1.03,5.6-1.41,8.43-.74,5.6-1.15,11.27-1.07,16.92.04,2.82.11,5.67.42,8.47.15,1.41.33,2.82.58,4.22.13.7.22,1.41.4,2.1.08.31.2.6.27.91.08.37.15.74.23,1.1.14.68.3,1.35.5,2.02.02.07.14.06.14-.02-.02-.71-.07-1.42-.13-2.13-.02-.32-.05-.63-.07-.95-.03-.38.03-.75.02-1.13,0-.69-.07-1.39-.09-2.08-.02-.71-.05-1.43-.09-2.14-.15-2.78-.3-5.56-.34-8.35-.08-5.62.15-11.23.79-16.82.32-2.77.73-5.52,1.25-8.26.51-2.76,1.18-5.49,1.81-8.22.64-2.76,1.13-5.68.44-8.48-.64-2.58-2.26-4.77-3.33-7.17-.33-.74-.62-1.52-.88-2.3,3.09-5.26,6.17-10.56,8.95-14.41,2.26-3.13,10.69-15.27,13.29-16.47,3.88-1.78,16.32,2.51,21.12,2.79l39.04-31.89c.68-.07,1.39.01,2.12.22.88,3.6,1.99,7.14,3.36,10.58.92,2.31,1.93,4.58,3.04,6.8.98,1.97,2.02,3.91,3.23,5.75,2.27,3.46,5.05,6.71,8.56,8.95,3.45,2.2,7.6,3.14,11.61,2.14,4.18-1.04,7.7-3.92,10.25-7.32,2.86-3.82,4.54-8.38,6.13-12.84,1.66-4.66,3.39-9.29,5.24-13.88,1.74-4.31,3.56-8.52,5.5-12.78.24,1.11.48,2.22.73,3.33.4,1.8.92,3.62,1.82,5.25.87,1.59,2.17,2.95,3.82,3.74,1.59.77,3.38,1.08,5.14.97,3.85-.24,7.16-2.31,9.83-4.99,1.38-1.39,2.6-2.92,3.78-4.48,1.19-1.56,2.33-3.16,3.43-4.78,2.2-3.25,4.21-6.63,6.04-10.1,1.87-3.53,3.54-7.16,5.02-10.86,1.46-3.64,2.73-7.36,3.81-11.13.54-1.9,1.03-3.82,1.48-5.75.44-1.91.87-3.84,1.15-5.77.08-.52.16-1.06.23-1.59.31,1.93.59,3.85.68,5.84.15,3.2-.05,6.41-.48,9.58,0,.06-.03.21-.03.2-.01.08-.02.16-.03.24-.03.2-.06.39-.09.59-.06.41-.13.83-.2,1.24-.14.81-.29,1.61-.46,2.41-.32,1.57-.69,3.13-1.09,4.69-1.65,6.38-3.79,12.62-5.8,18.89-2.05,6.37-4.11,12.73-6.14,19.1-1.97,6.19-3.81,12.44-5,18.82-1.19,6.33-1.74,12.83-.99,19.25.72,6.11,2.62,11.94,4.91,17.63,2.29,5.68,4.84,11.04,6.83,16.83.87,2.52,1.59,5.09,2.11,7.7.13.64.24,1.29.35,1.93.01.08.02.16.04.24,0,.02,0,.03,0,.05-.02-.2-.02-.13.03.19.02.16.05.32.07.49.02.15.04.29.06.44,0,0,0,0,0,.01,0,.01,0,.02,0,.03.01.1.02.19.04.29.16,1.32.27,2.65.31,3.98.04,1.28.02,2.57-.08,3.85-.02.32-.05.63-.08.95-.02.16-.03.31-.05.47,0,.06-.02.13-.02.19,0,.05-.01.1-.02.15-.09.63-.19,1.27-.3,1.9-.22,1.23-.51,2.44-.9,3.63-.1.29-.2.59-.3.88-.02.06-.04.12-.06.17,0,0-.04.11-.05.16-.06.18-.15.36-.21.54-.23.61-.43,1.06-.73,1.68-.26.54-.49,1.07-.74,1.63-.13.29-.27.57-.41.86-.11.21-.3.47-.33.72-.04.05-.08.1-.12.16-.19.23.14.57.33.33.18-.22.42-.38.63-.58.25-.24.49-.48.72-.73.46-.48.87-.97,1.22-1.52.33-.52.65-1.06.94-1.61.36-.68.55-1.13.85-1.87.99-2.45,1.55-5,1.79-7.62.48-5.31-.26-10.68-1.68-15.8-1.58-5.7-4.05-11.14-6.38-16.56-1.18-2.74-2.33-5.47-3.38-8.32-1.04-2.82-1.96-5.69-2.62-8.62-1.38-6.14-1.39-12.55-.57-18.82.18-1.41.46-3.1.75-4.61.31-1.61.66-3.21,1.04-4.8.76-3.16,1.66-6.29,2.61-9.41,1.94-6.34,4.02-12.64,6.05-18.95,2.05-6.36,4.18-12.69,6.08-19.1,1.85-6.24,3.43-12.67,3.69-19.19.13-3.26-.09-6.51-.63-9.73-.27-1.6-.59-3.18-.86-4.78-.13-.75-.25-1.5-.35-2.25.52-.42,1.04-.83,1.56-1.25,4.6-3.72,15.22-6.27,21.02-10.64,3.04-2.29,8.51-9.37,7.74-13.16-.05-.24-3.26-3.31-3.5-3.39Z"/>
  </g>
</svg>