<?xml version="1.0" encoding="UTF-8"?>
<svg id="Layer_2" data-name="Layer 2" xmlns="http://www.w3.org/2000/svg" viewBox="0 0 113.14 27.84">
  <defs>
    <style>
      .cls-1 {
        fill: #181818;
      }
    </style>
  </defs>
  <g id="Layer_6" data-name="Layer 6">
    <path class="cls-1" d="M109.01,13.59c.34-1.04.67-2.08,1.08-3.1.48-1.11,1.15-2.12,1.59-3.24.39-1,.49-2.09.62-3.15.09-.67.22-1.35.47-1.98.11-.24.23-.48.32-.73.17-.45-.18-1.03-.64-1.13-.03,0-.07,0-.1,0,0-.1-.02-.18-.05-.23l-7.57-.02-.98,6.24-94.46.48c-1.5-.41.3-8.28-7.9-4.97C.33,2.18-.08,1.31.01,3.3c.11,2.46,6.19,19.73,7.75,21.08,4.55,3.93,30.04,3.5,36.97,3.41,13.18-.16,34.19.52,46.6-.93.31,0,.62-.02.94-.02,1.06.02,2.12.07,3.19.02,2.12-.09,4.27-.36,6.34-.85.33,0,.67,0,1-.01.19,0,.38-.01.57-.02.13.16.3.3.5.35.54.12,1.04-.16,1.21-.69l.29-.88c.06-.04.12-.07.17-.12.22-.18.23-.5.11-.75.47-1.43.94-2.87,1.41-4.3l1.97-6.01Z"/>
  </g>
</svg>