<?xml version="1.0" encoding="UTF-8"?>
<svg id="Layer_2" data-name="Layer 2" xmlns="http://www.w3.org/2000/svg" viewBox="0 0 268.01 69.56">
  <defs>
    <style>
      .cls-1 {
        fill: #181818;
      }
    </style>
  </defs>
  <g id="Layer_6" data-name="Layer 6">
    <path class="cls-1" d="M135.13,6.71c-41.54-1.78-78.09-1.03-119.06,2.9C7.66,10.42-1.83,6.36.31,19.63c.93,5.76,5.85,4.9,6.54,6.88.64,1.84-.14,5.09.23,7.43.6,3.72,1.34,11.57,2.34,15.34.02.24.03.47.06.71.24,2.06.67,4.09,1.36,6.05.35,1,.79,1.99,1.27,2.94.23.46.48.91.72,1.36.13.24.25.48.36.72.03.06.05.12.08.18.01.03.04.08.06.12,0,0,0,0,0,0,.01.03.02.05.03.08.03.07.05.14.08.21.09.24.16.49.22.74.03.13.05.25.07.38,0,.03,0,.06,0,.09,0,.08.01.16.02.24.02.28.01.56,0,.84,0,.14-.02.28-.04.42,0,.06-.01.12-.02.18,0,.04,0,.08-.01.12h0c-.09.58-.19,1.15-.28,1.72-.02.14-.05.29-.07.43-.01.07-.03.14-.04.21,0-.02-.02.12-.02.16,0,.04-.01.09-.01.09-.04.29-.08.58-.12.86-.05.32-.03.63-.04.95,0,.16.09.32.23.39-.02-.01.04.03.05.04.05.04.11.07.17.05.04-.02.08-.03.13-.04.16-.03.27-.18.32-.32.09-.26.22-.52.29-.82.07-.29.13-.58.2-.87.13-.56.24-1.13.35-1.69.24-1.2.44-2.4.25-3.62-.17-1.08-.67-2.08-1.15-3.05-.23-.46-.46-.93-.66-1.4-.02-.05-.04-.1-.06-.15,0-.01-.03-.08-.05-.11-.01-.03-.03-.07-.04-.09-.03-.07-.05-.13-.08-.2-.09-.23-.18-.46-.27-.7-.38-1.01-.69-2.04-.96-3.09,2.86,2.86,7.4,4.41,9.95,7.08,1.51,1.58,4.41,8.55,4.9,8.54,5.58-.03.39-11.39-1.45-13.9-1.76-2.39-7.62-6.08-8.16-7.18-1.86-3.79,1.04-11.22-1.43-15.33l10.96,8.7c.09.88.2,1.76.3,2.63.14,1.18.27,2.37.48,3.55.05.3.16.6.29.87.07.15.17.27.3.38.04.03.21.16.12.09-.07-.05.1.08.11.08.06.04.12.07.19.09.08.03.15.06.24.07.14.02.21-.03.34-.07,0,0,0,0,0,0,.03-.01.06-.03.09-.04.04-.02.07-.03.11-.05.17-.1.34-.17.43-.35.04-.07-.04-.14-.1-.1-.06.04-.15.07-.23.07-.02,0-.03,0-.05-.01,0,0-.02-.02-.03-.02,0-.02-.01-.04-.01-.03-.03-.09-.07-.17-.13-.24.06.07.02.02-.01-.02-.01-.02-.02-.02-.02-.03,0-.02-.01-.03-.02-.05,0,0,0,0,0,0,0,0,0,.02.01.03,0-.02-.01-.05-.02-.07,0-.02,0-.02,0-.02-.01-.07-.02-.13-.04-.19-.01-.05-.02-.1-.03-.15,0-.02,0-.03,0-.05,0,0,0,0,0-.01,0-.23-.01-.45-.03-.68-.03-.53-.1-1.06-.16-1.6-.06-.53-.11-1.06-.17-1.6-.04-.34-.08-.69-.12-1.03l.31.25,7.06,2.05c.46-.47-2.28-6.17-2.85-7.21-1.27-2.32-9.64-10.71-5.31-11.95h30.23c-2.06,5.72-5.1,9.69-3.83,16.28,1.68,1.88,6.42-7.41,7.28-8.53.88-1.16,1.77-2.43,2.72-3.64-.03.2-.07.4-.1.59-.27,1.69-.5,3.38-.73,5.08.01-.08.02-.16.03-.24-.23,1.71-.48,3.41-.85,5.09-.18.82-.39,1.64-.62,2.44-.12.41-.25.81-.39,1.21-.07.19-.14.38-.21.57-.04.1-.07.19-.11.28-.02.04-.04.09-.05.13,0,.01,0,0,0,.02-.02.05-.05.11-.07.16-.02.05-.04.1-.06.15,0,.02-.02.04-.03.07,0,0,0,.02-.01.03-.01.03-.04.09-.04.1-.03.06-.05.12-.08.17-.1.23-.22.45-.32.68-.04.09-.08.25-.14.34.01-.03.02-.05-.01.02-.01.03-.02.06-.04.09-.02.05-.04.1-.07.15-.05.11-.1.22-.15.33-.04.08-.07.17-.1.26.04-.08-.04.08-.05.1-.1.17-.09.45.08.58.03.03.07.08.11.08.03.01.07.03.1.04.21.09.43-.06.54-.22-.04.06.03-.03.05-.04.04-.04.07-.08.11-.12.03-.03.06-.07.09-.11-.02.03,0,.01,0,0,0,0,0,0,0,0,.03-.04.06-.08.09-.12.15-.19.29-.38.43-.58.01-.02.09-.1.08-.12,0,0-.02.02-.02.03-.06.07-.03.04.08-.11.01-.02.02-.04.04-.06.05-.09.1-.18.15-.27.1-.18.2-.36.29-.54.4-.77.73-1.57,1.03-2.38.58-1.56.97-3.19,1.29-4.82.33-1.66.58-3.32.83-4.99.25-1.68.51-3.35.86-5.01.13-.62.28-1.25.45-1.86,2.04-1.88,4.47-3.03,7.65-2.28.72.64-4.39,8.69-.48,10.52l8.15-7.65c-.53,9.18-3.87,20.21-2.93,29.29.25,2.41.23,4.22,2.92,5.21l5.41-16.18s.03.1.05.14c.25.59.51,1.18.83,1.74.29.51.63,1,.97,1.48.34.48.69.96.99,1.46.15.25.28.51.4.77h0s.01.03.02.04c.02.06.05.13.07.19.05.14.09.29.13.44.03.13.06.27.08.4,0,.02,0,.03,0,.05,0,.09.02.17.02.26.02.29.03.59.04.88.01.29.04.58.08.87.04.32.15.65.26.96.04.11.08.19.16.28.03.02.05.04.08.06,0,.02.11.11.12.12-.04-.04.03.02.04.04.02.03.05.07.08.1.05.07.1.13.16.19.24.27.74-.01.62-.36-.03-.1-.09-.22-.09-.33,0,0,0,0,0,0,0,0,0,0,0,0,.05-.11.07-.22.05-.34-.01-.08-.03-.15-.04-.23,0-.02,0-.05,0-.05,0-.06,0-.12,0-.17,0-.03,0-.06,0-.09,0-.02,0-.03,0-.04,0-.06,0-.14,0-.17,0-.03,0-.05,0-.08,0-.06,0-.12,0-.18,0-.13,0-.26,0-.39,0-.25,0-.5,0-.75,0-.55-.05-1.11-.18-1.64-.13-.53-.35-1.04-.6-1.52-.47-.9-1.08-1.71-1.61-2.57-.26-.43-.49-.87-.7-1.32-.02-.05-.05-.11-.07-.16,0-.02-.03-.07-.05-.11,0-.02-.02-.04-.02-.05-.03-.06-.05-.13-.08-.19-.09-.23-.17-.46-.25-.7-.23-.69-.39-1.4-.54-2.11l5.09-15.21,1.85,9.15,3.41,5.2c4.15-3.07,1.48-8.3,3.25-13.02.5-1.32-.31-1.63,2.02-1.33.63,10.45,11.34,14.02,11.54,24.91,4.11.04,2.91-4.93,2.6-7.88-.08-.78-.22-1.52-.39-2.24.13.14.26.29.39.43.73.79,1.45,1.58,2.19,2.36.38.4.75.8,1.14,1.19.19.2.41.39.63.56.11.09.23.16.34.25.11.09.24.13.35.21.09.06.23.06.31,0,.03-.02.05-.03.06-.05.02-.02.03-.04.05-.06.07-.09.05-.22,0-.31-.06-.11-.09-.23-.15-.34-.05-.09-.11-.17-.16-.26-.13-.23-.29-.46-.46-.68-.3-.37-.61-.73-.92-1.1-.62-.73-1.24-1.45-1.87-2.17-.6-.68-1.2-1.37-1.78-2.07-.14-.17-.27-.33-.4-.5-.04-.05-.07-.09-.11-.14,0-.01,0,0-.01-.01,0,0,0,0-.02-.02-.07-.09-.14-.19-.21-.28-.2-.27-.38-.54-.56-.81-1.91-4.84-4.67-8.96-3.9-14.83h23.99c-1.5,5.91-6.49,10.74-5.75,17.24l8.6-10.44c-.17.68-.34,1.35-.51,2.03-.39,1.57-.72,3.19-.65,4.81.04.93.21,1.86.38,2.78.07.43.14.86.22,1.28.08.42.18.85.3,1.26.04.15.18.32.35.35.17.03.28.03.44-.05.02-.01.04-.02.07-.03.09,0,.19,0,.28.01.08,0,.1-.09.06-.14-.04-.04-.08-.08-.12-.13-.02-.03-.05-.06-.07-.1.01.02.02.02,0,0,0-.03-.01-.05-.02-.08.02-.05.04-.11.05-.16.02-.09.02-.18.04-.28-.03.18.04-.2.02-.09,0-.03.02-.08.02-.08.02-.1.04-.2.05-.3,0-.13,0-.26,0-.38-.01-.51-.1-1.02-.18-1.53-.03-.22-.07-.43-.1-.65-.01-.1-.03-.2-.04-.3,0,0,0-.02,0-.03-.01-.08-.02-.16-.03-.23-.05-.45-.09-.91-.09-1.37,0-.46.03-.92.09-1.37,0,0,0-.02,0-.04,0,0,0,0,0,.02,0-.05.01-.1.02-.15.02-.11.03-.22.05-.32.04-.24.09-.47.14-.71.19-.9.44-1.79.69-2.68.39-1.4.74-2.8,1.08-4.21l1.59,2,3.1,9.37c2.38-2.72,2.57-6.18,2.48-9.66.07.2.15.4.23.6.23.61.47,1.22.79,1.78.08.13.16.27.24.4.1.15.21.26.34.39.22.23.48.33.77.42.03,0,.06-.01.05-.04,0-.22.02-.46-.04-.68-.06-.24-.14-.47-.23-.71-.17-.46-.32-.93-.47-1.4-.31-.96-.57-1.93-.95-2.86-.21-.51-.44-1.01-.74-1.47-.03-.05-.07-.1-.1-.14,0-.66,0-1.31.04-1.95l12.07.93c-1.37,4.61-1.67,9.4-1.04,14.06-.02.1-.04.19-.06.29-.32,1.67-.38,3.37-.45,5.06-.04.87-.1,1.74-.21,2.61-.38,2.67-1.19,5.24-1.91,7.82-.05.18-.11.36-.15.54-.04.19-.05.37-.09.56-.03.12-.07.24-.07.37,0,.09.01.19.02.28.01.18.04.36.07.54.02.13.18.14.26.07.19-.17.38-.33.54-.52.1-.13.16-.28.23-.42.06-.12.14-.23.21-.35.13-.23.22-.5.33-.75.12-.29.25-.59.37-.88.03-.06.05-.13.08-.19.01-.03.02-.06.03-.08.05-.13,0,0,0,.02.07-.17.14-.35.2-.52.09-.26.19-.52.28-.78.18-.53.35-1.07.5-1.61.59-2.07.96-4.17,1.12-6.31,1.88,6.01,5.38,11.51,10.25,15.68,4.16-2.53,0-5.61-1.18-9.35-3.31-10.53-4.25-16.76.7-27.05h26.87c-5.33,5.71-11.22,14.5-11.55,22.56-.05,1.24.29,5.79,1.94,6.18,0-8.77,5.67-17.39,12.97-22.03.88,4.75,1.8,10.19,5.86,13.35,5.57-1.52,2.18-6.87,2.2-10.96,0-1.27.22-2.52.46-3.75.36,1.23.84,2.42,1.48,3.55.65,1.15,1.42,2.25,1.95,3.46,0,0,0,0,0,0,0,.01.01.02.02.04.03.07.06.14.08.21.05.14.1.28.15.42.09.28.18.55.25.84.07.29.14.58.19.88.02.13.04.26.06.39,0,.02,0,.03,0,.05-.04-.08,0-.02,0,.03,0,.08.02.17.03.25.06.59.07,1.18.05,1.77,0,.29-.02.58-.05.87-.01.13-.03.26-.04.4-.04.09-.01.08,0,.03,0,.02,0,.05,0,.07-.01.08-.03.17-.04.25-.2,1.16-.58,2.26-.97,3.36-.05.13-.08.26-.12.39-.04.14-.05.28-.07.43-.02.15.15.21.26.15,0,0,0,0,0,0,.65-.4.96-1.01,1.32-1.66.35-.63.58-1.36.77-2.05.37-1.41.5-2.87.35-4.32-.15-1.52-.56-2.97-1.23-4.34-.35-.73-.77-1.42-1.17-2.12-.2-.35-.39-.7-.57-1.06-.08-.16-.16-.33-.23-.5-.04-.08-.08-.17-.11-.25-.02-.05-.04-.1-.06-.14,0,0,0,0,0,0-.64-1.57-1.04-3.22-1.27-4.9-.07-.58-.13-1.15-.17-1.73,4.88,1.42,26.66-3.95,28.38-2.85.85.54,1.03,3.38.62,4.6-1.32,4.01-9.87,10.68-11.76,16.13-1.01,2.9-1.54,16.9,1.2,17.47,3.16.66,2.19-5.39,2.5-7.06,1.12-5.93,2.84-8.69,5.29-11.09-.22,1.14-.34,2.3-.39,3.46-.05,1.22,0,2.45.14,3.67.08.66.18,1.32.32,1.98.12.6.29,1.2.45,1.79.16.59.32,1.19.44,1.79.03.14.06.29.08.43.01.08.03.15.04.23,0,0,.01.09,0,.04-.01-.09.02.15.03.19.06.3.09.53.12.82.01.15.03.29.04.44.01.16.05.31.07.47.03.2.33.22.41.05.07-.13.15-.26.19-.4.04-.15.08-.3.11-.45.06-.32.09-.64.11-.96.03-.63-.08-1.3-.18-1.92-.21-1.21-.5-2.4-.67-3.61,0-.02,0-.04,0-.06,0,0,0,0,0-.01,0-.08-.02-.16-.03-.23-.02-.16-.04-.31-.05-.47-.03-.29-.05-.59-.07-.89-.03-.61-.04-1.22-.03-1.84.02-.61.05-1.21.12-1.82,0,0,0,.01,0,.02,0-.03,0-.06.01-.09.01-.08.02-.16.03-.23.02-.16.05-.31.08-.47.05-.3.12-.6.17-.9.21-1.08.5-2.15.86-3.19,1.75-1.47,3.77-3.12,6.11-5.56.97,4.51.2,9.78,2.17,14.11.78,1.72,7.06,8.75,7.91,4.55-5.06-7.19-2.83-13.83-2.84-22.06,0-3.63-2.6-6.88,1.39-10,1.71,1.56,3.02,3.73,4.37,5.83-.08,1.12-.16,2.23-.23,3.35-.08,1.15-.18,2.31-.2,3.47-.01.63.02,1.28.17,1.89.02.1.06.19.1.29.01.03.03.06.05.09,0,0,.04.07.02.03.07.16.11.34.19.49.07.12.23.26.37.3.02,0,.15.04.17.01.1-.11.17-.24.21-.38.03-.11,0-.23-.02-.32,0-.05-.01-.11-.02-.16,0-.04,0-.07,0-.11,0-.06,0-.07,0-.03.05-.43.01-.87.02-1.31.02-.85.12-1.69.22-2.53.12-1.01.22-2.02.33-3.04,1.97,2.71,4.3,4.84,8.16,4.56l-13.37-27.11C251.91,2.85,222.61-.45,217.64.05c-7.69.77-16.05,6.61-24.43,8.18-19.14,3.59-38.85-.7-58.08-1.53Z"/>
  </g>
</svg>