<?xml version="1.0" encoding="UTF-8"?>
<svg id="Layer_2" data-name="Layer 2" xmlns="http://www.w3.org/2000/svg" viewBox="0 0 81.54 69.64">
  <defs>
    <style>
      .cls-1 {
        fill: #181818;
      }
    </style>
  </defs>
  <g id="Layer_6" data-name="Layer 6">
    <path class="cls-1" d="M78.99,7.62s0,0,0-.01c0-.19-.03-.36-.12-.52-.05-.17-.15-.31-.28-.43-.09-.07-.18-.14-.27-.21-.1-.07-.21-.12-.33-.14-.14-.03-.28-.04-.42-.06-.2-.03-.39-.06-.59-.07-.06,0-.12,0-.19,0-.12,0-.24.01-.36.03-.18.02-.35.05-.53.1-.06.02-.12.03-.18.05-.03,0-.06.02-.09.03-.07.02-.12.05-.17.07-1.08-.28-2.23-.52-3.4-.74-.07-.24-.19-.45-.37-.63-.1-.08-.2-.15-.31-.22-.12-.1-.25-.2-.39-.28-.11-.06-.24-.11-.36-.15-.49-.23-.93-.56-1.38-.87-.24-.16-.48-.32-.74-.46-.35-.18-.71-.33-1.09-.42-1.39-.33-2.9-.14-4.12.6-.34.2-.66.45-.95.72-.12.11-.21.23-.31.35-.43-.04-.8-.08-1.11-.11-.67-.07-1.37-.14-2.09-.21,0,0-.01,0-.02,0-1.09-.11-2.23-.23-3.42-.34,0,0,0,0,0,0-.09-.11-.17-.23-.26-.34-.1-.13-.16-.15-.35-.29-.1-.07-.19-.14-.29-.21-.29-.19-.61-.32-.94-.45-.33-.13-.68-.18-1.03-.22-.11-.01-.22-.02-.33-.01-.21.01-.44.05-.64.11-.32.1-.62.24-.91.43l-.25.2c-.07.07-.11.16-.15.24,0,0,0,0,0,0-.02.02-.03.04-.05.06-.69-.06-1.39-.12-2.1-.18-.04-.04-.09-.08-.13-.13-.25-.23-.5-.47-.75-.69-.58-.52-1.15-1.08-1.79-1.53.1.08.2.15.3.23-.24-.2-.48-.41-.76-.56-.38-.21-.77-.32-1.21-.35-.65-.04-1.28.26-1.83.58-.43.26-.82.56-1.18.9-.31.29-.61.6-.85.96-.22-.01-.45-.02-.67-.03-.02-.09-.04-.17-.07-.26-.11-.26-.2-.51-.37-.73-.17-.22-.33-.44-.54-.62-.21-.17-.42-.34-.67-.46-.17-.08-.35-.16-.54-.22-.07-.02-.15-.04-.23-.05-.19-.03-.39-.07-.59-.07-.19,0-.4.04-.58.07-.07.01-.14.03-.2.05-.17.06-.34.13-.5.21-.07.04-.13.08-.19.12-.15.11-.3.22-.43.35-.05.05-.1.11-.15.17-.09.11-.18.22-.26.34,0,0,0,.02-.02.02-.03.05-.06.1-.07.16-.05.09-.07.18-.09.27-.01.04-.03.07-.05.11-.02.06-.04.12-.06.19l-.02.12c-.49-.01-.98-.03-1.46-.04-.01-.01-.02-.03-.03-.05-.1-.1-.21-.14-.34-.19-.09-.03-.17-.06-.26-.08-.18-.04-.35-.09-.53-.13.07.03.14.06.21.09-.11-.05-.22-.12-.34-.14-.05-.01-.11-.02-.17-.02-.19-.03-.39-.05-.58-.08-.11-.01-.22,0-.34.01-.02,0-.05.01-.07.01-.04-.02-.08-.04-.12-.05-.29-.07-.41-.05-.7,0-.04,0-.08.01-.12.02-.07.01-.14.02-.21.03-.15.02-.29.05-.44.08-.3.06-.59.13-.88.2-.27.07-.53.19-.79.32-1.47.04-2.91.11-4.28.21-.02-.05-.04-.1-.06-.14,0,0,0-.01,0-.02-.12-.21-.3-.39-.51-.51-.11-.06-.24-.11-.35-.15-.09-.03-.18-.07-.27-.09-.17-.06-.34-.11-.52-.15-.29-.07-.58-.11-.87-.14-.18-.02-.35-.04-.53-.03-.28,0-.56.04-.84.08-.14.02-.28.06-.41.1-.24.08-.48.17-.69.3-.21.13-.41.29-.6.44-.12.1-.23.21-.33.33-.19.23-.35.42-.43.71,0,.04-.02.08-.04.12-.38.08-.76.16-1.12.25-.19-.16-.39-.32-.6-.46-.39-.27-.84-.46-1.28-.63-.46-.16-.93-.23-1.41-.29-.34-.04-.68-.05-1.02-.02-.47.04-.95.11-1.4.26-.43.14-.86.33-1.25.56-.78.47-1.4,1.1-1.92,1.84-.28.4-.47.85-.62,1.31-.03.09-.05.18-.07.28-.12.21-.21.43-.23.67-.02.09-.04.19-.04.28,0,.09.01.18.03.27-1.25.67-2.23,1.3-2.59,1.74-.46.56-.8,1.5-1.03,2.63-.12.09-.23.18-.32.29-.46.49-.69,1.13-.78,1.78,0-.02-.1.42-.04.2.07-.24-.05.28-.05.28,0,.12,0,.24.02.36.02.29.04.59.06.88.04.56.09,1.12.14,1.68.02.27.04.54.07.81,0,.12.03.24.05.37,0,.02,0,.04.01.1.02.15.04.31.06.46.16,1.23.33,2.46.54,3.69.75,4.55,1.87,9.04,3.3,13.42.81,2.48,1.72,4.92,2.73,7.32.26.63.66,1.09,1.37,1.18.71.09,1.24-.24,1.65-.79,1.6-2.14,2.97-4.42,4.18-6.79,4.95,4.53,9.94,9.03,12.24,12.96,2.69-2.05,8.32-5.51,11.62-5.62,1.54-.05,2.95.59,4.31,1.41,0,0,0,.01,0,.02,2.33,5.65,3.3,11.74,5.26,17.51.61,1.79,1.31,3.55,2.13,5.25.33.68,1.21,1.01,1.92.92.73-.1,1.42-.64,1.6-1.38,1.91-7.84,3.21-15.83,3.92-23.87.06-.73.12-1.46.17-2.2,1.41-1.37,2.85-2.73,4.29-4.08.73.88,1.5,1.73,2.29,2.55.88.91,1.81,1.78,2.77,2.6.6.51,1.34.71,2.09.4.69-.29,1.18-.98,1.18-1.75,0-2.75.18-5.5.53-8.22.04-.3.1-.61.14-.91.24-.78.44-1.58.62-2.37.16-.7.32-1.41.48-2.11,1.08-1.13,2.15-2.26,3.17-3.42.99-1.12,6.39-7.4,6.52-7.9.09-.35.19-6.94.08-7.29-.24-.79-1.17-1.48-2.51-2.07Z"/>
  </g>
</svg>