<?xml version="1.0" encoding="UTF-8"?>
<svg id="Layer_2" data-name="Layer 2" xmlns="http://www.w3.org/2000/svg" viewBox="0 0 118.63 121.51">
  <defs>
    <style>
      .cls-1 {
        fill: #181818;
      }
    </style>
  </defs>
  <g id="Layer_6" data-name="Layer 6">
    <path class="cls-1" d="M37.99,77.1c.15-.32.3-.66.45-.99l21.5,32.82c.04.08.07.16.11.24.02.05.05.11.07.16,0,.01.01.03.02.04.18.45.34.89.45,1.36.12.49.2.99.28,1.48.16.99.34,1.98.59,2.95.25.97.55,1.92.87,2.87.16.48.33.97.5,1.45.08.24.17.47.25.71.1.29.2.57.39.82.3.39.81.59,1.3.45.4-.11.69-.42.86-.78.22-.48.42-.96.6-1.46.32-.87.55-1.77.71-2.69.09-.54.15-1.09.19-1.63l10.09-6.22c.22.45.46.88.73,1.3.57.88,1.25,1.7,2.02,2.41.46.43.97.8,1.48,1.17.17.12.41.14.61.11.19-.03.42-.11.55-.26.7-.83,1.34-1.72,1.87-2.67.53-.95.97-1.95,1.39-2.95.81-1.94,1.55-3.91,2.3-5.86l17.35-10.69,5.93,3.42,7.17-18-5-8.33s-12.5-6.17-15.33-8.83c-2.83-2.67-39.83-8.67-39.83-8.67l-18.83-7.5,7.87-13.62c.05-.04.11-.09.16-.13.03-.02.06-.04.09-.06.02-.01.04-.02.06-.03.05.01.11.02.13.03.09.03.17.06.25.09.15.05.29.1.43.16.04.01.08.03.11.05.03.01.08.03.16.07.26.12.51.26.75.42.02.02.04.03.06.05.05.04.09.09.14.13.1.1.19.2.28.3.24.26.5.52.8.7.41.25.88.32,1.35.21.42-.09.64-.49.67-.88,0-.04,0-.09.01-.13.08-.52.22-1.03.41-1.53.12-.27.25-.53.4-.78.08-.13.17-.27.26-.39.04-.06.24-.29.04-.06.05-.06.1-.12.15-.18.14-.05.27-.1.4-.15.13-.05.25-.11.36-.18.07-.05.13-.08.21-.11.15-.06.29-.12.43-.19l37.44-6.28c.07.03.13.05.2.08,0,.03,0,.06.01.09.02.06.04.12.06.18,0,0,0,0,0,0,.11.08.18.15.3.19.05,0,.09.01.14.02.15-.02.19-.03.1-.01,0,0-.02,0,0,0-.05,0,0,0,.02,0,.07.02.14.02.22.02.05,0,.11,0,.16,0,.02,0,.04,0,.06,0-.01,0-.02,0-.03,0,.02,0,.03,0,.05,0,.02,0,.03,0,.04,0,.02,0,.03,0,.05,0,.05.01.09.02.14.04.02,0,.03.01.05.02.09.05.19.1.28.15.04.03.08.06.12.09.02.02.04.04.07.05.19.16.36.33.53.51.21.22.41.43.66.6.33.22.75.31,1.14.21.63-.15,1.02-.72,1.41-1.18l1.25-1.48c.13-.15.22-.3.24-.51.01-.1.01-.2,0-.3l.64-.11,7.83-5.17,6.19-14.35L50.13,19.13l-15.77,9.18s0,0,0,0c-.04-.12-.09-.23-.16-.33-.45-.61-.9-1.23-1.35-1.84-.27-.37-.53-.75-.83-1.11-.47-.55-1.13-.85-1.84-.91-.98-.08-1.8.51-2.6.99-.66.39-1.32.77-1.97,1.16-2.63,1.55-5.26,3.1-7.87,4.69-.73.45-1.44.94-2.16,1.41-.2.13-.4.28-.59.43-.17.13-.33.27-.49.41-.01.01-.03.02-.04.03l-10.67,2.61-1.53,3.54c-.21.36-.42.71-.63,1.07C.78,41.92-.04,43.46,0,45.21c.02.86.21,1.71.44,2.53.22.79.54,1.55.86,2.3.65,1.55,1.27,3.1,1.89,4.66,1.23,3.12,2.37,6.28,3.41,9.47.52,1.6,1.02,3.2,1.49,4.81.24.81.47,1.61.7,2.42.05.19.1.39.16.58.12.36.37.59.73.71.15.05.31.07.47.08.41.04.85-.09,1.2-.3.66-.39,1.16-1.07,1.46-1.76.34-.79.62-1.61.84-2.45.19-.74.34-1.51.44-2.27l17.75,3.51c.17.84.35,1.69.5,2.53.38,2.05.73,4.11,1.09,6.17.02.1.04.2.06.3.02.44.03.88.06,1.32.06,1.03.14,2.06.23,3.09.02.23.07.42.21.6.13.16.31.31.52.36.43.1.89-.06,1.12-.46.37-.64.41-1.34.35-2.04.11-.23.21-.45.32-.68.57-1.2,1.14-2.39,1.71-3.6Z"/>
  </g>
</svg>