<?xml version="1.0" encoding="UTF-8"?>
<svg id="Layer_2" data-name="Layer 2" xmlns="http://www.w3.org/2000/svg" viewBox="0 0 238.07 156.77">
  <defs>
    <style>
      .cls-1 {
        fill: #181818;
      }
    </style>
  </defs>
  <g id="Layer_6" data-name="Layer 6">
    <path class="cls-1" d="M226.55,26.62c-2.03-1.07-4.43-2.63-6.91-4.19-.63-1.78-1.45-3.48-2.5-5.05-.26-.44-.53-.86-.86-1.27-.17-.22-.37-.39-.56-.58-.99-1.11-2.15-2.09-3.43-2.83-1.63-.93-3.45-1.54-5.28-1.92-3.95-.83-8.02-.93-12.04-.86-1.89.03-3.79.08-5.68.13l-2.69-2.54c-.44-.41-.88-.83-1.33-1.23-.47-.42-.96-.85-1.53-1.12-.35-.17-.71-.32-1.09-.39-.59-.1-1.06-.09-1.65,0-.71.11-1.36.41-2.01.69-1.16.49-2.31.98-3.47,1.47-1.29.55-2.58,1.09-3.88,1.64.13-.05.26-.11.38-.16-.19.08-.38.18-.57.26-11.1-1.74-22.26-2.84-32.76-2.93.26-1.09.53-2.18.79-3.27.15-.6.03-1.17-.34-1.66-.39-.51-.87-.68-1.49-.75-2.12-.24-4.24.37-6.26.9-1.97.51-3.94,1.03-5.9,1.54-3.98,1.04-7.95,2.09-11.92,3.14-1.12.3-2.24.64-3.34.99-.55.17-1.12.33-1.66.53-.28.1-.54.22-.81.33-.05.02-.1.04-.15.06-4.59.28-9.18.42-13.77.22l-9.74.91h0c-.25-.2-.5-.4-.77-.58-.3-.2-.6-.39-.92-.55-1.61-.8-3.3-1.17-5.06-1.4-1.64-.22-3.31-.29-4.96-.39-1.91-.12-3.82-.25-5.74-.37-7.6-.49-15.21-1.03-22.82-1.45-4.28-.24-8.56-.5-12.84-.7-.39-.02-.89.19-1.15.48-.31.34-.43.7-.48,1.15-.28,2.36-.55,4.71-.83,7.07-.07.59-.14,1.19-.21,1.78,0,.05-.01.1-.02.15L1.68,16.31c-.05-.32-.33-.58-.64-.62-.36-.05-.76.18-.84.55-.05.2-.09.4-.12.6,0,.05-.01.1-.02.14,0,.07-.02.13-.03.2.01.06-.03.21-.03.26,0,.08,0,.16,0,.24,0,.41.02.83.07,1.24.1.9.23,1.81.36,2.71.25,1.72.53,3.44.85,5.15.64,3.43,1.43,6.83,2.25,10.23.23.98.47,1.95.7,2.93,0,.02,0,.05,0,.07,0,.16.05.31.13.46.19.78.38,1.56.56,2.34.09.38.45.65.82.7.37.05.8-.12.98-.47.4-.79.76-1.6,1.1-2.41,4.14,5.65,10.13,10.4,15.8,15.18.05.14.1.28.14.42.73,2.09,1.46,4.18,2.21,6.27l2.23,6.3c.74,2.09,1.48,4.18,2.22,6.27.74,2.1,1.49,4.2,2.23,6.3.68,1.91,1.32,3.83,2.05,5.72.65,1.66,1.39,3.29,2.49,4.7,1.06,1.37,2.42,2.45,4.05,3.05,1.46.54,3.03.6,4.55.38,1.53-.22,3.02-.79,4.36-1.57,1.37-.79,2.62-1.81,3.64-3.02,1.19-1.4,2.04-3.01,2.69-4.72.67-1.76,1.09-3.6,1.36-5.46.28-1.95.42-3.91.52-5.87.07-1.38.12-2.76.19-4.14,1.78.37,3.41.79,4.77,1.29,7.13,2.65,12.34,13.61,18.03,18.42l2.27-5c.08.11.15.22.23.33.41.53.85,1.02,1.35,1.46.54.47,1.12.89,1.74,1.24.35.2.83.15,1.12-.14.66-.68,1.3-1.39,1.93-2.1.39-.44.77-.89,1.14-1.34,4.34,1.6,6.61,4.99,9.7,10.05,5.44,8.94,8.67,19.31,12.22,29.08l9.28-4.54c.03.08.06.15.09.23.24.6.48,1.2.72,1.79.08.19.15.39.23.58.02.06.05.12.08.18.02.04.04.09.06.14.12.3.24.6.36.89.3.74.6,1.48.9,2.22,0,.19,0,.38,0,.57.04,1.4.28,2.8.68,4.15.79,2.65,2.14,5.09,3.66,7.38.85,1.28,1.76,2.53,2.67,3.77.24.33.56.53.98.47.18-.02.33-.08.47-.19.18-.14.27-.3.35-.51.15-.36.3-.72.45-1.07.39-.92.8-1.82,1.21-2.73.17-.25.34-.51.49-.74l4.24-6.49c1.41-2.16,2.82-4.32,4.23-6.49l4.21-6.46c.87-1.34,1.75-2.68,2.62-4.02.01.1.03.2.04.31.3,2.04.64,4.02.84,6.03.2,2,.26,4,.24,6.01-.03,2.01-.14,4.02-.31,6.02-.16,2-.37,4-.58,6-.21,2.01-.43,4.01-.59,6.02-.16,2-.27,4.01-.27,6.02,0,.99.04,1.98.11,2.97.07,1,.14,2.01.34,3,.05.24.1.48.15.71.05.25.14.5.17.75.01.11.19.11.17,0-.03-.24-.01-.49-.01-.73,0-.25,0-.51,0-.76,0-.49-.01-.98-.02-1.47,0-1,0-2,.02-3,.04-1.99.16-3.97.3-5.95.15-2,.34-4,.55-5.99.2-2,.42-4,.6-6,.18-1.98.33-3.97.4-5.96.07-1.99.06-3.99-.07-5.98-.13-2.06-.43-4.09-.75-6.13-.17-1.08-.34-2.13-.48-3.19.25-.38.5-.76.74-1.14,1.38-2.12,2.78-4.23,4.14-6.36.51-.79,1-1.59,1.5-2.39,1.83,0,6.91,3.44,8.26,4.76,1.56,1.52,2.31,6.21,6.51,6.34,2.08-1.39,4.15-2.81,6.22-4.21.07.2.14.41.21.61.38,1.07.79,2.13,1.21,3.19.84,2.15,1.72,4.3,2.54,6.46.48,1.25.92,2.51,1.33,3.78.38,1.17.76,2.33,1.19,3.48.46,1.23.96,2.45,1.58,3.62.56,1.06,1.22,2.1,2.06,2.97.76.79,1.71,1.45,2.79,1.73,1.16.3,2.39.14,3.49-.32,1.42-.59,2.7-1.51,3.8-2.57,1.12-1.08,2.08-2.33,2.9-3.64.86-1.39,1.57-2.86,2.19-4.37.61-1.51,1.13-3.05,1.56-4.62.43-1.53.79-3.08,1.1-4.64.29-1.43.53-2.88.75-4.32.33-2.19.67-4.38,1.03-6.57.38-2.33.78-4.66,1.18-6.99.4-2.32.79-4.65,1.16-6.97.22-1.37.45-2.75.61-4.14,6.97-5.37,13.77-10.95,20.31-16.84,2.28-8.96,2.95-18.18,4.32-27.3.22-1.49,1.44-3.14,1.47-4.27,0-.37-2.67-6.5-2.91-6.78-.61-.71-6.81-2.43-8.61-3.38Z"/>
  </g>
</svg>