<?xml version="1.0" encoding="UTF-8"?>
<svg id="Layer_2" data-name="Layer 2" xmlns="http://www.w3.org/2000/svg" viewBox="0 0 139.33 50.01">
  <defs>
    <style>
      .cls-1 {
        fill: #181818;
      }
    </style>
  </defs>
  <g id="Layer_6" data-name="Layer 6">
    <path class="cls-1" d="M1.36,25.84c.74-.11,1.29-.19,1.96-.27.71-.09,1.42-.16,2.14-.22.41-.03.62-.07,1.04-.12.12-.01.24-.02.36-.04,0,.06-.02.13-.02.19-2.11.64-4.19,1.41-6.18,2.35-.63.3-.5,1.42.2,1.54.97.17,1.91.12,2.86-.04.11.15.29.23.48.25.36.03.7.07,1.06.02.25-.03.5-.07.76-.1.64-.08,1.29-.17,1.93-.26.43-.06.87-.09,1.31-.14l3.42.52c-.33.08-.65.16-.98.25-.58.15-1.17.3-1.75.46-.3.08-.61.16-.91.25-.14.04-.28.08-.42.11-.04.01-.07.02-.11.03-.18-.03-.37,0-.55.1-.45.3-.6.81-.36,1.3.19.39.65.6,1.08.61.3,0,.62-.09.91-.15.26-.05.52-.1.79-.15.29-.05.57-.11.86-.17-2.15,2.16-3.87,4.97,3.45,5.17.08,1.12-.17,1.94-.65,2.59-2.09.41-4.18.84-6.26,1.3-.68.15-1.36.31-2.04.47-.32.07-.65.14-.97.24-.17.06-.35.11-.52.17-.28.1-.48.22-.69.43-.35.35-.34,1.11.17,1.34.24.11.44.18.7.2.15,0,.3,0,.45-.01.4-.02.8-.07,1.19-.13.6-.09,1.21-.18,1.81-.26,1.23-.18,2.46-.4,3.69-.6.27-.05.54-.09.81-.14l.59,1.19c-.37.09-.73.19-1.1.27-.19.05-.36.09-.54.17-.1.05-.21.09-.31.14-.33.15-.77.57-.62.98.28.75,1.31.62,1.93.49.5-.1,1-.2,1.5-.3.12-.02.23-.05.34-.08l12.34-1.63,1.59,2.25-.16.1c-.9.19-1.8.37-2.71.52-2.18.37-4.37.69-6.53,1.14-.57.12-1.18.22-1.44.82-.09.21-.07.4.07.58.41.5,1.02.44,1.61.39.55-.04,1.09-.11,1.63-.17,1.11-.12,2.22-.24,3.32-.36,2.21-.25,4.41-.62,6.57-1.11.37-.08.74-.18,1.11-.27l10.91-1.14v.23c.95-.08,1.92-.05,2.87.11.05-.09.1-.16.16-.21l33.02-4.01,7.22,2.47c8.37-4.49,26.25-5.52,33.79-9.64.34-.07.69-.13,1.03-.2.2-.05.41-.09.62-.14,2.13-.1,4.26-.23,6.39-.42.57-.05,1.13-.12,1.7-.23.21-.04.43-.07.64-.13.23-.07.46-.2.67-.34.41-.1.79-.26,1.16-.44.17-.08.34-.18.51-.25.17-.07.37-.12.55-.17.5-.16.39-.86-.12-.89-.18-.01-.37-.01-.54-.04-.2-.03-.4-.09-.6-.14-.09-.02-.19-.04-.28-.07-.05-.01-.09-.02-.14-.03-.05-.01-.11-.02-.17-.03-.15-.02-.17-.02-.07,0,.1.02.08.02-.08,0-.06-.01-.12-.02-.17-.02-.05,0-.1,0-.16,0-.03,0-.07,0-.1,0-.42-.16-.88-.21-1.33-.2-.4,0-.8,0-1.2.04-.82.07-1.63.14-2.45.2-.46.03-.93.05-1.39.08.12-.11.23-.23.29-.35.15-.29.21-.58.18-.9.09-.02.17-.03.26-.05.03,0,.06.02.1.02.29,0,.54-.07.77-.19.59-.12,1.18-.24,1.77-.34.69-.12,1.39-.22,2.08-.32,1.33-.17,2.66-.31,4-.4.77-.05,1.4-.54,1.5-1.33.09-.7-.35-1.54-1.1-1.68-.14-.03-.27-.03-.41-.05h0s0,0,0,0c-1.27-.19-2.53-.17-3.8-.06.24-.09.47-.2.7-.33.33-.05.62-.14.87-.4.25-.25.43-.65.42-1.01,0-.02,0-.03,0-.05,2.07-.27,4.16-.43,6.25-.41.75,0,1.47-.67,1.43-1.43-.04-.79-.63-1.42-1.43-1.43-2.07-.02-4.14-.04-6.2-.05-1.04,0-2.08-.04-3.12-.03-1.03,0-2.05.05-3.08.07-.47.01-.93.02-1.4.03v-3.93c.17-.03.33-.07.5-.1-.08.01-.16.02-.24.03.17-.02.34-.03.5-.07.09-.02.18-.04.27-.06.09-.02.18-.03.27-.05.09-.02.18-.04.26-.07.07-.02.11-.07.17-.1.05-.02.1-.04.15-.05.19-.05.36-.21.41-.41,0-.03.01-.05.02-.08,0,0-.01.02-.02.03.03-.05.03-.11,0-.16,0,.01.02.03.02.04,0-.05-.01-.09-.02-.14-.03-.1-.08-.19-.15-.26-.07-.07-.16-.12-.26-.15-.03-.01-.06-.02-.09-.04-.07-.05-.14-.11-.23-.13-.05-.02-.1-.03-.15-.05-.11-.03-.24-.03-.35-.05-.11-.01-.21-.02-.32-.03-.11,0-.21-.02-.32-.01s-.21.02-.32.03c-.03,0-.07,0-.1.01v-1.01c.16-.04.31-.07.47-.11.32-.08.64-.17.96-.27.13-.04.26-.08.4-.11.07-.01.13-.04.2-.06.03,0,.06-.02.09-.03.1-.02.19-.07.28-.12,0,0,.01,0,.02,0,.02-.01.04-.03.05-.04.19-.1.36-.26.42-.47.08-.28-.01-.55-.2-.77-.03-.04-.07-.08-.11-.11-.14-.13-.25-.2-.44-.25-.03,0-.06-.02-.09-.02-.14-.03-.28-.05-.42-.06-.13,0-.28.03-.41.06-.3.05-.59.13-.89.19-.59.12-1.19.22-1.78.3-.41.05-.81.1-1.22.14l-10.75-.77,3.89-9.87c-3.39-3.91-11.63-2.7-15.78-.54-2.6,1.36-4.92,5.99-6.15,6.56-3.12,1.43-15.72,3.04-20.02,3.73-17.85,2.85-36.51,3.95-54.29,7.12-3.59.64-7.34.87-9.56,2.52-.63.14-1.27.27-1.9.42-2.02.46-4.04.93-6.06,1.42-.55.13-.92.78-.75,1.32.2.61.72.84,1.32.75Z"/>
  </g>
</svg>