<?xml version="1.0" encoding="UTF-8"?>
<svg id="Layer_2" data-name="Layer 2" xmlns="http://www.w3.org/2000/svg" viewBox="0 0 88.95 28.56">
  <defs>
    <style>
      .cls-1 {
        fill: #181818;
      }
    </style>
  </defs>
  <g id="Layer_6" data-name="Layer 6">
    <path class="cls-1" d="M38.86,22.03c3.82.85,9.51,5.05,11.88,5.27,2.94.27,6.68-3.25,12.35-2.65,7.17.75,8.59,7.47,17.67,1.4,6.17-4.12,10.65-12.88,6.67-19.95-.26-.47-.7-.9-1.26-1.29-1.43.02-2.87.04-4.3.07-.11-.1-.22-.19-.34-.27-.22-.13-.44-.25-.66-.38-.06-.04-.12-.07-.18-.11-.23-.15-.47-.22-.74-.24-.11-.02-.22-.03-.33-.03-.07-.16-.14-.33-.21-.49-.14-.26-.33-.47-.57-.62-.14-.14-.3-.23-.49-.29-.26-.14-.55-.2-.85-.19-.2.03-.39.05-.59.08-.38.11-.7.3-.98.57-.06.06-.12.12-.19.17-.28.28-.47.61-.58.99-.01.05,0,.1-.02.15l-2.54.86c-.16,0-.32,0-.49.01.06-.34.06-.67-.03-1.01-.07-.3-.21-.56-.41-.79-.16-.25-.38-.45-.65-.6-.36-.21-.75-.31-1.17-.32-.03,0-.06,0-.09,0-.03,0-.06,0-.09,0-.03,0-.07,0-.1,0-.26,0-.49.01-.76.09-.07.02-.14.04-.21.06-.03,0-.05,0-.08.01-.32.05-.62.13-.91.3-.17.13-.34.26-.51.4-.31.31-.52.68-.64,1.1-.15.02-.3.04-.46.07-.55.11-1.07.31-1.59.5-.4.15-.8.27-1.21.39-.19,0-.37,0-.55.01.02-.15.04-.3.06-.45,0-.06-.02-.12-.02-.18,0-.03,0-.07,0-.1,0-.12-.02-.24-.06-.36-.02-.18-.07-.36-.16-.52-.04-.11-.09-.22-.14-.32-.01-.03-.03-.07-.05-.1-.14-.18-.28-.37-.42-.55,0-.01-.02-.02-.03-.03-.01-.01-.03-.03-.04-.04,0-.01-.02-.02-.03-.03l-.56-.43c-.22-.09-.44-.19-.66-.28-.01,0-.02,0-.03-.01-.18-.06-.35-.13-.53-.18-.14-.05-.29-.09-.43-.12-.07-.02-.15-.03-.22-.05-.02,0-.03,0-.05,0-.07-.01-.13-.02-.2-.03-.11-.22-.24-.43-.42-.61-.02-.02-.05-.04-.08-.06-.04-.04-.07-.08-.11-.12-.3-.3-.68-.52-1.08-.63-.16-.04-.48-.07-.71-.1-.07,0-.14-.01-.21-.02-.13,0-.27,0-.4,0-.13,0-.26.02-.4.03-.27.03-.55.07-.82.11-.07.01-.14.02-.21.05-.43.18-.86.35-1.26.61-.37.24-.72.54-1.02.87-.21.23-.4.48-.58.73-.04.06-.08.12-.12.18-.02.03-.04.06-.05.09-.09.15-.16.3-.21.48-.04.15-.06.3-.06.45,0,0,0,.01,0,.02-.1.31-.07.68.06,1.01-.08.03-.15.06-.23.09-.26.06-.48.18-.67.36-.08.05-.14.11-.21.17-.04-.03-.08-.06-.12-.09-.24-.14-.49-.21-.76-.21-.12,0-.23.01-.34.04-.16-.1-.33-.18-.51-.23-.05-.02-.1-.03-.15-.04-.03,0-.05-.01-.08-.01-.01,0-.03,0-.04,0-.19-.03-.37-.05-.56-.07-.11-.01-.21-.01-.32,0-.03,0-.05,0-.08,0-.19.02-.37.05-.56.08-.01,0-.03,0-.04,0-.05,0-.1.02-.15.03-.05.01-.1.03-.15.05-.01,0-.02,0-.03.01-.17.07-.34.14-.51.21-.02.01-.05.02-.07.03-.05.03-.1.05-.15.09-.02.02-.05.03-.07.05-.01,0-.02.02-.04.03-.15.11-.29.22-.43.34-.01.01-.02.03-.03.04-.4,0-.79,0-1.19,0-.61,0-1.21-.01-1.82-.02-.02-.03-.05-.06-.07-.09.03-.11.06-.22.05-.34-.02-.13-.04-.27-.05-.4-.05-.2-.14-.37-.27-.52-.11-.16-.25-.3-.42-.39-.17-.11-.36-.17-.56-.18-.2-.05-.4-.04-.6.03-.2.05-.37.14-.52.27-.17.11-.29.25-.39.43-.05.12-.1.24-.15.36,0,.04,0,.08-.02.11l-2.69.66c-1.01-.02-2.02-.03-3.03-.05,0-.02.01-.04.02-.07,0,0,0-.02,0-.03l.03-.08c.09-.35.09-.7,0-1.05-.09-.33-.26-.62-.51-.87,0,0-.02-.01-.03-.02-.07-.05-.13-.11-.19-.17-.13-.1-.27-.21-.4-.31-.16-.07-.32-.13-.47-.2-.18-.02-.35-.05-.53-.07-.27-.01-.53.05-.76.17-.17.05-.31.13-.44.25-.15.09-.27.21-.35.36-.12.12-.21.27-.25.44-.12.24-.18.49-.17.76,0,.03,0,.07,0,.1,0,.11.01.21.03.31-.11.01-.23.02-.34.03-.41.05-.83.11-1.24.18-.19.03-.37.09-.55.13-.86-.02-1.73-.03-2.59-.05.17-.3.26-.63.28-.98.01-.06.02-.12.02-.18.04-.21.05-.42,0-.63-.01-.28-.09-.54-.25-.78-.11-.14-.22-.28-.33-.42-.26-.26-.57-.44-.92-.54-.17-.07-.38-.07-.57-.08,0,0-.01,0-.02,0-.2,0-.4.05-.6.08-.03,0-.05.01-.08.02-.18.07-.36.15-.54.23-.18.08-.35.21-.47.36-.13.16-.26.32-.37.49-.02.03-.03.05-.04.08-.08.19-.16.37-.24.56,0,0,0,.02,0,.02-.07.2-.09.53-.09.64h-2.66c-.27-.01-.53.05-.76.17-.25.08-.46.22-.64.41-.13.12-.22.25-.3.4-2.12-.07-4.23-.24-6.29-.76-2.63-.65-4.97-1.93-7.4-3.02C.79,5.12-.6,16.09.27,16.96c12.37,3.86,26.24,2.3,38.6,5.06Z"/>
  </g>
</svg>