<?xml version="1.0" encoding="UTF-8"?>
<svg id="Layer_2" data-name="Layer 2" xmlns="http://www.w3.org/2000/svg" viewBox="0 0 166.25 163.43">
  <defs>
    <style>
      .cls-1 {
        fill: #181818;
      }
    </style>
  </defs>
  <g id="Layer_6" data-name="Layer 6">
    <path class="cls-1" d="M12.56,58.88c.64,2.66,1.18,5.35,2.08,7.94.54,1.56,1.23,3.08,2.07,4.5.42.71,1.49,1.06,2.25.76.31-.12.59-.31.83-.55.37-.38.47-.9.49-1.41.01-.26.03-.51.04-.77.18-2.28.58-4.53.88-6.79,0-.04,0-.08.01-.13l9.53,5.72c.12.87.37,1.74.6,2.57,1.08,3.83,2.17,7.65,3.26,11.47,1.09,3.82,2.19,7.64,3.29,11.46,1.05,3.63,2.07,7.26,3.19,10.87,1.09,3.49,2.3,6.95,3.8,10.29.75,1.66,1.57,3.28,2.48,4.86.44.75.98,1.48,1.6,2.11.08.93.15,1.87.21,2.8.18,3.16.2,6.33.24,9.49.04,3.16.07,6.32.25,9.47.18,3.1.48,6.21,1.09,9.26.6,3.01,1.51,5.94,2.88,8.69.16.33.34.64.52.96.18.32.46.62.69.92.09.12.31,0,.25-.15-.14-.37-.24-.76-.4-1.11-.17-.36-.32-.72-.48-1.07-.3-.68-.57-1.37-.83-2.06-.52-1.41-.96-2.86-1.32-4.32-.74-2.99-1.12-5.95-1.34-9.01-.22-3.13-.24-6.27-.24-9.4,0-3.16.02-6.32-.08-9.48-.04-1.34-.12-2.67-.22-4.01.13.08.25.19.39.26.69.36,1.44.55,2.21.43.76-.11,1.43-.56,1.9-1.15.53-.68.83-1.49,1.1-2.29.31-.9.58-1.81.83-2.72.99-3.65,1.56-7.41,2.09-11.15.39-2.71.77-5.41,1.16-8.12.16.25.32.51.48.76.44.66.9,1.3,1.38,1.93.48.63.96,1.34,1.59,1.82.94.72,2.06,1,3.21.65.83-.26,1.56-.89,2.08-1.58.92-1.23,1.62-2.66,2.33-4.02.7-1.36,1.32-2.77,1.8-4.21l12.08,7.25c.09.24.18.48.29.71.33.72.69,1.44,1.08,2.13.17.31.35.62.54.92.27.42.62.77,1.05,1.03.2.12.43.2.66.22.52.06.96-.02,1.42-.28.44-.25.73-.7.98-1.13,1.43-2.45,2.5-5.1,3.47-7.76.54-1.48,1.05-2.96,1.57-4.45,0,0,0,0,0,0h0c.05-.14.1-.28.15-.42,0,0,0,0,0,0l22.15-21.59c.12.21.25.42.38.62.24.4.53.77.79,1.15.53.76,1.06,1.53,1.6,2.29.54.77,1.09,1.54,1.63,2.31.46.65.91,1.31,1.43,1.92.98,1.14,2.34,2.08,3.91,1.91,1.63-.18,2.97-1.3,4-2.5,2.05-2.37,3.53-5.16,4.61-8.09,1.11,1.29,2.58,2.31,4.27,2.65,1.89.38,3.82-.03,5.51-.93,1.71-.9,3.12-2.28,4.15-3.91,1.12-1.76,1.82-3.76,2.33-5.76.53-2.1.89-4.24,1.29-6.37.24-1.28.48-2.57.72-3.85l3.96-.21,2.57-22.67c.64.58,1.4,1.01,2.29,1.25.65.17,1.4-.11,1.83-.61.46-.52.58-1.23.38-1.89-.04-.14-.08-.28-.11-.42-.11-.72-.12-1.44-.08-2.16.11-1.31.27-2.61.37-3.92.12-1.53.19-3.07.22-4.61.05-2.8-.04-5.6-.25-8.39-.06-.83-.2-1.66-.36-2.48-.08-.4-.24-.77-.46-1.1.11-.22.12-.48-.06-.72-.24-.32-.55-.46-.88-.49l.06-.54-20.55,3.91c.07-.16.11-.33.13-.5,0,0,0-.02,0-.03.02-.18.02-.36,0-.54-.07-.75.09-1.5.02-2.25-.06-.61-.18-1.21-.54-1.72-.53-.74-1.26-1.2-2.16-1.32-1.29-.17-2.48.47-3.64.95-1.16.48-2.31.97-3.46,1.46-4.19,1.81-8.34,3.73-12.37,5.89-1.14.61-2.27,1.23-3.4,1.86-.22.12-.43.24-.65.37-.71.04-1.43.07-2.14.11-4.03.21-8.06.44-12.09.68-.61.04-1.21.08-1.82.12,0,0,0,0-.01,0-1.79-1.11-3.67-2.08-5.6-2.93-.65-.28-1.3-.55-1.96-.81-.44-.17-.89-.32-1.38-.3-.74.03-1.33.35-1.89.81-.51.42-.96.93-1.42,1.4-.94.97-1.85,1.98-2.71,3.02-.54.66-1.06,1.33-1.55,2.02-.08.11-.15.21-.23.32-.98.3-1.96.59-2.94.91-.53.17-1.05.36-1.58.53,0,0-.01,0-.02,0l-4.22.41s0,0,0,0c-.28-.22-.57-.36-.9-.43-.11-.02-.23-.04-.35-.06-7.86-.88-15.76-1.45-23.67-1.69-3.96-.12-7.91-.16-11.87-.12-1.94.02-3.87.08-5.81.15-1.97.08-3.96.13-5.93.3-.47.04-.88.16-1.22.51-.17.17-.3.41-.44.61-.14.2-.28.4-.41.6-.25.38-.51.75-.75,1.14-.56.88-1.03,1.81-1.4,2.78-.17.43-.33.88-.46,1.34L1.99,23.99c-.21-.38-.72-.58-1.12-.5-.56.11-.84.57-.86,1.11-.05.92.08,1.81.39,2.68.14.39.31.77.5,1.15.13.27.26.53.4.8.05.09.09.17.14.26.02.04.04.07.06.11.03.14.18.33.26.45.06.1.12.2.18.3.11.18.23.37.35.55.23.36.47.73.7,1.1.23.37.45.73.66,1.11.1.19.21.38.3.57,0,0,0,0,0,0,0,0,0,0,0,0,.05.11.1.21.15.32.39.88.67,1.81.88,2.75.03.13.06.26.08.38,0,.02,0,.04.01.06.04.22.08.44.12.66.08.48.16.96.24,1.43.33,2.04.67,4.08,1.47,5.99.87,2.06,2.02,3.97,3.03,5.96,1.19,2.45,1.98,5.01,2.61,7.65Z"/>
  </g>
</svg>