<?xml version="1.0" encoding="UTF-8"?>
<svg id="Layer_2" data-name="Layer 2" xmlns="http://www.w3.org/2000/svg" viewBox="0 0 224.92 64.8">
  <defs>
    <style>
      .cls-1 {
        fill: #181818;
      }
    </style>
  </defs>
  <g id="Layer_6" data-name="Layer 6">
    <path class="cls-1" d="M.26,52.65l.07.15c-.03-.08-.04-.09,0-.03.03.09.06.19.11.27.05.09.12.17.17.25.21.3.66.26.78-.1.03-.09.07-.19.1-.29.02-.09.02-.18.03-.27,0-.01,0-.06,0-.07,0,.11,0,.11,0,0,.01-.04.01-.07.01-.11,0-.22,0-.45.02-.67.02-.45.04-.89.06-1.34.02-.44.07-.89.12-1.33,0,0,0-.01,0-.02,0-.04.01-.08.02-.12.02-.11.03-.23.05-.34.04-.22.08-.44.12-.66.36-1.79.95-3.52,1.58-5.23.38-1,.77-2,1.17-2.99,1.29,2.83,3.13,3.78,5.21,4.7-.05.43-.1.86-.14,1.3-.03.44-.06.87-.07,1.31,0,.37.05.76.12,1.12.05.22.14.43.23.64.09.2.19.38.34.54.13.15.28.27.45.35.13.06.26.1.41.1.03,0,.06,0,.1,0,.02,0,.1-.02.12-.01-.06,0-.07.01-.04,0,.01,0,.03,0,.04,0,.11,0,.24-.06.29-.16,0,0-.05.06-.02.03.01-.01.02-.03.03-.04.01-.02.01-.02.02-.04.02-.04,0,.01,0-.01.02-.05.03-.1.02-.15,0-.03-.02-.05-.03-.05-.02-.05-.05-.1-.08-.14,0,0,0,.01.01.02,0,0,0,0,0,0,0,0,0,0,0,.01,0,0,0,0,0,0,0,0,0,0,0,0,.02.03.03.06,0-.01,0,0,0,0,0,0,0,0,0,0,0,0,0,0,0,0,0,0,0,0,0-.03,0-.05,0-.02,0-.05,0-.07,0,.01-.04-.1-.07-.15,0-.01,0-.03-.01-.04-.01-.03-.03-.07-.04-.1.02.04-.02-.07-.03-.1-.01-.05-.03-.1-.04-.15-.02-.08-.04-.16-.06-.24-.04-.4-.04-.8-.02-1.2.03-.62.11-1.25.19-1.87,0,0,0-.01,0-.02.97.47,1.98,1.05,2.98,1.89,1.69,1.43,2.32,3.54,3.9,4.73,2.05,1.53,5.44,1.78,7.65,3.37l-7.25-13.35c-2.71-4.16-8.56-4.69-7.14-10.6h16.8c.21,0,.98,1.05,1.93,2.26-.42.96-.82,1.94-.99,2.98-.03.2-.07.41-.09.62-.01.16.01.32.01.48,0,.2.04.43.14.61.08.14.18.23.21.39.01.08.13.06.15,0,.04-.09.11-.16.18-.22.08-.07.12-.09.18-.17.06-.08.03-.05.02-.03.04-.06.11-.12.15-.19-.05.09.11-.29.06-.16.04-.1.1-.2.14-.3.11-.23.18-.47.26-.71.08-.22.16-.44.25-.66.04-.1.08-.2.12-.3.02-.05.04-.1.07-.15.09-.21.19-.42.28-.62.02-.04.04-.08.06-.12,2.25,2.59,4.62,4.18,3.12-4.67l14.39-.96c-1.67,7.03-10.42,12.63-6.79,20.68,3.11,6.91,3.96-2.99,5.4-5.32,1.07-1.73,3.32-3.41,5.12-5.19-.27,2.15-.52,4.38.18,6.46.22.65.5,1.34.94,1.88.2.25.4.52.68.7.24.16.66.38.88.08.14-.18.08-.4.05-.61.02.14,0-.05-.02-.12,0-.04-.01-.08-.02-.12-.03-.13-.1-.26-.15-.38,0,0,0,0,0,0-.02-.05-.03-.1-.05-.14-.05-.13-.09-.26-.15-.38-.02-.04-.04-.09-.06-.13-.03-.09-.07-.17-.1-.26-.25-.67-.43-1.36-.54-2.07-.2-1.68.1-3.37.31-5.04.12-.94.24-1.88.36-2.82,1.86-3.31,2.88-7.69,6.44-7.22-.14,6.64-1.23,12.97-.96,19.65.05,1.16-.72,3.56.95,3.34l4.9-22.89,7.58-.09c.06,2.81-1.05,5.27-1.05,8.14,0,1.21.1,2.3.29,3.3-.08.21-.15.42-.23.62-.11.28-.23.55-.34.83l.09-.22c-.13.3-.25.61-.38.92,0,0,0,0,0,0,0,0,0,0,0,0-.03.06-.05.12-.08.18-.06.13-.11.26-.17.38-.22.49-.44.98-.68,1.47-.46.97-.94,1.94-1.44,2.89-.14.26-.27.53-.4.8-.04.07-.08.15-.12.22-.03.05-.06.11-.08.17,0,.04-.01.09-.02.13-.02.07-.02.14-.05.2-.01.04-.05.11-.09.16-.11.18-.06.43.11.55.16.12.43.13.56-.03.11-.14.16-.19.3-.29,0,0,0,0,.03-.02.07-.04.09-.03.17-.12,0,0,.07-.1.09-.12.02-.03.04-.05.06-.08.22-.27.44-.53.64-.82.34-.49.68-.98.98-1.49.62-1.04,1.17-2.11,1.68-3.2.06-.12.11-.24.16-.37,2.08,5.12,6.69,7.7,10.02,13.53,6.99-5.4-2.53-10.84-3.31-15.86-.63-4.03.84-8.03,1.99-11.79l12.1,1.22s0,.04,0,.06c.19,1.51.3,3.03.27,4.55-.01.76-.04,1.53-.12,2.28-.02.17-.04.35-.06.52,0,.04,0,.08-.02.12,0-.01,0,0,0-.02,0,.02,0,.03,0,.04-.01.1-.03.19-.04.29-.06.37-.13.74-.21,1.1-.18.86-.41,1.7-.5,2.58-.04.44-.03.88.06,1.31.02.09.04.18.07.26.04.12.07.28.16.37.06.06.11.09.16.17.06.09.12.19.18.28.04.07.16.05.16-.04,0-.09,0-.18,0-.27.01-.11.03-.12.08-.2.05-.08.04-.18.06-.27.01-.1.03-.19.05-.29.06-.37.15-.73.24-1.09.19-.73.44-1.45.65-2.18.22-.74.38-1.5.5-2.27.1-.65.17-1.3.22-1.95.48,2.87.83,6.06,1.08,7.35.25,1.26-.6,3.88,1.56,3.2,2.98-4.62,2.49-10.1,2.4-15.34l23.01-1.9c8.43,15.87-17.4,18.33-12.44,33.52.19.57-.47,1.95.48,1.91,1.35-.67,1.03-2.07,1.44-2.87,3.89-7.47,8.27-7.64,13.89-12.48,3.5-3.02,5.52-5.91,6.55-9.21.07.4.15.8.2,1.21.23,1.81.28,3.64.04,5.46-.12.84-.31,1.69-.29,2.55.02.79.21,1.61.67,2.26.39.55.89,1.02,1.48,1.36.3.17.61.32.93.44-.02,0-.03-.01-.05-.02-.1-.04-.06-.03.12.05.04.01.08.02.12.04.07.02.14.04.2.06.15.04.31.1.46.13.11.02.23.02.35.03.02,0,.04,0,.06,0,.02,0,.06,0,.13.02h.09s.06,0,.08,0c.04,0,.08,0,.13,0,.08,0,.17,0,.25,0,.17,0,.34-.02.5-.05.16-.02.33,0,.5,0,.04,0,.06-.06.02-.08-.23-.1-.42-.21-.62-.36-.22-.17-.38-.26-.6-.41-.04-.03-.13-.09-.16-.1-.05-.03-.1-.06-.14-.09,0,0,0,0,0,0-.07-.05-.15-.12-.24-.14.02,0,.02,0,.03,0,0,0-.01,0-.02,0-.03-.02-.06-.03-.1-.05-.22-.12-.44-.25-.65-.37-.1-.06-.2-.12-.3-.19-.05-.03-.09-.06-.14-.1-.05-.04-.23-.19-.04-.03-.04-.04-.09-.07-.13-.1-.02-.02-.04-.04-.06-.05-.05-.04-.11-.08-.16-.12.03.02.06.05.1.07-.06-.09-.19-.17-.27-.25-.08-.08-.16-.16-.23-.25,0,0-.01-.01-.02-.02-.03-.04-.06-.09-.09-.13-.06-.09-.12-.19-.17-.29-.02-.05-.05-.1-.07-.14,0-.01-.01-.03-.02-.04-.05-.13-.09-.26-.13-.4,0-.01-.03-.13-.04-.2,0-.02,0-.03,0-.04,0-.04,0-.09-.01-.13-.02-.35,0-.7.05-1.05.07-.49.17-.97.25-1.45.09-.58.16-1.17.2-1.76.07-1.04.06-2.09-.02-3.14-.17-2.19-.6-4.34-1.2-6.45-.05-.17-.1-.33-.15-.5.1-1.84.03-3.83-.18-6.04h11.53c.15,7.29.99,16.29,7.19,21.07,3.16,0,1.31-12.57,1.24-18.49,0,0,0,0,.01.01.38.33.74.67,1.09,1.03.17.18.34.36.5.54.08.1.17.19.25.29.03.04.07.08.1.13,0,0,.01.01.02.02,0,0,.02.03.04.06.52.69,1.01,1.39,1.64,1.97.17.16.36.31.55.45.07.05.14.11.22.16.04.03.08.05.12.08.03.02.05.03.09.05.02,0,.02,0,.03.01,0,0,0,0,0,0,.36.18.75.28,1.15.3.19,0,.38.01.57,0,.11,0,.15-.19.03-.21-.44-.08-.77-.37-1.06-.7-.04-.04-.07-.08-.11-.12,0,0,0,0,0-.02-.03-.04-.06-.08-.09-.11-.08-.08-.15-.17-.22-.26-.01-.02-.03-.04-.04-.06-.03-.05-.07-.09-.1-.14-.07-.1-.14-.2-.2-.31-.26-.42-.51-.84-.77-1.26-.3-.49-.64-.96-1.01-1.41-.75-.93-1.62-1.75-2.52-2.53-.06-.05-.12-.1-.18-.15.03-.16.06-.3.1-.41l29.74-2.88c-1.12,6.19-10.67,22.93-6.8,28.18l2.96.55c.35-.31-.89-2.44-.84-3.39.08-1.5,8.93-16.81,12.4-22.16-.07.14-.15.27-.22.41-.87,1.74-1.65,3.53-2.34,5.35-.34.88-.67,1.77-.94,2.68-.3,1.03-.48,2.08-.3,3.14.16.91.66,1.79,1.32,2.43.36.35.83.7,1.31.86.1.03.19.06.29.09.09.03.19.03.28.05-.27-.09.07,0,.16.01.23.02.45-.03.67-.09.3-.09.47-.53.2-.75-.17-.14-.31-.28-.49-.4-.03-.02-.09-.05-.11-.08.13.09.11.07-.07-.06-.02,0-.04-.02-.06-.03-.04-.03-.09-.06-.13-.09,0,0-.01,0-.02-.01.01,0,.02.01.04.02-.12-.07-.22-.18-.34-.25,0,0,0,0,.02,0,0,0,0,0,0,0-.04-.03-.08-.07-.12-.1-.14-.12-.27-.25-.39-.39-.05-.06-.1-.12-.15-.18,0,0,0,0,0,0-.03-.04-.05-.07-.08-.11-.11-.16-.21-.32-.29-.5-.02-.04-.04-.08-.06-.12-.01-.03-.02-.05-.04-.08.02.04.04.09.06.13-.05-.07-.08-.21-.1-.29-.04-.15-.07-.3-.1-.45-.03-.28-.02-.57,0-.85.15-.98.52-1.93.86-2.86.34-.93.7-1.86,1.08-2.77.64-1.51,1.35-3,2.12-4.45.78-1.46,1.63-2.88,2.5-4.29.55-.89,1.08-1.79,1.57-2.71,1.83-1.56,3.45-2.47,3.45-.76-2.03,4.79-4.09,10.63-2.46,15.85.74,2.35,5.72,8.16,8.19,4.26-6.39-6.49-2.14-12.8,2.61-18.34-.17,1.93-.26,3.86-.16,5.79.02.35.05.7.1,1.05.05.34.15.65.29.97.12.27.28.57.5.77.12.11.26.22.4.3.19.11.36.12.57.09.13-.02.27-.17.29-.29.02-.12.04-.24,0-.36-.01-.05-.13-.39-.08-.22-.02-.08-.05-.15-.07-.23-.02-.05-.05-.11-.07-.16-.02-.04-.03-.08-.04-.11-.03-.08-.05-.16-.07-.25-.02-.07-.07-.2-.05-.28,0,.03,0,.07.01.1,0-.03,0-.05,0-.08,0-.05,0-.09-.01-.14,0-.11-.02-.22-.03-.34-.04-.82-.02-1.65,0-2.46.06-1.71.17-3.4.36-5.1.06-.49.12-.98.18-1.48.52-.59,1.04-1.17,1.52-1.74,4.44,6.39,1.12,14.78,3.01,21.89l4.18,7.79c1.68-2.85-.2-5.37.08-7.99,1.27-11.93,5.12-16.86,1.14-29.14-.49-1.51.04-3.5-.71-5.04-1.43-2.9-15.39-3.49-19.22-3.81-25.8-2.18-58.96-4.6-84.49-2.92-13.22.87-27.64,4.5-41.24,5.78-17.75,1.67-36.2,2.48-53.77,2.83C13.1,9.38,1.84,15.86.43,27.2c-.55,4.46,1.67,3.06,2.46,4.29.43.67.56,3.19.89,5.22-.29.78-.58,1.55-.88,2.33-1.1,2.89-2.25,5.81-2.7,8.89-.13.9-.22,1.79-.21,2.7,0,.47.05.93.13,1.39.04.21.07.43.12.63Z"/>
  </g>
</svg>