<?xml version="1.0" encoding="UTF-8"?>
<svg id="Layer_2" data-name="Layer 2" xmlns="http://www.w3.org/2000/svg" viewBox="0 0 227.24 39.26">
  <defs>
    <style>
      .cls-1 {
        fill: #181818;
      }
    </style>
  </defs>
  <g id="Layer_6" data-name="Layer 6">
    <path class="cls-1" d="M221.62,11.73c-.04-.06-.08-.12-.13-.17-.07-.05-.14-.11-.21-.16-.16-.09-.33-.14-.51-.14-.14,0-.27.02-.39.09-.13.04-.24.11-.33.21-.02.01-.02.04-.03.05-.4-.03-.8-.06-1.21-.09.06-.05.13-.09.18-.16.08-.08.13-.17.17-.28.08-.15.12-.32.11-.49-.02-.11-.03-.23-.05-.34-.06-.22-.17-.41-.33-.57,0-.01-.02-.02-.03-.03-.01,0-.02-.02-.04-.03l-.07-.06s-.09-.07-.14-.11c-.16-.16-.35-.27-.57-.33-.12-.02-.23-.03-.34-.05-.23,0-.45.06-.66.18-.15.08-.27.19-.36.33-.12.13-.19.27-.23.44-.02.06-.02.12-.03.18-.26-.29-.55-.52-.92-.77-.03-.02-.05-.03-.08-.05-.26-.13-.64-.28-.85-.36-.08-.07-.15-.13-.24-.19-.02,0-.03-.01-.05-.02-.05-.02-.1-.04-.15-.07l-.38-.16c-.19-.06-.38-.07-.58-.03-.09-.02-.18-.05-.28-.07-.45-.09-.9-.15-1.35-.19-.15-.01-.29-.02-.44-.01-.06,0-.13,0-.19.01-.35.04-.71.08-1.06.14-.07.01-.15.02-.22.05,0,0-.01,0-.02,0-.09-.18-.2-.34-.34-.49-.03-.03-.06-.04-.08-.06-.12-.15-.26-.29-.43-.39-.06-.03-.13-.06-.2-.08-.12-.07-.26-.11-.4-.11-.08-.01-.15-.02-.23-.03-.01,0-.03,0-.04,0-.03,0-.06,0-.08,0-.06,0-.11,0-.17-.01-.06,0-.11,0-.17-.01-.03,0-.06,0-.08,0,0,0-.01,0-.02,0-.29-.02-.41.04-.64.14-.08.01-.14.04-.2.09-.06.05-.13.1-.19.15-.15.06-.38.16-.39.17,0,0-.01,0-.02.01-.17.13-.34.26-.51.4-.1.08-.19.16-.27.25-.02.02-.04.05-.06.07-.13.17-.27.34-.39.51-.04.05-.07.1-.1.15-.02.03-.04.07-.05.1-.01,0-.02-.01-.04-.02-.42-.18-.85-.25-1.3-.31.01-.08.02-.16.04-.29.02-.16.06-.26.04-.39,0-.05-.01-.11-.02-.16,0-.01,0-.02,0-.03-.02-.12-.03-.23-.05-.35,0-.13-.03-.25-.05-.37,0-.02-.01-.04-.02-.07-.02-.06-.04-.12-.06-.17,0-.02-.02-.04-.02-.06,0-.01-.01-.03-.02-.04-.04-.09-.23-.58-.28-.66,0-.01-.02-.03-.03-.04-.14-.18-.29-.38-.43-.56-.02-.02-.04-.05-.06-.07-.07-.09-.16-.17-.24-.24-.21-.18-.43-.34-.66-.51-.05-.04-.1-.07-.15-.1-.1-.06-.2-.11-.3-.16-.41-.18-.84-.39-1.28-.47-.17-.03-.35-.05-.52-.07-.18-.02-.36-.05-.53-.07-.12,0-.24-.01-.36,0-.29.03-.57.07-.86.11-.06,0-.12.02-.18.03-.12.02-.23.05-.34.09-.33.11-.65.26-.97.4-.12.05-.24.11-.35.18-.12.07-.23.14-.35.22-.05.04-.11.08-.16.12-.22.17-.46.33-.67.52-.11.1-.2.23-.3.35-.18.23-.35.46-.52.69-.64-.06-1.28-.04-1.92.15-.51.15-1.01.36-1.52.51-.49.14-.99.23-1.48.36-.48.13-.96.25-1.44.35-.27.06-.54.1-.8.15-.04-.06-.08-.12-.12-.18-.01-.01-.02-.03-.03-.04-.04-.04-.06-.08-.1-.12-.04-.04-.08-.07-.12-.11-.02-.03-.04-.06-.07-.09-.1-.08-.2-.16-.3-.24-.17-.14-.36-.26-.58-.33-.19-.11-.4-.17-.62-.17-.33-.07-.66-.06-.99.04-.07.01-.14.03-.21.04-.02,0-.03,0-.05.01-.22.05-.42.13-.61.26-.17.13-.34.26-.51.39-.02.02-.05.04-.07.07-.02.02-.05.04-.07.06-.01.01-.02.02-.03.03-.08.07-.15.16-.2.26-.07.08-.14.17-.2.26-.02.03-.04.07-.06.1-.09,0-.19-.02-.28-.02-.21-.15-.41-.3-.63-.42-.52-.3-1.06-.54-1.6-.77-.23-.1-.47-.22-.72-.27-.54-.12-1.01-.14-1.54-.07-.27.04-.47.05-.71.14-.1.04-.2.09-.3.13-.02,0-.04,0-.06.02-.06,0-.13-.01-.19-.02-.52-.08-1.04-.17-1.56-.21-.45-.03-.92.07-1.36.13-.04,0-.09.01-.13.02-.04,0-.08,0-.12.01-.13-.07-.26-.15-.4-.22-.49-.25-1.02-.48-1.55-.6-.7-.15-1.41-.21-2.12-.24-.02-.01-.03-.02-.05-.04-.2-.15-.46-.22-.71-.29-.13-.03-.25-.04-.4-.06-.18-.02-.26-.05-.41-.04-.27.03-.54.06-.8.11-.13.02-.25.05-.38.09-.06.02-.12.04-.18.06-.02,0-.03.01-.05.02,0,0,0,0,0,0-.4-.02-.78-.04-1.18-.02-.06,0-.12,0-.18,0-.39,0-.76.1-1.1.3-.07.03-.13.06-.2.1-.31.16-.59.37-.79.66,0,0,0,0,0,0,0,0-.01.02-.02.02-.02.04-.06.06-.08.1-.31,0-.62,0-.92,0-.01-.03-.02-.05-.04-.08-.04-.07-.08-.13-.12-.18-.05-.12-.1-.24-.17-.36-.15-.25-.36-.47-.55-.69-.12-.16-.25-.31-.39-.46-.29-.31-.63-.57-.98-.81-.46-.32-.99-.52-1.5-.73-.3-.12-.62-.21-.94-.26-.56-.09-1.14-.18-1.71-.16-.56.01-1.13.1-1.69.19-.34.05-.69.13-1.02.22-.92.25-1.8.63-2.67,1.01-.08.04-.16.08-.24.11-.02,0-.04-.01-.06-.02-.17-.06-.35-.1-.53-.14-.09-.02-.18-.03-.27-.05-.26-.04-.52-.08-.78-.1-.18-.01-.36-.02-.54-.01-.36.01-.71.07-1.06.12-.18.03-.36.06-.54.11-.18.05-.36.1-.53.17-.32.12-.65.26-.95.42-.18.1-.36.2-.53.32-.22.15-.42.32-.63.48-.08.07-.16.14-.24.21-.07.07-.13.15-.19.23-.34-.01-.69-.03-1.03-.04-.06-.12-.13-.22-.22-.32l-.25-.19c-.19-.11-.39-.17-.61-.17-.17,0-.32.03-.47.1-.15.05-.28.13-.39.25-.07.06-.1.15-.14.23-1.57-.08-3.14-.15-4.71-.23-.01-.02-.01-.04-.03-.07,0,0-.02-.02-.03-.03,0,0,0,0,0,0-.01-.02-.04-.03-.05-.06-.06-.1-.12-.19-.21-.27-.12-.12-.25-.2-.4-.26-.01,0-.03-.01-.04-.02-.21-.12-.44-.18-.69-.19-.25,0-.47.06-.69.19-.09.07-.18.14-.28.21-.11.11-.19.24-.25.37-1.39-.07-2.79-.14-4.18-.21,0-.39-.1-.76-.3-1.1-.2-.33-.46-.59-.79-.79,0,0-.52-.22-.53-.22h0s0,0-.01,0c-.2-.03-.4-.06-.6-.08-.01,0-.03,0-.04,0-.03,0-.06,0-.09,0-.01,0-.03,0-.04,0,0,0-.01,0-.02,0,0,0,0,0,0,0-.1.01-.21.03-.3.04-.1.01-.2.02-.3.04l-.53.23s-.05.03-.07.05c-.01,0-.03.02-.04.03-.02.01-.04.03-.06.04-.15.08-.27.18-.38.29h-.01s0,.02,0,.02c0,0-.01.01-.02.02.01-.01.03-.02.04-.03-.08.08-.15.16-.21.25-.19.21-.32.46-.39.74-.01.08-.02.16-.03.24-1.68-.08-3.37-.16-5.05-.24,0,0-.02-.01-.03-.02-.2-.18-.43-.3-.7-.37-.2-.05-.4-.07-.59-.07-.16-.01-.32,0-.48.03-.1,0-.2,0-.29.04,0,0,0,0-.01,0-.02,0-.03.01-.05.02-.03,0-.06.02-.09.03-.11.01-.22.03-.32.06-.19.05-.29.1-.38.14-1.01-.05-2.02-.09-3.03-.14-.12-.06-.24-.1-.38-.13-.37-.08-.76-.12-1.13-.16-.31-.04-.62-.03-.92.09-.08.03-.15.06-.23.1-2.28-.09-4.55-.19-6.83-.27-.31-.18-.65-.27-1-.27-.08,0-.15,0-.23,0-.27-.01-.53.05-.76.17-.03.01-.06.03-.09.04-1.17-.04-2.33-.08-3.5-.11-.06-.14-.14-.31-.17-.38,0,0,0-.02-.01-.03,0-.02-.01-.03-.02-.05-.05-.12-.1-.14-.21-.29-.09-.11-.14-.21-.24-.29-.2-.16-.41-.32-.61-.47-.45-.34-1.03-.4-1.58-.42-.1,0-.2,0-.3,0-.1,0-.2.01-.3.02-.14.02-.28.04-.41.05-.45.06-.26,0-.67.18-.11.05-.22.09-.33.14-.05.02-.09.04-.14.07-.1.05-.19.1-.28.16-.09.06-.18.13-.28.19-.16.12-.31.24-.47.36-.18.17-.31.37-.41.6-.97-.02-1.95-.04-2.92-.06-.1-.26-.22-.52-.33-.77-.07-.16-.15-.31-.24-.45-.23-.35-.49-.68-.76-1-.11-.12-.22-.24-.35-.35-.32-.28-.66-.54-1-.78-.14-.1-.29-.18-.44-.25-.39-.19-.8-.36-1.21-.51-.32-.12-.66-.2-1-.25-.6-.09-1.21-.19-1.82-.17-.7.03-1.4.13-2.08.28-.68.15-1.31.4-1.94.71-.45.22-.88.47-1.31.73-.41.25-.8.51-1.12.86-.08.09-.16.17-.24.26-.04.04-.07.08-.11.12-.07.07-.13.15-.2.23-.09-.01-.18-.03-.28-.04-.25-.03-.5-.05-.76-.06-.52-.02-1.03,0-1.55.07-.68.09-1.34.19-2,.39-.11.03-.21.08-.32.11-.38-.04-.77-.09-1.15-.1-1.03-.04-2.06-.02-3.08-.12-.38-.07-.76-.15-1.12-.27-.23-.07-.44-.17-.67-.24-.6-.18-1.18-.2-1.79-.12-.93.12-1.62.57-2.36,1.09-.24.16-.48.32-.72.48-.29.19-.57.39-.81.64-.07.07-.12.15-.18.22-3.76.25-7.52.49-11.27.72-.16-.17-.34-.31-.54-.43-.11-.05-.22-.09-.33-.14-.14-.06-.25-.11-.38-.15-.06-.02-.12-.04-.19-.05-.28-.04-.57-.08-.85-.11-.06,0-.12-.01-.17-.02-.54-.06-1.04.13-1.51.36-.05.02-.09.05-.14.07-.22.12-.36.21-.58.44-.14.14-.25.29-.35.45-1.8.16-3.59.3-5.39.43,0-.01,0-.02,0-.03,0-.18-.05-.35-.14-.51-.08-.25-.22-.47-.42-.65-.14-.11-.27-.21-.41-.32-.32-.18-.66-.28-1.02-.28-.09,0-.19,0-.28.01-.27.02-.54.06-.81.1-.12.02-.15.05-.3.11-.1.04-.2.08-.3.13-.04.02-.08.04-.12.06-.04.02-.08.04-.12.06-.16.09-.31.19-.45.34-.06.08-.12.15-.17.23-.02.02-.04.04-.06.06-.11.12-.22.24-.3.38-.03.06-.05.12-.08.18-.07.09-.14.18-.21.27-.03.04-.04.09-.07.14-.11,0-.23,0-.34.01-.04-.06-.06-.13-.1-.18-.04-.07-.1-.13-.23-.27-.15-.16-.33-.27-.53-.35-.02-.02-.04-.04-.07-.05l-.5-.21s0,0,0,0c-.09-.01-.19-.03-.29-.04-.19-.05-.37-.05-.56,0-.1.01-.2.02-.29.04-.06,0-.12.02-.17.03-.12.02-.23.05-.34.09-.01,0-.02,0-.04.01,0,0-.02,0-.02,0-.03.01-.51.21-.54.23-.03.02-.05.03-.08.05-.05.03-.1.07-.15.1-.2.14-.38.29-.58.44-.05.04-.09.08-.14.12-.01,0-.02.02-.03.03,0,0-.01.01-.02.02-.57,0-1.14,0-1.71-.02-.24,0-.48.01-.72.02-.09-.12-.18-.23-.23-.28-.09-.09-.24-.19-.32-.25-.14-.11-.25-.2-.39-.29-.31-.2-.61-.42-.91-.62-.29-.19-.59-.37-.91-.51-.5-.22-1-.45-1.54-.57-.15-.04-.31-.06-.47-.08-.4-.06-.79-.13-1.19-.13-.55,0-1.11.09-1.65.18-.31.05-.62.13-.92.24-.51.18-1.01.39-1.48.64-.35.19-.64.43-.96.68-.07.05-.13.1-.19.16-.12.1-.16.18-.28.33-.09.12-.18.23-.27.36-.09.14-.18.28-.26.42,0,.02-.02.03-.02.05,0,.01,0,.03-.02.04-2.79.06-5.59.12-8.38.15C-1.38,15.56.06,28.76,6.55,34.06c4.75,3.88,9-2.18,13.1-2.46,3.53-.24,5.49,3.58,8.61,3.8,3.54.25,9.9-2.96,13.62-3.58,18.6-3.11,65.13-2.01,84.15.81,3.22.48,8.62,3.69,10.64,3.69,2.89,0,5.77-4.1,7.91-4.6,2.06-.48,3.19,2.03,5.45,1.83,1.99-.17,3.49-2.86,5.82-2.85,3.96.01,11.33,6.13,14.47,6.64,3.71.6,5.29-1.76,7.58-1.82,3.4-.08,7.35,3.95,10.52,3.74,3.42-.22,6.07-4.3,8.97-5.49,5.54-2.27,13.24-.82,18.15-5.89l5.58,5.61c7.18-4.1,7.01-13.96,4.69-21.46-1.4-.1-2.8-.2-4.2-.3Z"/>
  </g>
</svg>