<?xml version="1.0" encoding="UTF-8"?>
<svg id="Layer_2" data-name="Layer 2" xmlns="http://www.w3.org/2000/svg" viewBox="0 0 415.8 552.81">
  <defs>
    <style>
      .cls-1 {
        fill: #181818;
      }
    </style>
  </defs>
  <g id="Layer_6" data-name="Layer 6">
    <path class="cls-1" d="M415.69,494.01c-.12-29.32-.23-58.64-.35-87.95-.12-29.32-.23-58.64-.35-87.95-.12-29.32-.23-58.64-.35-87.95-.12-29.32-.23-58.64-.35-87.95-.12-29.32-.23-58.64-.35-87.95-.03-7.33-.06-14.66-.09-21.99-.03-7.01-.42-14.58-4.3-20.68-2.13-3.34-5.14-6.41-8.72-8.18-3.75-1.86-7.38-2.7-11.56-3-4.41-.31-8.88.35-13.26,1.24-3.38-.16-6.76-.31-10.14-.44-4.68-.17-9.37-.32-14.05-.44-4.66-.12-9.33-.21-13.99-.27-4.69-.06-9.37-.09-14.06-.1-4.67,0-9.33.02-14,.07-4.69.05-9.37.13-14.06.24s-9.37.25-14.05.41c-3.22.11-6.45.26-9.67.4-1.5-.38-3.01-.74-4.5-1.15-2.49-.68-5.42-.3-7.65,1-.15.09-.3.19-.45.3-.07-.03-.13-.07-.2-.11-.5-.26-1.01-.51-1.56-.63.01,0,.03,0,.04,0-.9-.22-1.9-.22-2.82-.2-.96.02-2.01.08-2.94.3l.72-.1c-2.36.26-4.56,1.1-6.72,2.05-2.1.14-4.21.27-6.31.43-.54.04-1.08.08-1.63.12-.37-.23-.81-.34-1.21-.29-.4.05-.73.22-1,.49-.64.12-1.2.4-1.63.88-.15-.85-.29-1.7-.47-2.54-.2-.95-1.08-1.74-1.99-1.99-.5-.14-1.01-.14-1.51,0-.48.14-.9.38-1.26.73-.62.49-1.11,1.18-1.42,1.91-.2.45-.39.89-.51,1.36-.13.53-.19,1.08-.26,1.62,0,.08-.01.16-.02.24-1.08-.06-2.17-.06-3.26.06-.8.09-1.61.19-2.39.38-.83.2-1.59.52-2.37.85-.59.25-1.18,1.12-1.32,1.72-.07.33-.09.65-.07.97-.17.12-.32.25-.45.42-.47.61-.56,1.53-.17,2.21.04.12.07.24.13.36.15.29.29.38.48.57.13.13.25.27.37.41.22.25.42.5.63.76.15.2.3.4.46.6l-.36-.47c.37.51.71,1.04,1.03,1.59-.08-.19-.16-.39-.25-.58.38.96,1.01,1.83,1.48,2.75.36.69.68,1.41.99,2.12,1.12,2.74,1.99,5.58,2.91,8.4.48,1.47.97,2.93,1.53,4.37.35.92.73,1.83,1.13,2.74.31.71.63,1.44,1.02,2.11.29.49.64.98,1.08,1.35.54.46.87.65,1.54.9.37.14.71.17,1.12.21,1.24.12,2.52-.52,3.36-1.39.8-.83,1.29-1.82,1.68-2.9.3-.82.44-1.7.64-2.54.75-3.21,1.5-6.42,2.25-9.62.32.99.64,1.98.95,2.97.38,1.51.81,3.01,1.38,4.46.37,1.23.75,2.46,1.11,3.7.35,1.2.67,2.41,1.01,3.62.42,3.31.93,6.6,1.53,9.88.98,5.31,2.18,10.57,3.55,15.78.77,2.93,1.59,5.84,2.46,8.75,0,0,0,0,0,.01-.13,2.64-.24,5.28-.29,7.93-.03,1.47,1.14,2.7,2.55,2.89.63.08,1.33,0,1.88-.35.67-.43,1.09-1,1.35-1.76,2.29-6.59,3.84-13.41,4.93-20.29.14-.88.25-1.76.38-2.64.18.87.37,1.73.56,2.6.12.56.52,1.04.95,1.38.45.35,1.03.6,1.61.57,1.2-.05,2.21-.79,2.56-1.95,1.51-4.96,2.6-10.02,3.21-15.17.08-.65.13-1.3.19-1.95.39-1.05.73-2.11.99-3.2,5.17,2.14,12.04,4.02,14.32,6.31,1.94,1.96,2.82,6.83,4.82,9.56,4.54,6.19,10.75,5.92,16.22,6.56.02.23.05.46.09.68.09.54.21,1.07.32,1.6.21,1.09.43,2.17.64,3.26-.03-.2-.05-.4-.08-.6.17,1.39.56,2.77.86,4.14.27,1.22.55,2.44.82,3.66l1.64,7.32c.54,2.42,1.08,4.84,1.63,7.26.44,1.96.88,3.93,1.56,5.82.88,2.41,2.09,4.7,3.96,6.49.68.65,1.63.93,2.55.67.44-.12.83-.35,1.16-.67.32-.33.55-.71.67-1.16.04-.11.09-.21.13-.32-.09.21-.18.42-.26.63,1.18-2.7,2.23-5.48,3.26-8.24.84-2.27,1.62-4.56,2.31-6.87,1.26,2.17,2.43,4.12,3.42,5.59,3.8,5.62,8.37,12.8,12.79,19.38.31,2.55.61,5.11.94,7.66.78,6.02,1.56,12.04,2.34,18.06.47,3.59.92,7.18,1.4,10.77l-.1-.75c.13.99.26,1.98.4,2.97,0,.51.13.99.39,1.43.18.33.42.59.73.79.66.51,1.64.81,2.47.51.86-.32,1.55-.7,2.23-1.33.46-.42.85-.95,1.16-1.49.57-.98.94-2.09,1.21-3.19.64-2.62,1.09-5.28,1.45-7.95.42-3.12.63-6.25.72-9.39,11.24,17.6,11.71,50.83,11.09,71.04-.28,8.95-3.61,14.67.09,23.79,2.44,6.03,10.87,16.29,12.16,21.46.84,3.37-2.17,8.19-1.74,13.16.43,4.92,3.84,9.99,3.93,15.34.08,4.69-2.07,10.75-2.08,15.33-.02,5.69.01,11.5.04,17.2.03,7.37,2.09,20.75.96,26.83-.75,4.03-7.69,14.07-9.57,20.15-2.29,7.4-2.38,14.43-4.04,21.83l-27.56,27.1c-28.96,5.08-59.94,5.22-88.7,10.14-30.18,5.17-33.54,27.29-57.32,40.51-7.95,4.42-8.46,1.74-16.71,2.48-11.85,1.07-23.67,3.86-35.53,4.77-29.28,2.24-59.72-2.79-89.13,1.09-4.05.53-8.12,1.54-12.15,2.25-2.9,7.82-4.68,17.2-7.26,25.93-.17-.54-.36-1.08-.59-1.61-.4-.93-.91-1.82-1.5-2.64-.37-.51-.99-.87-1.63-.67-.66.21-.98.73-1.06,1.4-.3,2.39-.51,4.79-.78,7.18-.27,2.39-.59,4.79-.8,7.18-.12,1.35-.3,2.73-.32,4.09,0,.19.07.35.17.5-2.39,3.64-8.1,10.91-10.66,12.79-6.63,4.89-8.6,1.13-12.28,9.85-2.99,1.38-5.36,4.23-5.82,7.5-1.3,1.71-2.19,4.01-2.1,6.07.12,2.57.96,5.23,2.91,7.02,1.8,1.65,4.47,3.23,7.02,2.91,17.42-2.2,34.99-3.11,52.53-2.73,1.54,1.04,3.4,1.66,5.47,1.74,10.93.39,21.87.78,32.8,1.16,2.77.1,5.47-1.25,7.36-3.32,5.74.08,11.48.17,17.23.25,10.66.15,21.31.31,31.97.46,3.04.04,5.99-1.55,7.88-3.94,8.82-.1,17.65-.2,26.47-.31,29.32-.34,58.63-.68,87.95-1.02,29.32-.34,58.63-.68,87.95-1.02,6.49-.08,13.1.19,19.56-.59,7.62-.92,15.49-3.2,20.62-9.33,2.71-3.25,4.56-6.54,5.9-10.58,1.09-3.27,1.51-6.79,1.83-10.21.59-6.36.26-12.83.23-19.2Z"/>
  </g>
</svg>