<?xml version="1.0" encoding="UTF-8"?>
<svg id="Layer_2" data-name="Layer 2" xmlns="http://www.w3.org/2000/svg" viewBox="0 0 254.51 191.63">
  <defs>
    <style>
      .cls-1 {
        fill: #181818;
      }
    </style>
  </defs>
  <g id="Layer_6" data-name="Layer 6">
    <path class="cls-1" d="M254.38,66.19s0-.04,0-.06c-.02-.24-.06-.48-.13-.71,0-.03-.02-.06-.03-.09-.07-.23-.17-.44-.3-.65-.02-.02-.03-.05-.05-.07-.14-.21-.3-.4-.49-.56-.76-.64-1.74-.93-2.74-.85-.24.02-.47.05-.71.09-.09.02-.18.04-.27.05-.14.03-.28.06-.42.09-.11.03-.23.06-.34.09-.11.03-.22.06-.32.09-.16.05-.32.09-.49.14,0,0,0,0,0,0-.76-.29-1.64-.32-2.44-.26-.89.07-1.75.25-2.63.38-2.21.26-4.44.05-6.64-.24-4.24-.59-8.62-1.38-12.78.08-.03.01-.07.02-.1.04l-23.1-6.05c.01-.17.01-.34,0-.52,0-.03,0-.05,0-.08,0-.14-.03-.28-.05-.42,0-.04-.01-.09-.02-.13-.03-.13-.07-.25-.11-.38-.02-.04-.03-.09-.05-.13-.07-.16-.15-.32-.25-.47-.06-.09-.12-.16-.18-.24.49-.61.92-1.26,1.27-1.96.32-.63.37-1.35,0-1.97-.33-.56-1.02-1.03-1.69-.97-3.73.32-7.48.23-11.19-.25-2.88-.41-5.7-1.09-8.52-1.78-2.9-.71-5.8-1.35-8.73-1.92-2.91-.57-5.83-1.03-8.76-1.42-3.06-.42-6.14-.79-9.22-1.01-1.65-.12-3.31-.21-4.96-.26-.22,0-.44,0-.65,0h0l-6.48-1.7c-.24-.17-.49-.33-.73-.5-2.92-1.97-5.95-3.72-9.27-4.92-.99-.36-2.01-.65-3.04-.91-.53-.79-.99-1.62-1.39-2.49-.25-.64-.47-1.3-.64-1.97-.02-.08-.07-.15-.09-.23.33-.75.6-1.52.78-2.3.15-.65.11-1.27-.15-1.89-.23-.56-.64-1.1-1.19-1.39-1.17-.62-2.54-.46-3.51.45-.2.19-.41.36-.62.53-.83.61-1.72,1.13-2.66,1.55-1.5.58-3.07.96-4.66,1.19-1.25.15-2.51.23-3.77.27-.13-3.67-1.2-7.33-3.05-10.48-.99-1.67-3.29-1.93-4.67-.6-1.49,1.43-2.78,3.15-3.71,5-.51,1.01-.95,2.08-1.29,3.16-.25.8-.41,1.62-.54,2.44-.28-.02-.55-.03-.82-.04-.8-.03-1.59-.08-2.38-.14-1.24-.09-2.48-.22-3.71-.37.07-.52.11-1.03.14-1.55,0-.08,0-.15,0-.23.02-.46.03-.91.02-1.37,0-.22-.02-.43-.03-.65-.02-.34-.03-.68-.07-1.02-.06-.58-.14-1.16-.26-1.74-.02-1.2-.04-2.39-.06-3.59,0-.62-.28-1.15-.77-1.53-.24-.19-.5-.3-.76-.36-.69-.75-1.79-.85-2.76-1.04-.59-.12-1.18-.23-1.77-.35-.18-.19-.39-.36-.64-.46-.38-.16-.85-.23-1.25-.1-.05.02-.1.04-.15.06-.22-.07-.45-.12-.67-.18-.98-.32-1.96-.65-2.94-.97-.3-.1-.67-.07-.99.02-.81-.16-1.62-.31-2.44-.46-.47-.09-.95-.18-1.42-.26-.57-.1-1.17-.12-1.75-.18-.02,0-.05,0-.07,0-.05,0-.1.02-.15.02-.41-.03-.83,0-1.21.17-.31.13-.56.26-.78.54-.2.25-.34.58-.32.91,0,.14.04.27.08.41-.1.1-.2.19-.27.31-.55.89-1.07,1.79-1.57,2.7-.35.63-.68,1.28-1.01,1.93-.12.25-.26.49-.38.73-.41.83-.8,1.68-1.18,2.53-.02.04-.04.08-.06.13-.4.9-.77,1.82-1.13,2.74,0,0,0,0,0,0-1.52-.29-3.05-.57-4.58-.84-.29-.53-.63-1.02-1.08-1.47-.55-.55-1.2-1.02-1.86-1.43-.86-.54-1.8-.96-2.64-1.54-.06-.05-.12-.11-.17-.16-.02-.03-.03-.06-.05-.08,0-.13,0-.26.02-.38.14-.83.32-1.66.26-2.5-.08-1.13-.35-2.09-.84-3.11-.85-1.75-2.46-3-4.26-3.65l-.74-.1c-.38-.01-.74.07-1.07.24-.56.24-.99.61-1.32,1.13-.05.09-.11.17-.17.25-.7.17-1.32.7-1.89,1.15-.38.3-.75.61-1.11.94-.83.77-1.54,1.61-2.21,2.53-1.07,1.45-1.9,3.1-2.5,4.8-.06-.03-.12-.05-.18-.07-2.27-.98-4.39-2.22-6.36-3.71-.03-.02-.08-.06-.15-.11-.08-.07-.17-.13-.25-.2-.24-.19-.47-.38-.71-.57-.47-.39-.93-.78-1.39-1.18-.88-.78-1.74-1.58-2.58-2.4-.85-.82-1.68-1.65-2.52-2.48-.43-.43-.85-.89-1.3-1.29-.28-.25-.6-.46-.9-.68.04.03.09.07.09.07-.15-.11-.28-.22-.43-.32-.1-.07-.2-.14-.3-.22-.06-.1-.12-.2-.18-.3-.23-.38-.49-.68-.82-.97-.44-.39-.88-.78-1.32-1.16-.96-.81-1.94-1.59-2.96-2.32-1.04-.75-2.12-1.44-3.28-2.01-.29-.15-.59-.28-.88-.42-.14-.06-.27-.12-.41-.18-.11-.05-.23-.1-.34-.14-.13-.08-.26-.13-.41-.15-.63-.19-1.26-.34-1.88-.54-.41-.14-.84.03-1.14.3-.48.43-.65,1.07-.53,1.67L0,23.34l13.34,39.64L2.91,124.96c-.08.2-.16.4-.23.65-.07.24-.13.47-.17.72-.02.12-.04.24-.05.37,0,.06-.01.09-.01.09-.02.16-.03.3-.03.47,0,.56.08,1.13.24,1.67.11.39.42.71.82.82.44.12.81-.03,1.14-.3,0,0,.15-.12.05-.04-.15.12.25-.19.21-.16.1-.08.19-.17.29-.25.18-.15.37-.31.56-.46.09-.07.17-.14.26-.21.06-.05.11-.09.17-.14,0,0,.05-.04.08-.06.08-.06.21-.16.19-.14,0,0,.04-.03.06-.05.01-.01.02-.02.03-.02.06-.04.12-.09.18-.13.38-.29.77-.56,1.15-.84.02-.02.49-.37.17-.14.04-.03.09-.07.13-.1.09-.07.18-.13.26-.2.21-.15.41-.31.62-.46.99-.72,2-1.39,3.03-2.05l13.69-3.83c0,.05,0,.1,0,.15.22,2.88.54,5.75,1.03,8.6.47,2.77,1.1,5.52,1.98,8.19.87,2.68,1.97,5.29,3.33,7.76.68,1.22,1.42,2.41,2.22,3.56.81,1.15,1.78,2.35,3.19,2.77.67.2,1.43.17,2.08-.09.65-.26,1.21-.68,1.67-1.2.94-1.05,1.56-2.34,2.21-3.58,1.48-2.79,2.88-5.62,4.21-8.49,1.21-2.62,2.35-5.26,3.45-7.93.2.5.4,1.01.6,1.51.26.65.51,1.31.79,1.96.26.63.55,1.25.92,1.82.72,1.09,1.74,1.87,2.98,2.28,1.16.38,2.43.39,3.62.14,2.52-.53,4.57-2.37,6.15-4.32,1.5-1.86,2.75-3.91,3.77-6.07,1.02-2.16,1.81-4.42,2.48-6.71.66-2.29,1.2-4.61,1.7-6.93.51-2.36.99-4.73,1.53-7.08.02-.11.05-.22.08-.32l9.5-2.66,22.04-18.13,7.53,11.01c-.08.04-.14.11-.12.23.08.58.16,1.16.24,1.74.04.29.06.6.12.85.06.28.1.56.15.84.05.31.08.51.15.84.06.29.12.58.17.87.11.56.21,1.12.31,1.68.41,2.26.76,4.54,1.07,6.82,0,.04.01.08.02.12,0,0,0,.03,0,.05,0,.01,0,.02,0,.02,0,.04.01.08.02.12.02.15.04.29.06.44.04.28.07.57.11.85.07.58.14,1.15.21,1.73.13,1.14.26,2.29.37,3.43.23,2.3.44,4.59.64,6.89.19,2.3.37,4.6.55,6.91.18,2.3.36,4.6.57,6.91.2,2.3.42,4.59.68,6.89.26,2.33.56,4.66.9,6.98.34,2.28.73,4.55,1.19,6.8.42,2.07.87,4.14,1.46,6.16.55,1.88,1.25,3.74,2.22,5.44.96,1.68,2.21,3.23,3.78,4.37,1.32.96,2.92,1.59,4.54,1.82,1.67.24,3.39.13,4.95-.53.77-.32,1.47-.77,2.08-1.33.71-.66,1.25-1.49,1.65-2.37.49-1.07.84-2.2,1.22-3.32.39-1.15.78-2.31,1.17-3.46l2.34-6.92c.78-2.31,1.56-4.61,2.34-6.92.27-.78.53-1.57.8-2.35l7.91,11.57c.37,1.68.84,3.33,1.42,4.95.65,1.81,1.4,3.58,2.24,5.31.4.81.82,1.62,1.28,2.41.31.52.68.99,1.19,1.32.67.44,1.52.55,2.29.35,1.06-.29,1.81-1.1,2.46-1.93.61-.77,1.21-1.56,1.76-2.37,1-1.45,1.89-2.97,2.7-4.54,1.26-2.42,2.34-4.94,3.33-7.48.02.82.04,1.64.06,2.46.07,2.03.14,4.07.21,6.1.06,1.9.1,3.81.23,5.71.14,2.03.48,4.16,1.69,5.85.35.49.95.84,1.56.64.62-.2.96-.7,1.02-1.34.45-4.71.98-9.41,1.43-14.12.45-4.71.87-9.42,1.24-14.13.08-1.04.15-2.08.23-3.12l24.09-13.78c-.2,2.39-.35,4.78-.43,7.18-.09,2.63-.1,5.27-.03,7.91.06,2.64.21,5.27.42,7.91.21,2.64.46,5.28.5,7.93.02,1.32-.01,2.64-.13,3.96-.03.32-.06.65-.1.97,0,.08-.02.16-.03.24,0,.04,0,.07-.02.11-.02.17-.05.33-.08.5-.1.61-.22,1.21-.34,1.82-.53,2.46-1.26,4.87-1.69,7.35-.42,2.41-.61,4.92-.04,7.32.24,1.01.62,1.99,1.14,2.89.06.1.12.2.18.29.03.05.21.29.11.15.07.09.13.18.2.26.15.19.3.37.47.54.08.09.17.17.25.25.04.04.07.07.11.11.03.03.17.13.1.08-.05-.04.05.03.06.04.11.09.23.18.35.26.12.09.24.16.32.2.43.22.86.4,1.33.53.19.05.28-.2.13-.31-.2-.14-.38-.3-.57-.45-.08-.07-.16-.14-.23-.22-.04-.04-.07-.07-.11-.11-.02-.02-.04-.04-.06-.07-.02-.02-.02-.02,0,0l-.07-.09c-.08-.08-.16-.16-.23-.24-.04-.04-.08-.09-.12-.13-.02-.02-.04-.05-.06-.07,0,0-.01-.02-.02-.03-.07-.11-.18-.21-.26-.32,0,0-.01-.02-.02-.03-.01-.01-.03-.03-.03-.04-.04-.05-.08-.11-.12-.16-.28-.39-.52-.82-.75-1.24-.11-.21-.21-.42-.31-.64,0-.02,0-.02-.01-.03,0,0,0-.01-.02-.04-.02-.06-.05-.11-.07-.17-.04-.12-.09-.23-.13-.35-.16-.47-.29-.95-.38-1.43-.02-.11-.04-.23-.06-.34,0-.06-.02-.12-.03-.18,0-.03,0-.06-.01-.09,0,0,0,0,0,.01-.04-.3-.06-.6-.08-.89-.04-.6-.04-1.19,0-1.79.02-.3.04-.61.07-.91.02-.15.03-.3.05-.45,0-.07.02-.13.02-.2,0,0,0,0,0,0,0-.04.01-.08.02-.12.35-2.43,1.05-4.8,1.64-7.18.3-1.19.57-2.39.76-3.6.21-1.33.34-2.67.39-4.02.09-2.6-.07-5.21-.27-7.8-.19-2.59-.38-5.17-.47-7.77-.09-2.58-.11-5.17-.06-7.76.05-2.59.18-5.17.37-7.75.07-.93.16-1.86.25-2.79l5.47-3.13c.24.68.5,1.35.78,2.02,1.02,2.45,2.27,4.76,4.04,6.76.97,1.09,2.11,2.03,3.35,2.8.65.4,1.76.33,2.27-.29,1.72-2.07,2.72-4.55,3.31-7.15.6-2.63.96-5.32,1.38-7.98.86-5.46,1.63-10.94,2.34-16.42l18.33-36.72c.9-1.04,1.64-2.2,2.2-3.49.19-.43.21-.89-.03-1.26.04-.25.06-.51.04-.76Z"/>
  </g>
</svg>