<?xml version="1.0" encoding="UTF-8"?>
<svg id="Layer_2" data-name="Layer 2" xmlns="http://www.w3.org/2000/svg" viewBox="0 0 1449.51 557.71">
  <defs>
    <style>
      .cls-1 {
        fill: #181818;
      }
    </style>
  </defs>
  <g id="Layer_6" data-name="Layer 6">
    <path class="cls-1" d="M1447.24,369.45c-.64-1.22-2.85-1.77-3.86-2.93-1.98-2.28-.24-3.98-4.89-4.65-10.97-1.57-23.69,2.14-34.62,3.62-6.71.91-16.34.45-22.7,2.25-5.3,1.49-14.49,10.28-20.2,13.37-4.06,2.21-10.53,5.07-17.44,7.85-3.72.33-7.45.66-11.17.96-3.46.28-6.92.56-10.38.84-.65.05-1.23.23-1.71.71-.42.42-.73,1.11-.71,1.71,0,.03,0,.06.01.09-3.43-.03-6.86-.08-10.29-.14l-9.97-.16c-1.05-.02-1.93.81-2.07,1.82-.13.99.48,2.08,1.51,2.31,3.47.79,6.95,1.59,10.42,2.39-9.48,1.43-19.54,2.14-28.51,5.54-.53.01-1.06.03-1.6.03-.29,0-.58,0-.87.01-7.3-5.12-11.12-9.84-20.22-7.43-.17-.04-.34-.06-.51-.08-.37-.04-.74-.03-1.1,0-1.18.13-2.36.43-3.52.67-1.18.24-2.37.49-3.55.73-4.75.97-9.48,2.05-14.22,3.09-2.66.58-5.32,1.22-8,1.72-.75.14-1.38,1.02-1.35,1.77.04.79.54,1.57,1.35,1.77,1.51.37,3.02.74,4.53,1.12,1.51.37,3.03.71,4.55,1.04.99.22,1.99.43,2.98.65-.2.15-.39.3-.59.45-4.05,1.57-8.27,2.63-12.5,3.56-5.15,1.13-10.35,2.14-15.36,3.84-2.94,1-5.82,2.23-8.51,3.79-.92.53-1.49,1.78-1.15,2.82.13.41.35.78.64,1.1.46.51,1.12.67,1.77.73,2.17.22,4.35.44,6.52.66.13.12.27.22.43.31.66.35,1.32.41,2.05.27.39-.07.78-.13,1.17-.21.68.07,1.37.14,2.05.21-.28.04-.56.07-.86.11-22.22,2.62-41.41-1.24-63.23-2.74-40.85-2.82-81.93-4.71-122.8-5.8-11.84-.32-27.13,1.44-38.35-.04-1.29-.17-2.73-.49-4.25-.89.27-.13.54-.26.8-.39,2.64-.23,5.26-.57,7.87-1.04.64-.11,1.29-.24,1.93-.37.59-.12,1.28-.67,1.56-1.2.28-.53.39-1.07.31-1.66-.18-1.31-1.25-2.19-2.56-2.26-.86-.04-1.72-.1-2.57-.14-.34-.48-.83-.85-1.42-1-7.56-2.02-15.33-3.18-23.12-3.81-7.64-.62-15.32-.7-22.98-.65-.12,0-.24,0-.37,0-4.9-1.31-9.81-2.63-14.7-3.95.56-.13,1.13-.25,1.69-.38.96-.22,1.77-1.28,1.73-2.27-.05-1.03-.7-1.99-1.73-2.27-4.98-1.34-10.15-1.95-15.28-2.32-4.98-.35-9.98-.38-14.97-.65-19.41-5.49-38.72-11.3-57.92-17.78-13.71-4.63-26.91-11.29-41.14-14.16-5.31,4.24-7.93,9.71-7.35,16.59.31,3.74,8.78,21.38,11.52,23.95,4.2,3.95,14.05,6.67,19.25,9.54-13.55,4.69-14.43,21.35-24.43,30.24-17.1,2.62-35.28,3.88-52.64,2.02-16.93,11.08-38.53,21.52-58.02,27.39-16.86,5.08-35.26-.53-52.55-1.67-12.88-.85-25.71,2.68-37.26-4.96-3.78-2.5-6.75-7.56-11.72-8.42-18.23-3.15-26.41,2.85-42.19,3.77-13.84.8-16.03-3.6-27-8.47-11.17-4.96-21.89-7.87-33-14.01-20.57-11.37-27.63-25.96-54.24-24.49-5.87.33-12.28,2.42-18.21,2.9-68.77,5.48-138.4.43-207.29-.19-3.26-.03-7.24-1.79-10.56-1.79-5.06-.01-10.61,2.14-16.29,1.99-4.32-.11-19.52-2.19-23.27-3.62-2.53-.97-15.43-12.86-19.57-15.92-2.73-2.02-17.14-12.28-19.05-12.67-3.92-.81-16.4,2.29-21.64,2.5-3.13.12-6.31.14-9.43-.14l-16.46-28.6c-1.9-7.25-2.45-14.49.54-21.49l-1.86-.97c2.43-4.66-1.23-3.39-2.74-4.62-.28-.23-3.81-5.82-3.91-6.17-.75-2.59.08-6.13-.42-9.16-.57-3.4-9.05-21.59-11.28-24.19-2.62-3.06-7.98-4.48-10.44-7.79-2.64-3.55-4.16-11.08-7.67-15.07,0-.51,0-1.01-.01-1.52.67-2.07,3.2-3.55,4.51-5.48,8.43-12.48,3.54-16.63,4.96-29.55,1.5-13.74,3.08-22.63,1.91-37.35-.39-4.94-3.48-15.12-2.87-19.1.3-1.94,4.74-8.61,5.93-11.4,3-7.04,6.73-15.36,9.18-22.46,4.43-12.86,2.38-19.75,14.32-28.82,5.97-4.53,15-6.72,19.9-11.75,5.3-5.45,8.13-16.12,13.04-22.43,5-6.42,12.68-9.6,18.26-15.3,10.19-10.4,25.7-34.7,38-40.63,10.08-4.87,15.18-2.65,13.88-17.41.11-.33.18-.67.18-1.03,0-1.89-1.59-3.46-3.47-3.47-19.67-.1-39.33-.2-59-.3-19.58-.1-39.17-.2-58.75-.3C43,.11,31.92.06,20.84,0c-1.88,0-3.47,1.6-3.47,3.47,0,1.01.47,1.93,1.18,2.57-3.19,7.67-4.59,16.04-4.17,24.32-1.06,1.84-1.7,3.99-1.8,6.34l-3.89,87.44c-.37,8.22-.73,16.44-1.1,24.66-.09,2.01.53,4.19,1.56,6.09-.47,24.13-.78,48.26-.89,72.39-.14,31.6.07,63.2.71,94.79.65,31.74,1.74,63.48,3.36,95.19.54,10.62,1.15,21.24,1.82,31.86-1.35.98-2.5,2.22-3.29,3.71-.43,1.03-.87,2.05-1.3,3.08-.61,2.29-.61,4.57,0,6.86.31,1.87.63,3.74.94,5.62-1.14.57-2.18,1.33-3.06,2.28-2.4,2.62-3.53,5.56-3.78,9.12-1.22,17.77-2.44,35.54-3.66,53.31-.22,3.16,1.59,6.94,3.78,9.12,2.24,2.24,5.91,3.92,9.12,3.78,1.46-.07,2.93-.32,4.33-.79.02,1.01.15,2.02.42,2.99.82,2.99,3.14,6.23,5.93,7.71,2.99,1.58,6.62,2.37,9.94,1.3,3.18-1.03,6.02-2.96,7.71-5.93,2.71-4.77,5.5-9.49,8.37-14.16,1.06,1.7,2.47,3.18,4.27,4.13,3.2,1.69,6.37,1.99,9.94,1.3,14.2-2.73,28.47-5.06,42.79-7.02,27.1-3.57,54.37-5.78,81.69-6.58,27.91-.82,55.87-.18,83.72,1.91,15.12,1.14,30.21,2.71,45.24,4.7,4.79.66,9.57,1.35,14.34,2.09,1.71.54,3.43.61,5.14.23,1.72-.08,3.31-.59,4.8-1.53.8-.47,1.57-1.08,2.3-1.77,31.61.03,63.23.06,94.84.09,32.67.03,65.33.06,98,.09,32.83.03,65.67.06,98.5.09,32.67.03,65.33.06,98,.09,32.67.03,65.33.06,98,.09,32.83.03,65.67.06,98.5.09,32.67.03,65.33.06,98,.09,32.83.03,65.67.06,98.5.09,32.67.03,65.33.06,98,.09s65.33.06,98,.09c8,0,16,.02,24,.02,3.31,0,6.78-1.44,9.12-3.78,2.21-2.21,3.88-5.82,3.77-9.01h6.06c.05-.81-.78-1.43-.96-1.92-2.48-6.69-4.43-13.76-6.69-20.54l14.91-31.14c4.94-7.52,14.7-4.46,22.1-6.68,3.41-2.6,1.05-14.03,10.63-20.05,5.4-3.4,22.62-4.5,24.13-7.53,1.37-2.73,1.17-8.41,2.58-11.8,1.08-2.59,3.71-4.73,5.09-7.37,3.5-6.67,12.42-26.64,12.59-33.45.08-3.27-2.27-5.43-2.52-7.69-.18-1.59,1.3-3.17.25-5.15Z"/>
  </g>
</svg>