<?xml version="1.0" encoding="UTF-8"?>
<svg id="Layer_2" data-name="Layer 2" xmlns="http://www.w3.org/2000/svg" viewBox="0 0 129.41 54.21">
  <defs>
    <style>
      .cls-1 {
        fill: #181818;
      }
    </style>
  </defs>
  <g id="Layer_6" data-name="Layer 6">
    <path class="cls-1" d="M4.67,25.56c.7-1.04,1.55-1.92,2.52-2.62l1.87-2.54c20.14.58,36.99,9.46,55.27,16.44,7.42,2.83,16.44,4.74,23.48,7.61,2.76,1.13,10.73,9.57,11.51,9.74,3.33.45,8.14-7.79,9.69-7.86l7.25,4.31,3.31-2.13c2.32-.19,3.63,4.35,5.34,2.5,1.94-2.09,4.03-10.53,4.49-17-3.87-1.05-7.73-2.12-11.59-3.19-.03-.23-.09-.45-.2-.65-.1-.22-.23-.32-.4-.45-.05-.04-.1-.07-.14-.11-.22-.22-.49-.38-.79-.46-.32-.09-.64-.09-.96,0l-.43.18c-.16.1-.3.22-.42.36.02-.05.04-.09.06-.14.09-.29.1-.57.04-.86-.01-.29-.1-.55-.26-.8,0,0-.01-.02-.02-.02-.11-.22-.25-.43-.43-.61-.03-.03-.06-.06-.09-.08-.09-.11-.2-.21-.33-.28-.21-.19-.45-.31-.71-.4-.19-.08-.38-.16-.57-.24-.23-.07-.45-.09-.68-.08-.02,0-.04,0-.06,0,0,0,.02,0,.03,0-.03,0-.06,0-.08,0-.73-.08-1.47.17-1.99.69-.3.31-.51.67-.63,1.08-.03.12-.04.23-.05.35-.01,0-.03,0-.04-.01-.03-.39-.13-.76-.33-1.1,0-.02-.02-.03-.03-.05-.02-.03-.05-.07-.06-.11-.03-.06-.06-.11-.1-.16-.04-.05-.07-.11-.1-.17-.03-.06-.08-.12-.12-.18,0,.01.02.02.03.03-.16-.22-.3-.45-.46-.67-.28-.37-.55-.76-.9-1.07-.26-.23-.55-.44-.83-.65-.09-.07-.18-.13-.28-.18-.1-.06-.2-.11-.3-.16-.32-.15-.65-.29-.98-.42-.22-.08-.44-.15-.66-.2-.35-.07-.71-.11-1.07-.15-.11-.01-.23-.02-.35-.02-.47,0-.93.07-1.4.14-.23.03-.45.09-.67.16-.34.11-.66.26-.99.41-.1.04-.18.11-.27.17-.35-.02-.7-.03-1.05-.05-.56-.03-1.13-.06-1.69-.06-.71,0-1.41.06-2.11.17-.09.01-.18.05-.28.07-5.37-1.53-10.74-3.05-16.12-4.54-2.53-.7-5.05-1.4-7.56-2.1-.11-.08-.22-.15-.32-.23-.62-.49-1.23-1-1.91-1.41-.46-.28-.96-.5-1.46-.67-.59-.2-1.22-.26-1.83-.29-.48-.03-.96-.04-1.44-.09-.86-.13-1.7-.35-2.51-.68-.26-.08-.53-.09-.79-.04-.16,0-.31.05-.46.11-.13-.13-.27-.23-.52-.41l-.03-.02s-.04-.03-.06-.04c-.04-.03-.07-.05-.11-.08-.21-.14-.45-.24-.69-.3-.04-.01-.09-.02-.13-.03-.43-.11-.85-.11-1.28,0-.05.01-.09.04-.14.06-.02,0-.04,0-.06.01-.17.07-.35.15-.52.22-.02,0-.03.02-.04.03-.25-.07-.51-.13-.76-.19-.02-.12-.03-.23-.05-.35-.05-.22-.15-.41-.3-.58-.12-.19-.28-.33-.48-.44-.07-.05-.14-.1-.21-.13-.08-.03-.15-.07-.23-.11-.28-.16-.58-.24-.91-.25-.16.02-.32.04-.48.06-.3.09-.57.24-.79.46-.12.11-.21.24-.28.38-1.4-.35-2.8-.68-4.2-1.01,0-.08,0-.17-.02-.25-.01-.28-.1-.54-.25-.78-.19-.32-.44-.57-.75-.75-.2-.11-.38-.19-.59-.23-.22-.04-.44-.1-.66-.09-.08,0-.15,0-.23.01-.04,0-.07,0-.11,0-.02,0-.04,0-.06,0-.55.03-.65.08-1.14.31-.06.03-.13.06-.2.09-.27.16-.49.38-.66.63-.36-.08-.72-.16-1.07-.24,0,0-.01-.01-.02-.02.01,0,.03.01.04.02-.11-.13-.17-.2-.33-.29-.14-.11-.3-.2-.48-.26-.17-.1-.35-.15-.54-.15-.17-.04-.34-.04-.52-.02-.22,0-.43.02-.65.08-.06.01-.11.03-.17.05-.02,0-.05.01-.07.02-.01,0-.02,0-.04,0-.8-.17-1.61-.34-2.41-.5.01-.03.03-.06.04-.1l.08-.57c0-.08-.02-.15-.03-.22,0-.1-.02-.2-.04-.31,0-.01,0-.02,0-.03-.06-.27-.16-.53-.27-.71l-.15-.2s-.06-.08-.11-.14c-.04-.05-.08-.1-.12-.15,0,0,0,0,0,0-.05-.06-.1-.12-.14-.18-.17-.13-.35-.27-.52-.4,0,0-.01,0-.02-.01-.03-.02-.07-.04-.1-.06-.02,0-.03-.02-.05-.03-.09-.05-.46-.2-.33-.14-.2-.08-.21-.11-.33-.14-.04-.01-.08-.02-.12-.03-.15-.04-.3-.08-.45-.11-.27-.07-.53-.13-.8-.2-.12-.11-.24-.21-.38-.29-.32-.19-.66-.28-1.03-.28-.1.01-.2.03-.31.04-.08.01-.22.02-.32.04-.01,0-.03,0-.04.01,0,0,0,0-.01,0-.17.07-.34.14-.51.22,0,0-.02,0-.02.01-.07.03-.15.09-.23.15-.25.15-.46.33-.61.57-.02.02-.04.05-.06.08-.21-.1-.42-.19-.63-.29.1-.2.17-.42.17-.65.07-.25.07-.5,0-.75-.02-.38-.13-.73-.33-1.05-.16-.26-.31-.46-.52-.65-.03-.03-.07-.06-.1-.09-.06-.06-.13-.13-.19-.2-.12-.14-.24-.28-.37-.42-.12-.13-.24-.25-.38-.36-.21-.17-.43-.34-.65-.5-.03-.02-.07-.05-.1-.07-.07-.04-.14-.08-.21-.12-.03-.02-.07-.03-.1-.05-.25-.11-.51-.22-.77-.32-.08-.03-.15-.05-.23-.08-.08-.02-.16-.04-.24-.05-.04,0-.08-.01-.11-.02-.28-.04-.56-.09-.84-.11-.16-.01-.32-.01-.49,0-.04,0-.08,0-.12.01-.28.03-.55.07-.83.11-.08.01-.16.03-.24.05-.01,0-.02,0-.03,0-.22.09-.43.18-.65.27,0,0-.01,0-.02,0-.02.01-.04.02-.06.04-.04.02-.07.05-.11.07-.04.03-.08.05-.11.08-.21.16-.42.31-.61.48-.07.06-.13.11-.19.18-.03.03-.06.06-.09.09,0,0-.01.02-.02.03-.07.08-.13.16-.19.25-.04.05-.08.1-.11.15-.03-.01-.06-.02-.09-.03-.29-.1-.57-.19-.86-.27-.58-.16-1.16-.28-1.75-.37-.4-.06-.8-.13-1.2-.16-.15-.01-.31,0-.46,0-.29.01-.59.02-.88.02-.3,0-.59,0-.89.03-.39.03-.79.09-1.18.15-.16.02-.31.05-.46.1-.83.24-1.61.68-2.21,1.3-.62.64-1.03,1.38-1.3,2.23-.14.42-.2.88-.16,1.32.02.19.04.38.06.57-2.72,1.12-5.44,2.21-8.17,3.31,1.21,5.26,3.07,10.38,4.67,15.54Z"/>
  </g>
</svg>