<?xml version="1.0" encoding="UTF-8"?>
<svg id="Layer_2" data-name="Layer 2" xmlns="http://www.w3.org/2000/svg" viewBox="0 0 191.51 84.44">
  <defs>
    <style>
      .cls-1 {
        fill: #181818;
      }
    </style>
  </defs>
  <g id="Layer_6" data-name="Layer 6">
    <path class="cls-1" d="M30.04,6.66s-.1.05-.15.08c-.21-.14-.51-.16-.72-.03-.1.06-.18.15-.24.24-.07.1-.08.22-.08.34,0,.02,0,.02,0,.04,0,.05,0,.1,0,.15,0,.06.02.12.03.18,0-.06-.02-.13-.03-.19,0,.24.11.48.18.71.08.25.16.48.27.71.17.34.35.68.54,1.01.23.38.49.75.78,1.1.23.29.48.55.76.79.33.28.68.54,1.06.73.38.19.79.35,1.2.44.33.07.66.09.99.09-.13.48-.27.96-.45,1.43-.07,0-.14.03-.21.03-6.19.42-20.59-7.35-26.08-5C-1.57,13.55-2.67,32.11,5.38,38.37c10.56,4.19,21.89,6.85,32.54,10.63,23.55,8.34,47.28,16.96,71.45,23.53,11.86,3.22,40.66,11.37,51.49,11.92,1.6.08,9.05-.9,9.86-2.21.45-.03.9-.07,1.35-.11.36.02.72.05,1.08.09,1.05.15,2.1.32,3.16.41,1.07.09,2.14.11,3.21.09,2.15-.03,4.29-.17,6.43-.27,1.22-.06,2.43-.12,3.65-.18.8-.04,1.67-.56,1.84-1.4.18-.86,0-1.69-.64-2.33-.41-.4-.98-.69-1.53-.81-.54-.12-1.12-.14-1.68-.2-.13-.38-.38-.72-.74-.96-1.47-.99-3.29-1.17-5.01-1.01-.37.03-.74.08-1.11.13-.28.04-.55.07-.83.11-.13.02-.26.03-.39.05-.77.1-1.54.18-2.31.16-.23,0-.46-.02-.69-.04-.02,0-.05,0-.07,0-.1,0-.2-.03-.29-.05-.46-.08-.91-.17-1.37-.28-.88-.2-1.76-.42-2.65-.55-1.01-.16-2.05-.3-3.08-.25-1.01.05-2.02.18-3.02.36-.12.02-.23.04-.35.06-.06.01-.12.02-.18.03-.02,0-.03,0-.05,0-.28.02-.56.05-.84.07.09-.01-.19,0-.21,0-.08,0-.18,0-.27-.01.34-.1.68-.2,1.02-.28.51-.12.82-.66.75-1.15-.06-.48-.51-.95-1.03-.91-.33.03-.65.03-.97,0-.59-.1-1.17-.27-1.73-.49.09.04.18.08.27.11-.27-.11-.54-.21-.81-.32,0,0,0-.01,0-.02,0,0,0,0,0,0,0,0,.01-.02.02-.03.01-.02,0-.04.02-.07,0-.02.01-.03.01-.05.07-.18.07-.39-.03-.55,0,0,0-.01-.01-.02-.01-.08-.04-.15-.07-.23-.04-.1-.08-.21-.13-.31-.04-.07-.12-.17-.17-.23-.02-.02-.03-.03-.05-.05-.01-.01-.02-.02-.03-.03l1.95.36c-.16-.61-.31-1.22-.46-1.83.08.02.16.04.24.05.25.04.5.09.75.13.99.17,1.97.33,2.96.5.33.06.66.14.98.24.06.03.12.07.18.1,0,0,.01.01.02.02.01.02.03.05.04.07.18.29.42.58.72.74.35.18.8.28,1.19.16.12-.05.25-.1.37-.16.18-.1.32-.23.43-.4.1-.1.16-.21.2-.34.1-.18.14-.38.13-.59-.02-.39-.15-.81-.44-1.08-.02-.03-.03-.05-.05-.08-.14-.19-.28-.4-.46-.56-.27-.24-.56-.45-.89-.59-.34-.15-.68-.28-1.04-.36-.37-.08-.75-.12-1.13-.17l-2.05-.27c-.33-.04-.65-.09-.98-.13-.16-.02-.33-.04-.49-.06-.18-.02-.36-.02-.54-.03-.19,0-.39-.03-.58-.04-.02,0-.04,0-.07,0-.21-1.95-.04-3.89.98-5.84-5.55-3.09-34.59-10.32-36.91-13.47-1.41-1.92-.64-5.3-3.09-6.5L53.72,21.24c-.88-2.83,3.15-1.92,3.63-4.42.15-.78-.55-3.22-1.06-3.91-.48-.65-5.88-4.75-6.88-4.97-3.4-.75-8.5,3.81-12.67,5.73.14-.53.24-1.07.32-1.62.17-.21.31-.43.38-.69.12-.41.05-.88-.22-1.22.02-2.97-.99-5.96-3.16-8.04-.61-.59-1.33-1.13-2.1-1.51-.4-.19-.81-.36-1.24-.49-.24-.07-.49-.1-.74-.1-.14,0-.27.02-.4.05.17-.04-.12.02-.12.02l-.16.07c.06-.03.05-.04-.02,0-.51.14-.53.78-.14,1.06,0,0,.03.02.04.04.05.04.17.12.1.07-.06-.04.02.02.03.02.07.04.14.12.21.16.18.1.38.21.58.28.08.03.16.06.23.09.01,0,.04.02.07.03,0,0,.01,0,.01,0,.16.07.32.15.48.23.29.16.58.33.85.51.07.05.14.09.2.14.01,0,.03.02.04.03,0,0,0,0,.02.02.14.11.28.23.41.35.25.22.48.46.7.71.05.06.11.13.16.19.02.03.04.06.07.08.02.03.03.04.04.04.03.04.06.09.07.11.06.08.11.16.16.23.2.29.38.6.53.92.04.09.08.17.12.26.01.03.01.03.02.04,0,0,0,0,0,.03.08.19.15.38.21.57.12.36.22.73.3,1.1.04.19.08.38.11.56,0,.04.01.08.02.12,0,.01,0,.01,0,.02,0,.05.01.11.02.16,0,.04,0,.07.01.09,0,0,0,0,0,0,.02.15.02.3.03.46,0,0,0,0,0,0-.02-.01-.04-.02-.06-.04-.05-.09-.09-.19-.15-.28-.22-.37-.51-.65-.85-.9-.25-.18-.52-.32-.8-.45-.35-.16-.71-.31-1.07-.45-.17-.06-.35-.12-.53-.18-.09-.03-.18-.05-.27-.07-.04-.01-.09-.02-.13-.03-.02,0-.04,0-.07-.01-.16-.03-.24-.03-.4,0,.06,0,.12-.02.18-.02-.25.03-.6.05-.8.24Z"/>
  </g>
</svg>