<?xml version="1.0" encoding="UTF-8"?>
<svg id="Layer_2" data-name="Layer 2" xmlns="http://www.w3.org/2000/svg" viewBox="0 0 57.76 47.97">
  <defs>
    <style>
      .cls-1 {
        fill: #2e303a;
      }
    </style>
  </defs>
  <g id="Layer_5" data-name="Layer 5">
    <path class="cls-1" d="M28.33,9.57c-.46.46-.93.91-1.42,1.33-.12.1-.24.2-.36.3-.05.04-.11.09-.16.13-.03.02-.05.04-.08.06-.26.19-.53.38-.8.56-.28.18-.56.34-.85.49-.14.07-.28.14-.42.21-.08.04-.16.07-.24.11-.06.02-.11.05-.17.07-.74.29-1.5.49-2.28.64-.34.07-.68.12-1.02.17-2.54.33-5.1.32-7.65.07-1.05-.1-2.11-.22-3.17-.22-1.06,0-2.17.1-3.17.48-.53.2-1.03.44-1.48.78-.55.41-.99.88-1.4,1.44-.7.97-1.18,2.12-1.61,3.24-.84,2.22-1.28,4.62-1.31,6.99-.04,2.37.33,4.77,1.11,7,.09.25.17.49.23.75,0,.05,0,.1,0,.15,0,.03-.02.06-.03.1-.03.05-.05.11-.09.15,0,.01-.03.05-.05.07-.01.01-.02.02-.03.03-.14.16-.28.32-.42.48-.31.38-.59.77-.79,1.22-.42.89-.64,1.84-.67,2.82-.08,1.98.62,3.87,1.58,5.57.54.96,1.17,1.86,1.79,2.76.22.32.55.51.94.45.36-.05.7-.31.79-.68.08-.31.18-.62.3-.92.2-.45.44-.87.73-1.27.04-.05.08-.11.12-.16,0,0,0,0,0,0,.09-.11.17-.21.27-.32.17-.2.36-.4.55-.59.4-.4.82-.77,1.25-1.13.23-.19.45-.37.68-.55.1-.08.2-.15.29-.23,0,0,.01-.01.02-.02.06-.05.13-.1.19-.15,1.92-1.47,3.94-2.92,5.23-5,.93-1.5,1.32-3.23,1.98-4.85.31-.71.7-1.38,1.16-2,.47-.58,1-1.11,1.58-1.58.62-.46,1.28-.85,1.99-1.16.53-.22,1.09-.39,1.65-.49.13-.01.26-.01.39,0,.05.01.1.02.15.04.02.01.04.02.05.03,0,0,.02.02.02.02,0,0,.01.02.02.03,0,.02,0,.05,0,.07,0-.02,0-.04,0-.06,0,0,0,0,0,0,0,0,0,.01,0,.02-.01.19,0,.38.11.56.07.11.17.22.29.3.04.04.08.08.12.12.06.05.12.1.18.14.06.05.15.07.22.09.03,0,.06.02.09.02.01,0,.03,0,.04,0,.08.01.17.02.25.03.03,0,.06,0,.1,0,.04,0,.07,0,.11,0,.02,0,.04,0,.05,0,.09-.01.18-.02.26-.04.1-.02.2-.07.27-.14.09-.06.16-.13.21-.23,0-.01,0-.03.01-.05.08-.09.1-.2.08-.32,0-.09.02-.17-.01-.26,0-.01-.01-.03-.02-.04h0s0-.03,0-.04c0-.2-.01-.39,0-.59,0-.09.01-.18.02-.27,0-.05,0-.1.01-.15,0,0,0,0,0,0,0-.03.03-.21.03-.24,0,0,0,0,0,0,.01-.03.02-.11.02-.13.01-.06.02-.13.04-.19.04-.18.08-.35.13-.53.02-.08.05-.16.08-.24.02-.05.03-.09.05-.14.02-.05.07-.13.07-.19.01-.03.03-.06.04-.09.05-.06.09-.19.12-.27.09-.18.18-.36.29-.53.09-.16.19-.31.3-.46.05-.07.09-.13.14-.19,0,0,0,0,0,0,.04-.05.08-.1.13-.16.25-.3.53-.57.82-.83.08-.07.16-.14.24-.2.03-.02.05-.04.08-.07,0,0,0,0,0,0,.03-.01.09-.07.12-.09.04-.03.08-.06.13-.09.08-.06.17-.12.26-.18.33-.22.68-.42,1.03-.6.17-.09.34-.17.52-.25.05-.02.1-.04.14-.06,0,0,.01,0,.02,0-.01,0-.01,0-.03.01.1-.03.19-.08.29-.12.37-.15.75-.27,1.14-.39.86-.26,1.74-.44,2.61-.62,1.67-.35,3.38-.78,4.82-1.75.81-.55,1.53-1.24,2.02-2.1.51-.88.81-1.88,1.2-2.82.61-1.44,1.31-2.84,2.11-4.19.2-.34.4-.67.62-.99.05-.07.1-.14.15-.21,0,0,0,0,0-.01,0,0,0,0-.02.02.03-.02.05-.06.07-.09.13-.16.26-.31.41-.45.11-.11.23-.22.35-.31-.02.02-.01.02.07-.06,0,0-.02.01-.02.02-.01,0-.02.02-.04.03,0,0,.01-.01.02-.02,0,0,0,0,.01,0,.02-.01.04-.03.05-.04-.02.01-.02.02-.03.03.07-.05.14-.1.21-.15.28-.19.58-.35.88-.49.02-.01.05-.02.07-.03.01,0,.02,0,.04-.01.09-.03.17-.07.26-.1.18-.06.37-.12.56-.17.35-.1.7-.16,1.06-.21.85-.1,1.7-.1,2.55,0,.51.08,1.02.18,1.51.36.07.02.28.13.02,0,.05.02.09.04.14.07.06.03.12.06.18.1.04.03.09.06.13.09h0s.08.08.12.12c.07.07.14.15.21.23,0,0,0,0,0,0,.02.03.05.06.07.1.1.13.19.27.29.39.13.16.27.31.41.46.04.04.08.07.12.11.04.03.08.06.12.09.12.09.12.09-.03-.02.11.11.25.21.39.29.1.06.2.1.31.13.07.06.16.11.26.14.25.08.47.01.67-.11.01,0,.03,0,.04,0,.29-.12.42-.42.36-.72,0-.09-.03-.18-.07-.26-.05-.23-.11-.45-.18-.67,0-.02-.02-.05-.03-.07,0-.11-.04-.2-.09-.3-.03-.07-.07-.13-.11-.2-.08-.15-.16-.3-.24-.44-.35-.6-.8-1.15-1.3-1.64-.95-.94-2.09-1.7-3.31-2.25-1.44-.64-2.96-1-4.53-1.12-1.69-.13-3.4.03-5.06.35-1.54.3-3.06.73-4.51,1.3-1.47.57-2.89,1.28-4.16,2.21-2.21,1.61-3.9,3.74-5.82,5.66Z"/>
  </g>
</svg>