<?xml version="1.0" encoding="UTF-8"?>
<svg id="Layer_2" data-name="Layer 2" xmlns="http://www.w3.org/2000/svg" viewBox="0 0 62.2 42.65">
  <defs>
    <style>
      .cls-1 {
        fill: #2e303a;
      }
    </style>
  </defs>
  <g id="Layer_5" data-name="Layer 5">
    <path class="cls-1" d="M57.66,9.29c.07-.13.13-.26.19-.4.1-.21.19-.41.29-.62.03.12.07.24.1.36.07.26.14.52.23.77.08.21.18.42.29.62.12.21.28.39.44.57.16.14.35.24.56.29.23.05.45.05.68,0,.29-.09.58-.2.82-.36.16-.11.32-.21.46-.34.1-.09.2-.2.28-.3.03-.05.06-.1.08-.16.08-.13.12-.28.11-.43,0-.1-.02-.23-.06-.33,0-.02-.03-.04-.04-.07,0-.09-.01-.19-.04-.28-.26-.69-.52-1.38-.79-2.06-.13-.34-.27-.68-.42-1.01-.15-.33-.31-.67-.46-1-.11-.24-.23-.48-.34-.72-.05-.1-.11-.18-.18-.27-.05-.07-.11-.13-.16-.2v-.02s0,0,0,.01c0-.01-.01-.02-.02-.03l-.04-.08c-.04-.07-.1-.13-.18-.17-.02-.02-.05-.02-.07-.04-.15-.17-.31-.32-.45-.47-.21-.61-.4-1.22-.62-1.83-.2-.56-.8-.83-1.44-.72-3.19.57-6.38,1.14-9.49,1.97-3.14.84-6.23,1.84-9.32,2.81-3.12.98-6.27,1.91-9.41,2.86-3.01.91-6.02,1.8-8.99,2.8-1.51.51-3,1.04-4.47,1.62-1.29.5-2.53,1.1-3.74,1.73-.02,0-.04.01-.07.02-.17.05-.35.11-.52.16-.09.03-.18.05-.27.08-.08.03-.17.05-.24.09-.06.03-.35.22-.15.1-.06.04-.12.09-.17.15,0-.02-.02-.03-.03-.05-.49.9-.77,1.93-1.21,2.83-.66,1.35-1.35,2.69-2.04,4.03-1.36,2.63-2.74,5.25-4.03,7.91-.74,1.52-1.51,3.03-2.3,4.53-.03.02-.05.04-.08.05-.06.07-.12.14-.19.21-.09.12-.13.25-.14.39-.04.24.02.45.14.67,1.09,1.92,2.32,3.78,3.67,5.57.05.07.1.13.15.2.12.26.25.52.41.76.26.37.59.69,1.03.91.21.11.47.15.73.13.04.01.07.03.11.04.23.05.45.05.68,0,.38-.06.76-.21,1.07-.42.14-.09.28-.19.41-.3.2-.14.38-.29.51-.49.17-.26.27-.58.26-.89-.04-.82-.63-1.48-1.11-2.14-.59-.81-1.17-1.61-1.76-2.42.61-.21,1.23-.4,1.83-.61,2.41-.83,4.72-1.85,7.11-2.72,4.95-1.79,9.98-3.47,15.02-5.05,5.11-1.6,10.14-3.25,15.03-5.33,1.36-.58,2.71-1.12,4.08-1.63h0c.12.24.25.47.37.7.23.45.49.9.71,1.36.11.22.22.44.33.66.12.26.24.51.35.77.15.35.27.72.47,1.05.06.1.15.18.26.25.02.02.05.02.08.03.02.04.04.07.05.11-.02-.03-.03-.06-.05-.1.06.13.12.25.24.36.1.09.22.16.35.2.13.06.27.09.42.08.2,0,.38-.04.55-.13.06-.02.12-.05.17-.08.24-.07.48-.12.72-.19.15-.05.31-.1.45-.17.1-.04.18-.1.27-.16.22-.15.42-.32.54-.55.04-.08.08-.16.12-.25.05-.14.06-.27.02-.41,0-.07-.03-.12-.06-.18.03-.16.03-.32-.02-.48-.02-.11-.05-.22-.1-.33-.08-.19-.17-.37-.27-.55-.08-.13-.17-.26-.27-.38,0-.01-.01-.02-.02-.03-.21-.35-.45-.68-.69-1.01-.07-.13-.15-.25-.21-.38-.26-.57-.5-1.15-.8-1.71-.04-.08-.1-.17-.15-.25.52-1.06,1.05-2.12,1.58-3.19.98-1.95,1.81-3.95,2.62-5.96,0,0,0-.01,0-.02.03-.05.06-.1.09-.15l.13-.22Z"/>
  </g>
</svg>