<?xml version="1.0" encoding="UTF-8"?>
<svg id="Layer_2" data-name="Layer 2" xmlns="http://www.w3.org/2000/svg" viewBox="0 0 24.19 30.65">
  <defs>
    <style>
      .cls-1 {
        fill: #2f313b;
      }
    </style>
  </defs>
  <g id="Layer_5" data-name="Layer 5">
    <path class="cls-1" d="M.75,6.59c.18.21.34.42.49.64.58.83.99,1.73,1.37,2.68.04.09.07.19.1.28.21.36.39.73.5,1.12,1.13,1.78,1.55,5.37,2.65,7.53,2.21,4.32,5.15,5.81,5.01,11.38,0,.14,0,.27,0,.41h2.83c-.08-.5-.06-.94.03-1.33,0,0,0-.01,0-.02h0c.92-3.92,9.57-2.56,10.39-6.58.02-.12.05-.24.06-.37.06-.84-.31-1.27-.79-1.54-.65-.37-1.5-.46-1.77-.9-.59-.96-.36-4.11-1.14-6.07-1.75-4.47-5.11-7.91-4.97-12.59.01-.4.04-.81.11-1.24-.33.11-.66.23-.98.35C10.29,2.05,6.33,5.13,1.69,5.75c-.55.07-1.11.12-1.69.12.26.23.52.47.75.73Z"/>
  </g>
</svg>