<svg xmlns="http://www.w3.org/2000/svg" xmlns:xlink="http://www.w3.org/1999/xlink" width="1080" zoomAndPan="magnify" viewBox="0 0 810 1439.999935" height="1920" preserveAspectRatio="xMidYMid meet" version="1.2"><defs><clipPath id="96f4eda8a3"><path d="M 362.792969 315.628906 L 479.792969 315.628906 L 479.792969 517.378906 L 362.792969 517.378906 Z M 362.792969 315.628906 "/></clipPath><clipPath id="56344037b1"><path d="M 362.792969 107 L 479.792969 107 L 479.792969 300.324219 L 362.792969 300.324219 Z M 362.792969 107 "/></clipPath></defs><g id="a4f0dd5ec1"><rect x="0" width="810" y="0" height="1439.999935" style="fill:#ffffff;fill-opacity:1;stroke:none;"/><rect x="0" width="810" y="0" height="1439.999935" style="fill:#ffffff;fill-opacity:1;stroke:none;"/><g clip-rule="nonzero" clip-path="url(#96f4eda8a3)"><path style=" stroke:none;fill-rule:nonzero;fill:#000000;fill-opacity:1;" d="M 399.21875 1118.554688 C 399.949219 1117.613281 400.574219 1116.777344 401.203125 1115.839844 C 403.496094 1112.179688 405.585938 1108.523438 407.777344 1104.867188 C 409.96875 1101.210938 412.265625 1097.449219 414.457031 1093.789062 C 415.394531 1092.328125 416.230469 1090.761719 417.171875 1089.191406 C 417.171875 1093.269531 417.066406 1097.34375 417.171875 1101.417969 C 417.585938 1117.300781 419.257812 1133.183594 422.074219 1148.753906 C 424.789062 1164.011719 428.753906 1178.953125 434.601562 1193.269531 C 437.523438 1200.582031 440.863281 1207.792969 444.722656 1214.6875 C 448.792969 1222.003906 452.550781 1227.542969 457.667969 1234.125 C 459.960938 1236.945312 462.257812 1239.871094 464.761719 1242.484375 C 467.269531 1245.097656 470.296875 1247.5 473.21875 1249.800781 C 474.15625 1250.53125 475.410156 1250.738281 476.453125 1250.007812 C 477.289062 1249.382812 477.808594 1247.8125 477.078125 1246.871094 C 474.679688 1243.738281 472.589844 1240.289062 470.191406 1237.15625 C 468 1234.230469 465.910156 1231.199219 463.929688 1228.167969 C 459.859375 1221.898438 456.203125 1215.316406 452.96875 1208.523438 C 452.132812 1206.851562 451.402344 1205.179688 450.671875 1203.507812 C 450.359375 1202.777344 450.046875 1201.941406 449.628906 1201.210938 C 449.628906 1201.210938 449.316406 1200.582031 449.316406 1200.375 C 449.109375 1199.851562 448.898438 1199.328125 448.691406 1198.804688 C 447.332031 1195.359375 445.976562 1191.910156 444.828125 1188.460938 C 444.308594 1186.894531 443.890625 1185.328125 443.367188 1183.65625 C 443.574219 1183.65625 443.679688 1183.65625 443.890625 1183.550781 C 444.515625 1183.445312 445.039062 1183.339844 445.664062 1183.132812 C 447.960938 1182.402344 450.359375 1181.773438 452.65625 1181.148438 C 453.28125 1180.9375 453.910156 1180.730469 454.535156 1180.625 L 456.519531 1180.207031 C 457.457031 1179.894531 458.292969 1179.476562 459.023438 1178.742188 C 459.542969 1178.222656 459.960938 1177.59375 460.171875 1176.863281 C 460.484375 1176.132812 460.691406 1175.398438 460.691406 1174.667969 C 460.691406 1173.625 460.378906 1172.683594 459.960938 1171.742188 C 459.648438 1171.21875 459.230469 1170.699219 458.8125 1170.175781 C 458.710938 1170.070312 458.605469 1169.859375 458.5 1169.757812 C 458.292969 1169.441406 457.980469 1169.234375 457.769531 1169.023438 C 456.832031 1168.292969 455.996094 1167.5625 454.847656 1167.039062 C 453.804688 1166.515625 452.65625 1166.097656 451.507812 1165.890625 C 450.671875 1165.785156 449.839844 1165.578125 449.003906 1165.578125 C 448.691406 1165.578125 448.273438 1165.578125 447.960938 1165.578125 C 447.125 1165.578125 446.289062 1165.785156 445.453125 1165.996094 C 444.828125 1166.097656 444.203125 1166.515625 443.679688 1166.832031 C 443.679688 1166.832031 443.472656 1166.832031 443.472656 1166.933594 C 443.261719 1167.039062 443.160156 1167.25 442.949219 1167.351562 C 442.53125 1167.667969 442.21875 1168.085938 441.90625 1168.398438 C 441.90625 1168.292969 442.113281 1168.191406 442.21875 1167.980469 C 442.011719 1168.1875 441.90625 1168.398438 441.800781 1168.503906 C 441.800781 1168.503906 441.699219 1168.503906 441.59375 1168.710938 C 441.59375 1168.710938 440.863281 1169.546875 440.550781 1170.070312 C 440.550781 1170.070312 440.339844 1170.070312 440.234375 1170.070312 C 440.027344 1170.070312 439.921875 1170.070312 439.714844 1170.070312 C 439.402344 1168.710938 438.984375 1167.351562 438.671875 1165.996094 C 436.894531 1158.472656 435.433594 1150.738281 434.285156 1143.109375 C 434.183594 1142.273438 434.078125 1141.4375 433.871094 1140.601562 C 433.871094 1140.5 433.871094 1139.976562 433.765625 1139.664062 C 433.765625 1139.664062 433.765625 1139.871094 433.765625 1140.183594 C 433.765625 1139.664062 433.660156 1139.140625 433.554688 1138.617188 C 433.347656 1136.738281 433.140625 1134.855469 432.929688 1132.976562 C 432.511719 1129.003906 432.199219 1125.136719 431.886719 1121.167969 C 430.738281 1104.972656 430.632812 1088.773438 431.261719 1072.578125 C 431.886719 1054.8125 433.347656 1037.15625 434.703125 1019.390625 C 434.703125 1019.390625 434.703125 1019.285156 434.808594 1019.183594 C 434.808594 1019.183594 434.808594 1019.285156 434.808594 1019.390625 C 434.808594 1019.285156 434.808594 1019.183594 434.808594 1019.078125 C 434.808594 1019.078125 434.808594 1019.078125 434.808594 1018.972656 C 435.121094 1018.660156 435.332031 1018.347656 435.644531 1018.136719 C 435.957031 1017.929688 436.269531 1017.71875 436.480469 1017.511719 C 436.375 1017.613281 436.164062 1017.71875 436.0625 1017.824219 C 436.164062 1017.71875 436.375 1017.613281 436.480469 1017.511719 C 436.792969 1018.03125 437 1018.660156 437.417969 1019.183594 C 437.835938 1019.601562 438.253906 1019.914062 438.773438 1020.332031 C 439.296875 1020.75 439.714844 1021.0625 440.234375 1021.375 C 441.28125 1022.003906 442.429688 1022.421875 443.574219 1022.839844 C 444.828125 1023.257812 446.082031 1023.363281 447.332031 1023.464844 C 450.359375 1023.882812 453.492188 1023.570312 456.519531 1023.464844 C 458.605469 1023.257812 460.691406 1023.046875 462.78125 1022.628906 C 464.554688 1022.316406 466.226562 1021.691406 467.894531 1021.0625 C 468.832031 1020.644531 469.773438 1020.226562 470.609375 1019.703125 C 471.652344 1019.078125 472.695312 1018.242188 473.636719 1017.511719 C 474.050781 1017.09375 474.574219 1016.675781 474.886719 1016.257812 C 475.617188 1015.421875 476.347656 1014.480469 476.871094 1013.539062 C 477.183594 1013.015625 477.496094 1012.496094 477.707031 1011.972656 C 478.121094 1010.925781 478.644531 1009.882812 478.957031 1008.734375 C 479.269531 1007.6875 479.375 1006.539062 479.480469 1005.390625 C 479.480469 1004.761719 479.480469 1004.136719 479.480469 1003.613281 C 479.375 1001.3125 478.855469 999.328125 477.808594 997.238281 C 477.390625 996.296875 476.660156 995.460938 475.929688 994.625 C 475.199219 993.789062 474.367188 993.164062 473.425781 992.535156 C 471.339844 991.074219 468.9375 990.445312 466.433594 990.238281 C 465.703125 990.238281 464.972656 990.238281 464.242188 990.238281 C 462.988281 990.34375 461.632812 990.550781 460.484375 990.863281 C 458.5 991.386719 456.519531 992.222656 454.640625 993.164062 C 453.074219 993.894531 451.613281 994.730469 450.152344 995.566406 C 446.8125 997.449219 443.367188 999.328125 440.027344 1001.210938 C 438.460938 1002.046875 436.792969 1002.984375 435.226562 1003.820312 C 436.375 988.042969 437.417969 972.265625 437.730469 956.484375 C 438.042969 937.46875 437.417969 918.347656 435.019531 899.433594 C 432.511719 880.625 428.753906 862.023438 424.371094 843.527344 C 421.03125 829.734375 417.691406 815.941406 414.457031 802.042969 C 414.457031 802.042969 414.5625 802.042969 414.664062 802.042969 L 415.605469 802.042969 C 416.230469 802.359375 416.960938 802.359375 417.585938 802.148438 C 418.734375 802.042969 418.527344 802.148438 419.570312 801.625 C 419.988281 801.417969 420.300781 801.3125 420.71875 801.105469 C 420.925781 801.105469 421.136719 800.894531 421.34375 800.789062 C 422.074219 800.476562 422.804688 800.058594 423.535156 799.746094 C 425 798.910156 426.5625 798.074219 427.921875 797.238281 C 431.261719 795.148438 434.390625 792.746094 437.417969 790.027344 C 439.921875 787.832031 442.21875 785.324219 444.308594 782.714844 C 445.246094 781.5625 446.082031 780.414062 446.8125 779.160156 C 447.542969 777.90625 448.0625 776.652344 448.585938 775.292969 C 448.898438 774.5625 449.109375 773.726562 449.210938 772.996094 C 449.316406 772.054688 449.523438 771.113281 449.523438 770.070312 C 449.523438 769.128906 449.316406 768.085938 449.210938 767.144531 C 449.003906 765.890625 448.480469 764.53125 447.855469 763.382812 C 447.75 763.171875 447.542969 762.859375 447.4375 762.652344 C 446.914062 761.917969 446.394531 761.1875 445.769531 760.5625 C 444.097656 758.890625 442.011719 757.738281 439.820312 757.007812 C 438.671875 756.695312 437.417969 756.484375 436.269531 756.382812 C 435.644531 756.382812 435.019531 756.382812 434.390625 756.382812 C 433.140625 756.382812 431.992188 756.589844 430.738281 756.902344 C 429.589844 757.21875 428.441406 757.738281 427.398438 758.15625 C 426.773438 758.472656 426.144531 758.785156 425.625 759.308594 C 424.582031 760.144531 423.535156 760.875 422.597656 761.816406 C 421.65625 762.753906 420.925781 763.800781 420.09375 764.84375 C 419.675781 765.472656 419.152344 766.097656 418.839844 766.832031 C 418.003906 768.1875 417.378906 769.652344 416.753906 771.113281 C 416.023438 772.890625 415.292969 774.667969 414.5625 776.445312 C 413.621094 778.742188 412.683594 781.042969 411.847656 783.445312 C 411.535156 784.28125 411.222656 785.117188 410.90625 785.953125 C 409.238281 778.21875 407.566406 770.382812 406.316406 762.546875 C 406.003906 760.457031 405.6875 758.367188 405.375 756.277344 C 405.375 755.648438 405.167969 755.023438 405.167969 754.5 C 405.167969 754.5 405.167969 754.292969 405.167969 754.1875 C 404.957031 753.039062 404.855469 751.886719 404.75 750.738281 C 404.125 746.035156 403.707031 741.335938 403.394531 736.527344 C 402.035156 717.613281 402.558594 698.597656 404.125 679.789062 C 404.542969 674.980469 405.0625 670.070312 405.585938 665.261719 C 405.792969 662.964844 406.105469 660.664062 406.421875 658.367188 C 406.523438 657.320312 406.734375 656.277344 406.835938 655.230469 C 406.835938 654.605469 407.046875 653.976562 407.046875 653.351562 C 407.046875 653.246094 407.046875 653.351562 407.046875 653.140625 C 407.046875 653.039062 407.046875 653.039062 407.046875 652.722656 C 408.402344 643.214844 409.863281 633.601562 411.429688 624.09375 C 414.5625 605.179688 418.003906 586.371094 421.03125 567.5625 C 423.746094 550.632812 425.9375 533.601562 427.816406 516.570312 C 427.921875 516.570312 428.128906 516.359375 428.339844 516.253906 C 428.023438 516.464844 427.921875 516.570312 428.128906 516.359375 C 428.128906 516.359375 428.234375 516.359375 428.339844 516.253906 C 429.484375 516.253906 430.632812 516.253906 431.574219 516.046875 C 441.382812 513.328125 450.257812 508.3125 458.082031 501.730469 C 461.945312 498.386719 465.285156 494.625 468.417969 490.550781 C 471.027344 487.101562 473.320312 483.445312 475.199219 479.472656 C 476.347656 477.070312 477.390625 474.5625 477.808594 471.949219 C 478.4375 468.503906 478.644531 465.472656 477.808594 462.023438 C 477.496094 460.5625 476.871094 458.992188 476.035156 457.738281 C 475.511719 456.800781 474.78125 455.960938 474.050781 455.125 C 473.738281 454.8125 473.425781 454.5 473.113281 454.1875 C 472.277344 453.558594 471.339844 452.722656 470.296875 452.199219 C 469.25 451.679688 468 451.050781 466.851562 450.84375 C 464.242188 450.320312 462.257812 450.320312 459.648438 450.84375 C 459.128906 450.84375 458.710938 451.050781 458.1875 451.261719 C 457.039062 451.679688 455.890625 452.199219 454.847656 452.722656 C 453.28125 453.558594 451.820312 454.707031 450.464844 455.859375 C 448.0625 457.738281 446.289062 460.144531 444.515625 462.546875 C 441.382812 466.621094 438.359375 470.90625 435.75 475.292969 C 434.390625 477.488281 433.242188 479.683594 431.992188 481.980469 C 431.574219 482.816406 431.261719 483.652344 430.84375 484.386719 C 433.140625 453.871094 434.285156 423.152344 434.285156 392.535156 C 434.285156 353.769531 432.824219 315.105469 430.320312 276.441406 C 427.921875 237.675781 424.582031 199.117188 420.925781 160.457031 C 420.09375 150.84375 419.152344 141.230469 417.902344 131.71875 C 417.585938 129.421875 416.960938 127.4375 415.292969 125.765625 C 414.039062 124.511719 411.324219 123.359375 409.027344 123.359375 C 404.332031 123.570312 399.21875 127.4375 399.742188 132.660156 C 400.15625 137.570312 400.367188 142.484375 400.886719 147.394531 C 401.304688 152.304688 401.828125 157.214844 402.246094 162.128906 C 403.183594 171.742188 404.019531 181.355469 404.855469 190.96875 C 406.628906 210.402344 408.296875 229.839844 409.761719 249.273438 C 412.785156 288.042969 415.082031 326.808594 415.917969 365.679688 C 416.230469 378.535156 416.335938 391.28125 416.230469 404.132812 C 415.8125 403.820312 415.394531 403.402344 414.976562 403.089844 C 413.621094 402.148438 411.953125 401.523438 410.386719 400.894531 C 409.34375 400.476562 408.296875 400.164062 407.253906 399.953125 C 405.585938 399.640625 403.914062 399.328125 402.347656 399.328125 C 401.828125 399.328125 401.304688 399.328125 400.886719 399.328125 C 399.742188 399.433594 398.59375 399.535156 397.546875 399.851562 C 397.027344 399.953125 396.609375 400.058594 396.085938 400.269531 C 395.042969 400.6875 394 401.105469 393.058594 401.625 C 392.121094 402.148438 391.285156 402.878906 390.453125 403.507812 C 390.136719 403.820312 389.824219 404.03125 389.511719 404.449219 C 388.886719 405.179688 388.15625 406.121094 387.632812 407.058594 C 387.214844 407.792969 386.902344 408.628906 386.589844 409.359375 C 386.589844 409.566406 386.378906 409.777344 386.378906 410.089844 C 385.859375 412.285156 385.859375 414.480469 386.378906 416.671875 C 386.589844 417.71875 387.113281 418.761719 387.527344 419.703125 C 387.738281 420.121094 387.945312 420.539062 388.257812 420.851562 C 388.886719 421.6875 389.511719 422.628906 390.347656 423.359375 C 391.183594 424.09375 392.121094 424.824219 392.957031 425.449219 C 395.148438 427.121094 397.652344 428.167969 400.15625 429.210938 C 402.558594 430.152344 405.0625 431.09375 407.566406 431.511719 C 408.925781 431.824219 410.28125 431.929688 411.636719 432.136719 C 412.265625 432.136719 412.996094 432.136719 413.621094 432.136719 C 414.351562 432.136719 415.1875 431.929688 415.917969 431.824219 C 415.5 448.441406 414.875 465.160156 413.621094 481.773438 C 412.265625 501.105469 410.386719 520.433594 407.777344 539.765625 C 407.777344 540.289062 407.671875 540.707031 407.566406 541.230469 C 407.359375 542.484375 407.253906 543.84375 407.046875 545.097656 C 406.734375 547.5 406.316406 549.902344 406.003906 552.410156 C 405.273438 557.113281 404.542969 561.816406 403.8125 566.515625 C 402.246094 576.128906 400.574219 585.847656 399.007812 595.460938 C 397.863281 602.359375 396.714844 609.253906 395.566406 616.046875 C 394.207031 613.539062 392.746094 611.136719 390.765625 609.046875 C 389.511719 607.792969 388.050781 606.640625 386.589844 605.597656 C 385.128906 604.550781 383.457031 603.820312 381.683594 603.195312 C 381.164062 602.984375 380.640625 602.878906 380.015625 602.777344 C 379.179688 602.566406 378.34375 602.460938 377.40625 602.460938 C 377.089844 602.460938 376.882812 602.460938 376.570312 602.460938 C 375.421875 602.460938 374.273438 602.671875 373.125 602.878906 C 372.082031 603.089844 370.933594 603.613281 369.996094 604.132812 C 368.949219 604.65625 368.117188 605.386719 367.28125 606.121094 C 366.445312 606.851562 365.820312 607.792969 365.089844 608.628906 C 364.777344 609.046875 364.460938 609.566406 364.253906 609.984375 C 363.835938 610.925781 363.316406 611.972656 363.105469 613.121094 C 363.105469 613.328125 363 613.644531 363 613.851562 C 362.898438 614.6875 362.6875 615.628906 362.6875 616.464844 C 362.6875 616.988281 362.6875 617.613281 362.6875 618.136719 C 362.792969 619.285156 362.898438 620.4375 363.210938 621.480469 C 363.523438 622.527344 363.941406 623.570312 364.460938 624.617188 C 364.671875 625.136719 364.984375 625.660156 365.402344 626.078125 C 366.132812 627.019531 366.863281 628.0625 367.699219 628.898438 C 368.535156 629.734375 369.472656 630.46875 370.410156 631.09375 C 370.933594 631.511719 371.457031 631.824219 372.082031 632.035156 C 373.75 632.871094 375.527344 633.601562 377.300781 634.125 C 377.925781 634.230469 378.554688 634.4375 379.179688 634.4375 C 380.535156 634.648438 381.789062 634.855469 383.144531 634.855469 C 385.335938 634.855469 387.527344 634.648438 389.71875 634.332031 C 390.765625 634.230469 391.703125 633.914062 392.746094 633.707031 C 388.78125 659.308594 385.648438 685.117188 385.441406 711.03125 C 385.234375 730.46875 386.902344 749.902344 390.136719 769.023438 C 393.269531 787.3125 397.652344 805.285156 402.347656 823.152344 C 405.6875 836.003906 409.027344 848.859375 412.160156 861.710938 C 411.429688 861.710938 410.59375 861.398438 409.863281 861.398438 C 405.898438 861.1875 401.722656 861.710938 397.964844 862.964844 C 395.878906 863.695312 393.792969 864.53125 391.914062 865.578125 C 390.035156 866.621094 388.363281 867.875 386.695312 869.234375 C 383.769531 871.53125 381.371094 874.457031 379.285156 877.59375 C 378.136719 879.265625 377.300781 881.144531 376.464844 883.027344 C 375.628906 885.011719 375.003906 886.894531 374.484375 888.984375 C 374.691406 888.460938 374.898438 887.9375 375.109375 887.414062 C 374.585938 888.355469 374.066406 889.402344 373.960938 890.445312 C 373.75 891.699219 373.648438 892.851562 373.960938 894.105469 C 374.167969 894.625 374.378906 895.148438 374.691406 895.777344 C 375.109375 896.613281 375.734375 897.238281 376.464844 897.65625 C 376.882812 898.074219 377.40625 898.386719 378.03125 898.492188 C 378.554688 898.804688 379.179688 898.910156 379.804688 898.910156 C 380.429688 899.121094 381.058594 899.121094 381.578125 898.910156 C 382.519531 898.910156 383.355469 898.597656 384.085938 898.074219 C 393.6875 892.746094 403.394531 887.519531 412.890625 882.085938 C 414.039062 881.460938 415.1875 880.832031 416.335938 880.207031 C 418.003906 888.148438 419.464844 895.984375 420.613281 904.03125 C 420.613281 904.136719 420.613281 904.03125 420.613281 904.238281 C 420.613281 904.238281 420.613281 904.238281 420.613281 904.449219 L 420.613281 905.703125 C 420.925781 906.957031 421.03125 908.210938 421.242188 909.464844 C 421.554688 911.972656 421.761719 914.585938 421.972656 917.09375 C 422.390625 921.792969 422.703125 926.390625 422.910156 931.09375 C 424.789062 969.964844 420.511719 1008.835938 418.109375 1047.605469 C 417.585938 1055.964844 417.171875 1064.425781 416.855469 1072.890625 C 416.230469 1072.890625 415.5 1072.996094 414.976562 1073.414062 C 414.144531 1073.9375 413.414062 1074.5625 412.785156 1075.191406 C 410.804688 1074.980469 408.820312 1075.191406 406.941406 1075.714844 C 405.6875 1076.027344 404.542969 1076.550781 403.496094 1077.175781 C 402.765625 1077.59375 402.035156 1078.011719 401.304688 1078.535156 C 399.425781 1079.894531 397.757812 1081.355469 396.191406 1083.027344 C 393.582031 1085.953125 391.183594 1089.191406 388.675781 1092.222656 C 387.320312 1093.894531 385.964844 1095.566406 384.605469 1097.34375 C 383.144531 1099.222656 381.578125 1101.105469 380.222656 1102.984375 C 379.074219 1104.65625 378.136719 1106.539062 377.40625 1108.523438 C 377.089844 1109.253906 376.882812 1109.988281 376.777344 1110.71875 C 376.570312 1111.867188 376.359375 1113.121094 376.464844 1114.269531 C 376.675781 1116.046875 376.988281 1117.40625 377.71875 1119.078125 C 378.03125 1119.808594 378.65625 1120.4375 379.179688 1121.0625 C 379.386719 1121.375 379.699219 1121.585938 379.910156 1121.898438 C 381.265625 1123.046875 382.625 1123.882812 384.398438 1124.40625 C 385.648438 1124.71875 387.007812 1124.929688 388.257812 1124.71875 C 389.09375 1124.71875 390.035156 1124.511719 390.867188 1124.300781 C 391.703125 1124.09375 392.644531 1123.675781 393.375 1123.257812 C 394.523438 1122.734375 395.566406 1121.898438 396.609375 1121.0625 C 397.445312 1120.332031 398.175781 1119.390625 398.90625 1118.554688 Z M 399.21875 1118.554688 "/></g><g clip-rule="nonzero" clip-path="url(#56344037b1)"><path style=" stroke:none;fill-rule:nonzero;fill:#000000;fill-opacity:1;" d="M 399.21875 1103.183594 C 399.949219 1102.242188 400.574219 1101.40625 401.203125 1100.46875 C 403.496094 1096.808594 405.585938 1093.152344 407.777344 1089.496094 C 409.96875 1085.835938 412.265625 1082.074219 414.457031 1078.417969 C 415.394531 1076.957031 416.230469 1075.386719 417.171875 1073.820312 C 417.171875 1077.894531 417.066406 1081.972656 417.171875 1086.046875 C 417.585938 1101.929688 419.257812 1117.8125 422.074219 1133.382812 C 424.789062 1148.636719 428.753906 1163.582031 434.601562 1177.894531 C 437.523438 1185.210938 440.863281 1192.421875 444.722656 1199.316406 C 448.792969 1206.632812 452.550781 1212.171875 457.667969 1218.753906 C 459.960938 1221.574219 462.257812 1224.5 464.761719 1227.113281 C 467.269531 1229.726562 470.296875 1232.128906 473.21875 1234.425781 C 474.15625 1235.160156 475.410156 1235.367188 476.453125 1234.636719 C 477.289062 1234.007812 477.808594 1232.441406 477.078125 1231.5 C 474.679688 1228.367188 472.589844 1224.917969 470.191406 1221.785156 C 468 1218.859375 465.910156 1215.828125 463.929688 1212.796875 C 459.859375 1206.527344 456.203125 1199.945312 452.96875 1193.152344 C 452.132812 1191.480469 451.402344 1189.808594 450.671875 1188.136719 C 450.359375 1187.40625 450.046875 1186.570312 449.628906 1185.835938 C 449.628906 1185.835938 449.316406 1185.210938 449.316406 1185 C 449.109375 1184.480469 448.898438 1183.957031 448.691406 1183.433594 C 447.332031 1179.984375 445.976562 1176.539062 444.828125 1173.089844 C 444.308594 1171.523438 443.890625 1169.953125 443.367188 1168.28125 C 443.574219 1168.28125 443.679688 1168.28125 443.890625 1168.179688 C 444.515625 1168.074219 445.039062 1167.96875 445.664062 1167.761719 C 447.960938 1167.027344 450.359375 1166.402344 452.65625 1165.773438 C 453.28125 1165.566406 453.910156 1165.355469 454.535156 1165.253906 L 456.519531 1164.835938 C 457.457031 1164.519531 458.292969 1164.101562 459.023438 1163.371094 C 459.542969 1162.847656 459.960938 1162.222656 460.171875 1161.492188 C 460.484375 1160.757812 460.691406 1160.027344 460.691406 1159.296875 C 460.691406 1158.25 460.378906 1157.3125 459.960938 1156.371094 C 459.648438 1155.847656 459.230469 1155.324219 458.8125 1154.804688 C 458.710938 1154.699219 458.605469 1154.488281 458.5 1154.386719 C 458.292969 1154.070312 457.980469 1153.863281 457.769531 1153.652344 C 456.832031 1152.921875 455.996094 1152.191406 454.847656 1151.667969 C 453.804688 1151.144531 452.65625 1150.726562 451.507812 1150.519531 C 450.671875 1150.414062 449.839844 1150.207031 449.003906 1150.207031 C 448.691406 1150.207031 448.273438 1150.207031 447.960938 1150.207031 C 447.125 1150.207031 446.289062 1150.414062 445.453125 1150.625 C 444.828125 1150.726562 444.203125 1151.144531 443.679688 1151.460938 C 443.679688 1151.460938 443.472656 1151.460938 443.472656 1151.5625 C 443.261719 1151.667969 443.160156 1151.878906 442.949219 1151.980469 C 442.53125 1152.296875 442.21875 1152.714844 441.90625 1153.027344 C 441.90625 1152.921875 442.113281 1152.816406 442.21875 1152.609375 C 442.011719 1152.816406 441.90625 1153.027344 441.800781 1153.132812 C 441.800781 1153.132812 441.699219 1153.132812 441.59375 1153.339844 C 441.59375 1153.339844 440.863281 1154.175781 440.550781 1154.699219 C 440.550781 1154.699219 440.339844 1154.699219 440.234375 1154.699219 C 440.027344 1154.699219 439.921875 1154.699219 439.714844 1154.699219 C 439.402344 1153.339844 438.984375 1151.980469 438.671875 1150.625 C 436.894531 1143.101562 435.433594 1135.367188 434.285156 1127.738281 C 434.183594 1126.902344 434.078125 1126.066406 433.871094 1125.230469 C 433.871094 1125.128906 433.871094 1124.605469 433.765625 1124.292969 C 433.765625 1124.292969 433.765625 1124.5 433.765625 1124.8125 C 433.765625 1124.292969 433.660156 1123.769531 433.554688 1123.246094 C 433.347656 1121.367188 433.140625 1119.484375 432.929688 1117.605469 C 432.511719 1113.632812 432.199219 1109.765625 431.886719 1105.796875 C 430.738281 1089.597656 430.632812 1073.402344 431.261719 1057.207031 C 431.886719 1039.441406 433.347656 1021.785156 434.703125 1004.019531 C 434.703125 1004.019531 434.703125 1003.914062 434.808594 1003.808594 C 434.808594 1003.808594 434.808594 1003.914062 434.808594 1004.019531 C 434.808594 1003.914062 434.808594 1003.808594 434.808594 1003.707031 C 434.808594 1003.707031 434.808594 1003.707031 434.808594 1003.601562 C 435.121094 1003.289062 435.332031 1002.972656 435.644531 1002.765625 C 435.957031 1002.554688 436.269531 1002.347656 436.480469 1002.136719 C 436.375 1002.242188 436.164062 1002.347656 436.0625 1002.453125 C 436.164062 1002.347656 436.375 1002.242188 436.480469 1002.136719 C 436.792969 1002.660156 437 1003.289062 437.417969 1003.808594 C 437.835938 1004.226562 438.253906 1004.542969 438.773438 1004.960938 C 439.296875 1005.378906 439.714844 1005.691406 440.234375 1006.003906 C 441.28125 1006.632812 442.429688 1007.050781 443.574219 1007.46875 C 444.828125 1007.886719 446.082031 1007.992188 447.332031 1008.09375 C 450.359375 1008.511719 453.492188 1008.199219 456.519531 1008.09375 C 458.605469 1007.886719 460.691406 1007.675781 462.78125 1007.257812 C 464.554688 1006.945312 466.226562 1006.316406 467.894531 1005.691406 C 468.832031 1005.273438 469.773438 1004.855469 470.609375 1004.332031 C 471.652344 1003.707031 472.695312 1002.871094 473.636719 1002.136719 C 474.050781 1001.71875 474.574219 1001.300781 474.886719 1000.882812 C 475.617188 1000.046875 476.347656 999.109375 476.871094 998.167969 C 477.183594 997.644531 477.496094 997.121094 477.707031 996.601562 C 478.121094 995.554688 478.644531 994.511719 478.957031 993.359375 C 479.269531 992.316406 479.375 991.167969 479.480469 990.015625 C 479.480469 989.390625 479.480469 988.761719 479.480469 988.242188 C 479.375 985.941406 478.855469 983.957031 477.808594 981.867188 C 477.390625 980.925781 476.660156 980.089844 475.929688 979.253906 C 475.199219 978.417969 474.367188 977.792969 473.425781 977.164062 C 471.339844 975.703125 468.9375 975.074219 466.433594 974.867188 C 465.703125 974.867188 464.972656 974.867188 464.242188 974.867188 C 462.988281 974.96875 461.632812 975.179688 460.484375 975.492188 C 458.5 976.015625 456.519531 976.851562 454.640625 977.792969 C 453.074219 978.523438 451.613281 979.359375 450.152344 980.195312 C 446.8125 982.074219 443.367188 983.957031 440.027344 985.835938 C 438.460938 986.671875 436.792969 987.613281 435.226562 988.449219 C 436.375 972.671875 437.417969 956.894531 437.730469 941.113281 C 438.042969 922.097656 437.417969 902.972656 435.019531 884.0625 C 432.511719 865.253906 428.753906 846.652344 424.371094 828.15625 C 421.03125 814.363281 417.691406 800.570312 414.457031 786.671875 C 414.457031 786.671875 414.5625 786.671875 414.664062 786.671875 L 415.605469 786.671875 C 416.230469 786.988281 416.960938 786.988281 417.585938 786.777344 C 418.734375 786.671875 418.527344 786.777344 419.570312 786.253906 C 419.988281 786.046875 420.300781 785.941406 420.71875 785.734375 C 420.925781 785.734375 421.136719 785.523438 421.34375 785.417969 C 422.074219 785.105469 422.804688 784.6875 423.535156 784.375 C 425 783.539062 426.5625 782.703125 427.921875 781.867188 C 431.261719 779.777344 434.390625 777.375 437.417969 774.65625 C 439.921875 772.460938 442.21875 769.953125 444.308594 767.34375 C 445.246094 766.191406 446.082031 765.042969 446.8125 763.789062 C 447.542969 762.535156 448.0625 761.28125 448.585938 759.921875 C 448.898438 759.191406 449.109375 758.355469 449.210938 757.625 C 449.316406 756.683594 449.523438 755.742188 449.523438 754.699219 C 449.523438 753.757812 449.316406 752.714844 449.210938 751.773438 C 449.003906 750.519531 448.480469 749.160156 447.855469 748.011719 C 447.75 747.800781 447.542969 747.488281 447.4375 747.28125 C 446.914062 746.546875 446.394531 745.816406 445.769531 745.191406 C 444.097656 743.519531 442.011719 742.367188 439.820312 741.636719 C 438.671875 741.324219 437.417969 741.113281 436.269531 741.007812 C 435.644531 741.007812 435.019531 741.007812 434.390625 741.007812 C 433.140625 741.007812 431.992188 741.21875 430.738281 741.53125 C 429.589844 741.84375 428.441406 742.367188 427.398438 742.785156 C 426.773438 743.097656 426.144531 743.414062 425.625 743.9375 C 424.582031 744.773438 423.535156 745.503906 422.597656 746.445312 C 421.65625 747.382812 420.925781 748.429688 420.09375 749.472656 C 419.675781 750.101562 419.152344 750.726562 418.839844 751.460938 C 418.003906 752.816406 417.378906 754.28125 416.753906 755.742188 C 416.023438 757.519531 415.292969 759.296875 414.5625 761.074219 C 413.621094 763.371094 412.683594 765.671875 411.847656 768.074219 C 411.535156 768.910156 411.222656 769.746094 410.90625 770.582031 C 409.238281 762.847656 407.566406 755.011719 406.316406 747.175781 C 406.003906 745.085938 405.6875 742.996094 405.375 740.90625 C 405.375 740.277344 405.167969 739.652344 405.167969 739.128906 C 405.167969 739.128906 405.167969 738.917969 405.167969 738.816406 C 404.957031 737.664062 404.855469 736.515625 404.75 735.367188 C 404.125 730.664062 403.707031 725.960938 403.394531 721.15625 C 402.035156 702.242188 402.558594 683.226562 404.125 664.417969 C 404.542969 659.609375 405.0625 654.699219 405.585938 649.890625 C 405.792969 647.59375 406.105469 645.292969 406.421875 642.996094 C 406.523438 641.949219 406.734375 640.90625 406.835938 639.859375 C 406.835938 639.234375 407.046875 638.605469 407.046875 637.980469 C 407.046875 637.875 407.046875 637.980469 407.046875 637.769531 C 407.046875 637.664062 407.046875 637.664062 407.046875 637.351562 C 408.402344 627.84375 409.863281 618.230469 411.429688 608.722656 C 414.5625 589.808594 418.003906 571 421.03125 552.191406 C 423.746094 535.261719 425.9375 518.230469 427.816406 501.199219 C 427.921875 501.199219 428.128906 500.988281 428.339844 500.882812 C 428.023438 501.09375 427.921875 501.199219 428.128906 500.988281 C 428.128906 500.988281 428.234375 500.988281 428.339844 500.882812 C 429.484375 500.882812 430.632812 500.882812 431.574219 500.675781 C 441.382812 497.957031 450.257812 492.941406 458.082031 486.359375 C 461.945312 483.015625 465.285156 479.253906 468.417969 475.179688 C 471.027344 471.730469 473.320312 468.074219 475.199219 464.101562 C 476.347656 461.699219 477.390625 459.191406 477.808594 456.578125 C 478.4375 453.128906 478.644531 450.101562 477.808594 446.652344 C 477.496094 445.1875 476.871094 443.621094 476.035156 442.367188 C 475.511719 441.425781 474.78125 440.589844 474.050781 439.753906 C 473.738281 439.441406 473.425781 439.128906 473.113281 438.816406 C 472.277344 438.1875 471.339844 437.351562 470.296875 436.828125 C 469.25 436.308594 468 435.679688 466.851562 435.472656 C 464.242188 434.949219 462.257812 434.949219 459.648438 435.472656 C 459.128906 435.472656 458.710938 435.679688 458.1875 435.890625 C 457.039062 436.308594 455.890625 436.828125 454.847656 437.351562 C 453.28125 438.1875 451.820312 439.335938 450.464844 440.488281 C 448.0625 442.367188 446.289062 444.769531 444.515625 447.175781 C 441.382812 451.25 438.359375 455.535156 435.75 459.921875 C 434.390625 462.117188 433.242188 464.3125 431.992188 466.609375 C 431.574219 467.445312 431.261719 468.28125 430.84375 469.011719 C 433.140625 438.5 434.285156 407.78125 434.285156 377.164062 C 434.285156 338.398438 432.824219 299.734375 430.320312 261.070312 C 427.921875 222.304688 424.582031 183.746094 420.925781 145.085938 C 420.09375 135.472656 419.152344 125.855469 417.902344 116.347656 C 417.585938 114.050781 416.960938 112.0625 415.292969 110.390625 C 414.039062 109.136719 411.324219 107.988281 409.027344 107.988281 C 404.332031 108.199219 399.21875 112.0625 399.742188 117.289062 C 400.15625 122.199219 400.367188 127.113281 400.886719 132.023438 C 401.304688 136.933594 401.828125 141.84375 402.246094 146.757812 C 403.183594 156.371094 404.019531 165.984375 404.855469 175.597656 C 406.628906 195.03125 408.296875 214.46875 409.761719 233.902344 C 412.785156 272.671875 415.082031 311.4375 415.917969 350.308594 C 416.230469 363.160156 416.335938 375.910156 416.230469 388.761719 C 415.8125 388.449219 415.394531 388.03125 414.976562 387.71875 C 413.621094 386.777344 411.953125 386.152344 410.386719 385.523438 C 409.34375 385.105469 408.296875 384.792969 407.253906 384.582031 C 405.585938 384.269531 403.914062 383.957031 402.347656 383.957031 C 401.828125 383.957031 401.304688 383.957031 400.886719 383.957031 C 399.742188 384.0625 398.59375 384.164062 397.546875 384.480469 C 397.027344 384.582031 396.609375 384.6875 396.085938 384.898438 C 395.042969 385.316406 394 385.734375 393.058594 386.253906 C 392.121094 386.777344 391.285156 387.507812 390.453125 388.136719 C 390.136719 388.449219 389.824219 388.660156 389.511719 389.078125 C 388.886719 389.808594 388.15625 390.75 387.632812 391.6875 C 387.214844 392.421875 386.902344 393.257812 386.589844 393.988281 C 386.589844 394.195312 386.378906 394.40625 386.378906 394.71875 C 385.859375 396.914062 385.859375 399.109375 386.378906 401.300781 C 386.589844 402.347656 387.113281 403.390625 387.527344 404.332031 C 387.738281 404.75 387.945312 405.167969 388.257812 405.480469 C 388.886719 406.316406 389.511719 407.257812 390.347656 407.988281 C 391.183594 408.722656 392.121094 409.453125 392.957031 410.078125 C 395.148438 411.75 397.652344 412.796875 400.15625 413.839844 C 402.558594 414.78125 405.0625 415.722656 407.566406 416.140625 C 408.925781 416.453125 410.28125 416.558594 411.636719 416.765625 C 412.265625 416.765625 412.996094 416.765625 413.621094 416.765625 C 414.351562 416.765625 415.1875 416.558594 415.917969 416.453125 C 415.5 433.066406 414.875 449.785156 413.621094 466.402344 C 412.265625 485.734375 410.386719 505.0625 407.777344 524.394531 C 407.777344 524.917969 407.671875 525.335938 407.566406 525.859375 C 407.359375 527.113281 407.253906 528.46875 407.046875 529.722656 C 406.734375 532.128906 406.316406 534.53125 406.003906 537.039062 C 405.273438 541.742188 404.542969 546.441406 403.8125 551.144531 C 402.246094 560.757812 400.574219 570.476562 399.007812 580.089844 C 397.863281 586.988281 396.714844 593.882812 395.566406 600.675781 C 394.207031 598.167969 392.746094 595.765625 390.765625 593.675781 C 389.511719 592.421875 388.050781 591.269531 386.589844 590.226562 C 385.128906 589.179688 383.457031 588.449219 381.683594 587.824219 C 381.164062 587.613281 380.640625 587.507812 380.015625 587.40625 C 379.179688 587.195312 378.34375 587.089844 377.40625 587.089844 C 377.089844 587.089844 376.882812 587.089844 376.570312 587.089844 C 375.421875 587.089844 374.273438 587.300781 373.125 587.507812 C 372.082031 587.71875 370.933594 588.242188 369.996094 588.761719 C 368.949219 589.285156 368.117188 590.015625 367.28125 590.75 C 366.445312 591.480469 365.820312 592.421875 365.089844 593.257812 C 364.777344 593.675781 364.460938 594.195312 364.253906 594.613281 C 363.835938 595.554688 363.316406 596.601562 363.105469 597.75 C 363.105469 597.957031 363 598.273438 363 598.480469 C 362.898438 599.316406 362.6875 600.257812 362.6875 601.09375 C 362.6875 601.617188 362.6875 602.242188 362.6875 602.765625 C 362.792969 603.914062 362.898438 605.0625 363.210938 606.109375 C 363.523438 607.152344 363.941406 608.199219 364.460938 609.242188 C 364.671875 609.765625 364.984375 610.289062 365.402344 610.707031 C 366.132812 611.648438 366.863281 612.691406 367.699219 613.527344 C 368.535156 614.363281 369.472656 615.09375 370.410156 615.722656 C 370.933594 616.140625 371.457031 616.453125 372.082031 616.664062 C 373.75 617.5 375.527344 618.230469 377.300781 618.753906 C 377.925781 618.855469 378.554688 619.066406 379.179688 619.066406 C 380.535156 619.273438 381.789062 619.484375 383.144531 619.484375 C 385.335938 619.484375 387.527344 619.273438 389.71875 618.960938 C 390.765625 618.855469 391.703125 618.542969 392.746094 618.335938 C 388.78125 643.933594 385.648438 669.746094 385.441406 695.660156 C 385.234375 715.09375 386.902344 734.53125 390.136719 753.652344 C 393.269531 771.941406 397.652344 789.914062 402.347656 807.78125 C 405.6875 820.632812 409.027344 833.488281 412.160156 846.339844 C 411.429688 846.339844 410.59375 846.027344 409.863281 846.027344 C 405.898438 845.816406 401.722656 846.339844 397.964844 847.59375 C 395.878906 848.324219 393.792969 849.160156 391.914062 850.207031 C 390.035156 851.25 388.363281 852.503906 386.695312 853.863281 C 383.769531 856.160156 381.371094 859.085938 379.285156 862.222656 C 378.136719 863.894531 377.300781 865.773438 376.464844 867.65625 C 375.628906 869.640625 375.003906 871.523438 374.484375 873.613281 C 374.691406 873.089844 374.898438 872.566406 375.109375 872.042969 C 374.585938 872.984375 374.066406 874.03125 373.960938 875.074219 C 373.75 876.328125 373.648438 877.476562 373.960938 878.730469 C 374.167969 879.253906 374.378906 879.777344 374.691406 880.402344 C 375.109375 881.238281 375.734375 881.867188 376.464844 882.285156 C 376.882812 882.703125 377.40625 883.015625 378.03125 883.121094 C 378.554688 883.433594 379.179688 883.539062 379.804688 883.539062 C 380.429688 883.746094 381.058594 883.746094 381.578125 883.539062 C 382.519531 883.539062 383.355469 883.226562 384.085938 882.703125 C 393.6875 877.375 403.394531 872.148438 412.890625 866.714844 C 414.039062 866.089844 415.1875 865.460938 416.335938 864.835938 C 418.003906 872.777344 419.464844 880.613281 420.613281 888.660156 C 420.613281 888.761719 420.613281 888.660156 420.613281 888.867188 C 420.613281 888.867188 420.613281 888.867188 420.613281 889.078125 L 420.613281 890.332031 C 420.925781 891.585938 421.03125 892.839844 421.242188 894.09375 C 421.554688 896.601562 421.761719 899.210938 421.972656 901.71875 C 422.390625 906.421875 422.703125 911.019531 422.910156 915.722656 C 424.789062 954.59375 420.511719 993.464844 418.109375 1032.234375 C 417.585938 1040.59375 417.171875 1049.054688 416.855469 1057.519531 C 416.230469 1057.519531 415.5 1057.625 414.976562 1058.042969 C 414.144531 1058.566406 413.414062 1059.191406 412.785156 1059.820312 C 410.804688 1059.609375 408.820312 1059.820312 406.941406 1060.339844 C 405.6875 1060.65625 404.542969 1061.175781 403.496094 1061.804688 C 402.765625 1062.222656 402.035156 1062.640625 401.304688 1063.164062 C 399.425781 1064.519531 397.757812 1065.984375 396.191406 1067.65625 C 393.582031 1070.582031 391.183594 1073.820312 388.675781 1076.851562 C 387.320312 1078.523438 385.964844 1080.195312 384.605469 1081.972656 C 383.144531 1083.851562 381.578125 1085.734375 380.222656 1087.613281 C 379.074219 1089.285156 378.136719 1091.167969 377.40625 1093.152344 C 377.089844 1093.882812 376.882812 1094.613281 376.777344 1095.347656 C 376.570312 1096.496094 376.359375 1097.75 376.464844 1098.898438 C 376.675781 1100.675781 376.988281 1102.035156 377.71875 1103.707031 C 378.03125 1104.4375 378.65625 1105.066406 379.179688 1105.691406 C 379.386719 1106.003906 379.699219 1106.214844 379.910156 1106.527344 C 381.265625 1107.675781 382.625 1108.511719 384.398438 1109.035156 C 385.648438 1109.347656 387.007812 1109.558594 388.257812 1109.347656 C 389.09375 1109.347656 390.035156 1109.140625 390.867188 1108.929688 C 391.703125 1108.722656 392.644531 1108.304688 393.375 1107.886719 C 394.523438 1107.363281 395.566406 1106.527344 396.609375 1105.691406 C 397.445312 1104.960938 398.175781 1104.019531 398.90625 1103.183594 Z M 399.21875 1103.183594 "/></g></g></svg>